<svg version="1.0" viewBox="0 0 242.89 143.94" xmlns="http://www.w3.org/2000/svg">
  <path d="M.299.144v14.313h14.87c1.844 0 3.338 1.536 3.339 3.43v71.08c0 1.894-1.495 3.43-3.338 3.43H.299v14.34h40.054V.147zm52.533 0v106.59h40.054v-14.34H78.015c-1.844 0-3.338-1.536-3.338-3.43v-71.08c0-1.894 1.494-3.43 3.338-3.43h14.87V.14z" fill="url(#a)" transform="matrix(1 0 0 1.3 2 2)"/>
  <path transform="translate(2 2)" d="M0 0v19.406h15.17c.807-.003 1.58.423 2.15 1.185.57.763.891 1.797.89 2.875v92.403c.001 1.077-.32 2.112-.89 2.874-.57.763-1.343 1.191-2.15 1.188H0v19.439h40.652V0zm52.533 0v139.37h40.652v-19.439h-15.17c-.807.003-1.582-.425-2.152-1.187-.57-.763-.89-1.797-.887-2.875V23.467c-.002-1.078.316-2.113.887-2.875.57-.763 1.345-1.19 2.152-1.186h15.17V0zm159.93 29.717c-4.28 0-8.458 1.27-12.531 3.809-4.073 2.485-7.44 6.024-10.1 10.617-2.618 4.592-3.928 9.565-3.928 14.914 0 .648.021 1.297.063 1.945.332 7.726 2.972 14.48 7.918 20.262 1.704 2.053 5.112 5.294 10.225 9.725.25.216 1.08.944 2.494 2.187 1.455 1.243 2.473 2.135 3.055 2.676.623.54 1.62 1.485 2.992 2.836 1.371 1.35 2.39 2.46 3.055 3.324.706.864 1.58 1.997 2.619 3.402 1.039 1.405 1.808 2.702 2.306 3.89.499 1.135.935 2.433 1.309 3.891.415 1.405.623 2.81.623 4.215 0 5.403-1.142 9.375-3.428 11.914-2.286 2.54-5.175 3.809-8.666 3.809-2.66 0-5.237-.919-7.73-2.756-2.453-1.891-4.53-4.215-6.235-6.97a55.525 55.525 0 0 1-4.177-8.428c-1.081-2.864-1.766-5.458-2.057-7.782-.125-.864-.665-1.297-1.621-1.297-.374 0-1.02.27-1.934.811-.873.54-1.432 1.027-1.681 1.459.166 2.756.56 7.241 1.183 13.455.624 6.16 1.227 10.86 1.809 14.102 9.268 2.81 17.164 4.215 23.689 4.215 4.613 0 8.979-1.217 13.094-3.649 4.115-2.485 7.481-6.05 10.1-10.697 2.66-4.7 3.988-9.915 3.988-15.643 0-1.89-.124-3.7-.373-5.43-.208-1.782-.457-3.35-.748-4.7-.25-1.405-.706-2.837-1.371-4.295a192.351 192.351 0 0 0-1.559-3.567c-.415-.972-1.102-2.08-2.058-3.322a91.183 91.183 0 0 0-2.182-2.756c-.457-.648-1.289-1.541-2.494-2.676a235.877 235.877 0 0 0-2.432-2.267 135.441 135.441 0 0 0-2.617-2.27 194.183 194.183 0 0 0-2.494-2.107 314.708 314.708 0 0 1-4.926-4.297c-1.163-1.135-2.701-2.7-4.613-4.7-1.912-2.053-3.408-3.864-4.488-5.431-1.04-1.62-1.974-3.457-2.805-5.51s-1.248-4.053-1.248-5.998c0-4.97 1.039-8.564 3.117-10.779 2.12-2.215 4.615-3.322 7.483-3.322 2.286 0 4.446.837 6.482 2.512 2.037 1.675 3.72 3.808 5.05 6.402a46.765 46.765 0 0 1 3.366 7.861c.873 2.702 1.434 5.27 1.684 7.701.166.757 1.412 1.133 3.74 1.133.54 0 .999-.322 1.373-.97-.416-11.13-.874-20.1-1.373-26.909-1.08-.324-2.847-.838-5.299-1.54a213.67 213.67 0 0 0-5.486-1.54c-1.206-.324-2.764-.648-4.676-.972a32.84 32.84 0 0 0-5.486-.487zm-75.186.486c-7.73 0-14.92 2.54-21.57 7.62-6.65 5.078-11.908 11.912-15.773 20.503-7.355 16.716-7.607 36.971 0 55.111 3.865 8.16 9.06 14.536 15.586 19.13 6.567 4.592 13.736 6.888 21.508 6.888 3.574 0 7.19-.46 10.848-1.379 3.658-.918 6.546-1.837 8.666-2.756 2.12-.918 4.925-2.241 8.416-3.97 2.91-1.46 4.365-2.864 4.365-4.215 0-.216-.125-.919-.375-2.108-.25-1.188-.373-2.051-.373-2.591V105.09c0-1.513.145-2.97.436-4.375.332-1.405.686-2.27 1.06-2.594.624-.486 1.726-.947 3.305-1.379 1.58-.486 2.68-.728 3.303-.728.124 0 .23-.353.312-1.055.083-.703.104-1.54.063-2.512 0-.972-.084-1.783-.25-2.431-1.08.054-2.66.19-4.739.406-2.078.162-3.988.296-5.734.404a76.99 76.99 0 0 1-4.863.162c-1.87 0-3.867-.054-5.987-.162-2.12-.108-4.487-.242-7.105-.404-2.577-.216-4.573-.352-5.986-.406-.291.432-.436 1.539-.436 3.322.042 1.783.228 2.676.56 2.676.873 0 1.768.08 2.682.242.956.108 2.056.514 3.303 1.217 1.247.702 1.997 1.675 2.246 2.918.416 1.999.623 4.753.623 8.265v18.803c0 1.135-.375 1.946-1.123 2.432-2.992 1.729-6.233 2.594-9.725 2.594-4.239 0-8.085-1.432-11.535-4.295-3.408-2.864-6.192-6.673-8.353-11.428-2.12-4.81-3.741-10.185-4.863-16.13-1.123-5.943-1.682-12.128-1.682-18.558 0-4.755.25-9.213.748-13.373a71.894 71.894 0 0 1 2.617-12.158c1.206-3.945 2.722-7.322 4.551-10.131s4.156-5.052 6.982-6.727c2.868-1.675 6.09-2.512 9.665-2.512 3.325 0 6.358.595 9.101 1.784 2.743 1.188 4.926 2.592 6.547 4.212 1.621 1.621 3.054 3.567 4.3 5.836 1.248 2.216 2.121 4.133 2.62 5.754a46.7 46.7 0 0 1 1.248 4.783c.332.433.913.649 1.744.649.748 0 1.475-.27 2.182-.81.706-.595 1.06-1.135 1.06-1.622 0-.756-.706-4.998-2.119-12.725-1.413-7.78-2.119-11.698-2.119-11.752-7.772-2.053-16.418-3.08-25.936-3.08z" fill="url(#b)" stroke="url(#c)" stroke-width="4" aria-label="GS"/>
  <defs>
    <radialGradient id="b" cx="-35.238" cy="118.59" r="119.45" gradientTransform="matrix(9.2011 -.64447 .05937 .84759 281.95 -24.773)" gradientUnits="userSpaceOnUse">
      <stop stop-color="#646464" offset="0"/>
      <stop stop-color="#c8c8c8" offset=".293"/>
      <stop stop-color="#646464" offset=".973"/>
      <stop stop-color="#c8c8c8" offset="1"/>
    </radialGradient>
    <radialGradient id="c" cx="-72.619" cy="107.64" r="121.45" gradientTransform="matrix(3.763 -.09425 .02978 1.1892 375.29 -63.305)" gradientUnits="userSpaceOnUse">
      <stop stop-color="#646464" offset="0"/>
      <stop stop-opacity="0" offset="1"/>
    </radialGradient>
    <linearGradient id="a" x1="97.335" x2="99.112" y1="136.82" y2="-4.541" gradientTransform="translate(-2.486 -2.722)" gradientUnits="userSpaceOnUse">
      <stop stop-color="#646464" offset="0"/>
      <stop stop-color="#b5b5b5" offset=".257"/>
      <stop stop-color="#515151" offset=".604"/>
      <stop stop-color="#c8c8c8" offset="1"/>
    </linearGradient>
  </defs>
</svg>
