<svg viewBox="0 0 71.12 187.82" xmlns="http://www.w3.org/2000/svg">
  <radialGradient id="a" cx="109.2" cy="155.13" r="36.658" gradientTransform="translate(-69.44 -3.741)" gradientUnits="userSpaceOnUse">
    <stop stop-color="#FFE41B" offset=".522"/>
    <stop stop-color="#716A13" offset=".893"/>
    <stop stop-color="#49482E" offset="1"/>
  </radialGradient>
  <path d="M5.203 157.38c0-16.812 13.587-30.434 30.357-30.434 16.769 0 30.356 13.622 30.356 30.434 0 16.811-13.588 30.434-30.356 30.434-16.77 0-30.357-13.623-30.357-30.434z" fill="url(#a)"/>
  <path d="M7.287 78.022C2.819 81.001 1.63 98.308 1.63 98.308s1.189 17.308 5.657 20.287c4.462 2.985 28.273 4.775 28.273 4.775s23.812-1.79 28.272-4.775c4.469-2.979 5.658-20.287 5.658-20.287S68.301 81 63.832 78.022c-4.46-2.987-28.272-4.777-28.272-4.777s-23.811 1.79-28.273 4.777z" fill="#0000a0"/>
  <path d="M35.56 71.294 0 35.651 35.56 0l35.56 35.651z" fill="red"/>
</svg>
