<?xml version="1.0" encoding="UTF-8"?>
<svg viewBox="0 0 191.98 191.98" xml:space="preserve" xmlns="http://www.w3.org/2000/svg">
  <defs>
    <radialGradient id="d" cx="64.495" cy="63.496" r="141.24" gradientTransform="translate(-.002 -.025)" gradientUnits="userSpaceOnUse">
      <stop stop-color="#fff" offset=".332"/>
      <stop stop-color="#ddd" offset=".6"/>
      <stop stop-color="#7E8283" offset="1"/>
    </radialGradient>
    <radialGradient id="c" cx="62.508" cy="62.505" r="143.36" gradientTransform="translate(-.002 -.025)" gradientUnits="userSpaceOnUse">
      <stop stop-color="#fff" offset="0"/>
      <stop stop-color="#FFE3D2" offset=".12"/>
      <stop stop-color="red" offset=".55"/>
      <stop stop-color="#4E1E1C" offset="1"/>
    </radialGradient>
  </defs>
  <circle cx="96.001" cy="95.978" r="95.978" fill="url(#d)"/>
  <path d="M169.04 40.619c-9.66-16.801-24.57-29.801-43.38-35.92C106.84-1.412 87.139.348 69.45 8.258l14.17 4.601C97.42 3.689 112.2.329 125.66 4.7c13.46 4.379 23.44 15.779 29.21 31.309zM133.8 29.167c.021-13.66-2.64-22.68-8.14-24.469-5.5-1.781-12.96 3.949-20.97 15.01zm-14.36 74.42c4.59-14.129 8.12-27.789 10.52-40.209l-42.27-13.74c-5.36 11.47-10.53 24.59-15.13 38.73zm-57.4 24.991c-2.53 13.051-3.83 24.75-3.84 34.211l29.11 9.459c5.55-7.66 11.38-17.89 17-29.93zm-45.98 20.52c11.56 17.42 28.86 31.2 50.28 38.159 21.42 6.961 43.521 5.98 63.11-1.319l-6.9-2.239c-17.689 7.909-37.39 9.67-56.21 3.559-18.81-6.119-33.72-19.119-43.38-35.92zm21.07 6.851c5.77 15.529 15.75 26.93 29.21 31.309 13.46 4.371 28.24 1.011 42.04-8.159l-21.07-6.851c-8.01 11.061-15.47 16.791-20.97 15.01-5.5-1.789-8.16-10.809-8.14-24.469zm-26.269-43.991c1.22 14.26 5.399 27.729 12.1 39.379l14.17 4.611c-4-10.771-5.98-23.531-5.69-37.311zm111.69 71.741c12.271-5.48 23.57-13.931 32.94-24.75l-20.58-6.691c-7.87 11.32-16.96 20.471-26.53 26.841zM4.721 66.319C.131 80.46-1.008 94.889.851 108.7l10.01 3.26c-1.16-13.59.37-27.891 4.96-42.03zm160.78 95.881c9.62-10.08 17.18-22.421 21.78-36.561l-11.1-3.61c-4.6 14.14-11.77 26.61-20.689 36.921zM38.641 77.338c-4.59 14.141-6.92 28.19-7.2 41.301l30.6 9.939c2.4-12.42 5.93-26.08 10.52-40.209zm96.271 74.92c7.479-10.77 13.85-23.51 18.45-37.639l-33.92-11.031c-4.6 14.141-9.77 27.261-15.13 38.73zm41.269-30.229c4.59-14.14 6.12-28.44 4.96-42.03l-20.58-6.68c-.28 13.11-2.61 27.16-7.2 41.301zM36.511 33.008c-8.92 10.311-16.09 22.781-20.689 36.921l22.819 7.409c4.601-14.129 10.971-26.869 18.45-37.639zm124.05 40.311c.29-13.779-1.69-26.54-5.69-37.311l-21.07-6.84c-.01 9.471-1.31 21.16-3.84 34.211zm-76.939-60.46c-9.57 6.36-18.66 15.521-26.53 26.841l30.6 9.939c5.62-12.04 11.44-22.27 17-29.93zm107.53 70.399a96.33 96.33 0 0 0-15.21-40.399l-6.9-2.239c6.7 11.649 10.88 25.119 12.1 39.379zM62.552 6.019c-13.58 5.06-25.95 13.149-36.05 23.739l10.01 3.25c9.37-10.819 20.67-19.27 32.94-24.75z" fill="url(#c)"/>
</svg>
