<svg viewBox="0 0 119.56 119.68" xmlns="http://www.w3.org/2000/svg">
  <path d="M113.347 1.019h6.208v39.02h-6.208zM15.332.03a4.536 4.536 0 0 0-4.27 2.944v.03L0 40.04h6.631l2.555-10.06h12.323l2.684 10.061h6.793L19.633 2.973h-.032A4.556 4.556 0 0 0 15.33.029zm-.066 8.507 4.27 16.236h-8.442zM27.396.872V6.11h9.638v33.928h6.21V6.111h9.67V.87zm73.027 24.999a2.161 2.161 0 0 1-.29-1.095c0-.373.094-.711.241-1.002.23-.362.642-.57.916-.743 3.233-1.966 5.528-6.096 5.528-10.88 0-6.415-4.038-11.672-9.046-12.078C97.148-.01 95.741 0 95.741 0h-7.066.004c-2.45 0-4.444 2.653-4.444 5.923l.01.01v34.1h6.034V8.368h-.004c0-.994.604-1.803 1.347-1.803h4.071c.37 0 1.475.029 1.694.07v.002c1.8.197 3.263 1.908 3.687 4.17.023.093.04.184.052.278v.02c.024.138.035.27.047.404.022.21.026.425.026.642 0 2.084-.86 3.906-2.135 4.852a5.622 5.622 0 0 1-.807.535 6.408 6.408 0 0 1-.676.342c-1.628.766-2.326 1.22-3.006 2.09-.762 1.064-1.244 2.5-1.256 4.089-.013 1.492.377 2.856 1.04 3.912l7.665 12.07h7.179l-8.78-14.17M65.503.03a4.539 4.539 0 0 0-4.27 2.944v.03L50.172 40.04h6.63l2.555-10.06H71.68l2.685 10.061h6.791L69.805 2.973h-.034A4.556 4.556 0 0 0 65.502.029zm-.065 8.507 4.27 16.236h-8.442zm25.285 111.104H73.749V64.527h-16.27v-17.04h49.857v17.04H90.804ZM52.108 50.255v17.526c-6.505-3.73-17.533-6.697-19.77-3.265-2.28 3.028-.982 6.758 3.296 9.383 6.412 3.716 13.888 6.411 17.557 14.275 4.594 9.55.83 24.292-7.906 27.972-8.072 3.894-14.2 4.283-23.46 2.56-1.316-.289-5.666-1.6-8.363-2.405-.057-3.02.043-15.22 0-19.361 5.8 3.843 10.574 7.091 16.855 6.732 3.94.327 7.568-4.698 2.93-8.808-5.756-4.444-13.235-5.92-17.618-12.67-3.56-5.126-4.335-13.475-2.307-19.899 2.1-8.48 7.92-12.305 14.874-14.134 8.175-1.45 16.724-.474 23.912 2.094z" fill="#0089df"/>
</svg>
