<svg viewBox="0 0 119.56 119.68" xmlns="http://www.w3.org/2000/svg">
  <path d="M113.347 1.019h6.208v39.02h-6.208zM15.332.03a4.536 4.536 0 0 0-4.27 2.944v.03L0 40.04h6.631l2.555-10.06h12.323l2.684 10.061h6.793L19.633 2.973h-.032A4.556 4.556 0 0 0 15.33.029zm-.066 8.507 4.27 16.236h-8.442zM27.396.872V6.11h9.638v33.928h6.21V6.111h9.67V.87zm73.027 24.999a2.161 2.161 0 0 1-.29-1.095c0-.373.094-.711.241-1.002.23-.362.642-.57.916-.743 3.233-1.966 5.528-6.096 5.528-10.88 0-6.415-4.038-11.672-9.046-12.078C97.148-.01 95.741 0 95.741 0h-7.066.004c-2.45 0-4.444 2.653-4.444 5.923l.01.01v34.1h6.034V8.368h-.004c0-.994.604-1.803 1.347-1.803h4.071c.37 0 1.475.029 1.694.07v.002c1.8.197 3.263 1.908 3.687 4.17.023.093.04.184.052.278v.02c.024.138.035.27.047.404.022.21.026.425.026.642 0 2.084-.86 3.906-2.135 4.852a5.622 5.622 0 0 1-.807.535 6.408 6.408 0 0 1-.676.342c-1.628.766-2.326 1.22-3.006 2.09-.762 1.064-1.244 2.5-1.256 4.089-.013 1.492.377 2.856 1.04 3.912l7.665 12.07h7.179l-8.78-14.17M65.503.03a4.539 4.539 0 0 0-4.27 2.944v.03L50.172 40.04h6.63l2.555-10.06H71.68l2.685 10.061h6.791L69.805 2.973h-.034A4.556 4.556 0 0 0 65.502.029zm-.065 8.507 4.27 16.236h-8.442z" fill="#0089df"/>
  <text x="34.767" y="119.521" fill="#0089df" font-family="'SF Atarian System'" font-size="111.16" font-weight="400" letter-spacing="0" stroke-width="3.474" word-spacing="0" style="line-height:1.25" xml:space="preserve"><tspan x="34.767" y="119.521">8</tspan></text>
</svg>
