<svg xmlns="http://www.w3.org/2000/svg" width="1426.609" height="1151.728" viewBox="0 0 109.995 88.801">
  <path fill-rule="evenodd" clip-rule="evenodd" fill="#fff" d="m116.622 176.92.017-184.299-123.15-.012V176.92Z"/>
  <path fill-rule="evenodd" clip-rule="evenodd" fill="#cf4037" d="M109.995 78.093v10.708H65.606V78.093Z"/>
  <path d="M23.617 68.451c-1.082-.558-1.623-1.793-1.623-3.705V37.16c.937.037 1.631.054 2.082.054h3.219c6.923 0 12.62 1.136 17.092 3.408 4.471 2.271 6.708 6.509 6.708 12.711 0 6.239-1.912 10.458-5.733 12.657-3.824 2.201-8.565 3.299-14.226 3.299-3.932 0-6.438-.278-7.519-.838zm12.603 4.841c6.167 0 11.359-.847 15.578-2.542 8.005-3.245 12.007-9.195 12.007-17.85 0-5.155-1.803-9.168-5.408-12.035-3.607-2.867-7.952-4.912-13.036-6.14 4.11-1.009 7.194-2.288 9.249-3.84 3.64-2.705 5.462-6.67 5.462-11.9 0-6.959-2.605-11.863-7.815-14.712C47.046 1.424 40.006 0 31.135 0H.087v2.056c4.471.216 7.365.911 8.681 2.082 1.315 1.173 1.975 3.796 1.975 7.871v49.276c0 4.147-.659 6.788-1.975 7.924-1.316 1.136-4.21 1.831-8.681 2.083v2.001H36.22ZM21.994 32.941V7.951c0-1.766.271-2.848.811-3.245.541-.396 1.964-.595 4.273-.595 6.093 0 10.637.632 13.63 1.893 5.409 2.309 8.113 6.761 8.113 13.36 0 5.59-2.344 9.466-7.031 11.629-2.453 1.119-5.536 1.714-9.25 1.785z" fill-rule="evenodd" clip-rule="evenodd" fill="#2360a5"/>
  <path d="M94.286 30.108c.973 1.768 1.658 4.454 2.055 8.06H73.515c.504-2.957 1.334-5.409 2.488-7.356 2.164-3.642 5.301-5.463 9.412-5.463 4.146-.001 7.103 1.586 8.871 4.759zm-22.502-.812c-4.291 5.265-6.438 11.522-6.438 18.769 0 6.672 1.848 12.568 5.545 17.688 3.695 5.121 8.934 7.68 15.713 7.68 5.877 0 10.846-1.947 14.902-5.841 4.057-3.895 6.824-8.131 8.303-12.711l-1.893-.65c-2.201 3.643-4.598 6.456-7.195 8.438-2.596 1.984-5.787 2.975-9.574 2.975-4.688 0-8.744-1.91-12.17-5.733-3.426-3.822-5.318-9.916-5.68-18.282h34.348c0-6.454-1.91-11.44-5.732-14.956-3.824-3.516-8.277-5.274-13.361-5.274-6.887 0-12.479 2.634-16.768 7.897z" fill-rule="evenodd" clip-rule="evenodd" fill="#cf4037"/>
  <path fill-rule="evenodd" clip-rule="evenodd" fill="#2360a5" d="M65.637 78.127v10.66H0v-10.66z"/>
</svg>
