<svg width="848.16" height="848.16" version="1.0" viewBox="-0.966 -0.966 183.56 183.2" xmlns="http://www.w3.org/2000/svg">
  <circle cx="90.814" cy="90.78" r="91.78" fill="#35538b"/>
  <path d="m55.98 136.17 23.628-3.967-23.627-3.967v7.934" fill="#d30437" fill-rule="evenodd"/>
  <path d="M85.817 123.58h9.658v-6.726h-9.658zm0 22.076h9.658v-18.97h-9.658z" fill="#fff" fill-rule="evenodd"/>
  <g fill="#fff" fill-rule="evenodd">
    <path d="M51.07 85.348c-6.467 0-11.71 1.967-11.71 4.39 0 2.425 5.243 4.39 11.71 4.39 6.464 0 11.706-1.964 11.706-4.39 0-2.423-5.242-4.39-11.707-4.39zm0 2.107c4.847 0 8.778 1.022 8.778 2.283 0 1.262-3.931 2.284-8.778 2.284-4.85 0-8.782-1.022-8.782-2.283 0-1.262 3.932-2.284 8.782-2.284"/>
    <path d="M84.461 92.777c-4.331 4.31-17.644 7.449-33.391 7.449-19.264 0-34.88-4.695-34.88-10.488 0-5.792 15.616-10.487 34.88-10.487 15.536 0 28.702 3.055 33.212 7.276l13.383-.032c-4.437-7.336-23.614-12.854-46.596-12.854-26.268 0-47.562 7.207-47.562 16.098 0 8.89 21.294 16.097 47.563 16.097 23.078 0 42.32-5.564 46.648-12.945l-13.257-.114m26.627-11.408h27.853c15.289 0 27.684 3.023 27.684 8.973 0 5.778-12.395 8.974-27.684 8.974l-27.853-.006zm-10.866-5.428v28.74h38.891c21.89 0 39.463-5.459 39.463-14.34 0-9.054-17.745-14.34-39.635-14.34l-38.719-.06"/>
  </g>
</svg>
