<svg viewBox="0 0 196 196" xmlns="http://www.w3.org/2000/svg">
  <defs>
    <linearGradient id="a" x1="50%" x2="50%" y1="50%" y2="100%">
      <stop stop-color="#fff" offset="0"/>
      <stop stop-color="#E9E5E5" offset="1"/>
    </linearGradient>
    <linearGradient id="b" x1="104.61" x2="104.61" y1="15.962" y2="37.039" gradientTransform="matrix(.29209 0 0 3.4236 -5 0)" gradientUnits="userSpaceOnUse">
      <stop stop-color="#ff971a" offset="0"/>
      <stop stop-color="#e75e50" offset="1"/>
    </linearGradient>
    <linearGradient id="c" x1="54.805" x2="101.43" y1="58.308" y2="109.8" gradientTransform="scale(.93053 1.0746)" gradientUnits="userSpaceOnUse">
      <stop stop-color="#ff6700" offset="0"/>
      <stop stop-color="#e86265" offset=".374"/>
      <stop stop-color="#b278d1" offset=".717"/>
      <stop stop-color="#4292f5" offset="1"/>
    </linearGradient>
    <linearGradient id="d" x1="149.64" x2="201.02" y1="47.501" y2="108.7" gradientTransform="matrix(.82996 0 0 1.2049 5 0)" gradientUnits="userSpaceOnUse">
      <stop stop-color="#9b78d8" offset="0"/>
      <stop stop-color="#00a7ff" offset=".499"/>
      <stop stop-color="#4dc478" offset="1"/>
    </linearGradient>
  </defs>
  <g fill-rule="evenodd" stroke-width="3.3">
    <rect x="1" y="1" width="194" height="194" rx="45" fill="url(#a)" stroke="#D9D9D9"/>
    <path d="M25.437 52.648c-2.818-.021-5.358 2.431-5.408 5.253-.212 2.858 2.203 5.533 5.05 5.693 2.821.303 5.655-1.872 5.962-4.715.437-2.75-1.557-5.587-4.295-6.104a5.8 5.8 0 0 0-1.309-.127zm-4.12 23.913v62.978h8.565V74.561h-8.564v2z" fill="url(#b)"/>
    <path d="M76.145 52.654c-7.842.142-15.761 2.486-22 7.332-6.637 5.054-11.065 12.577-13.266 20.545-2.215 8.015-2.556 16.484-1.54 24.714 1.131 8.792 4.36 17.549 10.417 24.155 5.138 5.682 12.277 9.393 19.803 10.674 7.62 1.288 15.655.747 22.854-2.167 7.24-2.887 13.3-8.426 17.078-15.217 4.726-8.373 6.306-18.17 6.094-27.686-.21-9.332-2.348-18.865-7.59-26.708-4.275-6.497-10.811-11.465-18.242-13.78-4.383-1.41-9.014-1.959-13.608-1.862Zm1.06 8.186c6.586-.046 13.313 1.938 18.383 6.24 5.777 4.802 9.1 11.965 10.488 19.233a56.483 56.483 0 0 1 .054 20.413c-.532 2.813-1.319 5.583-2.427 8.225-.188.452-.527 1.22-.804 1.78-2.803 5.881-7.6 10.898-13.647 13.45-2.26.984-4.66 1.635-7.096 2a38.93 38.93 0 0 1-1.613.2c-7.06.688-14.52-.756-20.304-5.017-2.772-2.008-5.11-4.585-6.948-7.468-.168-.276-.56-.902-.795-1.322-1.973-3.466-3.282-7.282-4.082-11.181a59.787 59.787 0 0 1-.306-1.656c-1.095-6.864-.984-13.95.503-20.749a42.2 42.2 0 0 1 1.48-5.05c.138-.354.409-1.075.614-1.563 2.483-6.019 6.876-11.371 12.723-14.367 4.229-2.21 9.027-3.175 13.777-3.168z" fill="url(#c)" fill-rule="nonzero" style="font-feature-settings:normal;font-variant-alternates:normal;font-variant-caps:normal;font-variant-east-asian:normal;font-variant-ligatures:normal;font-variant-numeric:normal;font-variant-position:normal;font-variation-settings:normal;inline-size:0;isolation:auto;mix-blend-mode:normal;shape-margin:0;shape-padding:0;text-decoration-color:#000;text-decoration-line:none;text-decoration-style:solid;text-indent:0;text-orientation:mixed;text-transform:none;white-space:normal"/>
    <path d="M149.228 52.676c-7.626.283-15.386 2.97-20.852 8.436-4.256 4.17-6.736 10.12-6.497 16.093.049 4.597 1.796 9.197 5.068 12.466 4.165 4.236 9.832 6.53 15.421 8.22 5.905 1.732 11.999 2.777 17.845 4.718 3.826 1.336 7.787 3.023 10.431 6.225 2.597 3.182 2.829 7.7 1.715 11.515-1.467 4.896-5.658 8.537-10.319 10.34-5.647 2.218-11.965 2.379-17.858 1.134-5.445-1.203-10.8-4.106-13.779-8.965-1.573-2.47-2.235-5.392-2.367-8.29.165-.846-.362-.936-1.073-.826h-7.432c.12 3.25.47 6.54 1.69 9.583 2.33 6.23 7.432 11.155 13.402 13.935 5.446 2.605 11.542 3.548 17.541 3.49.671.083 1.086-.104 1.734-.11 7.236-.417 14.622-2.69 20.084-7.613 4.461-3.958 7.227-9.722 7.54-15.676.337-4.826-.76-9.908-3.863-13.72-3.541-4.444-8.846-6.995-14.108-8.811-4.905-1.656-9.985-2.71-14.98-4.048-4.771-1.225-9.666-2.616-13.694-5.563-2.367-1.721-4.103-4.377-4.347-7.332-.49-4.223 1.216-8.549 4.309-11.435 4.524-4.29 11.004-5.922 17.11-5.623 5.737.246 11.69 2.111 15.746 6.34 2.409 2.454 3.816 5.808 3.945 9.24.166.484-.21 1.562.623 1.314h7.909c-.097-2.856-.34-5.754-1.388-8.44-2.3-6.325-7.66-11.169-13.763-13.773-4.951-2.156-10.413-3.004-15.793-2.824z" fill="url(#d)"/>
  </g>
</svg>
