<?xml version="1.0" encoding="UTF-8"?>
<svg enable-background="new 0 0 814 1000" version="1.1" viewBox="0 0 824.82 1008.5" xml:space="preserve" xmlns="http://www.w3.org/2000/svg" xmlns:xlink="http://www.w3.org/1999/xlink">
  <defs>
    <linearGradient id="a">
      <stop stop-color="#e3e4e6" offset="0"/>
      <stop stop-color="#6e6e6e" offset="1"/>
    </linearGradient>
    <meshgradient id="e" x="453.50092" y="38.946163" gradientTransform="translate(5 3.6068)" gradientUnits="userSpaceOnUse">
      <meshrow>
        <meshpatch>
          <stop stop-color="#f8f9fa" path="c 114.998,-37.8007  85.6677,-38.9464  153.704,-38.9464"/>
          <stop stop-color="#a9b7bf" path="c 0,76.9  8.01776,55.2917  -35.5115,186.026"/>
          <stop stop-color="#f8f9fa" path="c -98.9593,45.8164  -100.559,44.6708  -168.588,44.672"/>
          <stop stop-color="#a9b7bf" path="c -0.0037,-76.9012  -0.00361761,-56.4374  50.3955,-191.752"/>
        </meshpatch>
      </meshrow>
    </meshgradient>
    <radialGradient id="d" cx="426.83" cy="959.03" r="412.41" gradientTransform="matrix(.5056 .0027775 -.0051163 .93134 219.84 45.045)" gradientUnits="userSpaceOnUse" xlink:href="#a"/>
    <radialGradient id="b" cx="370.62" cy="388.82" r="391.51" gradientTransform="matrix(2.1654 -.60289 .16066 .57705 -521.02 417.28)" gradientUnits="userSpaceOnUse">
      <stop stop-color="#f2f4f5" offset="0"/>
      <stop stop-color="#c4ced3" offset="1"/>
    </radialGradient>
    <radialGradient id="c" cx="426.83" cy="959.03" r="412.41" gradientTransform="matrix(.5056 .0027775 -.0051163 .93134 219.84 45.045)" gradientUnits="userSpaceOnUse" xlink:href="#a"/>
    <linearGradient id="f" x1="-69.798" x2="780.94" y1="733.39" y2="456.38" gradientTransform="translate(5 3.6068)" gradientUnits="userSpaceOnUse">
      <stop stop-color="#a1b0b8" offset="0"/>
      <stop stop-color="#eaebec" offset=".45382"/>
      <stop stop-color="#a1b0b8" offset="1"/>
    </linearGradient>
  </defs>
  <path d="m559.1 163.01c31.1-36.9 53.1-88.1 53.1-139.3 0-7.1-0.6-14.3-1.9-20.1-50.6 1.9-110.8 33.7-147.1 75.8-28.5 32.4-55.1 83.6-55.1 135.5 0 7.8 1.3 15.6 1.9 18.1 3.2 0.6 8.4 1.3 13.6 1.3 45.4 0 102.5-30.4 135.5-71.3z" fill="url(#e)" stroke="#6e6e6e" stroke-width="7"/>
  <path d="m793.1 344.51c-5.8 4.5-108.2 62.2-108.2 190.5 0 148.4 130.3 200.9 134.2 202.2-0.6 3.2-20.7 71.9-68.7 141.9-42.8 61.6-87.5 123.1-155.5 123.1s-85.5-39.5-164-39.5c-76.5 0-103.7 40.8-165.9 40.8s-105.6-57-155.5-127c-57.8-82.2-104.5-209.9-104.5-331.1 0-194.4 126.4-297.5 250.8-297.5 4.4703 0 8.8903 0.1985 13.259 0.56865 60.231 5.1031 110.75 42.831 149.44 42.831 39.5 0 101.1-46 176.3-46 28.5 0 130.9 2.6 198.3 99.2z" fill="url(#f)" stroke="url(#c)" stroke-width="10"/>
  <path d="m17.108 600.95c8.1818-4.7932 24.545-14.379 42.716-28.352s38.15-32.332 55.97-46.102c17.82-13.77 33.479-22.949 49.544-29.092 16.065-6.1423 32.534-9.2472 56.083-9.8442 23.549-0.59706 54.176 1.3134 81.236 5.0159 27.06 3.7025 50.914 9.2812 77.451 13.481 26.537 4.2 55.937 7.0636 82.283 5.4407s49.637-7.732 74.837-18.232c25.201-10.5 52.31-25.391 82.951-44.483 30.642-19.091 64.814-42.382 93.679-59.849 28.866-17.467 52.422-29.109 64.738-35.961 12.316-6.8524 13.391-8.9154 6.584-17.89-6.8071-8.9744-21.494-24.857-37.155-37.472s-32.292-21.96-43.137-28.054c-10.845-6.0936-15.903-8.9355-29.159-12.685-13.256-3.7493-34.71-8.4051-55.052-10.437-20.342-2.0322-39.569-1.4403-61.676 2.6332-22.107 4.0736-47.088 11.628-65.053 17.515s-28.906 10.105-40.128 13.527c-11.222 3.4216-22.722 6.0458-34.379 6.0994-11.657 0.0536-23.466-2.4638-43.729-9.372s-48.972-18.206-75.408-23.842c-26.436-5.6358-50.59-5.6073-71.14-4.5839-20.551 1.0234-37.496 3.0418-63.038 15.21-25.542 12.168-59.681 34.488-83.948 60.243-24.267 25.756-38.662 54.949-48.407 77.913-9.7444 22.964-14.948 40.061-18.934 60.127-3.9866 20.067-6.8114 43.282-7.9094 64.86-1.098 21.578-0.4574 41.896 0.1636 54.786 0.621 12.89 1.2282 18.542 1.5318 21.367s0.30356 2.8253 8.4854-1.9679z" fill="url(#b)"/>
  <path d="m793.1 344.51c-5.8 4.5-108.2 62.2-108.2 190.5 0 148.4 130.3 200.9 134.2 202.2-0.6 3.2-20.7 71.9-68.7 141.9-42.8 61.6-87.5 123.1-155.5 123.1s-85.5-39.5-164-39.5c-76.5 0-103.7 40.8-165.9 40.8s-105.6-57-155.5-127c-57.8-82.2-104.5-209.9-104.5-331.1 0-194.4 126.4-297.5 250.8-297.5 4.4703 0 8.8903 0.1985 13.259 0.56865 60.231 5.1031 110.75 42.831 149.44 42.831 39.5 0 101.1-46 176.3-46 28.5 0 130.9 2.6 198.3 99.2z" fill="none" stroke="url(#d)" stroke-width="10"/>
</svg>
