<?xml version="1.0" encoding="UTF-8"?>
<svg viewBox="0 0 681.73 288.01" xmlns="http://www.w3.org/2000/svg">
  <g>
    <path transform="translate(-60.307 -324.66)" d="m258.08 324.66v285.57h-197.77z" fill="red"/>
    <path transform="translate(-60.307 -324.66)" d="m467.57 330.35h95.534v282.31h-95.534z" fill="#0a0"/>
    <path transform="translate(-60.307 -324.66)" d="M583.667 330.486c-1.021-.03-2.16-.054-3.44-.075l-.587 96.718c.077.002.155-.002.232 0v-.301a46.562 46.562 0 0 1 4.93-.351l20.058-94.783c-7.826-.923-15.197-1.024-21.193-1.208zm36.785 2.687-28.163 93.73c2.508.335 4.967.868 7.331 1.579l46.259-89.119a145.234 145.234 0 0 0-25.427-6.19zm40.89 12.48-55.32 85.26a46.86 46.86 0 0 1 5.343 2.957l71.067-75.911a144.146 144.146 0 0 0-21.09-12.306zm34.384 22.907-79.508 68.894c1.9 1.6 3.68 3.359 5.292 5.238l93.55-52.88a142.216 142.216 0 0 0-19.334-21.252zm26.589 32.104-97.346 46.589a44.694 44.694 0 0 1 2.995 5.288l106.87-24.961a137.854 137.854 0 0 0-12.52-26.916zm16.52 41.25-108.91 15.464a44.171 44.171 0 0 1 2.195 10.25h109.917a137.31 137.31 0 0 0-3.201-25.713zM632.12 476.1c-2.257 22.943-22.069 40.875-46.156 40.875-2.072 0-4.091-.144-6.092-.4v-1.956c-.077.002-.155-.002-.232 0v97.656c8.248-.057 12.504-.392 18.922-.392 77.78 0 141.108-60.392 143.475-135.783z" fill="#0a0"/>
    <path transform="translate(-60.307 -324.66)" d="m423.58 324.66v285.57h-197.77z" fill="red"/>
  </g>
</svg>
