<svg viewBox="0 0 153.52 88.419" xmlns="http://www.w3.org/2000/svg">
  <g transform="translate(-.25 -32.49)">
    <rect x="7.776" y="40.016" width="138.47" height="73.367" rx="43.625" ry="36.684" fill="#fff" stroke="red" stroke-width="15.052"/>
    <text x="24.395" y="92.454" font-family="sans-serif" font-size="32" font-weight="400" letter-spacing="0" word-spacing="0" style="line-height:1.25" xml:space="preserve">
</text>
    <path transform="scale(1.0421 .95957)" d="M26.558 97.566V61.894h7.008l14.6 23.822V61.894h6.691v35.672H47.63L33.25 74.304v23.262Zm37.286 0V61.894h26.45v6.035H71.046v7.908h17.91v6.01h-17.91v9.71h19.93v6.01zM96.628 85.96l7.008-.682q.633 3.528 2.555 5.183 1.947 1.655 5.232 1.655 3.48 0 5.231-1.46 1.777-1.485 1.777-3.456 0-1.265-.755-2.14-.73-.901-2.579-1.558-1.265-.438-5.767-1.557-5.791-1.436-8.127-3.529-3.285-2.944-3.285-7.178 0-2.725 1.533-5.086 1.557-2.384 4.453-3.625 2.92-1.241 7.032-1.241 6.716 0 10.098 2.944 3.407 2.944 3.577 7.86l-7.202.316q-.463-2.75-1.996-3.942-1.508-1.217-4.55-1.217-3.139 0-4.915 1.29-1.144.827-1.144 2.214 0 1.266 1.07 2.166 1.363 1.144 6.62 2.385 5.255 1.24 7.762 2.579 2.53 1.314 3.942 3.626 1.435 2.287 1.435 5.67 0 3.065-1.703 5.742-1.703 2.676-4.818 3.99-3.115 1.29-7.762 1.29-6.765 0-10.39-3.115-3.626-3.139-4.324-9.025z" aria-label="NES" fill="red" stroke="red" stroke-width="1.818"/>
  </g>
</svg>
