<svg width="97.305" height="23.42" viewBox="0 0 25.745 6.197" xmlns="http://www.w3.org/2000/svg">
  <path d="M6.329 0H0v6.197h1.965V2.051c0-.262.218-.48.48-.48h3.403c.261 0 .48.218.48.48v4.146h1.963V2.051S8.554.001 6.329.001m3.523 4.145s-.307 2.05 1.964 2.05h4.887V4.627h-4.54c-.306 0-.567-.265-.567-.524 0-.305.261-.481.568-.481h4.276v-1.09h-4.276c-.307 0-.568-.218-.568-.48 0-.263.261-.481.568-.481h4.539V.001H9.852v4.145m13.755-1.617h-2.836c-.35 0-.61-.128-.61-.433 0-.264.26-.525.523-.525h4.974V.001h-5.454c-1.091 0-1.964.829-1.964 1.79 0 1.352.96 1.875 2.138 1.875h2.836c.35 0 .61.13.61.435 0 .262-.26.524-.523.524H18.24v1.57h5.585c1.003 0 1.92-.741 1.92-1.789 0-1.263-.96-1.877-2.138-1.877" fill="red"/>
  <style>
    .logo{fill:#939598}
  </style>
</svg>
