<svg width="579.38" height="579.38" viewBox="-14.625 -9 579.38 579.38" xml:space="preserve" xmlns="http://www.w3.org/2000/svg">
  <rect x="-14.625" y="-9" width="579.38" height="579.38" rx="31.796" ry="31.061" fill="#afa397"/>
  <g clip-rule="evenodd" fill-rule="evenodd">
    <path d="M371.78 454.598h-36.5l29.533-59.521c-7.981 0-30.033-4.249-38.076-11.495-10.428-9.395-18.869-28.396-12.999-50.994 6.481-24.946 34.497-43.741 64.992-35.996 21.805 5.539 34.549 16.485 38.299 40.376 1.727 11.003 1.013 21.703-6.193 37.881zm-27.045-107.012c0 25.899 39.995 26.614 39.995 1 0-26.742-39.995-26.992-39.995-1zm123.984-50.993c35.151-4.551 65.75 23.095 54.993 58.993-1.682 5.614-11.307 17.615-11.307 17.615s14.699 13.6 16.307 22.38c6.706 36.626-20.935 58.203-48.994 58.992-29.72.838-62.426-19.279-55.993-56.992.87-5.1 4.273-9.96 6-12.999 1.74-3.063 9.931-11.381 9.931-11.381s-10.901-17.317-11.931-24.614c-3.761-26.653 12.136-48.258 40.994-51.994zm-6.999 44.026c0 19.225 28.997 18.975 28.997.968 0-20.368-28.997-20.618-28.997-.968zm14.989 83.957c22.679 0 22.8-33.995-.388-33.995-23.261 0-22.656 33.995.388 33.995zM219.75 297.852v30.976c-84.938-22.833-84.368 114.5-1.14 91.754v30.996c-128.85 32.25-129.42-183.417 1.14-153.726Z"/>
    <path d="m60.661 390.828.108-30.918c15.01 0 23.997-5.203 23.997-16.088 0-9-1.487-17.866-31.862-17.866l.125 128.622H20.405l.37-159.75 31.505.003c60.5.206 67.625 24.497 67.625 47.991 0 33.761-23.625 48.006-59.244 48.006Zm160.089-26.244h77.99v23.997h-77.99z"/>
  </g>
  <g fill="red">
    <path d="M194.9 113.97h129.78l-8.607 49.314s-3.82-26.733-19.793-37.196c-3.966-1.857-14.126-1.728-39.586-1.728l-9.967 58.8c20.3 4.774 42.813-26.158 42.813-26.158l-12.948 68.376s-7.942-30.96-32.816-29.933l-11.034 60.823c36.228 0 35.525-.254 44.278-5.603 8.446-5.16 28.168-30.569 28.913-34.127l-8.045 50.964h-131.2c.972-6.788 13.754-7.516 19.474-11.41l10.732-59.16c-.865-5.288-11.241-.732-13.347-5.272 1.782-4.862 12.215-1.674 15.244-5.183l10.89-60.023c-1.945-4.537-14.789-6.76-14.789-12.484zm244.84-4.616c5.71 11.782 10.302 24.724 14.483 38.093-7.936 3.079-18.939 8.081-18.939 8.081l-20.89-29.022c-21.758-1.703-51.161 30.703-53.388 50.952-2.604 23.956 12.299 47.619 35.65 49.64 24.325 2.114 53.474-18.469 53.474-18.469l-26.737 58.874c-55.146 19.62-95.952-16.4-98.04-58.873-3.203-64.839 55.474-100.58 114.39-99.275z"/>
    <path d="m138.17 194.42 18.857-87.909 35.877 22.045-28.68 16.915-25.999 126.74-83.858-94.374-11.485 58.437 20.4 16.83-42.877 19.108 20.832-98.697c2.27-14.912-8.042-20.048-17.12-23.127l36.734-42.325z"/>
  </g>
</svg>
