<svg width="800.57" height="480.84" viewBox="0 0 600.42 360.63" xmlns="http://www.w3.org/2000/svg">
  <defs>
    <clipPath id="a">
      <path d="M73 21h601v339.63H73z"/>
    </clipPath>
  </defs>
  <path d="m585.248 137.858-82.718 7.803-14.566 17.688-20.288-11.447-60.182 16.708-32.759 5.21-15.396-1.37-52.068 12.065-48.352 8.939-22.743 9.95-24.451-9.362-72.816 5.568-21.32 73.159-61.402 5.402 4.896-25.987 34.283-5.076 9.598-41.858-37.708 9.045 7.133-25.51 55.11-8.059-2.843-34.065-84.525 7.322-30.173 169.59 140.978-22.37 12.484-65.547 28.093-4.162-8.845 64.508 98.843-14.567-7.805 17.168-13.005 9.883-30.693 4.163-2.601 36.415 32.774-4.681 36.936-14.047 20.808-27.051 10.925-31.215 73.873-9.883 11.964-66.588 26.532-3.122-9.885 62.427 144.622-22.89-.52-32.254 10.925-33.814-3.122-28.092zm-294.705 77.775 6.243 2.86 1.56 21.33-14.567 7.022-13.266-11.964 1.56-14.047 18.47-5.201z" fill="#fff"/>
  <path d="m391.252 142.509 92.41-70.446-108.54 43.329-30.5-31.75 9.723 43.996-92.41 70.441 108.54-43.34 30.5 31.75-9.722-43.98" fill="#eb2b2b"/>
  <g transform="translate(-73.298 -.001)" clip-path="url(#a)">
    <path d="m247.41 105.914 7.258-39.047 27.223-4.316c3.57-.567 5.394 1.469 4.683 5.234l-4.96 26.723c-.712 3.781-3.415 6.523-6.981 7.09zm309.45 111.89 7.425-39.925c2.352-12.625 15.922-25.031 27.485-26.867l50.02-7.926c8.425-1.34 14.28 8.07 12.562 17.285l-2.457 12.848c-1.72 9.215-11.13 19.008-19.555 20.343l-51.922 8.243-.75 4.66c-.984 5.3 2.535 9.437 7.39 8.664l58.04-9.242-3.91 21.054-65.47 10.38c-11.562 1.84-21.198-6.876-18.859-19.516zM427.128 177.13l20.91-3.305-16.055 86.309-21.379 3.387 16.04-86.297zm-139.03 105.827-21.395 3.387 10.422-56.043c1.313-7.024-.813-9.305-7.586-8.23l-37.277 5.921-12.219 65.754-21.395 3.399 16.04-86.31.5-.077 70.964-11.262c10.739-1.707 16.567 4.805 14.453 16.156zm-102.743-5.645-4.203 22.602-89.445 14.188 27.879-150.016 73.894-11.723-3.82 20.555-52.5 8.336-8.02 43.152 42.774-6.785-3.82 20.543-42.774 6.785-8.03 43.164zm3.06-16.445-50.56 8.02 1.903-10.262 40.832-6.484 9.937-53.434-40.832 6.484 1.903-10.277 50.554-8.02zm112.19 36.055.329-1.797c1.39.102 3.254.64 4.882.395l42.04-6.59c-1.563 8.386-12.641 10.488-29.543 13.164l-19.243 3.058-10.316 55.477 25.277-4.004c62.239-6.14 85.918-38.309 93.516-76.66l75.836-12.035 12.219-65.758 6.171-.985c6.758-1.074 5.762-2.296 4.461 4.727l-11.183 60.164 54.445-8.637.746-3.988c4.11 1.809 8.914 2.453 13.992 1.652l94.157-14.937 8.78-47.262-6.1-4.344c5.288-6.261 9.41-13.925 10.605-20.359l1.48-7.453c4.7-27.879-21-35.281-32.73-33.414l-54.035 8.57c-9.57 1.52-20.11 8.188-27.774 17.024-7.09-7.024-18.035-9.754-24.398-8.743l-60.153 9.54 6.73 14.886 54.263-8.597c7.82-1.246 13.043 1.875 14.476 8.07-.578 1.64-14.476 75.691-14.476 75.691l-19.454 3.086 10.422-56.054c1.301-7.024-.828-9.293-7.586-8.22l-37.277 5.923-12.23 65.754-21.383 3.398 13.992-75.285-17.602-20.762-63.367 22.903 30.031-4.766.485-.063-19.094 102.739c-4.86 26.11-32.71 51.058-57.41 54.984l-25.277 4.004 3.832-20.555 19.226-3.047c16.906-2.691 35.938-19.605 39.219-37.3l2.074-11.13-50.074 7.942c-10.734 1.703-16.563-4.816-14.45-16.16l8.977-48.3c1.59-8.583 6.946-15.708 14.11-19.411l.117-1.285 25.12-19.332-14.67 2.465c-7.81 1.234-22.286 7.09-31.49 18.824-6.952-8.297-19.12-11.55-25.972-10.465l-53.973 8.574 8.797-47.277 39.375-6.246c20.961-3.32 44.153-26.895 48.274-49.035l5.918-31.856c4.12-22.156-11.457-39.57-32.418-36.25l-86.047 13.649-18.336 98.648-79.234 12.574c-6.707 1.063-13.23 7.676-14.543 14.766L73.53 320.48c-1.312 7.09 3.055 11.984 9.762 10.921L234.48 307.41l12.235-65.758 6.156-.984c6.77-1.063 5.774-2.281 4.461 4.738l-11.184 60.153zm283.801-116.563-.457 2.493 40.45-6.418c3.19-.512 6.3-3.739 6.956-7.23.645-3.493-1.418-5.907-4.605-5.395l-10.398 1.64-16.575 2.637-4.199.656c-4.86.778-10.187 6.313-11.172 11.617zm-248.941 40.688-4.79 25.777c-1.312 7.035.813 9.305 7.587 8.23l39.215-6.222 8.402-45.203-39.219 6.21c-6.773 1.075-9.894 4.173-11.195 11.208zm13.348 9.398c1.328-6.523 3.742-5.578 10.355-6.629l6.156-.972-1.914 10.265-6.156.985c-6.617 1.05-9.531 2.82-8.441-3.649" fill="#eb2b2b"/>
  </g>
  <path d="m348.108 124.183-5.773-22.891-3.254.394-1.05 5.645c-.724 3.91-3.872 7.102-7.563 7.691l-22.364 3.543c-3.687.59-5.8-1.77-5.078-5.683L314.3 52.257c.722-3.899 3.87-7.086 7.558-7.676l22.367-3.547c3.688-.59 5.801 1.774 5.079 5.672l-1.446 7.719 45.219-7.18 1.719-9.242c4.332-23.32-11.524-41.055-33.602-37.564l-43.258 6.864c-22.062 3.504-45.687 27.5-50.02 50.82l-12.034 64.734c-4.332 23.32 11.523 41.055 33.597 37.551l14.465-2.285 44.164-33.941m32.051-13.804c1.184-3.18 1.996-4.387 2.602-7.64l1.535-8.231L366.3 97.37l13.859 13.008" fill="#eb2b2b"/>
</svg>
