<svg viewBox="0 0 470.16 470.06" xmlns="http://www.w3.org/2000/svg">
  <path d="M345.895 414.725c.134-20.54.67-41.075.866-61.614 25.11 38.378 48.555 77.797 72.426 116.948h50.967V251.936c-16.4-.057-32.798-.001-49.196.23-.658 39.944-1.491 79.885-1.482 119.836-15.242-20.614-30.522-41.234-43.487-63.392l-34.996-56.551h-44.654v218h49.013l.543-55.334z" fill="#0092d6"/>
  <path d="M0-.003V218.21h54v-73.66c21.804-.757 43.694-.26 65.414-2.48 27.323-3.765 48.386-27.891 52.778-54.445 5.491-28.418-5.092-60.832-30.395-76.53C131.574 4.512 119.91-.832 107.447.145 71.631.25 35.815.011-.001-.002zm53.001 43.072c16.02.291 32.13-.783 48.072.99 16.699 3.541 23.023 24.17 17.788 38.903-2.784 10.63-12.86 18.15-23.85 17.594-13.986.86-28.007.392-42.01.513v-58z" fill="#54bb46"/>
  <path d="M296.34-.003V218.21h54v-73.66c21.804-.757 43.694-.26 65.414-2.48 27.323-3.765 48.386-27.891 52.778-54.445 5.491-28.418-5.092-60.832-30.395-76.53C427.915 4.512 416.25-.832 403.787.145 367.971.25 332.156.011 296.339-.002zm53.001 43.072c16.02.291 32.13-.783 48.072.99 16.699 3.541 23.023 24.17 17.788 38.903-2.784 10.63-12.86 18.15-23.85 17.594-13.986.86-28.007.392-42.01.513v-58z" fill="#f57930"/>
  <path d="M0 251.844V470.06h54v-73.662c21.804-.757 43.694-.261 65.414-2.48 27.323-3.766 48.386-27.892 52.778-54.446 5.491-28.417-5.092-60.831-30.395-76.53-10.223-6.583-21.887-11.926-34.35-10.95-35.816.105-71.632-.134-107.448-.147zm53.001 43.072c16.02.292 32.13-.782 48.072.99 16.699 3.542 23.023 24.17 17.788 38.904-2.784 10.63-12.86 18.15-23.85 17.594-13.986.86-28.007.391-42.01.512v-58z" fill="#e12a3f"/>
  <g transform="translate(-115.5 -166.67)" fill="#fdb539">
    <path d="M376.47 316.88v-68h-52v136h52v-68z"/>
    <ellipse cx="350.47" cy="195.84" rx="29.547" ry="29.168"/>
  </g>
  <g transform="translate(-111.28 -166.67)" fill="#8b2e87">
    <path d="M372.26 488.51v-70h-52v140h52v-70z"/>
    <ellipse cx="346.26" cy="607.56" rx="29.547" ry="29.168"/>
  </g>
</svg>
