<svg viewBox="0 0 1073.6 425.9" xmlns="http://www.w3.org/2000/svg">
  <path transform="translate(-260.52 -222.85)" d="M421.74 222.85h121.4c77.624 0 169.16 37.806 117.43 165.17-51.736 127.38-121.4 145.29-177.13 145.29h-37.805l35.822-99.504c39.804-1.985 59.713-39.804 65.666-57.703 5.966-17.924 13.93-51.749-31.84-51.749H503.35l-123.39 324.4H260.53zm321.31 0h121.41c77.611 0 169.16 37.806 117.42 165.17C930.157 515.39 860.5 533.3 804.77 533.3h-37.82l35.823-99.504c39.817-1.984 59.713-39.804 65.679-57.702 5.953-17.924 13.93-51.75-31.84-51.75h-11.959l-123.37 324.4h-119.44zM986.21 431.9c-42.71 169.88 22.166 216.84 121.06 216.84h67.663l45.77-123.39h-81.592c-45.77 0-42.813-41.802-26.873-93.538l-126.03.09zm133.47-20.972c20.337-43.968 57.508-86.586 107-86.586h71.633l35.822-101.49h-111.44c-64.797 0-179.96 13.8-230.82 188.04l127.8.039z" clip-rule="evenodd" fill="#ce4f32" fill-rule="evenodd" style="font-feature-settings:normal;font-variant-alternates:normal;font-variant-caps:normal;font-variant-east-asian:normal;font-variant-ligatures:normal;font-variant-numeric:normal;font-variant-position:normal;font-variation-settings:normal;inline-size:0;isolation:auto;mix-blend-mode:normal;shape-margin:0;shape-padding:0;text-decoration-color:#000;text-decoration-line:none;text-decoration-style:solid;text-indent:0;text-orientation:mixed;text-transform:none;white-space:normal"/>
</svg>
