<svg viewBox="0 0 165.65 108.04" xmlns="http://www.w3.org/2000/svg">
  <radialGradient id="a" cx="157.5" cy="52.96" r="22.196" gradientTransform="translate(-21.715 -4.136)" gradientUnits="userSpaceOnUse">
    <stop stop-color="#FFF" offset=".43"/>
    <stop stop-color="#7A7A7A" offset=".64"/>
    <stop offset=".99"/>
  </radialGradient>
  <path d="M145.283 42.276c1.59-.151 2.738-.154 3.447-.015v.104c2.266 1.442 3.504 2.889 3.608 4.536-.827 2.577-3.404 5.466-7.528 8.663-4.947 3.708-11.752 7.524-20.104 11.441a214.175 214.175 0 0 1-11.978 5.004c-4.814 1.854-4.092 14.738-.559 13.456a234.087 234.087 0 0 0 17.69-7.22c9.279-4.332 16.807-8.559 22.478-12.887 7.217-5.57 11.34-10.825 12.06-15.879 1.336-4.886.169-9.239-3.536-13.177-1.453-1.547-16.298 6.042-15.578 5.974z" fill="url(#a)"/>
  <radialGradient id="b" cx="50.105" cy="85.897" r="22.91" gradientTransform="translate(-21.715 -4.136)" gradientUnits="userSpaceOnUse">
    <stop stop-color="#FFF" offset="0"/>
    <stop offset="1"/>
  </radialGradient>
  <path d="M61.697 86.514a380.78 380.78 0 0 1-10.599 1.833l.104-.104c-7.009 1.031-13.095 1.546-18.35 1.65h-.104c-4.535 0-8.043-.308-10.309-1.135-1.547-.619-3.093-.515-4.64.208-1.65.619-2.681 1.854-3.3 3.4-.62 1.65-.516 3.197.208 4.744.719 1.547 1.854 2.682 3.401 3.301 3.3 1.234 8.144 1.854 14.845 1.854 5.67-.104 12.271-.619 19.899-1.754h.104a223.275 223.275 0 0 0 11.749-1.969c3.8-.731.833-12.751-3.008-12.028z" fill="url(#b)"/>
  <radialGradient id="c" cx="61.442" cy="37.691" r="52.493" gradientTransform="translate(-21.715 -4.136)" gradientUnits="userSpaceOnUse">
    <stop stop-color="#FFF" offset=".813"/>
    <stop stop-color="#575757" offset="1"/>
  </radialGradient>
  <path d="M60.891 20.103a284.302 284.302 0 0 0-10.206 3.601c-7.732 2.993-14.641 5.981-20.827 9.178h.104c-6.701 3.401-12.164 6.702-16.392 10.206v-.104c-5.155 4.02-8.659 7.94-10.517 11.648v.104C.168 59.995-.04 64.842 2.333 69.377c1.443 4.432 5.875 6.805 13.402 7.217 4.328.308 10.206-.312 17.63-1.754 3.73-.77 7.983-1.826 12.783-3.107 2.892-.773-.548-12.679-3.397-11.906-4.417 1.203-8.352 2.158-11.863 2.849-6.082 1.235-10.825 1.75-14.433 1.546-1.443 0-2.474-.104-2.885-.104l-.104-.104c-.308-1.031-.204-2.266.516-3.504v-.104c1.342-2.37 3.712-4.947 7.217-7.628 3.816-2.989 8.559-5.978 14.33-8.867 5.774-3.093 12.271-5.875 19.488-8.659v.104c2.044-.77 4.124-1.525 6.232-2.259 5.234-1.818 3.949-14.419-.358-12.994z" fill="url(#c)"/>
  <path d="M112.249 20.769c3.981-.512 7.865-.87 11.635-1.084 7.424-.619 14.125-.516 20 .104 1.753.208 3.196-.308 4.535-1.339 1.342-1.135 2.063-2.477 2.27-4.124.207-1.754-.309-3.3-1.339-4.539-1.135-1.339-2.477-2.162-4.124-2.266-6.601-.723-14.021-.723-22.165-.208-5.23.354-10.65.949-16.299 1.787-2.596.382 1.85 12.134 5.487 11.669z" fill="#ccc"/>
  <radialGradient id="d" cx="162.87" cy="1.056" r="29.353" gradientTransform="translate(-21.715 -4.136)" gradientUnits="userSpaceOnUse">
    <stop stop-color="#FFF" offset="0"/>
    <stop offset="1"/>
  </radialGradient>
  <path d="M112.249 20.769c3.981-.512 7.865-.87 11.635-1.084 7.424-.619 14.125-.516 20 .104 1.753.208 3.196-.308 4.535-1.339 1.342-1.135 2.063-2.477 2.27-4.124.207-1.754-.309-3.3-1.339-4.539-1.135-1.339-2.477-2.162-4.124-2.266-6.601-.723-14.021-.723-22.165-.208-5.23.354-10.65.949-16.299 1.787-2.596.382 1.85 12.134 5.487 11.669z" fill="url(#d)"/>
  <linearGradient id="e" x1="53.883" x2="44.935" y1="44.714" y2="37.913" gradientTransform="translate(-21.715 -4.136)" gradientUnits="userSpaceOnUse">
    <stop offset="0"/>
    <stop stop-color="#FFF" offset="1"/>
  </linearGradient>
  <path d="M9.326 57.98c0 6.684 4.278 6.197 4.271 6.143 0-.003-.007-.003-.025-.003l-.104-.104c-.308-1.031-.204-2.266.516-3.504v-.104c1.342-2.37 3.712-4.947 7.217-7.628 3.816-2.989 8.559-5.978 14.33-8.867 5.774-3.093 12.271-5.875 19.488-8.659v.104c2.044-.77 4.124-1.525 6.232-2.259 2.305-.802 3.347-3.698 3.422-6.562a61.325 61.325 0 0 0-8.316-.562c-6.143 0-11.996.902-17.315 2.531a167.987 167.987 0 0 0-9.182 4.378h.104a148.244 148.244 0 0 0-5.903 3.157C16.599 41.76 9.326 49.51 9.326 57.98z" fill="url(#e)"/>
  <path d="M150.688 14.325c.207-1.754-.309-3.3-1.339-4.539-1.135-1.339-2.477-2.162-4.124-2.266-6.601-.723-14.021-.723-22.165-.208-7.633.516-15.673 1.546-24.229 3.093-8.146 1.443-16.395 3.404-24.642 5.67a274.945 274.945 0 0 0-23.504 7.628c-7.732 2.993-14.641 5.981-20.827 9.178h.104c-6.701 3.401-12.164 6.702-16.392 10.206v-.104c-5.155 4.02-8.659 7.94-10.517 11.648v.104C.168 59.994-.04 64.841 2.333 69.376c1.443 4.432 5.795 6.485 13.323 6.896 4.328.308 10.286.009 17.71-1.434 5.978-1.235 13.298-3.197 22.062-5.67 6.39-1.958 14.537-4.535 24.432-7.836l24.539-8.04c8.967-2.989 16.287-5.259 21.958-6.805 6.908-2.062 12.371-3.297 16.495-3.917 2.889-.412 4.847-.516 5.878-.312v.104c2.266 1.442 3.504 2.889 3.608 4.536-.827 2.577-3.404 5.466-7.528 8.663-4.947 3.708-11.752 7.524-20.104 11.441-8.144 3.712-17.215 7.116-27.217 10.413h-.104c-7.732 2.474-15.668 4.64-23.813 6.598-7.939 1.858-15.364 3.197-22.477 4.332l.104-.104c-7.009 1.031-13.095 1.546-18.35 1.65h-.104c-4.535 0-8.043-.308-10.309-1.135-1.547-.619-3.093-.515-4.64.208-1.65.619-2.681 1.854-3.3 3.4-.62 1.65-.516 3.197.208 4.744.719 1.547 1.854 2.682 3.401 3.301 3.3 1.234 8.144 1.854 14.845 1.854 5.67-.104 12.271-.619 19.899-1.754h.104c7.421-1.031 15.257-2.576 23.401-4.432h.104c8.456-2.062 16.703-4.332 24.744-6.909 10.517-3.297 20.104-7.009 28.658-10.925 9.279-4.332 16.807-8.559 22.478-12.887 7.217-5.57 11.34-10.825 12.06-15.879 1.858-6.802-1.131-12.576-9.071-17.626-2.474-1.962-7.112-2.477-14.125-1.546h-.1c-4.54.719-10.622 2.062-18.146 4.224-5.773 1.65-13.198 3.919-22.477 7.013l-24.536 8.04c-9.794 3.197-17.734 5.774-24.02 7.628-8.352 2.478-15.26 4.332-21.035 5.466-6.082 1.235-10.825 1.75-14.433 1.546-1.443 0-2.474-.104-2.885-.104l-.104-.104c-.308-1.031-.204-2.266.516-3.504v-.104c1.342-2.37 3.712-4.947 7.217-7.628 3.816-2.989 8.559-5.978 14.33-8.867 5.774-3.093 12.271-5.875 19.488-8.659v.104a260.677 260.677 0 0 1 22.474-7.32c7.94-2.27 15.772-4.124 23.608-5.463 7.939-1.546 15.568-2.477 22.785-2.889 7.424-.619 14.125-.516 20 .104 1.753.208 3.196-.308 4.535-1.339 1.342-1.134 2.062-2.477 2.269-4.124z" fill="none" stroke="#333" stroke-linecap="round" stroke-linejoin="round" stroke-width="1.44"/>
  <radialGradient id="f" cx="113.5" cy="35.63" r="47.61" gradientTransform="translate(-21.715 -4.136)" gradientUnits="userSpaceOnUse">
    <stop stop-color="#FFF" offset=".04"/>
    <stop stop-color="#6E93E1" offset=".23"/>
    <stop stop-color="#363499" offset="1"/>
  </radialGradient>
  <circle cx="83.191" cy="54.019" r="52.579" fill="url(#f)" stroke="#33317a" stroke-linecap="round" stroke-linejoin="round" stroke-width="2.88"/>
  <linearGradient id="g" x1="110.56" x2="106.98" y1="63.437" y2="51.73" gradientTransform="translate(-21.715 -4.136)" gradientUnits="userSpaceOnUse">
    <stop offset="0"/>
    <stop stop-color="#FFF" offset=".989"/>
  </linearGradient>
  <path d="M30.401 62.824c-.604.116-16.489 3.589-19.115.964-.771-.771 1.671 1.196 4.16 4.434.316.411.112 1.094-.257 1.935-.084.193-.176.253-.334.461-.074.099-.096.497-.109.598-.04.322-.21.578-.257.862-.15.901-.681 1.62-.795 2.195-.043.217.281.414.259.592-.023.191-.411.239-.398.391.013.152-.439.203-.4.329.011.035-.014.16.067.179.308.071 1.039.142 1.141.157.157.022 1.572.23 3.602.246 2.03.015 4.526.019 6.712-.224 1.338-.148 2.733-.337 4.045-.529 1.724-.253 3.303-.511 4.416-.688 1.035-.164 1.498-.042 1.644-.028 5.699-1.242 12.54-3.085 20.604-5.362A1038.89 1038.89 0 0 0 79.818 61.5l24.539-8.04a583.122 583.122 0 0 1 13.338-4.289 294.263 294.263 0 0 1 8.62-2.517 170.928 170.928 0 0 1 8.502-2.309c3.078-.745 5.734-1.271 7.993-1.607 2.889-.412 4.847-.516 5.878-.312v.104c.87.555 4.665.114 6.583 3.014 3.09 4.668 4.604 13.073 5.863 11.348 1.801-2.466 2.886-4.879 3.222-7.249 1.858-6.802-1.131-12.318-9.07-17.369-2.474-1.962-7.113-2.478-14.126-1.546h-.1c-2.75.437-6.067 1.103-9.931 2.041-2.509.608-5.251 1.074-8.216 1.926-2.863.82-6.135 1.79-9.837 2.939a639.84 639.84 0 0 0-12.64 4.073l-24.535 8.04c-6.941 2.266-12.948 4.221-18.099 5.828z" fill="url(#g)"/>
  <path d="M131.926 32.06c-2.51.609-6.005 1.618-8.97 2.47-5.773 1.65-13.198 3.919-22.477 7.013l-24.536 8.04c-7.467 2.438-13.784 4.411-19.184 5.987-2.343.684-3.99 1.048-4.832 1.296-8.151 2.416-28.108 8.23-35.859 7.381M33.22 74.841c5.699-1.242 14.144-3.394 22.208-5.67 6.39-1.958 14.537-4.535 24.432-7.836l24.539-8.04c8.967-2.989 16.287-5.259 21.958-6.805 3.129-.931 6.733-1.823 9.278-2.439" fill="none" stroke="#333" stroke-linecap="round" stroke-linejoin="round"/>
</svg>
