<svg viewBox="0 0 630.01 371.8" xmlns="http://www.w3.org/2000/svg">
  <g transform="translate(86.135 -539.29)">
    <rect x="-86.135" y="539.29" width="630.01" height="371.8" ry="0" fill="#b2ae85"/>
    <path d="M-74.672 899.634V550.757h607.083v348.878zm286.154-243.64h-3.807c0 3.062-2.184 4.416-3.983 4.898h-83.437v-27.014h54.137c.679.008 3.078 2.408 3.434 4.264h3.083v-25.365h-3.46c0 2.555-2.022 4.96-3.35 4.944h-53.844V593.8h80.793c2.125.421 4.342 3.106 4.342 4.997h3.067v-26.02h-3.011c-.125 1.875-1.623 4.4-3.967 4.838H86.277v2.147c3.867.066 5.626 3.118 5.626 4.444v86.871c-.252 1.733-1.906 3.957-5.843 3.729v2.898h118.017c1.466.737 3.388 1.652 3.703 4.874h3.764zm-133.84-9.254c-.714-25.826-36.844-30.275-55.853-31.211-17.75-.874-34.644-2.752-38.214-6.321-3.401-3.402-4.68-7.422 2.267-12.468 5.004-3.635 13.045-5.433 26.5-5.482 19.622-.073 40.187 5.806 46.109 13.187 1.94 2.42.022 2.941 3.048 3.908l16.088-24.017-2.697-1.446s-3.118 1.988-4.9 1.988c-4.474 0-27.652-11.185-58.288-11.194-25.984 0-56.716 8.521-57.5 32.05 0 7.008-.14 16.724 20.268 25.84 20.528 9.168 74.897.424 74.897 16.395 0 16.894-44.577 17.179-68.23 8.9-3.469-1.213-15.29-3.629-14.68-13.103l-2.552-.551-14.99 25.082c3.238 3.237 2.528.33 7.04.33 4.794.265 25.363 10.828 59.217 11.445 30.033.548 61.627-8.975 62.47-33.332zm431.842 229.33V704.544l-561.229-.637v172.802zM202.457 734.427c-200.272 37.383-165.492 129.39 8.91 109.317-276.136 57.547-355.551-63.557-8.91-109.317Zm38.794 28.665 17.411 63.765c146.1-16.443 212.849-110.046-25.42-99.422 195.214-25.433 264.067 1.754 247.401 29.722-16.666 27.967-114.598 64.61-240.198 81.773ZM363.76 661.6c-.04-2.074-3.982-1.236-6.026-4.777v-24.488c-.044-.928 2.483-3.486 5.753-3.618l-.072-2.6h-63.523c-1.461-1.436-2.525-2.928-2.819-4.368h-3.664v23.62h3.092c1.554-1.11 1.02-3.752 3.981-4.623l34.32.066v13.616c-119.4 37.343-112.611-92.261-6.443-56.745 11.092 4.522 5.543 9.076 11.102 9.078l14.365-23.953c-1.5-2.469-4.038.511-6.869.33-5.81 0-26.576-8.715-51.17-8.814-35.357.085-76.789 12.767-76.789 53.934 2.346 39.494 45.12 51.958 79.002 49.313 16.325 0 44.61-4.7 65.76-15.971zm40.579 12.055c-1.593-.007-5.941-1.176-5.856-5.617l9.573-17.339 53.82.113c1.122 2.457 9.816 15.366 9.59 18.36 0 .643-.05 4.112-5.796 4.562v2.758h43.748v-2.66c-3.167-.186-5.289-.995-6.432-2.27l-51.348-88.135c.063-3.592 4.338-3.934 5.438-4.62v-2.813H414.94l-.02 2.781c4.277.312 5.999 2.848 5.38 6.07l-48.685 85.935c-2.153 1.887-3.713 3.171-6.627 2.933v2.62h39.414zm11.231-36.871 19.396-35.774 19.422 35.813z"/>
  </g>
</svg>
