<svg viewBox="0 0 598.84 342.71" xmlns="http://www.w3.org/2000/svg">
  <path d="M0 0h598.84v342.71H0z" fill="#b2ae85"/>
  <path d="M5.499 337.216V5.966l470.707.251 117.138-.25v331.25zM281.735 93.575h-3.806c0 3.063-2.184 4.416-3.983 4.899h-83.437V71.46h54.137c.678.008 3.077 2.407 3.434 4.264h3.083V50.359h-3.46c0 2.555-2.023 4.959-3.35 4.943h-53.844V31.381h80.793c2.125.422 4.341 3.107 4.341 4.997h3.067V10.36h-3.01c-.126 1.875-1.623 4.4-3.967 4.838H156.531v2.146c3.867.067 5.626 3.119 5.626 4.445v86.87c-.251 1.734-1.905 3.957-5.843 3.73v2.897h118.017c1.467.738 3.388 1.653 3.703 4.875h3.765zm-133.84-9.253c-.714-25.827-36.844-30.276-55.852-31.212-17.75-.874-34.645-2.751-38.214-6.32-3.402-3.402-4.681-7.423 2.266-12.468 5.005-3.635 13.046-5.433 26.5-5.483 19.623-.073 40.188 5.806 46.11 13.188 1.94 2.42.022 2.941 3.047 3.907l16.088-24.017-2.697-1.445s-3.118 1.988-4.9 1.988c-4.473 0-27.651-11.186-58.288-11.195-25.983 0-56.716 8.522-57.5 32.051 0 7.007-.14 16.723 20.268 25.839 20.529 9.168 74.897.425 74.897 16.396 0 16.893-44.576 17.179-68.23 8.9-3.468-1.213-15.29-3.63-14.68-13.104l-2.552-.55-14.989 25.081c3.237 3.237 2.527.33 7.04.33 4.793.266 25.363 10.828 59.217 11.446 30.033.547 61.627-8.976 62.469-33.332Zm431.843 229.33V142.125l-561.229-.638V314.29ZM272.711 172.007c-200.272 37.384-165.491 129.39 8.911 109.318-276.137 57.546-355.552-63.558-8.91-109.318Zm38.794 28.666 17.412 63.765c146.099-16.444 212.848-110.047-25.421-99.423 195.215-25.433 264.067 1.755 247.402 29.722-16.666 27.968-114.598 64.61-240.199 81.774zM434.016 99.18c-.041-2.073-3.982-1.235-6.027-4.776V69.915c-.044-.928 2.483-3.485 5.754-3.618l-.073-2.6h-63.523c-1.46-1.435-2.525-2.928-2.818-4.368h-3.664v23.62h3.092c1.553-1.11 1.02-3.751 3.98-4.622l34.32.066V92.01c-119.4 37.342-112.61-92.262-6.443-56.746 11.093 4.523 5.544 9.076 11.103 9.079l14.364-23.953c-1.5-2.47-4.038.51-6.868.33-5.81 0-26.577-8.715-51.17-8.814-35.357.084-76.79 12.766-76.79 53.933 2.346 39.494 45.121 51.959 79.002 49.314 16.326 0 44.61-4.701 65.761-15.972zm40.578 12.055c-1.593-.007-5.941-1.176-5.856-5.617l9.573-17.338 53.82.113c1.123 2.456 9.817 15.366 9.59 18.359 0 .643-.05 4.112-5.795 4.563v2.757h43.748v-2.66c-3.167-.185-5.289-.995-6.432-2.269l-51.348-88.136c.062-3.592 4.338-3.933 5.438-4.62v-2.813h-42.138l-.019 2.782c4.277.312 5.998 2.848 5.38 6.07L441.87 108.36c-2.153 1.888-3.713 3.172-6.627 2.934v2.62h39.413zm11.232-36.87 19.396-35.774 19.422 35.812z"/>
</svg>
