<svg viewBox="0 0 170 136.02" xmlns="http://www.w3.org/2000/svg" xmlns:xlink="http://www.w3.org/1999/xlink">
  <defs>
    <linearGradient id="a" x1="35" x2="205" y1="117" y2="117" gradientTransform="translate(-35 -49)" gradientUnits="userSpaceOnUse" xlink:href="#linear-gradient">
      <stop stop-color="#fc0" offset="0"/>
      <stop stop-color="#d90000" offset="1"/>
    </linearGradient>
    <style>
      .cls-1{fill-rule:evenodd;fill:url(#linear-gradient)}
    </style>
  </defs>
  <path d="M0 6.54A6.54 6.54 0 0 1 6.54 0h-.08A6.54 6.54 0 0 1 13 6.54v56.81a6.54 6.54 0 0 1-6.54 6.54h.08A6.54 6.54 0 0 1 0 63.35Zm20 26.39a6.53 6.53 0 0 1 6.54-6.53h-.08A6.53 6.53 0 0 1 33 32.93v56.81a6.54 6.54 0 0 1-6.54 6.54h.08A6.54 6.54 0 0 1 20 89.74Zm20 17.85a6.54 6.54 0 0 1 6.54-6.54h-.08A6.54 6.54 0 0 1 53 50.78v56.81a6.54 6.54 0 0 1-6.54 6.54h.08a6.54 6.54 0 0 1-6.54-6.54Zm19 2.51a6.53 6.53 0 0 1 6.54-6.53h-.08A6.53 6.53 0 0 1 72 53.29v56.82a6.53 6.53 0 0 1-6.54 6.53h.08a6.53 6.53 0 0 1-6.54-6.53Zm20-5c0-3.61 2.39-6.54 6-6.54s7 2.93 7 6.54v56.81a6.54 6.54 0 0 1-6.54 6.54h.08A6.54 6.54 0 0 1 79 105.1V48.27Zm19-9.81a6.53 6.53 0 0 1 6.54-6.53h.92a6.53 6.53 0 0 1 6.54 6.51v57a6.54 6.54 0 0 1-6.54 6.54h-.92A6.54 6.54 0 0 1 98 95.46v-57zm20-.25a6.54 6.54 0 0 1 6.54-6.54h-.08a6.54 6.54 0 0 1 6.54 6.52V95a6.54 6.54 0 0 1-6.54 6.54h.08A6.54 6.54 0 0 1 118 95V38.21Zm20 13.07a6.53 6.53 0 0 1 6.54-6.53h-.08A6.53 6.53 0 0 1 151 51.3v56.8a6.53 6.53 0 0 1-6.54 6.53h.08a6.53 6.53 0 0 1-6.54-6.53V51.28Zm19 21.37a6.54 6.54 0 0 1 6.54-6.54h-.08a6.54 6.54 0 0 1 6.54 6.54v56.81a6.54 6.54 0 0 1-6.54 6.54h.08a6.54 6.54 0 0 1-6.54-6.54V72.65Z" fill="url(#a)" fill-rule="evenodd"/>
</svg>
