<svg xmlns="http://www.w3.org/2000/svg" xml:space="preserve" viewBox="0 0 61.719 61.719">
  <path fill="#c1c1c1" fill-rule="evenodd" d="M10 0h41.719a10 10 45 0 1 10 10v41.719a10 10 135 0 1-10 10H10a10 10 45 0 1-10-10V10A10 10 135 0 1 10 0z"/>
  <g transform="translate(0 -2.948)">
    <switch transform="matrix(.07067 0 0 .07287 -29.906 38.522)">
      <g>
        <path d="M656.05-360.028v61.634h-70.44v181.054h-68.79v-181.054h-67.68l.55-61.634zm86.95 0v243.238h-68.79l1.1-243.238zm20.91 89.148h61.084v47.877H763.91zm76.71 100.5 71.331-8.391c1.877 9.324 5.047 15.905 9.511 19.743 4.461 3.84 9.921 5.758 16.379 5.758 11.506 0 20.489-5.43 26.947-16.288 4.695-8.005 8.217-24.951 10.568-50.837-8.573 8.226-17.379 14.259-26.419 18.098-9.043 3.84-19.492 5.758-31.35 5.758-23.133 0-42.652-7.676-58.562-23.033-15.912-15.354-23.865-34.768-23.865-58.241 0-16.012 4.051-30.601 12.153-43.763s19.255-23.116 33.464-29.861c14.205-6.746 32.055-10.118 53.542-10.118 25.83 0 46.555 4.141 62.172 12.421 15.614 8.283 28.092 21.444 37.427 39.485 9.334 18.043 14.001 41.871 14.001 71.485 0 43.544-9.805 75.434-29.413 95.67-19.611 20.235-46.792 30.354-81.546 30.354-20.549 0-36.752-2.222-48.61-6.663-11.861-4.442-21.724-10.941-29.589-19.496-7.868-8.554-13.913-19.248-18.141-32.081zm132.09-107.6c0-13.051-3.522-23.28-10.567-30.684-7.045-7.403-15.618-11.105-25.714-11.105-9.511 0-17.409 3.347-23.689 10.036-6.283 6.691-9.422 16.727-9.422 30.107 0 13.491 3.258 23.802 9.775 30.93 6.516 7.131 14.646 10.694 24.394 10.694 10.097 0 18.493-3.455 25.186-10.365 6.691-6.909 10.037-16.78 10.037-29.613zm90.46 107.6 71.33-8.391c1.876 9.324 5.047 15.905 9.511 19.743 4.46 3.84 9.921 5.758 16.379 5.758 11.506 0 20.489-5.43 26.948-16.288 4.695-8.005 8.218-24.951 10.567-50.837-8.572 8.226-17.378 14.259-26.418 18.098-9.043 3.84-19.493 5.758-31.351 5.758-23.132 0-42.652-7.676-58.561-23.033-15.912-15.354-23.865-34.768-23.865-58.241 0-16.012 4.051-30.601 12.152-43.763 8.102-13.162 19.256-23.116 33.464-29.861 14.205-6.746 32.054-10.118 53.542-10.118 25.829 0 46.555 4.141 62.172 12.421 15.615 8.283 28.092 21.444 37.427 39.485 9.335 18.043 14.002 41.871 14.002 71.485 0 43.544-9.806 75.434-29.412 95.67-19.611 20.235-46.793 30.354-81.547 30.354-20.548 0-36.752-2.222-48.61-6.663-11.861-4.442-21.724-10.941-29.589-19.496-7.868-8.554-13.914-19.248-18.141-32.081zm132.09-107.6c0-13.051-3.522-23.28-10.566-30.684-7.046-7.403-15.618-11.105-25.714-11.105-9.511 0-17.409 3.347-23.689 10.036-6.283 6.691-9.423 16.727-9.423 30.107 0 13.491 3.258 23.802 9.775 30.93 6.517 7.131 14.646 10.694 24.393 10.694 10.097 0 18.493-3.455 25.186-10.365 6.692-6.909 10.038-16.78 10.038-29.613z"/>
      </g>
      <path fill="#6f685f" fill-rule="evenodd" d="M132.76-468.59h81.14a10 10 45 0 1 10 10v78.085a10 10 135 0 1-10 10h-81.14a10 10 45 0 1-10-10v-78.085a10 10 135 0 1 10-10z"/>
    </switch>
    <path d="m363.67 217.91-45.758 52.391v23.209h44.209v15.725h26.734V293.51h10.963v-23.893h-10.963V217.91zm2.072 6h17.113v51.707h10.963v12.375h-10.963v15.725H367.29v-15.725h-44.207v-15.24zm2.813 15.191-32.098 36.389h32.1zm-5.442 14.201v16.76h-14.78z" style="font-variation-settings:normal" transform="translate(-54.953 -9.164) scale(.20892)"/>
    <path fill="#fff" d="m323.08 272.76 42.66-48.842h17.113v51.707h10.963V288h-10.963v15.725h-15.566V288H323.08zm13.375 2.738h32.1l-.002-36.389-32.098 36.39" style="font-variation-settings:normal" transform="translate(-54.953 -9.164) scale(.20892)"/>
    <path d="m435.2 219.35-35.076 89.891h33.738l4.256-13.889h26.566l4.369 13.889h34.426l-35.066-89.891zm3.793 5.76h25.666l30.574 78.37h-22.1l-4.37-13.886h-34.716l-4.258 13.887h-21.377zm12.137 11.31-13.371 42.39h26.883zm.03 18.532 5.769 18.1h-11.48z" style="font-variation-settings:normal" transform="translate(-54.953 -9.164) scale(.20892)"/>
    <path fill="#fff" d="m438.99 225.11-30.58 78.371h21.377l4.447-13.887h34.527c-8.312-27.215 2.214 6.926 4.37 13.887h22.1l-30.575-78.371-12.793.102zm12.172 11.367 12.828 40.519-25.776.165z" style="font-variation-settings:normal" transform="translate(-54.953 -9.164) scale(.20892)"/>
  </g>
</svg>