<svg viewBox="0 0 18 18" xml:space="preserve" xmlns="http://www.w3.org/2000/svg">
  <circle cx="9" cy="9" r="9" fill="#00beea"/>
  <path d="M7.298 11.447 6.111 7.046l-1.202 4.401a9.39 9.39 0 0 1-.223.719.959.959 0 0 1-.288.391c-.137.114-.319.173-.545.173a.895.895 0 0 1-.454-.104.786.786 0 0 1-.288-.29 1.766 1.766 0 0 1-.18-.445 18.83 18.83 0 0 1-.125-.479L1.585 6.469a2.9 2.9 0 0 1-.11-.656c0-.19.067-.351.2-.48a.684.684 0 0 1 .496-.195c.271 0 .452.087.545.26.094.173.176.425.246.756l.961 4.286 1.076-4.011c.08-.307.152-.541.215-.701.063-.16.167-.299.311-.416.144-.117.339-.175.586-.175.25 0 .445.061.583.183a.987.987 0 0 1 .288.398c.053.144.125.381.215.711l1.086 4.011.961-4.286c.047-.223.091-.397.133-.524a.826.826 0 0 1 .216-.34c.102-.101.249-.15.442-.15.194 0 .358.064.493.193.136.128.203.29.203.483 0 .137-.037.355-.11.656l-1.222 4.941a8.341 8.341 0 0 1-.208.734.98.98 0 0 1-.28.407c-.132.116-.317.176-.558.176-.227 0-.409-.058-.545-.171a.922.922 0 0 1-.286-.383 10.376 10.376 0 0 1-.224-.729Zm5.016-4.912a.723.723 0 0 1-.488-.175c-.136-.117-.202-.282-.202-.496 0-.193.068-.353.207-.478a.7.7 0 0 1 .483-.188c.177 0 .333.057.471.17.137.114.205.279.205.496 0 .21-.066.375-.2.494a.695.695 0 0 1-.476.177zm.676 1.412v3.95c0 .274-.065.481-.195.621a.646.646 0 0 1-.496.211.616.616 0 0 1-.487-.216c-.125-.144-.188-.349-.188-.616v-3.91c0-.27.063-.474.188-.611a.63.63 0 0 1 .487-.205c.2 0 .366.068.496.205.13.137.195.328.195.571zm2.102-1.412a.725.725 0 0 1-.488-.175c-.135-.117-.202-.282-.202-.496 0-.193.069-.353.208-.478a.697.697 0 0 1 .482-.188.72.72 0 0 1 .471.17c.137.114.205.279.205.496 0 .21-.066.375-.2.494a.694.694 0 0 1-.476.177zm.676 1.412v3.95c0 .274-.064.481-.195.621a.644.644 0 0 1-.495.211.616.616 0 0 1-.488-.216c-.125-.144-.188-.349-.188-.616v-3.91c0-.27.063-.474.188-.611a.63.63 0 0 1 .488-.205c.2 0 .365.068.495.205.131.137.195.328.195.571z" fill="#fff"/>
</svg>
