<?xml version="1.0" encoding="UTF-8" standalone="no"?>
<!-- Created with Inkscape (http://www.inkscape.org/) -->

<svg
   width="1000mm"
   height="1000mm"
   viewBox="0 0 1000 1000"
   version="1.1"
   id="svg5"
   inkscape:version="1.2.1 (9c6d41e410, 2022-07-14)"
   sodipodi:docname="demo_again.svg"
   xmlns:inkscape="http://www.inkscape.org/namespaces/inkscape"
   xmlns:sodipodi="http://sodipodi.sourceforge.net/DTD/sodipodi-0.dtd"
   xmlns="http://www.w3.org/2000/svg"
   xmlns:svg="http://www.w3.org/2000/svg">
  <sodipodi:namedview
     id="namedview7"
     pagecolor="#ffffff"
     bordercolor="#666666"
     borderopacity="1.0"
     inkscape:showpageshadow="2"
     inkscape:pageopacity="0.0"
     inkscape:pagecheckerboard="true"
     inkscape:deskcolor="#d1d1d1"
     inkscape:document-units="mm"
     showgrid="false"
     inkscape:zoom="0.050344329"
     inkscape:cx="1757.8941"
     inkscape:cy="1489.7408"
     inkscape:window-width="1920"
     inkscape:window-height="1017"
     inkscape:window-x="-8"
     inkscape:window-y="-8"
     inkscape:window-maximized="1"
     inkscape:current-layer="layer1" />
  <defs
     id="defs2">
    <rect
       x="178.36932"
       y="505.60324"
       width="368.80875"
       height="100.5842"
       id="rect290" />
    <rect
       x="178.36932"
       y="505.60324"
       width="368.80875"
       height="100.5842"
       id="rect12638" />
  </defs>
  <g
     inkscape:label="Layer 1"
     inkscape:groupmode="layer"
     id="layer1"
     transform="translate(-52.130998,-104.07686)">
    <path
       id="rect234"
       style="opacity:0.6;fill:#ffffff;fill-opacity:1;stroke:#ffffff;stroke-width:0.707835;stroke-opacity:1"
       d="m 347.96534,929.43078 c -11.34613,0 -20.48041,9.1343 -20.48041,20.4804 v 118.33052 c 0,11.3461 9.13428,20.4804 20.48041,20.4804 h 408.33132 c 11.3461,0 20.4804,-9.1343 20.4804,-20.4804 V 949.91118 c 0,-11.3461 -9.1343,-20.4804 -20.4804,-20.4804 z m 355.15601,29.0403 c 14.2893,0 25.71201,4.4323 34.26791,13.2969 8.6001,8.8647 12.9,21.19091 12.9,36.97942 0,15.6565 -4.2558,27.9171 -12.7677,36.7817 -8.5118,8.8206 -19.89016,13.2307 -34.13536,13.2307 -14.42159,0 -25.88839,-4.3881 -34.40019,-13.1645 -8.5118,-8.8206 -12.7677,-20.9489 -12.7677,-36.3849 0,-9.87904 1.4774,-18.16989 4.4323,-24.87312 2.20515,-4.9395 5.20405,-9.3718 8.99685,-13.2969 3.83695,-3.9251 8.02665,-6.8361 12.56925,-8.7325 6.0421,-2.558 13.01029,-3.8368 20.90464,-3.8368 z m -344.06755,1.6537 h 35.78929 c 8.0708,0 14.22315,0.6175 18.45701,1.8523 5.68925,1.6759 10.56259,4.653 14.62004,8.931 4.05745,4.278 7.14478,9.526 9.26171,15.74437 2.11693,6.17407 3.17526,13.80355 3.17526,22.88865 0,7.9826 -0.9922,14.8629 -2.97683,20.6404 -2.42565,7.0564 -5.8877,12.7676 -10.38618,17.1338 -3.39591,3.3077 -7.98269,5.8878 -13.76015,7.7401 -4.32206,1.3672 -10.09942,2.0508 -17.33227,2.0508 H 359.0538 Z m 97.90798,0 h 71.90979 v 16.4062 h -52.32805 v 21.49954 h 48.68953 v 16.34008 h -48.68953 v 26.3955 h 54.18015 v 16.3401 h -73.76189 z m 90.10199,0 h 29.3065 l 17.59684,66.15362 17.39865,-66.15362 h 29.3724 v 96.98142 h -18.19245 v -76.34132 l -19.25075,76.34132 h -18.8539 l -19.18489,-76.34132 v 76.34132 h -18.1924 z m 156.25603,15.0833 c -8.0708,0 -14.57584,2.7785 -19.51534,8.3354 -4.9395,5.51265 -7.40935,13.84757 -7.40935,25.00542 0,10.9816 2.536,19.317 7.6078,25.0063 5.0718,5.6451 11.51074,8.4677 19.31689,8.4677 7.8062,0 14.2013,-2.8005 19.1849,-8.4016 5.02766,-5.6451 7.54166,-14.0907 7.54166,-25.3369 0,-11.11382 -2.4478,-19.40467 -7.34321,-24.87322 -4.8513,-5.4687 -11.31255,-8.2031 -19.38335,-8.2031 z m -324.6845,1.3229 v 64.23512 h 14.62003 c 5.46874,0 9.41601,-0.3089 11.84166,-0.9263 3.1754,-0.7938 5.79956,-2.139 7.87238,-4.0354 2.11693,-1.8964 3.83707,-5.0055 5.16015,-9.3276 1.32308,-4.3662 1.98463,-10.2981 1.98463,-17.7956 0,-7.4974 -0.66155,-13.25253 -1.98463,-17.26572 -1.32308,-4.01306 -3.17548,-7.1444 -5.55702,-9.3936 -2.38155,-2.2492 -5.40274,-3.7707 -9.06327,-4.5646 -2.73437,-0.6174 -8.09265,-0.9263 -16.07525,-0.9263 z" />
    <g
       id="g12668"
       style="font-size:40px;line-height:1.25;font-family:'Arial Unicode MS';-inkscape-font-specification:'Arial Unicode MS, Normal';white-space:pre;shape-inside:url(#rect12638);display:inline;opacity:0.6"
       transform="matrix(5.0357641,0,0,5.0357641,-548.63353,-1670.0537)">
      <path
         d="m 180.3134,522.3912 h 7.10704 q 2.40405,0 3.66519,0.36783 1.69465,0.4992 2.90324,1.77348 1.2086,1.27428 1.83916,3.12657 0.63057,1.83917 0.63057,4.54536 0,2.37777 -0.59115,4.0987 -0.72253,2.1019 -2.06249,3.40245 -1.01154,0.98526 -2.73247,1.53701 -1.28741,0.40725 -3.44186,0.40725 h -7.31723 z m 3.88851,3.25794 v 12.7559 h 2.90325 q 1.62897,0 2.3515,-0.18392 0.94585,-0.23646 1.56328,-0.80135 0.63057,-0.56488 1.02468,-1.85229 0.3941,-1.30055 0.3941,-3.53382 0,-2.23327 -0.3941,-3.42872 -0.39411,-1.19546 -1.1035,-1.86544 -0.70939,-0.66998 -1.79975,-0.90644 -0.81449,-0.18392 -3.19226,-0.18392 z"
         style="font-weight:bold;font-size:26.9043px;font-family:Arial;-inkscape-font-specification:'Arial, Bold';opacity:0.2;fill:#000000;fill-opacity:1;stroke:none"
         id="path12655" />
      <path
         d="M 199.75596,541.64985 V 522.3912 h 14.27977 v 3.25794 h -10.39126 v 4.26948 h 9.66873 v 3.24481 h -9.66873 v 5.24161 h 10.75909 v 3.24481 z"
         style="font-weight:bold;font-size:26.9043px;font-family:Arial;-inkscape-font-specification:'Arial, Bold';opacity:0.2;fill:#000000;fill-opacity:1;stroke:none"
         id="path12657" />
      <path
         d="M 217.64837,541.64985 V 522.3912 h 5.81963 l 3.49441,13.13687 3.45499,-13.13687 h 5.83277 v 19.25865 h -3.61264 V 526.4899 l -3.82283,15.15995 h -3.744 l -3.80969,-15.15995 v 15.15995 z"
         style="font-weight:bold;font-size:26.9043px;font-family:Arial;-inkscape-font-specification:'Arial, Bold';opacity:0.2;fill:#000000;fill-opacity:1;stroke:none"
         id="path12659" />
      <path
         d="m 239.3242,532.13875 q 0,-2.94265 0.88017,-4.93946 0.65684,-1.47133 1.78661,-2.64051 1.14291,-1.16918 2.496,-1.73406 1.79975,-0.76194 4.15125,-0.76194 4.25635,0 6.8049,2.64051 2.56169,2.64051 2.56169,7.34351 0,4.66358 -2.53542,7.30409 -2.53541,2.62738 -6.77862,2.62738 -4.29575,0 -6.83117,-2.61424 -2.53541,-2.62737 -2.53541,-7.22528 z m 4.00674,-0.13136 q 0,3.27108 1.51074,4.96573 1.51074,1.68152 3.83596,1.68152 2.32523,0 3.80969,-1.66838 1.49761,-1.68152 1.49761,-5.03142 0,-3.31049 -1.4582,-4.93946 -1.44505,-1.62897 -3.8491,-1.62897 -2.40404,0 -3.87537,1.65524 -1.47133,1.64211 -1.47133,4.96574 z"
         style="font-weight:bold;font-size:26.9043px;font-family:Arial;-inkscape-font-specification:'Arial, Bold';opacity:0.2;fill:#000000;fill-opacity:1;stroke:none"
         id="path12661" />
    </g>
  </g>
</svg>
