<?xml version="1.0" encoding="UTF-8" standalone="no"?>
<!-- Created with Inkscape (http://www.inkscape.org/) -->

<svg
   width="100.54167mm"
   height="181.23958mm"
   viewBox="0 0 100.54167 181.23958"
   version="1.1"
   id="svg5"
   xml:space="preserve"
   inkscape:version="1.2.1 (9c6d41e410, 2022-07-14)"
   sodipodi:docname="sky-sky.svg"
   inkscape:export-filename="sky-sky.png"
   inkscape:export-xdpi="280.29001"
   inkscape:export-ydpi="280.29001"
   xmlns:inkscape="http://www.inkscape.org/namespaces/inkscape"
   xmlns:sodipodi="http://sodipodi.sourceforge.net/DTD/sodipodi-0.dtd"
   xmlns="http://www.w3.org/2000/svg"
   xmlns:svg="http://www.w3.org/2000/svg"><sodipodi:namedview
     id="namedview7"
     pagecolor="#ffffff"
     bordercolor="#666666"
     borderopacity="1.0"
     inkscape:showpageshadow="2"
     inkscape:pageopacity="0.0"
     inkscape:pagecheckerboard="0"
     inkscape:deskcolor="#d1d1d1"
     inkscape:document-units="mm"
     showgrid="true"
     inkscape:zoom="1.4142136"
     inkscape:cx="436.99199"
     inkscape:cy="378.30213"
     inkscape:window-width="2560"
     inkscape:window-height="1377"
     inkscape:window-x="-8"
     inkscape:window-y="-8"
     inkscape:window-maximized="1"
     inkscape:current-layer="layer1"
     showguides="false"><inkscape:grid
       type="xygrid"
       id="grid417"
       originx="47.624996"
       originy="105.83333" /></sodipodi:namedview><defs
     id="defs2" /><g
     inkscape:label="Layer 1"
     inkscape:groupmode="layer"
     id="layer1"
     transform="translate(-57.375,-42.666667)"><rect
       style="display:inline;fill:#ffffff;stroke:#ffffff;stroke-width:0;stroke-linecap:round;stroke-linejoin:round;stroke-opacity:0"
       id="rect1520"
       width="100.54167"
       height="181.23958"
       x="57.375"
       y="42.666668"
       ry="8.9343462"
       inkscape:label="Outer White Rect"
       rx="0" /><rect
       style="display:inline;fill:#000000;stroke:#ffffff;stroke-width:0;stroke-linecap:round;stroke-linejoin:round;stroke-opacity:0"
       id="rect6898"
       width="97.895836"
       height="178.59375"
       x="58.697918"
       y="43.989582"
       ry="8.8039179"
       inkscape:label="Outer Black Rect"
       rx="0" /><rect
       style="display:inline;fill:#ffffff;stroke:#ffffff;stroke-width:0;stroke-linecap:round;stroke-linejoin:round;stroke-opacity:0"
       id="rect7309"
       width="82.020844"
       height="96.572914"
       x="66.635414"
       y="51.927082"
       ry="4.2605686"
       inkscape:label="Inner White Rect" /><path
       id="path6104"
       style="display:inline;fill:#000000;stroke:#000000;stroke-width:0.264583px;stroke-linecap:butt;stroke-linejoin:miter;stroke-opacity:1"
       class="UnoptimicedTransforms"
       inkscape:label="City Outline"
       d="m 114.78938,58.277063 v 3.704167 h -1.32292 v 5.291666 h -1.5875 V 63.56873 h -2.11667 v 3.704166 h -2.11666 l -1.85209,1.058334 v 8.73125 l 1.85209,0.79375 v 37.30625 h -2.38125 v 8.73125 h -1.5875 v -9.525 l -1.5875,-1.5875 v -12.7 l 1.05833,-0.529167 v -5.55625 h -2.11667 V 92.93748 l 0.79375,-0.529167 v -2.38125 l -0.79375,-0.79375 v -2.910417 h -1.322914 v 2.910417 l -0.79375,0.79375 v 2.38125 l 0.79375,0.529167 v 1.058333 h -1.852084 v -3.704167 h -1.322916 v 3.439584 h -1.5875 v 5.820833 l 1.058333,0.529167 v 2.11667 h -3.175 V 84.470813 l 1.322917,-0.529167 V 77.85623 h -1.5875 v -5.291667 h -2.38125 v 5.291667 h -1.322917 v -3.439584 h -1.058333 v 3.439584 h -2.116667 v 6.085416 l 1.058333,0.529167 V 105.3729 h -1.058333 v -3.96875 h -1.852083 v 18.52083 h -4.497917 v -2.91042 h -2.116667 v -1.05833 h 0.529167 v -9.78907 l 1.322917,-0.52968 v -5.55573 h -1.852084 v -2.645837 h -1.322916 v 2.645837 h -1.322917 v -5.027087 h -1.322917 v 5.027087 h -1.5875 v 5.55573 l 0.79375,0.52917 v 3.17551 l -7.14375,-5.1e-4 v 49.74166 H 149.44979 V 89.76248 h -2.38125 V 79.44373 h -2.91041 v 13.229166 h -1.5875 v 5.027084 h -6.35 v -8.73125 l 1.5875,-0.79375 v -3.96875 l -1.85209,-1.852084 V 81.03123 h -1.05833 v -2.38125 h -5.55625 v 2.38125 h -1.05833 v 1.322916 l -1.85209,1.852084 v 3.96875 l 1.5875,0.79375 0.26459,30.1625 h -5.82084 v -3.96875 h -2.91041 V 77.85623 l 1.85208,-0.79375 v -8.73125 l -1.05833,-1.058334 h -2.91042 V 61.98123 h -1.05833 v -3.704167 z m 21.43125,40.745833 h 6.35 v 25.135414 h -2.38125 v -14.2875 h -2.64584 v 5.55625 h -1.32291 z m -43.391671,4.497914 h 3.175 v 9.525 h -3.175 z m -26.9875,7.40834 h 6.614583 v 5.02708 h 0.529167 v 1.05833 h -2.116667 v 10.05417 h -2.38125 v -5.82083 h -2.645833 z m 56.620831,9.525 h 5.82084 v 2.91041 l -1.05834,1.05834 v 13.49375 l -1.05833,0.79375 h -0.79375 l -1.05833,-0.79375 v -7.9375 h -1.85209 z m -43.127081,0.79375 h 4.497917 v 14.55208 h -1.322917 v -8.99583 l -1.322917,-0.79375 h -1.852083 z m 24.341671,4.7625 h 1.5875 v 4.23333 h -1.5875 z m 36.5125,0.79375 h 2.38125 v 6.35 h -2.38125 z m -71.702088,1.5875 h 2.38125 v 7.40833 h -2.38125 z m 71.702088,7.14375 h 2.38125 v 10.58333 h -2.38125 z m -57.679171,1.5875 h 1.322917 v 8.99583 h -1.322917 z" /><path
       style="display:inline;fill:#000000;stroke:#000000;stroke-width:0.264583px;stroke-linecap:butt;stroke-linejoin:miter;stroke-opacity:1"
       d="m 65.577083,96.90625 h 1.5875 v -5.820833 l 1.852082,-2e-6 v -5.820833 h -3.704167 z"
       id="path601"
       sodipodi:nodetypes="ccccccc"
       inkscape:label="Left Part" /><g
       aria-label="SKY"
       id="text702"
       style="font-weight:bold;font-size:32.8083px;line-height:1.25;font-family:Consolas;-inkscape-font-specification:'Consolas Bold';letter-spacing:-0.79375px;word-spacing:0px;display:inline;fill:#ffffff;stroke-width:0.264583"
       inkscape:label="Sky Path"
       transform="matrix(1.0626538,0,0,1.0627261,-3.6767091,-28.423358)"><path
         d="m 88.942018,217.28049 q 0,9.0879 -12.007838,9.0879 -7.381868,0 -11.646947,-3.18241 l 4.166654,-6.26638 q 3.346447,2.95275 7.185018,2.95275 0.853016,0 1.640415,-0.3609 1.017057,-0.45931 1.017057,-1.18109 0,-0.98425 -3.248021,-1.80446 -4.658779,-1.1811 -6.102344,-1.93569 -3.248022,-1.70603 -3.248022,-4.92125 0,-9.05509 11.18763,-9.05509 5.249328,0 10.301807,2.29658 v 0 0 l -3.936996,6.10235 q -3.182405,-1.93569 -5.41337,-1.93569 -2.230964,0 -2.230964,1.08267 0,0.88583 3.182405,1.70603 4.330695,1.11549 5.938302,2.06693 3.215214,1.90288 3.215214,5.34775 z"
         style="font-family:Scream;-inkscape-font-specification:'Scream Bold'"
         id="path1332" /><path
         d="m 120.23481,225.6138 h -11.94222 l -8.497355,-8.43174 v 8.43174 H 90.44487 v -24.27814 h 9.350365 v 7.80837 l 7.611525,-7.80837 h 11.8438 l -12.2375,11.4829 z"
         style="font-family:Scream;-inkscape-font-specification:'Scream Bold'"
         id="path1334" /><path
         d="m 143.87256,201.336 -11.31887,12.76242 v 11.51572 h -9.54721 V 214.09842 L 111.622,201.336 h 11.22044 l 4.92124,5.61022 4.88844,-5.61022 z"
         style="font-family:Scream;-inkscape-font-specification:'Scream Bold'"
         id="path1336" /></g><g
       aria-label="STEEL"
       id="text1381"
       style="font-size:25.7528px;line-height:1.25;font-family:'Segoe MDL2 Assets';-inkscape-font-specification:'Segoe MDL2 Assets';letter-spacing:-0.79375px;word-spacing:0px;display:inline;fill:#ffffff;stroke-width:0.264583"
       inkscape:label="Steel Path"
       transform="translate(-0.38841082,-5.4467316)"><path
         d="m 84.657197,182.33434 q 0,7.13352 -9.425525,7.13352 -5.79438,0 -9.142244,-2.49802 l 3.270606,-4.91878 q 2.626785,2.31775 5.639863,2.31775 0.669573,0 1.28764,-0.28328 0.798337,-0.36054 0.798337,-0.9271 0,-0.77259 -2.549527,-1.41641 -3.656898,-0.9271 -4.790021,-1.51941 -2.549527,-1.33915 -2.549527,-3.86292 0,-7.10777 8.781704,-7.10777 4.120448,0 8.08638,1.80269 v 0 0 l -3.090336,4.79002 q -2.498022,-1.51941 -4.249212,-1.51941 -1.751191,0 -1.751191,0.84984 0,0.69533 2.498022,1.33915 3.399369,0.87559 4.661257,1.62242 2.523774,1.49366 2.523774,4.19771 z"
         style="font-weight:bold;font-family:Scream;-inkscape-font-specification:'Scream Bold'"
         id="path1383" /><path
         d="m 102.79177,174.96904 h -4.841524 v 13.98377 h -7.26229 v -13.98377 h -4.893032 v -5.17631 h 16.996846 z"
         style="font-weight:bold;font-family:Scream;-inkscape-font-specification:'Scream Bold'"
         id="path1385" /><path
         d="m 118.55707,188.9013 h -14.49882 v -19.05707 h 14.49882 v 5.15056 h -7.10777 v 1.87996 h 6.66997 v 5.15056 l -6.66997,-0.0258 v 1.87996 h 7.10777 z"
         style="font-weight:bold;font-family:Scream;-inkscape-font-specification:'Scream Bold'"
         id="path1387" /><path
         d="m 134.27089,188.9013 h -14.49883 v -19.05707 h 14.49883 v 5.15056 h -7.10777 v 1.87996 h 6.66997 v 5.15056 l -6.66997,-0.0258 v 1.87996 h 7.10777 z"
         style="font-weight:bold;font-family:Scream;-inkscape-font-specification:'Scream Bold'"
         id="path1389" /><path
         d="M 149.59841,188.87555 H 135.2541 v -19.05707 h 7.26229 v 13.90651 h 7.08202 z"
         style="font-weight:bold;font-family:Scream;-inkscape-font-specification:'Scream Bold'"
         id="path1391" /></g><g
       aria-label="BENEATH A"
       id="text1396"
       style="font-size:13.4056px;line-height:67.0279px;font-family:'Segoe MDL2 Assets';-inkscape-font-specification:'Segoe MDL2 Assets';letter-spacing:-0.79375px;word-spacing:0px;display:inline;fill:#ffffff;stroke-width:0.264583"
       inkscape:label="Beneath Path"
       transform="matrix(1.0296786,0,0,0.8122963,-2.3935356,29.117083)"><path
         d="m 75.167226,161.88156 q 0,1.40759 -1.34056,2.23873 -1.166287,0.72391 -2.640903,0.72391 h -5.053911 v -10.45637 h 4.289792 q 3.713351,0 3.713351,2.84199 0,1.19309 -0.777524,1.90359 1.809755,0.88477 1.809755,2.74815 z m -4.316603,-4.18255 q 0,-0.64347 -1.139476,-0.64347 v 1.23332 q 0.06703,0.0134 0.120651,0.0134 0.348545,0 0.643469,-0.13405 0.375356,-0.16087 0.375356,-0.4692 z m 0.737308,3.86081 q 0,-0.7239 -1.112664,-0.7239 v -0.0134 h -0.804336 v 1.42099 h 0.469196 l 0.469196,0.0134 q 0.33514,0.0134 0.630063,-0.17428 0.348545,-0.21449 0.348545,-0.52282 z"
         style="font-weight:bold;font-family:'Scream alternative';-inkscape-font-specification:'Scream alternative Bold';display:inline"
         id="path1398" /><path
         d="m 82.470451,164.8442 h -6.863667 v -10.42956 h 6.863667 v 2.81518 h -3.364805 v 1.03223 h 3.150316 v 2.81517 l -3.150316,-0.0134 v 1.03223 h 3.364805 z"
         style="font-weight:bold;font-family:'Scream alternative';-inkscape-font-specification:'Scream alternative Bold';display:inline"
         id="path1400" /><path
         d="m 94.452238,164.8442 h -3.190532 l -4.624932,-5.40246 v 5.40246 h -3.472051 v -10.45637 h 3.337995 l 4.557904,5.38905 v -5.38905 h 3.391616 z"
         style="font-weight:bold;font-family:'Scream alternative';-inkscape-font-specification:'Scream alternative Bold';display:inline"
         id="path1402" /><path
         d="m 102.02358,164.8442 h -6.863668 v -10.42956 h 6.863668 v 2.81518 h -3.364807 v 1.03223 h 3.150317 v 2.81517 l -3.150317,-0.0134 v 1.03223 h 3.364807 z"
         style="font-weight:bold;font-family:'Scream alternative';-inkscape-font-specification:'Scream alternative Bold';display:inline"
         id="path1404" /><path
         d="m 112.91716,164.8442 h -3.80719 l -0.73731,-1.74273 h -3.28437 l -0.76412,1.74273 H 100.584 l 4.42385,-10.45637 h 3.53908 z m -5.50971,-4.2898 -0.65687,-1.79635 -0.67028,1.79635 z"
         style="font-weight:bold;font-family:'Scream alternative';-inkscape-font-specification:'Scream alternative Bold';display:inline"
         id="path1406" /><path
         d="m 119.59715,157.21641 h -2.29236 v 7.668 h -3.43183 v -7.668 h -2.31917 v -2.84199 h 8.04336 z"
         style="font-weight:bold;font-family:'Scream alternative';-inkscape-font-specification:'Scream alternative Bold';display:inline"
         id="path1408" /><path
         d="m 130.80261,164.8442 h -3.43184 v -4.07531 h -3.32459 v 4.07531 h -3.43183 v -10.45637 h 3.43183 v 3.76697 h 3.32459 v -3.76697 h 3.43184 z"
         style="font-weight:bold;font-family:'Scream alternative';-inkscape-font-specification:'Scream alternative Bold';display:inline"
         id="path1410" /><path
         d="m 147.23386,164.84437 h -3.80719 l -0.7373,-1.74273 h -3.28438 l -0.76412,1.74273 h -3.74016 l 4.42385,-10.45637 h 3.53908 z m -5.5097,-4.2898 -0.65687,-1.79635 -0.67028,1.79635 z"
         style="font-weight:bold;font-family:'Scream alternative';-inkscape-font-specification:'Scream alternative Bold';display:inline"
         id="path1412" /></g></g></svg>
