<?xml version="1.0" encoding="UTF-8" standalone="no"?>
<svg
   width="1235"
   height="650"
   viewBox="0 0 7410 3900"
   version="1.1"
   id="svg33"
   sodipodi:docname="en_any.svg"
   inkscape:version="1.1 (c4e8f9ed74, 2021-05-24)"
   xmlns:inkscape="http://www.inkscape.org/namespaces/inkscape"
   xmlns:sodipodi="http://sodipodi.sourceforge.net/DTD/sodipodi-0.dtd"
   xmlns:xlink="http://www.w3.org/1999/xlink"
   xmlns="http://www.w3.org/2000/svg"
   xmlns:svg="http://www.w3.org/2000/svg">
  <defs
     id="defs37" />
  <sodipodi:namedview
     id="namedview35"
     pagecolor="#ffffff"
     bordercolor="#666666"
     borderopacity="1.0"
     inkscape:pageshadow="2"
     inkscape:pageopacity="0.0"
     inkscape:pagecheckerboard="0"
     showgrid="false"
     inkscape:zoom="0.53643725"
     inkscape:cx="1344.0528"
     inkscape:cy="266.57358"
     inkscape:window-width="2560"
     inkscape:window-height="1383"
     inkscape:window-x="1920"
     inkscape:window-y="29"
     inkscape:window-maximized="1"
     inkscape:current-layer="g55" />
  <path
     fill="#b22234"
     d="M0 0h7410v3900H0z"
     id="path2" />
  <path
     d="M0 450h7410m0 600H0m0 600h7410m0 600H0m0 600h7410m0 600H0"
     stroke="#fff"
     stroke-width="300"
     id="path4" />
  <path
     fill="#3c3b6e"
     d="M0 0h2964v2100H0z"
     id="path6" />
  <g
     fill="#fff"
     id="g31">
    <g
       id="d">
      <g
         id="c">
        <g
           id="e">
          <g
             id="b">
            <path
               id="a"
               d="M247 90l70.534 217.082-184.66-134.164h228.253L176.466 307.082z" />
            <use
               xlink:href="#a"
               y="420"
               id="use9" />
            <use
               xlink:href="#a"
               y="840"
               id="use11" />
            <use
               xlink:href="#a"
               y="1260"
               id="use13" />
          </g>
          <use
             xlink:href="#a"
             y="1680"
             id="use16" />
        </g>
        <use
           xlink:href="#b"
           x="247"
           y="210"
           id="use19" />
      </g>
      <use
         xlink:href="#c"
         x="494"
         id="use22" />
    </g>
    <use
       xlink:href="#d"
       x="988"
       id="use25" />
    <use
       xlink:href="#c"
       x="1976"
       id="use27" />
    <use
       xlink:href="#e"
       x="2470"
       id="use29" />
  </g>
  <g
     clip-path="url(#a-3)"
     id="g55"
     transform="matrix(120,0,0,120,1776.9741,-566.65626)"
     style="display:inline">
    <path
       d="m 14.182392,4.5 v 33 h 33.000001 v -33 z"
       fill="#012169"
       id="path45"
       sodipodi:nodetypes="ccccc"
       style="stroke-width:1.1" />
    <path
       d="m 14.491669,21 32.690743,16.5 m 0,-33 L 14.491669,21"
       stroke="#ffffff"
       stroke-width="6.6"
       id="path47"
       sodipodi:nodetypes="cccc" />
    <path
       d="m 14.491669,21 32.690743,16.5 m 0,-33 L 14.491669,21"
       clip-path="url(#b-6)"
       stroke="#c8102e"
       stroke-width="4.4"
       id="path49"
       sodipodi:nodetypes="cccc" />
    <path
       d="m 14.182412,4.5 v 33 M 14.491669,21 h 32.690743"
       stroke="#ffffff"
       stroke-width="11"
       id="path51"
       sodipodi:nodetypes="cccc" />
    <path
       d="m 14.182412,4.5 v 33 M 14.491669,21 h 32.690743"
       stroke="#c8102e"
       stroke-width="6.6"
       id="path53"
       sodipodi:nodetypes="cccc" />
  </g>
</svg>
