<?xml version="1.0" encoding="UTF-8" standalone="no"?>
<svg
   width="900"
   height="600"
   viewBox="0 0 5400 3600"
   version="1.1"
   id="svg33"
   sodipodi:docname="en.svg"
   inkscape:version="1.1.1 (3bf5ae0d25, 2021-09-20)"
   xmlns:inkscape="http://www.inkscape.org/namespaces/inkscape"
   xmlns:sodipodi="http://sodipodi.sourceforge.net/DTD/sodipodi-0.dtd"
   xmlns="http://www.w3.org/2000/svg"
   xmlns:svg="http://www.w3.org/2000/svg">
  <defs
     id="defs37" />
  <sodipodi:namedview
     id="namedview35"
     pagecolor="#ffffff"
     bordercolor="#666666"
     borderopacity="1.0"
     inkscape:pageshadow="2"
     inkscape:pageopacity="0.0"
     inkscape:pagecheckerboard="0"
     showgrid="false"
     inkscape:zoom="0.75863683"
     inkscape:cx="534.51135"
     inkscape:cy="132.47445"
     inkscape:window-width="1920"
     inkscape:window-height="1017"
     inkscape:window-x="-8"
     inkscape:window-y="-8"
     inkscape:window-maximized="1"
     inkscape:current-layer="g31"
     inkscape:snap-page="true"
     inkscape:snap-midpoints="true" />
  <path
     fill="#b22234"
     d="M 0,0 H 2663.3207 V 3600 H 0 Z"
     id="path2"
     style="display:inline;stroke-width:0.576;fill:#cc0000;fill-opacity:1" />
  <path
     d="m 0,415.38461 h 5400 m 0,553.84615 H 0 m 0,553.84614 h 5400 m 0,553.8462 H 0 m 0,553.8461 h 5400 m 0,553.8462 H 0"
     stroke="#ffffff"
     stroke-width="246.053"
     id="path4" />
  <path
     fill="#3c3b6e"
     d="M 0,0 H 2497.4614 V 1938.4615 H 0 Z"
     id="path6"
     style="fill:#000066;fill-opacity:1;stroke-width:0.88192" />
  <g
     fill="#ffffff"
     id="g31"
     transform="matrix(0.84305889,0,0,0.92307692,-15.189353,0)">
    <g
       id="g21967">
      <g
         id="g21939">
        <g
           id="g21927">
          <g
             id="g21923">
            <path
               id="path21915"
               d="M 247,90 317.534,307.082 132.874,172.918 H 361.127 L 176.466,307.082 Z" />
            <path
               id="path21917"
               d="M 247,510 317.534,727.082 132.874,592.918 H 361.127 L 176.466,727.082 Z" />
            <path
               id="path21919"
               d="m 247,930 70.534,217.082 -184.66,-134.164 h 228.253 l -184.661,134.164 z" />
            <path
               id="path21921"
               d="m 247,1350 70.534,217.082 -184.66,-134.164 h 228.253 l -184.661,134.164 z" />
          </g>
          <path
             id="path21925"
             d="m 247,1770 70.534,217.082 -184.66,-134.164 h 228.253 l -184.661,134.164 z" />
        </g>
        <g
           id="g21937"
           transform="translate(247,210)">
          <path
             id="path21929"
             d="M 247,90 317.534,307.082 132.874,172.918 H 361.127 L 176.466,307.082 Z" />
          <path
             id="path21931"
             d="M 247,510 317.534,727.082 132.874,592.918 H 361.127 L 176.466,727.082 Z" />
          <path
             id="path21933"
             d="m 247,930 70.534,217.082 -184.66,-134.164 h 228.253 l -184.661,134.164 z" />
          <path
             id="path21935"
             d="m 247,1350 70.534,217.082 -184.66,-134.164 h 228.253 l -184.661,134.164 z" />
        </g>
      </g>
      <g
         id="g21965"
         transform="translate(494)">
        <g
           id="g21953">
          <g
             id="g21949">
            <path
               id="path21941"
               d="M 247,90 317.534,307.082 132.874,172.918 H 361.127 L 176.466,307.082 Z" />
            <path
               id="path21943"
               d="M 247,510 317.534,727.082 132.874,592.918 H 361.127 L 176.466,727.082 Z" />
            <path
               id="path21945"
               d="m 247,930 70.534,217.082 -184.66,-134.164 h 228.253 l -184.661,134.164 z" />
            <path
               id="path21947"
               d="m 247,1350 70.534,217.082 -184.66,-134.164 h 228.253 l -184.661,134.164 z" />
          </g>
          <path
             id="path21951"
             d="m 247,1770 70.534,217.082 -184.66,-134.164 h 228.253 l -184.661,134.164 z" />
        </g>
        <g
           id="g21963"
           transform="translate(247,210)">
          <path
             id="path21955"
             d="M 247,90 317.534,307.082 132.874,172.918 H 361.127 L 176.466,307.082 Z" />
          <path
             id="path21957"
             d="M 247,510 317.534,727.082 132.874,592.918 H 361.127 L 176.466,727.082 Z" />
          <path
             id="path21959"
             d="m 247,930 70.534,217.082 -184.66,-134.164 h 228.253 l -184.661,134.164 z" />
          <path
             id="path21961"
             d="m 247,1350 70.534,217.082 -184.66,-134.164 h 228.253 l -184.661,134.164 z" />
        </g>
      </g>
    </g>
    <g
       id="g22021"
       transform="translate(988)">
      <g
         id="g21993">
        <g
           id="g21981">
          <g
             id="g21977">
            <path
               id="path21969"
               d="M 247,90 317.534,307.082 132.874,172.918 H 361.127 L 176.466,307.082 Z" />
            <path
               id="path21971"
               d="M 247,510 317.534,727.082 132.874,592.918 H 361.127 L 176.466,727.082 Z" />
            <path
               id="path21973"
               d="m 247,930 70.534,217.082 -184.66,-134.164 h 228.253 l -184.661,134.164 z" />
            <path
               id="path21975"
               d="m 247,1350 70.534,217.082 -184.66,-134.164 h 228.253 l -184.661,134.164 z" />
          </g>
          <path
             id="path21979"
             d="m 247,1770 70.534,217.082 -184.66,-134.164 h 228.253 l -184.661,134.164 z" />
        </g>
        <g
           id="g21991"
           transform="translate(247,210)">
          <path
             id="path21983"
             d="M 247,90 317.534,307.082 132.874,172.918 H 361.127 L 176.466,307.082 Z" />
          <path
             id="path21985"
             d="M 247,510 317.534,727.082 132.874,592.918 H 361.127 L 176.466,727.082 Z" />
          <path
             id="path21987"
             d="m 247,930 70.534,217.082 -184.66,-134.164 h 228.253 l -184.661,134.164 z" />
          <path
             id="path21989"
             d="m 247,1350 70.534,217.082 -184.66,-134.164 h 228.253 l -184.661,134.164 z" />
        </g>
      </g>
      <g
         id="g22019"
         transform="translate(494)">
        <g
           id="g22007">
          <g
             id="g22003">
            <path
               id="path21995"
               d="M 247,90 317.534,307.082 132.874,172.918 H 361.127 L 176.466,307.082 Z" />
            <path
               id="path21997"
               d="M 247,510 317.534,727.082 132.874,592.918 H 361.127 L 176.466,727.082 Z" />
            <path
               id="path21999"
               d="m 247,930 70.534,217.082 -184.66,-134.164 h 228.253 l -184.661,134.164 z" />
            <path
               id="path22001"
               d="m 247,1350 70.534,217.082 -184.66,-134.164 h 228.253 l -184.661,134.164 z" />
          </g>
          <path
             id="path22005"
             d="m 247,1770 70.534,217.082 -184.66,-134.164 h 228.253 l -184.661,134.164 z" />
        </g>
        <g
           id="g22017"
           transform="translate(247,210)">
          <path
             id="path22009"
             d="M 247,90 317.534,307.082 132.874,172.918 H 361.127 L 176.466,307.082 Z" />
          <path
             id="path22011"
             d="M 247,510 317.534,727.082 132.874,592.918 H 361.127 L 176.466,727.082 Z" />
          <path
             id="path22013"
             d="m 247,930 70.534,217.082 -184.66,-134.164 h 228.253 l -184.661,134.164 z" />
          <path
             id="path22015"
             d="m 247,1350 70.534,217.082 -184.66,-134.164 h 228.253 l -184.661,134.164 z" />
        </g>
      </g>
    </g>
    <g
       id="g22047"
       transform="translate(1976)">
      <g
         id="g22035">
        <g
           id="g22031">
          <path
             id="path22023"
             d="M 247,90 317.534,307.082 132.874,172.918 H 361.127 L 176.466,307.082 Z" />
          <path
             id="path22025"
             d="M 247,510 317.534,727.082 132.874,592.918 H 361.127 L 176.466,727.082 Z" />
          <path
             id="path22027"
             d="m 247,930 70.534,217.082 -184.66,-134.164 h 228.253 l -184.661,134.164 z" />
          <path
             id="path22029"
             d="m 247,1350 70.534,217.082 -184.66,-134.164 h 228.253 l -184.661,134.164 z" />
        </g>
        <path
           id="path22033"
           d="m 247,1770 70.534,217.082 -184.66,-134.164 h 228.253 l -184.661,134.164 z" />
      </g>
      <g
         id="g22045"
         transform="translate(247,210)">
        <path
           id="path22037"
           d="M 247,90 317.534,307.082 132.874,172.918 H 361.127 L 176.466,307.082 Z" />
        <path
           id="path22039"
           d="M 247,510 317.534,727.082 132.874,592.918 H 361.127 L 176.466,727.082 Z" />
        <path
           id="path22041"
           d="m 247,930 70.534,217.082 -184.66,-134.164 h 228.253 l -184.661,134.164 z" />
        <path
           id="path22043"
           d="m 247,1350 70.534,217.082 -184.66,-134.164 h 228.253 l -184.661,134.164 z" />
      </g>
    </g>
    <g
       id="g22061"
       transform="translate(2470)">
      <g
         id="g22057">
        <path
           id="path22049"
           d="M 247,90 317.534,307.082 132.874,172.918 H 361.127 L 176.466,307.082 Z" />
        <path
           id="path22051"
           d="M 247,510 317.534,727.082 132.874,592.918 H 361.127 L 176.466,727.082 Z" />
        <path
           id="path22053"
           d="m 247,930 70.534,217.082 -184.66,-134.164 h 228.253 l -184.661,134.164 z" />
        <path
           id="path22055"
           d="m 247,1350 70.534,217.082 -184.66,-134.164 h 228.253 l -184.661,134.164 z" />
      </g>
      <path
         id="path22059"
         d="m 247,1770 70.534,217.082 -184.66,-134.164 h 228.253 l -184.661,134.164 z" />
    </g>
  </g>
  <g
     clip-path="url(#a-3)"
     id="g55"
     transform="matrix(120,0,0,120,1776.9741,-566.65626)"
     style="display:none">
    <path
       d="m 14.182392,4.5 v 33 h 33.000001 v -33 z"
       fill="#012169"
       id="path45"
       sodipodi:nodetypes="ccccc"
       style="stroke-width:1.1" />
    <path
       d="m 14.491669,21 32.690743,16.5 m 0,-33 L 14.491669,21"
       stroke="#ffffff"
       stroke-width="6.6"
       id="path47"
       sodipodi:nodetypes="cccc" />
    <path
       d="m 14.491669,21 32.690743,16.5 m 0,-33 L 14.491669,21"
       clip-path="url(#b-6)"
       stroke="#c8102e"
       stroke-width="4.4"
       id="path49"
       sodipodi:nodetypes="cccc" />
    <path
       d="m 14.182412,4.5 v 33 M 14.491669,21 h 32.690743"
       stroke="#ffffff"
       stroke-width="11"
       id="path51"
       sodipodi:nodetypes="cccc" />
    <path
       d="m 14.182412,4.5 v 33 M 14.491669,21 h 32.690743"
       stroke="#c8102e"
       stroke-width="6.6"
       id="path53"
       sodipodi:nodetypes="cccc" />
  </g>
  <g
     id="g578"
     transform="matrix(82.929676,0,0,120.00001,424.21945,0)">
    <rect
       id="rect124"
       style="fill:#000066;stroke-width:0.763763pt"
       height="30"
       width="35"
       y="0"
       x="25" />
    <g
       id="g584">
      <path
         id="path146"
         style="fill:#ffffff;stroke-width:1pt"
         d="m 29.2919,15 -10e-5,3 24.0002,12.0001 H 60 v -3.354 L 29.292,12 v 0 z M 60,0 V 3.354 L 29.2918,18 l 10e-5,-3 1e-4,-3 24,-12 z"
         sodipodi:nodetypes="ccccccccccccccc" />
      <path
         id="path136"
         style="fill:#ffffff;stroke-width:1pt"
         d="M 25,0 V 30 H 35 V 0 Z m 1.7078,10 2e-4,10 H 60 V 10 Z"
         sodipodi:nodetypes="cccccccccc" />
      <path
         id="path141"
         style="fill:#cc0000;stroke-width:1pt"
         d="m 29.292,12 -2e-4,6 H 60 V 12 Z M 27,0 v 30 h 6 V 0 Z"
         sodipodi:nodetypes="cccccccccc" />
      <path
         id="path150"
         style="fill:#cc0000;stroke-width:1pt"
         d="m 35.528,10 20,-10 H 60 L 40,10 Z M 60,30 40,20 h 4.472 L 60,27.764 Z"
         sodipodi:nodetypes="cccccccccc" />
    </g>
  </g>
</svg>
