<?xml version="1.0" encoding="UTF-8" standalone="no"?>
<!-- Created with Inkscape (http://www.inkscape.org/) -->

<svg
   width="900"
   height="600"
   viewBox="0 0 238.12501 158.75"
   version="1.1"
   id="svg3627"
   inkscape:version="1.1.1 (3bf5ae0d25, 2021-09-20)"
   sodipodi:docname="es2.svg"
   xmlns:inkscape="http://www.inkscape.org/namespaces/inkscape"
   xmlns:sodipodi="http://sodipodi.sourceforge.net/DTD/sodipodi-0.dtd"
   xmlns:xlink="http://www.w3.org/1999/xlink"
   xmlns="http://www.w3.org/2000/svg"
   xmlns:svg="http://www.w3.org/2000/svg">
  <sodipodi:namedview
     id="namedview3629"
     pagecolor="#ffffff"
     bordercolor="#666666"
     borderopacity="1.0"
     inkscape:pageshadow="2"
     inkscape:pageopacity="0.0"
     inkscape:pagecheckerboard="0"
     inkscape:document-units="mm"
     showgrid="false"
     units="px"
     inkscape:snap-page="true"
     inkscape:zoom="0.74118967"
     inkscape:cx="262.41596"
     inkscape:cy="355.50954"
     inkscape:window-width="1920"
     inkscape:window-height="1017"
     inkscape:window-x="-8"
     inkscape:window-y="-8"
     inkscape:window-maximized="1"
     inkscape:current-layer="layer1" />
  <defs
     id="defs3624" />
  <g
     inkscape:label="Layer 1"
     inkscape:groupmode="layer"
     id="layer1">
    <path
       fill="#c60b1e"
       d="M 0,4e-6 H 238.125 V 158.75 H 0 Z"
       id="path2"
       style="stroke-width:0.3175" />
    <path
       fill="#ffc400"
       d="M 0,39.687506 H 238.125 V 119.0625 H 0 Z"
       id="path4"
       style="stroke-width:0.3175" />
    <g
       stroke="#000000"
       stroke-width="0.39"
       id="g604"
       transform="matrix(0.35306804,0,0,0.35306804,-5.53791,-21.224673)">
      <g
         id="c">
        <g
           fill="#005bbf"
           id="g124">
          <path
             d="m 191.28,330.68 c -1.54,0 -2.91,-0.33 -3.93,-0.87 -1,-0.51 -2.36,-0.82 -3.86,-0.82 -1.51,0 -2.9,0.32 -3.91,0.83 -1.01,0.53 -2.4,0.86 -3.92,0.86 -1.54,0 -2.92,-0.36 -3.93,-0.9 -1,-0.49 -2.33,-0.79 -3.79,-0.79 -1.52,0 -2.86,0.29 -3.86,0.81 -1.02,0.54 -2.42,0.88 -3.95,0.88 v 2.41 c 1.53,0 2.93,-0.35 3.95,-0.88 1,-0.52 2.34,-0.82 3.86,-0.82 1.45,0 2.79,0.31 3.79,0.8 1.01,0.53 2.39,0.9 3.93,0.9 1.52,0 2.91,-0.33 3.92,-0.86 1.01,-0.52 2.4,-0.84 3.91,-0.84 1.5,0 2.86,0.32 3.86,0.83 1.02,0.54 2.37,0.87 3.91,0.87 z"
             id="path114" />
          <path
             fill="#cccccc"
             d="m 191.28,333.09 c -1.54,0 -2.91,-0.33 -3.93,-0.87 -1,-0.51 -2.36,-0.83 -3.86,-0.83 -1.51,0 -2.9,0.32 -3.91,0.84 -1.01,0.53 -2.4,0.86 -3.92,0.86 -1.54,0 -2.92,-0.37 -3.93,-0.9 -1,-0.49 -2.33,-0.8 -3.79,-0.8 -1.52,0 -2.86,0.3 -3.86,0.82 -1.02,0.53 -2.42,0.88 -3.95,0.88 v 2.41 c 1.53,0 2.93,-0.35 3.95,-0.88 1,-0.52 2.34,-0.82 3.86,-0.82 1.45,0 2.79,0.31 3.79,0.8 1.01,0.54 2.39,0.9 3.93,0.9 1.52,0 2.91,-0.34 3.92,-0.86 1.01,-0.52 2.4,-0.84 3.91,-0.84 1.5,0 2.86,0.32 3.86,0.84 1.02,0.53 2.37,0.86 3.91,0.86 l 0.02,-2.41"
             id="path116" />
          <path
             d="m 191.28,335.5 c -1.54,0 -2.91,-0.33 -3.93,-0.86 -1,-0.52 -2.36,-0.84 -3.86,-0.84 -1.51,0 -2.9,0.32 -3.91,0.84 -1.01,0.52 -2.4,0.86 -3.92,0.86 -1.54,0 -2.92,-0.36 -3.93,-0.9 -1,-0.49 -2.33,-0.8 -3.79,-0.8 -1.52,0 -2.86,0.3 -3.86,0.82 -1.02,0.53 -2.42,0.88 -3.95,0.88 v 2.4 c 1.53,0 2.93,-0.34 3.95,-0.88 1,-0.51 2.34,-0.8 3.86,-0.8 1.45,0 2.79,0.3 3.79,0.79 1.01,0.54 2.39,0.89 3.93,0.89 1.52,0 2.91,-0.32 3.92,-0.85 1.01,-0.52 2.4,-0.83 3.91,-0.83 1.5,0 2.86,0.31 3.86,0.82 1.02,0.55 2.37,0.86 3.91,0.86 l 0.02,-2.4"
             id="path118" />
          <path
             fill="#cccccc"
             d="m 191.26,340.32 c -1.54,0 -2.89,-0.33 -3.91,-0.87 -1,-0.51 -2.36,-0.82 -3.86,-0.82 -1.51,0 -2.9,0.31 -3.91,0.83 -1.01,0.52 -2.4,0.86 -3.92,0.86 -1.54,0 -2.92,-0.37 -3.93,-0.9 -1,-0.5 -2.33,-0.79 -3.79,-0.79 -1.52,0 -2.86,0.29 -3.86,0.81 -1.02,0.53 -2.42,0.88 -3.95,0.88 v -2.4 c 1.53,0 2.93,-0.36 3.95,-0.9 1,-0.51 2.34,-0.8 3.86,-0.8 1.45,0 2.79,0.3 3.79,0.79 1.01,0.54 2.39,0.89 3.93,0.89 1.52,0 2.91,-0.32 3.92,-0.85 1.01,-0.52 2.4,-0.83 3.91,-0.83 1.5,0 2.86,0.31 3.86,0.82 1.02,0.55 2.39,0.86 3.93,0.86 l -0.02,2.42"
             id="path120" />
          <path
             d="m 191.26,342.73 c -1.54,0 -2.89,-0.33 -3.91,-0.86 -1,-0.52 -2.36,-0.84 -3.86,-0.84 -1.51,0 -2.9,0.32 -3.91,0.84 -1.01,0.52 -2.4,0.86 -3.92,0.86 -1.54,0 -2.92,-0.37 -3.93,-0.9 -1,-0.5 -2.33,-0.8 -3.79,-0.8 -1.52,0 -2.86,0.3 -3.86,0.82 -1.02,0.53 -2.42,0.88 -3.95,0.88 v -2.39 c 1.53,0 2.93,-0.37 3.95,-0.9 1,-0.52 2.34,-0.81 3.86,-0.81 1.45,0 2.79,0.3 3.79,0.79 1.01,0.53 2.39,0.9 3.93,0.9 1.52,0 2.91,-0.34 3.92,-0.86 1.01,-0.52 2.4,-0.83 3.91,-0.83 1.5,0 2.86,0.31 3.86,0.82 1.02,0.54 2.38,0.87 3.93,0.87 z"
             id="path122" />
        </g>
        <g
           fill="#c8b100"
           id="g130">
          <path
             stroke-linejoin="round"
             d="m 166.92,320.78 c 0.05,0.21 0.13,0.4 0.13,0.62 0,1.46 -1.27,2.63 -2.81,2.63 h 22.94 c -1.55,0 -2.81,-1.17 -2.81,-2.63 0,-0.21 0.04,-0.41 0.09,-0.62 -0.13,0.05 -0.29,0.06 -0.44,0.06 h -16.69 c -0.13,0 -0.29,-0.02 -0.41,-0.06 z"
             id="path126" />
          <path
             d="m 167.33,319.27 h 16.69 c 0.57,0 1.02,0.35 1.02,0.78 0,0.43 -0.45,0.79 -1.02,0.79 h -16.69 c -0.56,0 -1.02,-0.36 -1.02,-0.79 0,-0.43 0.46,-0.78 1.02,-0.78 z m -3.06,10.59 h 22.87 v -5.83 h -22.87 z"
             id="path128" />
        </g>
        <path
           fill="#cccccc"
           d="M 167.55,318.32 H 183.8 V 238.69 H 167.55 Z"
           id="path132" />
        <path
           fill="none"
           d="m 179.13,238.8 v 79.46 m 1.83,-79.46 v 79.46"
           id="path134" />
        <g
           fill="#c8b100"
           id="g142">
          <path
             d="m 164.58,232.37 h 22.29 v -5.84 h -22.29 z"
             id="path136" />
          <path
             stroke-linejoin="round"
             d="m 166.92,236.26 a 0.91,0.91 0 0 1 0.41,-0.07 h 16.69 c 0.17,0 0.32,0.03 0.46,0.08 -0.58,-0.19 -0.99,-0.71 -0.99,-1.32 0,-0.61 0.45,-1.14 1.03,-1.33 -0.14,0.04 -0.33,0.08 -0.49,0.08 h -16.7 c -0.17,0 -0.33,-0.01 -0.47,-0.06 l 0.09,0.02 c 0.6,0.18 0.94,0.71 0.94,1.29 0,0.56 -0.38,1.13 -0.97,1.31 z"
             id="path138" />
          <path
             d="m 167.33,236.19 h 16.69 c 0.57,0 1.02,0.35 1.02,0.78 0,0.44 -0.45,0.79 -1.02,0.79 h -16.69 c -0.56,0 -1.02,-0.35 -1.02,-0.79 0,-0.43 0.46,-0.78 1.02,-0.78 z m 0,-3.82 h 16.7 c 0.57,0 1.03,0.3 1.03,0.66 0,0.37 -0.46,0.67 -1.03,0.67 h -16.7 c -0.56,0 -1.02,-0.3 -1.02,-0.67 0,-0.36 0.46,-0.66 1.02,-0.66 z"
             id="path140" />
        </g>
      </g>
      <g
         id="d"
         fill="#ad1519">
        <path
           d="m 162.48,298.62 c -2.26,1.3 -3.8,2.64 -3.55,3.31 0.12,0.61 0.84,1.07 1.87,1.75 1.62,1.13 2.6,3.14 1.83,4.07 1.34,-1.08 2.19,-2.69 2.19,-4.49 0,-1.87 -0.9,-3.56 -2.34,-4.64 z"
           id="path145" />
        <path
           stroke-linejoin="round"
           d="m 200.4,268.47 c -3.54,-1.46 -9.57,-2.55 -16.49,-2.78 -2.39,0.02 -5.04,0.25 -7.79,0.7 -9.72,1.63 -17.13,5.51 -16.54,8.67 0.01,0.06 0.04,0.2 0.05,0.26 0,0 -3.64,-8.21 -3.7,-8.52 -0.65,-3.51 7.56,-7.82 18.35,-9.62 3.39,-0.57 6.69,-0.79 9.56,-0.76 6.9,0 12.9,0.89 16.52,2.23 l 0.04,9.82"
           id="path147" />
        <path
           d="m 167.52,278.47 c -4.51,-0.32 -7.58,-1.53 -7.94,-3.41 -0.28,-1.5 1.25,-3.17 3.97,-4.68 1.21,0.14 2.58,0.3 4,0.3 l -0.03,7.79 m 16.31,-6.09 c 2.82,0.43 4.93,1.13 5.98,1.99 l 0.1,0.17 c 0.5,1.03 -1.97,3.22 -6.11,5.67 l 0.03,-7.83"
           id="path149" />
        <path
           stroke-linejoin="round"
           d="m 157.42,293.83 c -0.43,-1.28 3.97,-3.86 10.18,-6.14 2.84,-1.01 5.18,-2.07 8.09,-3.35 8.63,-3.82 15,-8.2 14.22,-9.79 l -0.09,-0.17 c 0.46,0.38 1.18,8.24 1.18,8.24 0.78,1.46 -5.05,5.78 -13,9.58 -2.54,1.22 -7.91,3.2 -10.44,4.09 -4.54,1.57 -9.04,4.54 -8.63,5.64 l -1.51,-8.09 z"
           id="path151" />
      </g>
      <g
         stroke-width="0.52"
         id="g602">
        <path
           fill="#cccccc"
           d="m 250.49,344.33 c -13.08,0 -26.05,-3.2 -36.95,-8.54 -8.03,-3.98 -13.36,-12 -13.36,-21.19 V 281.3 H 300.6 v 33.3 c 0,9.19 -5.32,17.21 -13.36,21.19 -10.9,5.34 -23.66,8.54 -36.75,8.54 z"
           id="path482"
           style="display:inline" />
        <g
           fill="#c8b100"
           id="g496">
          <path
             fill="#ad1519"
             d="m 250.32,314.57 c 0,13.16 -11.16,23.82 -25.05,23.82 -13.89,0 -25.15,-10.66 -25.15,-23.82 v -33.35 h 50.2 v 33.35"
             id="path492" />
          <path
             d="m 200.03,314.12 c 0.15,7.02 2.95,12.25 5.73,15.67 v -49.47 h -5.66 z m 11.05,20.11 c 1.57,0.83 3.72,2.22 6.03,2.77 l -0.15,-56.96 h -5.88 z m 11.2,4.02 c 2.3,0.23 4.01,0.19 5.87,0 v -58.21 h -5.87 z M 233.32,337 c 2.3,-0.46 4.9,-1.89 6.03,-2.63 v -54.33 h -5.88 z m 11.49,-7.76 c 2.45,-2.18 4.75,-7.12 5.59,-12.76 l 0.14,-36.44 h -5.87 z"
             id="path494" />
        </g>
        <g
           id="g505"
           inkscape:label="g505">
          <path
             fill="#ad1519"
             d="m 300.65,281.22 v 33.35 c 0,13.16 -11.28,23.82 -25.17,23.82 -13.9,0 -25.16,-10.66 -25.16,-23.82 v -33.35 h 50.33"
             id="path498" />
          <path
             id="e"
             fill="#c8b100"
             stroke="#c8b100"
             stroke-width="0.26"
             d="m 272.71,306.14 c 0.05,-0.14 0.12,-0.27 0.19,-0.4 l -4.26,-4.74 -1.67,0.72 -3.06,-3.39 1,-1.46 -5.34,-5.99 c -0.07,0.02 -0.2,0.02 -0.27,0.04 l 0.03,4.02 1.75,0.5 v 4.46 l -1.75,0.48 -0.03,4.08 c 0.84,0.26 1.48,0.88 1.74,1.67 l 3.21,0.01 0.51,-1.67 h 4.72 l 0.5,1.67 z m -6.98,-18.5 v 1.61 h 2.76 v -1.61 z m -7.3,20.37 c 0.64,0 1.16,-0.49 1.16,-1.1 0,-0.61 -0.52,-1.11 -1.16,-1.11 -0.65,0 -1.17,0.5 -1.17,1.11 0,0.61 0.52,1.1 1.17,1.1 z m 15.99,-9.73 -1.76,-0.48 v -4.46 l 1.76,-0.5 -0.01,-1.92 c -0.85,-0.25 -1.51,-0.87 -1.79,-1.67 h -2.68 l -0.51,1.67 h -4.71 l -0.51,-1.67 h -3.09 c -0.08,0.22 -0.17,0.42 -0.29,0.61 l 5.38,5.96 1.67,-0.71 3.06,3.4 -1,1.45 4.18,4.64 c 0.09,-0.04 0.18,-0.08 0.28,-0.12 z m -7.25,-1.39 -1.29,1.04 1.77,1.98 1.29,-1.05 z m 8.004,36.186 c -1.24,-0.065 -2.255,-0.902 -2.514,-2.016 -1.67,-0.23 -3.25,-0.66 -4.73,-1.3 l 0.84,-1.43 c 1.29,0.55 2.66,0.91 4.08,1.11 0.31,-0.66 0.86,-1.16 1.58,-1.4 l 0.01,-5.62 -1.76,-0.49 v -4.46 l 1.76,-0.48 v -7.64 a 0.882,0.882 0 0 1 -0.2,-0.09 l -3.98,4.42 1,1.44 -3.06,3.4 -1.67,-0.71 -3.3,3.67 c 0.57,0.87 0.55,2 -0.11,2.85 a 15.58,15.58 0 0 0 3.24,2.75 l -0.84,1.44 c -1.42,-0.89 -2.7,-1.99 -3.79,-3.22 -0.87,0.26 -1.86,0.11 -2.6,-0.5 -1.15,-0.93 -1.29,-2.56 -0.3,-3.64 l 0.14,-0.16 c -0.69,-1.56 -1.16,-3.24 -1.32,-5 l 1.71,0.01 c 0.14,1.5 0.51,2.93 1.09,4.27 0.49,-0.06 1,-0.01 1.46,0.16 l 3.32,-3.68 -1,-1.45 3.06,-3.4 1.67,0.72 3.99,-4.43 a 2.15,2.15 0 0 1 -0.21,-0.46 l -2.76,0.01 -0.5,1.67 h -4.72 l -0.51,-1.67 -3.24,-0.01 c -0.27,0.76 -0.9,1.36 -1.69,1.62 l -0.01,4.04 -1.71,-0.01 v -4.01 c -1.1,-0.33 -1.91,-1.31 -1.91,-2.47 0,-1.15 0.82,-2.15 1.92,-2.48 l 0.01,-4.05 -1.76,-0.48 v -4.46 l 1.76,-0.5 v -4.05 c -1.08,-0.35 -1.84,-1.32 -1.84,-2.45 0,-1.43 1.22,-2.58 2.73,-2.58 1.22,0 2.25,0.74 2.61,1.78 h 3.09 l 0.51,-1.67 h 4.71 l 0.51,1.67 h 2.68 c 0.357,-1.031 1.363,-1.767 2.559,-1.78 l 0.071,8.37 h -0.85 v 2.61 h 0.845 l -0.021,21.59 h -0.784 v 2.61 h 0.78 z m -5.914,-18.306 -1.29,-1.04 -1.78,1.98 1.29,1.04 z m -9.96,-18.44 h -1.69 l -0.01,2.61 h 1.7 z m 9.16,11.41 v -1.6 h -2.85 v 1.6 z m -10.6,9.69 -1.76,-0.39 -0.25,-4.45 1.75,-0.58 v 2.56 c 0,0.99 0.09,1.92 0.26,2.86 z m 1.46,-5.52 1.75,0.41 c 0,0 0.09,2.87 0.05,2.22 -0.04,-0.74 0.19,2.24 0.19,2.24 l -1.76,0.58 c -0.18,-0.9 -0.24,-1.84 -0.24,-2.79 z m 10.81,16.93 0.39,-1.7 c -1.52,-0.48 -2.93,-1.18 -4.17,-2.09 l -1.26,1.11 c 1.48,1.15 3.19,2.08 5.04,2.68 z m -0.85,1.44 -1.3,1.22 c -1.47,-0.54 -2.86,-1.26 -4.12,-2.11 l 0.38,-1.77 c 1.5,1.13 3.21,2.03 5.04,2.66 z" />
          <path
             fill="#058e6e"
             d="m 272.59,306.94 c 0,-1.44 1.23,-2.6 2.74,-2.6 1.51,0 2.73,1.16 2.73,2.6 0,1.43 -1.22,2.58 -2.73,2.58 -1.51,0 -2.74,-1.15 -2.74,-2.58"
             stroke="none"
             id="path503" />
          <use
             xlink:href="#e"
             transform="matrix(-1,0,0,1,550.43,0)"
             id="use3277"
             x="0"
             y="0"
             width="100%"
             height="100%"
             style="display:inline" />
        </g>
        <g
           fill="#c8b100"
           stroke-width="0.46"
           id="g519">
          <path
             fill="#ad1519"
             stroke-width="0.52"
             d="M 200.12,281.25 H 250.3 V 225.53 H 200.12 Z"
             id="path507" />
        </g>
        <g
           id="g585"
           style="display:inline">
          <path
             fill="#cccccc"
             d="M 250.28,281.25 H 300.6 V 225.53 H 250.28 Z"
             id="path521" />
        </g>
        <g
           stroke-width="0.61"
           id="g600">
          <ellipse
             fill="#ad1519"
             cx="250.42999"
             cy="281.01001"
             rx="16.26"
             ry="18.299999"
             id="ellipse587" />
          <ellipse
             fill="#005bbf"
             cx="250.44"
             cy="280.97"
             rx="11.44"
             ry="13.42"
             id="ellipse589" />
        </g>
      </g>
      <use
         xlink:href="#c"
         x="149.17"
         id="use3441"
         y="0"
         width="100%"
         height="100%" />
      <use
         xlink:href="#d"
         transform="matrix(-1,0,0,1,500.57,0)"
         id="use3359"
         x="0"
         y="0"
         width="100%"
         height="100%" />
    </g>
  </g>
</svg>
