<?xml version="1.0" encoding="UTF-8" standalone="no"?>
<svg
   width="900"
   height="600"
   version="1.1"
   id="svg115"
   sodipodi:docname="hr.svg"
   inkscape:version="1.1.1 (3bf5ae0d25, 2021-09-20)"
   xmlns:inkscape="http://www.inkscape.org/namespaces/inkscape"
   xmlns:sodipodi="http://sodipodi.sourceforge.net/DTD/sodipodi-0.dtd"
   xmlns="http://www.w3.org/2000/svg"
   xmlns:svg="http://www.w3.org/2000/svg">
  <defs
     id="defs119" />
  <sodipodi:namedview
     id="namedview117"
     pagecolor="#ffffff"
     bordercolor="#666666"
     borderopacity="1.0"
     inkscape:pageshadow="2"
     inkscape:pageopacity="0.0"
     inkscape:pagecheckerboard="0"
     showgrid="false"
     inkscape:snap-page="true"
     inkscape:zoom="0.88166667"
     inkscape:cx="445.17958"
     inkscape:cy="217.20227"
     inkscape:window-width="1920"
     inkscape:window-height="1017"
     inkscape:window-x="-8"
     inkscape:window-y="-8"
     inkscape:window-maximized="1"
     inkscape:current-layer="svg115" />
  <path
     fill="#171796"
     d="M 0,0 H 900 V 600 H 0 Z"
     id="path2"
     style="stroke-width:0.866025" />
  <path
     fill="#ffffff"
     d="M 0,0 H 900 V 400 H 0 Z"
     id="path4"
     style="stroke-width:0.866025" />
  <path
     fill="#ff0000"
     d="M 0,0 H 900 V 200 H 0 Z"
     id="path6"
     style="stroke-width:0.866025" />
  <path
     fill="#ff0000"
     d="m 450.001,455.185 c 64.152,0 116.636,-52.487 116.636,-116.635 V 199.954 H 333.363 V 338.55 c 0,64.151 52.487,116.635 116.635,116.635 z"
     id="path8" />
  <path
     fill="#ffffff"
     d="m 450.0015,453.316 c 62.928,0 114.411,-51.485 114.411,-114.41 V 202.198 h -228.825 v 136.706 c 0,62.929 51.486,114.411 114.414,114.411 z"
     id="path10" />
  <g
     fill="#ff0000"
     id="g16"
     transform="translate(-149.943)">
    <path
       d="m 533.916,206.5 h -44.03 v 48.376 h 44.03 z m 0,96.749 h 44.03 v -48.373 h -44.03 z m -44.03,35.387 c 0,4.393 0.272,8.726 0.779,12.988 h 43.251 V 303.25 h -44.03 v 35.387 z M 621.98,303.249 h -44.034 v 48.375 h 44.034 z m 0,96.748 h 44.03 v -48.373 h -44.03 z m 44.03,26.463 A 111.488,111.488 0 0 0 691.15,400 H 666.01 Z M 533.919,399.997 h 44.03 v -48.373 h -44.03 z m -25.18,0 a 111.46,111.46 0 0 0 25.18,26.492 v -26.492 z"
       id="path12" />
    <path
       d="m 607.632,448.373 a 109.46,109.46 0 0 0 14.345,-1.958 v -46.418 h -44.03 v 46.424 c 4.668,0.957 9.445,1.611 14.303,1.949 5.127,0.317 10.254,0.299 15.379,0 z m 101.585,-96.749 c 0.51,-4.277 0.782,-8.625 0.782,-13.033 v -35.34 h -43.992 v 48.376 h 43.21 z M 621.98,303.249 h 44.03 v -48.373 h -44.03 z m 0,-96.749 h -44.03 v 48.376 h 44.03 z M 710,254.876 V 206.5 h -43.99 v 48.376 z"
       id="path14" />
  </g>
  <g
     id="g113"
     transform="translate(-150)">
    <path
       fill="#ffffff"
       d="m 712.464,198.535 27.3,-61.885 -20.799,-33.587 -34.46,12.758 -24.194,-27.656 -31.88,18.27 -28.426,-23.282 -28.427,23.281 -31.88,-18.27 -24.197,27.654 -34.46,-12.757 -20.805,33.595 27.265,61.897 c 34.357,-15.55 72.451,-24.214 112.507,-24.214 40.037,0 78.114,8.658 112.461,24.196 z"
       id="path18" />
    <path
       fill="#0093dd"
       d="m 516.26,118.552 -0.051,0.06 -34.173,-12.655 -19.123,30.876 7.325,16.656 18.558,42.126 a 274.588,274.588 0 0 1 43.227,-14.953 l -15.76,-62.107 z"
       id="path20" />
    <path
       fill="#171796"
       d="m 571.874,109.257 -0.059,0.047 -31.614,-18.115 -23.942,27.363 15.761,62.108 a 274.725,274.725 0 0 1 45.147,-7.542 l -5.296,-63.86 z"
       id="path30"
       style="display:inline" />
    <g
       transform="scale(0.00296)"
       id="g59">
      <path
         fill="#0093dd"
         d="m 212105,36890 -23,13 -9517,-7794 -9497,7778 1788,21560 c 2543,-210 5113,-322 7709,-322 2608,0 5190,113 7744,325 l 1795,-21560 z"
         id="path36" />
    </g>
    <g
       id="g93">
      <path
         fill="#171796"
         d="m 683.871,118.584 -0.074,0.027 -23.992,-27.422 -31.546,18.08 -5.32,63.861 a 274.6,274.6 0 0 1 45.145,7.556 l 15.784,-62.099 z"
         id="path61"
         style="display:inline" />
    </g>
    <g
       id="g111">
      <path
         fill="#0093dd"
         d="m 711.17,195.594 25.923,-58.758 -19.123,-30.876 -34.102,12.627 -15.784,62.1 a 274.19,274.19 0 0 1 43.082,14.91 z"
         id="path95"
         style="display:inline" />
    </g>
  </g>
</svg>
