<?xml version="1.0" encoding="UTF-8" standalone="no"?>
<svg
   width="900"
   height="600"
   viewBox="-36 -24 72 48"
   version="1.1"
   id="svg22"
   sodipodi:docname="ko.svg"
   inkscape:version="1.1.1 (3bf5ae0d25, 2021-09-20)"
   xmlns:inkscape="http://www.inkscape.org/namespaces/inkscape"
   xmlns:sodipodi="http://sodipodi.sourceforge.net/DTD/sodipodi-0.dtd"
   xmlns="http://www.w3.org/2000/svg"
   xmlns:svg="http://www.w3.org/2000/svg">
  <defs
     id="defs26" />
  <sodipodi:namedview
     id="namedview24"
     pagecolor="#ffffff"
     bordercolor="#666666"
     borderopacity="1.0"
     inkscape:pageshadow="2"
     inkscape:pageopacity="0.0"
     inkscape:pagecheckerboard="0"
     showgrid="false"
     inkscape:zoom="0.83124331"
     inkscape:cx="439.70279"
     inkscape:cy="242.40797"
     inkscape:window-width="1920"
     inkscape:window-height="1017"
     inkscape:window-x="-8"
     inkscape:window-y="-8"
     inkscape:window-maximized="1"
     inkscape:current-layer="g14" />
  <path
     fill="#fff"
     d="M-36-24h72v48h-72z"
     id="path2" />
  <g
     transform="rotate(-56.31)"
     id="g14">
    <g
       id="b-2"
       style="display:inline">
      <path
         id="a-4"
         d="M -6,-25 H 6 m -12,3 H 6 m -12,3 H 6"
         stroke="#000000"
         stroke-width="2"
         style="display:inline" />
      <path
         id="use5-6"
         d="M -6,19 H 6 M -6,22 H 6 M -6,25 H 6"
         stroke="#000000"
         stroke-width="2"
         style="display:inline" />
    </g>
    <path
       stroke="#ffffff"
       d="M 0,17 V 27"
       id="path8"
       style="display:inline" />
    <circle
       fill="#cd2e3a"
       r="12"
       id="circle10"
       cx="0"
       cy="0"
       style="display:inline" />
    <path
       fill="#0047a0"
       d="M 0,-12 A 6,6 0 0 0 0,0 6,6 0 0 1 0,12 12,12 0 0 1 0,-12 Z"
       id="path12"
       style="display:inline" />
  </g>
  <g
     transform="rotate(-123.69)"
     id="g20">
    <g
       id="use16-6"
       style="display:inline">
      <path
         id="path1259-6"
         d="M -6,-25 H 6 m -12,3 H 6 m -12,3 H 6"
         stroke="#000000"
         stroke-width="2"
         style="display:inline" />
      <path
         id="path1261-7"
         d="M -6,19 H 6 M -6,22 H 6 M -6,25 H 6"
         stroke="#000000"
         stroke-width="2"
         style="display:inline" />
    </g>
    <path
       stroke="#ffffff"
       d="m 0,-23.5 v 3 M 0,17 v 3.5 m 0,3 v 3"
       id="path18"
       style="display:inline" />
  </g>
</svg>
