<?xml version="1.0" encoding="UTF-8" standalone="no"?>
<!-- Created with Inkscape (http://www.inkscape.org/) -->

<svg
   width="900"
   height="600"
   viewBox="0 0 238.12499 158.75"
   version="1.1"
   id="svg992"
   inkscape:version="1.1.1 (3bf5ae0d25, 2021-09-20)"
   sodipodi:docname="sk.svg"
   xmlns:inkscape="http://www.inkscape.org/namespaces/inkscape"
   xmlns:sodipodi="http://sodipodi.sourceforge.net/DTD/sodipodi-0.dtd"
   xmlns="http://www.w3.org/2000/svg"
   xmlns:svg="http://www.w3.org/2000/svg">
  <sodipodi:namedview
     id="namedview994"
     pagecolor="#ffffff"
     bordercolor="#666666"
     borderopacity="1.0"
     inkscape:pageshadow="2"
     inkscape:pageopacity="0.0"
     inkscape:pagecheckerboard="0"
     inkscape:document-units="mm"
     showgrid="false"
     units="px"
     fit-margin-top="0"
     fit-margin-left="0"
     fit-margin-right="0"
     fit-margin-bottom="0"
     inkscape:zoom="0.37059484"
     inkscape:cx="937.68171"
     inkscape:cy="325.15294"
     inkscape:window-width="1920"
     inkscape:window-height="1017"
     inkscape:window-x="-8"
     inkscape:window-y="-8"
     inkscape:window-maximized="1"
     inkscape:current-layer="layer1" />
  <defs
     id="defs989" />
  <g
     inkscape:label="Layer 1"
     inkscape:groupmode="layer"
     id="layer1"
     transform="translate(205.09255,57.95673)">
    <path
       class="st0"
       d="M -205.09255,-57.95673 H 33.032447 v 158.75 H -205.09255 Z"
       id="path4"
       style="fill:#ee1c25;stroke-width:0.264583" />
    <path
       class="st1"
       d="M -205.09255,-57.95673 H 33.032447 V 47.876602 H -205.09255 Z"
       id="path6"
       style="fill:#0b4ea2;stroke-width:0.264583" />
    <path
       class="st2"
       d="M -205.09255,-57.95673 H 33.032447 V -5.040064 H -205.09255 Z"
       id="path8"
       style="fill:#ffffff;stroke-width:0.264583" />
    <path
       id="_x3C_Path_x3E_"
       class="st2"
       d="m -100.98457,-20.65048 h -65.38409 l -0.22411,2.132277 c -0.0487,0.46355 -1.19353,11.6339932 -1.19353,36.165895 0,11.526044 3.89625,21.694775 11.58081,30.223354 5.38401,5.975614 12.41505,11.006402 21.49528,15.379964 l 1.0332,0.497681 1.03346,-0.497681 c 9.0805,-4.373562 16.11207,-9.40435 21.49634,-15.379964 7.68456,-8.528579 11.581075,-18.69731 11.581075,-30.223354 0,-24.5316372 -1.145115,-35.702345 -1.193795,-36.165895 z"
       style="display:inline;fill:#ffffff;stroke-width:0.264583" />
    <path
       class="st0"
       d="m -133.67701,61.105769 c -13.05454,-6.288088 -31.72804,-18.769013 -31.72804,-43.458077 0,-24.6890643 1.18031,-35.916922 1.18031,-35.916922 h 61.09626 c 0,0 1.18083,11.2281223 1.18083,35.916922 0,24.689064 -18.67376,37.169989 -31.72936,43.458077 z"
       id="path11"
       style="display:inline;fill:#ee1c25;stroke-width:0.264583" />
    <path
       class="st2"
       d="m -130.88116,11.174661 c 3.53483,0.05715 10.4312,0.195527 16.57218,-1.8592273 0,0 -0.16219,2.1976293 -0.16219,4.7572083 0,2.560373 0.16219,4.757737 0.16219,4.757737 -5.63272,-1.885156 -12.58888,-1.924314 -16.57218,-1.873779 v 13.636361 h -5.58377 V 16.9566 c -3.9833,-0.05053 -10.93919,-0.01138 -16.57217,1.873779 0,0 0.16219,-2.197364 0.16219,-4.757737 0,-2.559844 -0.16219,-4.7572083 -0.16219,-4.7572083 6.14098,2.0547543 13.03734,1.9163773 16.57217,1.8592273 V 2.6106276 c -3.22183,-0.028575 -7.86421,0.1251479 -13.11354,1.8819812 0,0 0.16219,-2.1973646 0.16219,-4.75773744 0,-2.56010826 -0.16219,-4.75747286 -0.16219,-4.75747286 5.2414,1.7536583 9.87848,1.9100271 13.09926,1.8822458 -0.16563,-5.4234291 -1.74546,-12.2586753 -1.74546,-12.2586753 0,0 3.25146,0.253736 4.55136,0.253736 1.30122,0 4.55163,-0.253736 4.55163,-0.253736 0,0 -1.5793,6.8355108 -1.74519,12.2581461 3.22104,0.028046 7.85786,-0.1283229 13.09925,-1.8822458 0,0 -0.16219,2.1973646 -0.16219,4.75747289 0,2.56037291 0.16219,4.75773741 0.16219,4.75773741 -5.24906,-1.7565687 -9.89171,-1.9105562 -13.11354,-1.8819812 z"
       id="path13"
       style="display:inline;fill:#ffffff;stroke-width:0.264583" />
    <path
       class="st1"
       d="m -133.68045,29.116056 c -6.57543,0 -10.09729,9.119923 -10.09729,9.119923 0,0 -1.95395,-4.32435 -7.31864,-4.32435 -3.62982,0 -6.30476,3.228181 -8.00524,6.217709 6.60374,10.505281 17.13971,16.988101 25.4209,20.976431 8.28279,-3.988594 18.82564,-10.469827 25.42964,-20.976431 -1.70048,-2.989528 -4.37542,-6.217709 -8.00524,-6.217709 -5.36495,0 -7.3271,4.32435 -7.3271,4.32435 0,0 -3.52108,-9.119923 -10.09703,-9.119923 z"
       id="path15"
       style="display:inline;fill:#0b4ea2;stroke-width:0.264583" />
  </g>
</svg>
