<?xml version="1.0" encoding="UTF-8" standalone="no"?>
<!-- Created with Inkscape (http://www.inkscape.org/) -->

<svg
   width="900"
   height="600"
   viewBox="0 0 238.12501 158.75"
   version="1.1"
   id="svg4393"
   inkscape:version="1.1.1 (3bf5ae0d25, 2021-09-20)"
   sodipodi:docname="sr_mia.svg"
   xmlns:inkscape="http://www.inkscape.org/namespaces/inkscape"
   xmlns:sodipodi="http://sodipodi.sourceforge.net/DTD/sodipodi-0.dtd"
   xmlns="http://www.w3.org/2000/svg"
   xmlns:svg="http://www.w3.org/2000/svg">
  <sodipodi:namedview
     id="namedview4395"
     pagecolor="#ffffff"
     bordercolor="#666666"
     borderopacity="1.0"
     inkscape:pageshadow="2"
     inkscape:pageopacity="0.0"
     inkscape:pagecheckerboard="0"
     inkscape:document-units="mm"
     showgrid="false"
     units="px"
     inkscape:snap-page="true"
     inkscape:zoom="0.52410025"
     inkscape:cx="220.37769"
     inkscape:cy="212.74556"
     inkscape:window-width="1920"
     inkscape:window-height="1017"
     inkscape:window-x="-8"
     inkscape:window-y="-8"
     inkscape:window-maximized="1"
     inkscape:current-layer="layer1" />
  <defs
     id="defs4390">
    <clipPath
       id="a">
      <path
         d="M 0,167.75 H 756.13 V 336.09 H 0 Z"
         id="path2" />
    </clipPath>
    <clipPath
       id="b">
      <path
         d="M 0,335.51 H 756.13 V 504.09 H 0 Z"
         id="path5" />
    </clipPath>
  </defs>
  <g
     inkscape:label="Layer 1"
     inkscape:groupmode="layer"
     id="layer1">
    <path
       d="M 0,0 H 238.125 V 158.74789 H 0 Z"
       fill="#c6363c"
       fill-rule="evenodd"
       stroke-width="0.545452"
       id="path8" />
    <g
       transform="matrix(0.314926,0,0,0.62906468,0,-52.656273)"
       clip-path="url(#a)"
       id="g12"
       style="display:inline">
      <path
         fill-rule="evenodd"
         fill="#0c4076"
         d="M 0,167.62 H 756.13 V 336.06 H 0 Z"
         id="path10"
         style="display:inline" />
    </g>
    <g
       clip-path="url(#b)"
       id="g16"
       transform="scale(0.314926)">
      <path
         fill-rule="evenodd"
         fill="#ffffff"
         d="M 0,334.79 H 756.13 V 504.08 H 0 Z"
         id="path14" />
    </g>
    <g
       stroke-miterlimit="22.926"
       stroke="#21231e"
       id="g712"
       style="display:inline"
       transform="matrix(0.77862426,0,0,0.77852803,-125.2554,-142.96578)">
      <g
         fill-rule="evenodd"
         id="g664"
         style="display:inline" />
      <g
         fill="#ffffff"
         fill-rule="evenodd"
         id="g690"
         style="display:inline" />
      <path
         d="m -323.29,-236.47 v -61.125 c 0,-10.93 4.46,-20.855 11.65,-28.047 7.191,-7.188 17.118,-11.648 28.051,-11.648 h 0.004 c 10.932,0 20.856,4.46 28.047,11.648 7.191,7.191 11.65,17.117 11.65,28.047 v 61.125 z"
         transform="matrix(-0.95223,0,0,-1,0,0.131)"
         fill="#c6363c"
         stroke-width="1.334"
         id="path692"
         style="display:inline" />
      <g
         fill="#ffffff"
         id="g708">
        <path
           d="m 324.05,-273.96 v -15.754 h -31.506 v -46.703 a 39.737,39.737 0 0 0 -8.29,-0.871 h -0.004 c -2.837,0 -5.613,0.3 -8.285,0.871 v 46.703 h -31.506 v 15.754 h 31.506 v 37.492 h 16.579 v -37.492 z"
           transform="matrix(0.94998,0,0,-1,0,0.131)"
           stroke-width="0.667"
           id="path694"
           style="display:inline" />
        <g
           fill-rule="evenodd"
           stroke-linejoin="round"
           id="g706">
          <path
             d="m -245.41,-257.65 h -22.145 c -1.297,4.84 -5.98,16.62 4.285,17.235 4.746,0.282 7.875,-5.904 3.684,-7.572 -1.985,-0.787 -3.387,0.07 -3.844,1.233 -0.488,1.257 0.523,2.502 2.035,2.173 -2.613,5.008 -8.156,-4.479 -0.941,-8.758 2.105,-1.25 4.293,2.102 5.851,2.106 1.559,0.004 3.891,-3.293 5.852,-2.106 7.18,4.334 1.672,13.766 -0.938,8.758 1.508,0.329 2.524,-0.916 2.036,-2.173 -0.457,-1.163 -1.86,-2.02 -3.844,-1.233 -4.192,1.668 -1.063,7.854 3.683,7.572 10.262,-0.615 5.582,-12.396 4.286,-17.235 z"
             transform="matrix(0,-1,-0.99769,0,0,0.131)"
             stroke-width="0.676"
             id="path696"
             style="display:inline" />
          <g
             stroke-width="0.671"
             id="g704">
            <path
               d="m -245.41,283.68 h -22.145 c -1.297,4.84 -5.98,16.62 4.285,17.235 4.746,0.286 7.875,-5.904 3.684,-7.568 -1.985,-0.795 -3.387,0.066 -3.844,1.23 -0.488,1.256 0.523,2.505 2.035,2.172 -2.613,5.008 -8.156,-4.475 -0.941,-8.758 2.105,-1.25 4.293,2.106 5.851,2.11 1.559,0.004 3.891,-3.297 5.852,-2.11 7.18,4.334 1.672,13.766 -0.938,8.758 1.508,0.333 2.524,-0.916 2.036,-2.173 -0.457,-1.163 -1.86,-2.024 -3.844,-1.23 -4.192,1.665 -1.063,7.855 3.683,7.569 10.262,-0.615 5.582,-12.396 4.286,-17.235 z"
               transform="matrix(0,-1,0.99769,0,0,0.131)"
               id="path698" />
            <path
               d="m 318.28,-257.65 h -22.148 c -1.297,4.84 -5.977,16.62 4.29,17.235 4.745,0.282 7.874,-5.904 3.683,-7.572 -1.985,-0.787 -3.39,0.07 -3.844,1.233 -0.488,1.257 0.523,2.502 2.035,2.173 -2.61,5.008 -8.156,-4.479 -0.941,-8.758 2.101,-1.25 4.293,2.102 5.851,2.106 1.559,0.004 3.89,-3.293 5.852,-2.106 7.183,4.334 1.672,13.766 -0.938,8.758 1.508,0.329 2.52,-0.916 2.032,-2.173 -0.454,-1.163 -1.86,-2.02 -3.844,-1.233 -4.192,1.668 -1.059,7.854 3.683,7.572 10.27,-0.615 5.586,-12.396 4.29,-17.235 z"
               transform="matrix(0,1,-0.99769,0,0,0.131)"
               id="path700" />
            <path
               d="m 318.28,283.68 h -22.148 c -1.297,4.84 -5.977,16.62 4.29,17.235 4.745,0.286 7.874,-5.904 3.683,-7.568 -1.985,-0.795 -3.39,0.066 -3.844,1.23 -0.488,1.256 0.523,2.505 2.035,2.172 -2.61,5.008 -8.156,-4.475 -0.941,-8.758 2.101,-1.25 4.293,2.106 5.851,2.11 1.559,0.004 3.89,-3.297 5.852,-2.11 7.183,4.334 1.672,13.766 -0.938,8.758 1.508,0.333 2.52,-0.916 2.032,-2.173 -0.454,-1.163 -1.86,-2.024 -3.844,-1.23 -4.192,1.665 -1.059,7.855 3.683,7.569 10.27,-0.615 5.586,-12.396 4.29,-17.235 z"
               transform="matrix(0,1,0.99769,0,0,0.131)"
               id="path702" />
          </g>
        </g>
      </g>
      <path
         d="m -323.29,-236.47 v -61.125 c 0,-10.93 4.46,-20.855 11.65,-28.047 7.191,-7.188 17.118,-11.648 28.051,-11.648 h 0.004 c 10.932,0 20.856,4.46 28.047,11.648 7.191,7.191 11.65,17.117 11.65,28.047 v 61.125 z"
         transform="matrix(-0.95223,0,0,-1,0,0.131)"
         fill="none"
         stroke-width="1.334"
         id="path710" />
    </g>
  </g>
</svg>
