<?xml version="1.0" encoding="UTF-8" standalone="no"?>
<svg
   xmlns:dc="http://purl.org/dc/elements/1.1/"
   xmlns:cc="http://creativecommons.org/ns#"
   xmlns:rdf="http://www.w3.org/1999/02/22-rdf-syntax-ns#"
   xmlns:svg="http://www.w3.org/2000/svg"
   xmlns="http://www.w3.org/2000/svg"
   xmlns:sodipodi="http://sodipodi.sourceforge.net/DTD/sodipodi-0.dtd"
   xmlns:inkscape="http://www.inkscape.org/namespaces/inkscape"
   version="1.1"
   x="0px"
   y="0px"
   width="202"
   height="84.349998"
   viewBox="0 0 202 84.349998"
   id="svg27"
   sodipodi:docname="3do-v3.svg"
   inkscape:version="1.0.2-2 (e86c870879, 2021-01-15)">
  <metadata
     id="metadata33">
    <rdf:RDF>
      <cc:Work
         rdf:about="">
        <dc:format>image/svg+xml</dc:format>
        <dc:type
           rdf:resource="http://purl.org/dc/dcmitype/StillImage" />
        <dc:title>3DO Logo</dc:title>
      </cc:Work>
    </rdf:RDF>
  </metadata>
  <defs
     id="defs31" />
  <sodipodi:namedview
     pagecolor="#ffffff"
     bordercolor="#666666"
     borderopacity="1"
     objecttolerance="10"
     gridtolerance="10"
     guidetolerance="10"
     inkscape:pageopacity="0"
     inkscape:pageshadow="2"
     inkscape:window-width="2560"
     inkscape:window-height="1417"
     id="namedview29"
     showgrid="false"
     inkscape:zoom="2.8"
     inkscape:cx="101"
     inkscape:cy="-92.908997"
     inkscape:window-x="2552"
     inkscape:window-y="-8"
     inkscape:window-maximized="1"
     inkscape:current-layer="svg27"
     inkscape:document-rotation="0" />
  <title
     id="title2">3DO Logo</title>
  <rect
     x="1"
     y="1"
     width="200"
     height="82.349998"
     id="rect4"
     style="stroke:#ffffff;stroke-width:2;stroke-miterlimit:4;stroke-dasharray:none;stroke-opacity:1" />
  <path
     style="fill:#ffffff"
     d="m 34.406,38.244003 v 0.133 c 6.014,0.112 10.455,1.308 13.321,3.588 2.867,2.279 4.301,5.035 4.301,8.266 0,3.608 -1.629,6.587 -4.895,8.931 -3.259,2.35 -7.602,3.524 -13.015,3.524 -4.678,0 -8.293,-0.938 -10.853,-2.805 -2.559,-1.867 -3.839,-3.993 -3.839,-6.385 0,-1.587 0.573,-2.874 1.72,-3.847 1.147,-0.972 2.524,-1.454 4.126,-1.454 1.503,0 2.797,0.427 3.867,1.272 1.077,0.854 1.608,1.979 1.608,3.371 0,1.86 -1.245,3.419 -3.741,4.678 -0.489,0.245 -0.741,0.524 -0.741,0.833 0,0.573 0.699,1.076 2.105,1.511 1.399,0.433 2.825,0.643 4.293,0.643 4.805,0 7.21,-3.531 7.21,-10.594 0,-6.993 -2.888,-10.489 -8.657,-10.489 l -4.791,0.195 c -0.965,0 -1.455,-0.356 -1.455,-1.069 0,-0.819 0.511,-1.231 1.525,-1.231 l 3.489,0.133 c 3.56,0 5.944,-0.79 7.154,-2.378 1.216,-1.58 1.818,-3.832 1.818,-6.755 0,-3.007 -0.455,-5.224 -1.371,-6.637 -0.916,-1.42 -2.49,-2.125 -4.713,-2.125 -1.209,0 -2.349,0.202 -3.413,0.614 -1.063,0.406 -1.601,0.805 -1.601,1.204 0,0.369 0.35,0.755 1.049,1.153 1.832,1.168 2.755,2.434 2.755,3.797 0,1.343 -0.51,2.405 -1.539,3.203 -1.028,0.79 -2.182,1.188 -3.469,1.188 -1.482,0 -2.804,-0.455 -3.965,-1.356 -1.161,-0.909 -1.749,-2.028 -1.749,-3.378 0,-2.293 1.294,-4.279 3.881,-5.951 2.587,-1.679 5.902,-2.517 9.958,-2.517 4.483,0 8.259,0.95 11.335,2.846 3.084,1.895 4.623,4.321 4.623,7.294 0.004,5.846 -5.444,9.378 -16.331,10.594 z"
     id="path8" />
  <path
     style="fill:#ffffff"
     d="m 88.692,19.483003 v 40.209 h 3.937 c 6.021,0 9.657,-1.58 10.909,-4.734 1.252,-3.16 1.875,-8.559 1.875,-16.202 0,-5.979 -0.386,-10.28 -1.154,-12.889 -0.762,-2.614 -1.93,-4.335 -3.49,-5.152 -1.56,-0.819 -3.545,-1.231 -5.944,-1.231 h -6.133 z m -12.161,40.209 v -40.209 h -6.307 v -2.175 h 25.272 c 7.308,0 13.098,2.07 17.357,6.217 4.258,4.14 6.391,9.37 6.391,15.685 0,3.272 -0.649,6.357 -1.95,9.231 -1.301,2.881 -3.301,5.503 -6,7.859 -2.7,2.357 -5.469,3.874 -8.308,4.553 -2.84,0.678 -6.322,1.015 -10.462,1.015 h -22.3 v -2.176 z"
     id="path10" />
  <path
     style="fill:#ffffff"
     d="m 167.909,39.609003 c 0,-6.825 -0.141,-11.322 -0.42,-13.489 -0.286,-2.176 -1.014,-3.924 -2.188,-5.253 -1.175,-1.328 -3.112,-1.993 -5.805,-1.993 -2.272,0 -4.083,0.539 -5.434,1.609 -1.35,1.077 -2.188,2.797 -2.524,5.168 -0.328,2.37 -0.496,7 -0.496,13.888 0,6.818 0.14,11.335 0.426,13.538 0.28,2.203 1.036,3.959 2.26,5.267 1.224,1.307 3.146,1.958 5.769,1.958 2.175,0 3.951,-0.524 5.321,-1.574 1.372,-1.056 2.231,-2.762 2.574,-5.133 0.349,-2.372 0.517,-7.035 0.517,-13.986 z m -30.699,-0.189 c 0,-6.665 2.195,-12.119 6.602,-16.364 4.397,-4.237 9.678,-6.356 15.831,-6.356 5.714,0 10.826,1.993 15.336,5.979 4.512,3.986 6.763,9.657 6.763,17.007 0,6.889 -2.126,12.413 -6.392,16.567 -4.266,4.153 -9.476,6.23 -15.629,6.23 -6.65,0 -12.07,-2.21 -16.245,-6.615 -4.175,-4.407 -6.266,-9.889 -6.266,-16.448 z"
     id="path12" />
  <radialGradient
     id="SVGID_1_"
     cx="109.1953"
     cy="155.1304"
     r="36.6576"
     gradientUnits="userSpaceOnUse">
    <stop
       offset="0.5225"
       stop-color="#FFE41B"
       id="stop14" />
    <stop
       offset="0.8933"
       stop-color="#716A13"
       id="stop16" />
    <stop
       offset="1"
       stop-color="#49482E"
       id="stop18" />
  </radialGradient>
</svg>
