<?xml version="1.0" encoding="UTF-8" standalone="no"?>
<svg
   xmlns:dc="http://purl.org/dc/elements/1.1/"
   xmlns:cc="http://creativecommons.org/ns#"
   xmlns:rdf="http://www.w3.org/1999/02/22-rdf-syntax-ns#"
   xmlns:svg="http://www.w3.org/2000/svg"
   xmlns="http://www.w3.org/2000/svg"
   xmlns:sodipodi="http://sodipodi.sourceforge.net/DTD/sodipodi-0.dtd"
   xmlns:inkscape="http://www.inkscape.org/namespaces/inkscape"
   version="1.1"
   x="0px"
   y="0px"
   width="71.120003"
   height="187.819"
   viewBox="0 0 71.120003 187.819"
   id="svg27"
   sodipodi:docname="3do-v2.svg"
   inkscape:version="1.0.2-2 (e86c870879, 2021-01-15)">
  <metadata
     id="metadata33">
    <rdf:RDF>
      <cc:Work
         rdf:about="">
        <dc:format>image/svg+xml</dc:format>
        <dc:type
           rdf:resource="http://purl.org/dc/dcmitype/StillImage" />
        <dc:title>3DO Logo</dc:title>
      </cc:Work>
    </rdf:RDF>
  </metadata>
  <defs
     id="defs31" />
  <sodipodi:namedview
     pagecolor="#ffffff"
     bordercolor="#666666"
     borderopacity="1"
     objecttolerance="10"
     gridtolerance="10"
     guidetolerance="10"
     inkscape:pageopacity="0"
     inkscape:pageshadow="2"
     inkscape:window-width="2560"
     inkscape:window-height="1377"
     id="namedview29"
     showgrid="false"
     inkscape:zoom="2.8"
     inkscape:cx="35.56"
     inkscape:cy="176.259"
     inkscape:window-x="-8"
     inkscape:window-y="-8"
     inkscape:window-maximized="1"
     inkscape:current-layer="svg27"
     inkscape:document-rotation="0" />
  <title
     id="title2">3DO Logo</title>
  <radialGradient
     id="SVGID_1_"
     cx="109.1953"
     cy="155.1304"
     r="36.6576"
     gradientUnits="userSpaceOnUse"
     gradientTransform="translate(-69.44,-3.741)">
    <stop
       offset="0.5225"
       stop-color="#FFE41B"
       id="stop14" />
    <stop
       offset="0.8933"
       stop-color="#716A13"
       id="stop16" />
    <stop
       offset="1"
       stop-color="#49482E"
       id="stop18" />
  </radialGradient>
  <path
     style="fill:url(#SVGID_1_)"
     d="m 5.203,157.385 c 0,-16.812 13.587,-30.434 30.357,-30.434 16.769,0 30.356,13.622 30.356,30.434 0,16.811 -13.588,30.434 -30.356,30.434 -16.77,0 -30.357,-13.623 -30.357,-30.434 z"
     id="path21" />
  <path
     style="fill:#0000a0"
     d="M 7.287,78.022 C 2.819,81.001 1.63,98.308 1.63,98.308 c 0,0 1.189,17.308 5.657,20.287 4.462,2.985 28.273,4.775 28.273,4.775 0,0 23.812,-1.79 28.272,-4.775 4.469,-2.979 5.658,-20.287 5.658,-20.287 0,0 -1.189,-17.308 -5.658,-20.286 -4.46,-2.987 -28.272,-4.777 -28.272,-4.777 0,0 -23.811,1.79 -28.273,4.777 z"
     id="path23" />
  <polygon
     style="fill:#ff0000"
     points="105,75.035 69.44,39.392 105,3.741 140.56,39.392 "
     id="polygon25"
     transform="translate(-69.44,-3.741)" />
</svg>
