<?xml version="1.0" encoding="UTF-8" standalone="no"?>
<svg
   xmlns:dc="http://purl.org/dc/elements/1.1/"
   xmlns:cc="http://creativecommons.org/ns#"
   xmlns:rdf="http://www.w3.org/1999/02/22-rdf-syntax-ns#"
   xmlns:svg="http://www.w3.org/2000/svg"
   xmlns="http://www.w3.org/2000/svg"
   xmlns:sodipodi="http://sodipodi.sourceforge.net/DTD/sodipodi-0.dtd"
   xmlns:inkscape="http://www.inkscape.org/namespaces/inkscape"
   x="0px"
   y="0px"
   viewBox="0 0 60.062206 95.035988"
   xml:space="preserve"
   version="1.1"
   id="svg42"
   sodipodi:docname="acorn-v2.svg"
   inkscape:version="1.0.2-2 (e86c870879, 2021-01-15)"
   width="60.062206"
   height="95.035988"><metadata
   id="metadata48"><rdf:RDF><cc:Work
       rdf:about=""><dc:format>image/svg+xml</dc:format><dc:type
         rdf:resource="http://purl.org/dc/dcmitype/StillImage" /></cc:Work></rdf:RDF></metadata><defs
   id="defs46">     </defs><sodipodi:namedview
   pagecolor="#ffffff"
   bordercolor="#666666"
   borderopacity="1"
   objecttolerance="10"
   gridtolerance="10"
   guidetolerance="10"
   inkscape:pageopacity="0"
   inkscape:pageshadow="2"
   inkscape:window-width="2560"
   inkscape:window-height="1417"
   id="namedview44"
   showgrid="false"
   inkscape:zoom="4.1095335"
   inkscape:cx="48.46003"
   inkscape:cy="35.976911"
   inkscape:window-x="2552"
   inkscape:window-y="-8"
   inkscape:window-maximized="1"
   inkscape:current-layer="svg42"
   inkscape:document-rotation="0" /> <style
   type="text/css"
   id="style2"> .st0{fill:#33CC33;} </style> <g
   id="Layer_2"
   transform="translate(-183.1,-2.2)"> </g> <g
   id="g9"
   style="fill:#33cc33;fill-opacity:1"
   transform="translate(-183.1,-2.2)"> <path
   class="st0"
   d="m 213.5,2.2 c -24.8,0 -27,44.8 -27,44.8 h 52.7 c 0,0 -0.9,-44.8 -25.7,-44.8 z"
   id="path5"
   style="fill:#33cc33;fill-opacity:1" /> <path
   class="st0"
   d="M 213.7,84.3 V 76.6 C 236.8,76 241.8,54 241.8,54 h -58.7 c 0,0 5.6,21.6 28.1,22.6 v 7 c -17.5,-4.7 -25.1,-6 -26.3,-5.3 -1,0.6 11.3,3.2 27.8,8.3 16.5,5.2 28.7,12.5 30.3,10.2 1.8,-2.2 -11.6,-7.6 -29.3,-12.5 z"
   id="path7"
   style="fill:#33cc33;fill-opacity:1" /> </g> </svg>
