<?xml version="1.0" encoding="UTF-8" standalone="no"?>
<svg
   xmlns:dc="http://purl.org/dc/elements/1.1/"
   xmlns:cc="http://creativecommons.org/ns#"
   xmlns:rdf="http://www.w3.org/1999/02/22-rdf-syntax-ns#"
   xmlns:svg="http://www.w3.org/2000/svg"
   xmlns="http://www.w3.org/2000/svg"
   xmlns:sodipodi="http://sodipodi.sourceforge.net/DTD/sodipodi-0.dtd"
   xmlns:inkscape="http://www.inkscape.org/namespaces/inkscape"
   version="1.1"
   width="113.66804"
   height="89.116547"
   id="svg2"
   sodipodi:docname="atari-v1.svg"
   inkscape:version="1.0.2-2 (e86c870879, 2021-01-15)">
  <metadata
     id="metadata14">
    <rdf:RDF>
      <cc:Work
         rdf:about="">
        <dc:format>image/svg+xml</dc:format>
        <dc:type
           rdf:resource="http://purl.org/dc/dcmitype/StillImage" />
        <dc:title></dc:title>
      </cc:Work>
    </rdf:RDF>
  </metadata>
  <sodipodi:namedview
     pagecolor="#ffffff"
     bordercolor="#666666"
     borderopacity="1"
     objecttolerance="10"
     gridtolerance="10"
     guidetolerance="10"
     inkscape:pageopacity="0"
     inkscape:pageshadow="2"
     inkscape:window-width="2560"
     inkscape:window-height="1377"
     id="namedview12"
     showgrid="false"
     inkscape:zoom="7.048951"
     inkscape:cx="56.83402"
     inkscape:cy="68.5"
     inkscape:window-x="-8"
     inkscape:window-y="-8"
     inkscape:window-maximized="1"
     inkscape:current-layer="svg2" />
  <defs
     id="defs6" />
  <path
     d="M 32.487187,52.22868 C 41.930426,37.93045 41.717572,7.498029 41.717572,0 H 48.67083 C 48.6436,2.8867722 50.188856,31.899059 45.290055,50.169226 40.391253,68.439393 22.106702,88.932254 0,88.932254 V 75.97057 c 6.5002992,0 23.043948,-9.44366 32.487187,-23.74189 z"
     id="path13"
     style="fill:#0089df;fill-opacity:1" />
  <rect
     width="12.463367"
     height="89.116547"
     x="50.602337"
     y="0"
     id="rect2854"
     style="fill:#0089df;fill-opacity:1" />
  <path
     d="M 81.180851,52.22868 C 71.737612,37.93045 71.950466,7.498029 71.950466,0 h -6.953258 c 0.02723,2.8867722 -1.518026,31.899059 3.380775,50.169226 4.898802,18.270167 23.183353,38.763028 45.290057,38.763028 V 75.97057 c -6.5003,0 -23.04395,-9.44366 -32.487189,-23.74189 z"
     id="path2858"
     style="fill:#0089df;fill-opacity:1" />
</svg>
