<?xml version="1.0" encoding="UTF-8" standalone="no"?>
<svg
   xmlns:dc="http://purl.org/dc/elements/1.1/"
   xmlns:cc="http://creativecommons.org/ns#"
   xmlns:rdf="http://www.w3.org/1999/02/22-rdf-syntax-ns#"
   xmlns:svg="http://www.w3.org/2000/svg"
   xmlns="http://www.w3.org/2000/svg"
   xmlns:sodipodi="http://sodipodi.sourceforge.net/DTD/sodipodi-0.dtd"
   xmlns:inkscape="http://www.inkscape.org/namespaces/inkscape"
   width="1426.6093"
   height="1151.7281"
   viewBox="0 0 109.995 88.801004"
   version="1.1"
   id="svg20"
   sodipodi:docname="beos.svg"
   inkscape:version="1.0.2-2 (e86c870879, 2021-01-15)">
  <metadata
     id="metadata26">
    <rdf:RDF>
      <cc:Work
         rdf:about="">
        <dc:format>image/svg+xml</dc:format>
        <dc:type
           rdf:resource="http://purl.org/dc/dcmitype/StillImage" />
        <dc:title></dc:title>
      </cc:Work>
    </rdf:RDF>
  </metadata>
  <defs
     id="defs24" />
  <sodipodi:namedview
     pagecolor="#ffffff"
     bordercolor="#666666"
     borderopacity="1"
     objecttolerance="10"
     gridtolerance="10"
     guidetolerance="10"
     inkscape:pageopacity="0"
     inkscape:pageshadow="2"
     inkscape:window-width="2560"
     inkscape:window-height="1377"
     id="namedview22"
     showgrid="false"
     inkscape:zoom="0.4032"
     inkscape:cx="714.16713"
     inkscape:cy="1099.3821"
     inkscape:window-x="-8"
     inkscape:window-y="-8"
     inkscape:window-maximized="1"
     inkscape:current-layer="svg20" />
  <path
     fill-rule="evenodd"
     clip-rule="evenodd"
     fill="#ffffff"
     d="M 116.622,176.92 116.639,-7.379 -6.511,-7.391 V 176.92 Z"
     id="path4" />
  <path
     fill-rule="evenodd"
     clip-rule="evenodd"
     fill="#cf4037"
     d="M 109.995,78.093 V 88.801 H 65.606 V 78.093 Z"
     id="path8" />
  <path
     d="M 23.617,68.451 C 22.535,67.893 21.994,66.658 21.994,64.746 V 37.16 c 0.937,0.037 1.631,0.054 2.082,0.054 h 3.219 c 6.923,0 12.62,1.136 17.092,3.408 4.471,2.271 6.708,6.509 6.708,12.711 0,6.239 -1.912,10.458 -5.733,12.657 -3.824,2.201 -8.565,3.299 -14.226,3.299 -3.932,0 -6.438,-0.278 -7.519,-0.838 z m 12.603,4.841 c 6.167,0 11.359,-0.847 15.578,-2.542 8.005,-3.245 12.007,-9.195 12.007,-17.85 0,-5.155 -1.803,-9.168 -5.408,-12.035 -3.607,-2.867 -7.952,-4.912 -13.036,-6.14 4.11,-1.009 7.194,-2.288 9.249,-3.84 3.64,-2.705 5.462,-6.67 5.462,-11.9 0,-6.959 -2.605,-11.863 -7.815,-14.712 C 47.046,1.424 40.006,0 31.135,0 H 0.087 v 2.056 c 4.471,0.216 7.365,0.911 8.681,2.082 1.315,1.173 1.975,3.796 1.975,7.871 v 49.276 c 0,4.147 -0.659,6.788 -1.975,7.924 -1.316,1.136 -4.21,1.831 -8.681,2.083 v 2.001 H 36.22 Z M 21.994,32.941 V 7.951 c 0,-1.766 0.271,-2.848 0.811,-3.245 0.541,-0.396 1.964,-0.595 4.273,-0.595 6.093,0 10.637,0.632 13.63,1.893 5.409,2.309 8.113,6.761 8.113,13.36 0,5.59 -2.344,9.466 -7.031,11.629 -2.453,1.119 -5.536,1.714 -9.25,1.785 z"
     fill-rule="evenodd"
     clip-rule="evenodd"
     fill="#2360a5"
     id="path10" />
  <path
     d="m 94.286,30.108 c 0.973,1.768 1.658,4.454 2.055,8.06 H 73.515 c 0.504,-2.957 1.334,-5.409 2.488,-7.356 2.164,-3.642 5.301,-5.463 9.412,-5.463 4.146,-0.001 7.103,1.586 8.871,4.759 z M 71.784,29.296 c -4.291,5.265 -6.438,11.522 -6.438,18.769 0,6.672 1.848,12.568 5.545,17.688 3.695,5.121 8.934,7.68 15.713,7.68 5.877,0 10.846,-1.947 14.902,-5.841 4.057,-3.895 6.824,-8.131 8.303,-12.711 l -1.893,-0.65 c -2.201,3.643 -4.598,6.456 -7.195,8.438 -2.596,1.984 -5.787,2.975 -9.574,2.975 -4.688,0 -8.744,-1.91 -12.17,-5.733 -3.426,-3.822 -5.318,-9.916 -5.68,-18.282 h 34.348 c 0,-6.454 -1.91,-11.44 -5.732,-14.956 -3.824,-3.516 -8.277,-5.274 -13.361,-5.274 -6.887,0 -12.479,2.634 -16.768,7.897 z"
     fill-rule="evenodd"
     clip-rule="evenodd"
     fill="#cf4037"
     id="path12" />
  <path
     fill-rule="evenodd"
     clip-rule="evenodd"
     fill="#2360a5"
     d="m 65.637,78.127 v 10.66 H 0 v -10.66 z"
     id="path14" />
</svg>
