<?xml version="1.0" encoding="UTF-8" standalone="no"?>
<svg
   xmlns:dc="http://purl.org/dc/elements/1.1/"
   xmlns:cc="http://creativecommons.org/ns#"
   xmlns:rdf="http://www.w3.org/1999/02/22-rdf-syntax-ns#"
   xmlns:svg="http://www.w3.org/2000/svg"
   xmlns="http://www.w3.org/2000/svg"
   xmlns:sodipodi="http://sodipodi.sourceforge.net/DTD/sodipodi-0.dtd"
   xmlns:inkscape="http://www.inkscape.org/namespaces/inkscape"
   version="1.1"
   width="61.718842"
   height="61.718838"
   viewBox="0 0 61.718839 61.718837"
   id="Ebene_1"
   xml:space="preserve"
   sodipodi:docname="c64-v3.svg"
   inkscape:version="1.0.2-2 (e86c870879, 2021-01-15)"
   inkscape:export-filename="C:\ScummIcons\platform\src\c64-v3.png"
   inkscape:export-xdpi="796.39001"
   inkscape:export-ydpi="796.39001"><metadata
   id="metadata14"><rdf:RDF><cc:Work
       rdf:about=""><dc:format>image/svg+xml</dc:format><dc:type
         rdf:resource="http://purl.org/dc/dcmitype/StillImage" /><dc:title></dc:title></cc:Work></rdf:RDF></metadata><sodipodi:namedview
   pagecolor="#ffffff"
   bordercolor="#666666"
   borderopacity="1"
   objecttolerance="10"
   gridtolerance="10"
   guidetolerance="10"
   inkscape:pageopacity="0"
   inkscape:pageshadow="2"
   inkscape:window-width="2560"
   inkscape:window-height="1377"
   id="namedview12"
   showgrid="false"
   inkscape:zoom="9.5865616"
   inkscape:cx="34.515535"
   inkscape:cy="14.950665"
   inkscape:window-x="-8"
   inkscape:window-y="-8"
   inkscape:window-maximized="1"
   inkscape:current-layer="Ebene_1"
   inkscape:document-rotation="0" /><defs
   id="defs21"><inkscape:path-effect
     effect="fillet_chamfer"
     id="path-effect843"
     is_visible="true"
     lpeversion="1"
     satellites_param="F,0,0,1,0,10,0,1 @ F,0,0,1,0,10,0,1 @ F,0,0,1,0,10,0,1 @ F,0,0,1,0,10,0,1"
     unit="px"
     method="auto"
     mode="F"
     radius="10"
     chamfer_steps="1"
     flexible="false"
     use_knot_distance="true"
     apply_no_radius="true"
     apply_with_radius="true"
     only_selected="false"
     hide_knots="false" /></defs>
<path
   style="fill:#6f685f;fill-opacity:1;fill-rule:evenodd;stroke:none;stroke-width:1.28116"
   id="rect841"
   width="61.718842"
   height="61.718838"
   x="0"
   y="0"
   inkscape:path-effect="#path-effect843"
   d="m 10,0 h 41.718842 a 10,10 45 0 1 10,10 l 0,41.718838 a 10,10 135 0 1 -10,10 H 10 a 10,10 45 0 1 -10,-10 V 10 A 10,10 135 0 1 10,0 Z"
   sodipodi:type="rect"
   inkscape:export-xdpi="780.19"
   inkscape:export-ydpi="780.19" />
<path
   id="rect1424"
   style="fill:#ffffff;fill-opacity:1;stroke-width:4.25278"
   d="M 52.094081,9.1749285 C 49.923535,10.986643 47.752995,12.798359 45.582441,14.61008 V 25.989097 H 30.733221 C 36.594722,20.426765 42.456228,14.864437 48.317733,9.3021093 H 39.326076 C 31.661243,16.613376 23.919947,23.845688 16.304592,31.208037 c 0.366186,1.010072 1.403175,0.651201 2.239103,0.702643 2.777744,-0.0038 5.555485,-0.0075 8.333229,-0.0113 3.161916,1.177639 5.505907,4.754127 4.399752,8.128305 -1.475195,4.502647 -6.585607,6.49339 -10.967412,6.591638 C 16.483178,46.705213 12.288088,45.200248 10.13885,41.893367 8.134065,38.465539 9.4785379,33.958006 12.434147,31.537407 20.312906,24.183055 28.085633,16.705636 35.922181,9.3021283 H 26.930525 C 20.065306,15.904514 13.278474,22.466512 6.4720008,29.06092 c -2.1576841,2.858416 -3.856007,6.587541 -3.1581135,10.223749 0.6360289,5.988472 5.4548816,10.924094 11.1961417,12.37653 3.699112,1.082101 7.651174,1.21803 11.367619,0.135772 3.057467,-0.482316 5.826291,-2.056725 7.797856,-4.440821 3.91101,-3.765971 5.510777,-10.315361 2.482869,-15.057976 h 9.424068 v 20.230345 h 6.51164 c 0.0044,-6.865311 -0.0085,-13.375636 0.0064,-20.23034 2.154498,-2.103017 4.309002,-4.206041 6.4635,-6.309059 h -6.46985 z"
   sodipodi:nodetypes="cccccccccccccccccccccccccccc" /></svg>
