<svg viewBox="0 0 61.719 61.719" xml:space="preserve" xmlns="http://www.w3.org/2000/svg">
  <path d="M10 0h41.719a10 10 45 0 1 10 10v41.719a10 10 135 0 1-10 10H10a10 10 45 0 1-10-10V10A10 10 135 0 1 10 0Z" fill="#6f685f" fill-rule="evenodd"/>
  <path d="M57.31 6.01H34.812V2.941h22.5z" fill="#e2001a" fill-rule="evenodd"/>
  <path d="M57.31 12.15H34.812V9.081h22.5z" fill="#e95e38" fill-rule="evenodd"/>
  <path d="M57.31 18.29H34.812v-3.069h22.5z" fill="#fc0" fill-rule="evenodd"/>
  <path d="M57.31 24.42H34.812v-3.069h22.5z" fill="#57ab27" fill-rule="evenodd"/>
  <path d="M57.31 30.56H34.812v-3.069h22.5z" fill="#009ee0" fill-rule="evenodd"/>
  <path transform="translate(-102.68 -205.03)" d="M130.164 257.279c0 3.889-3.418 5.833-10.258 5.833h-3.5c-3.854 0-6.525-.666-8.018-1.993-1.494-1.33-2.238-3.632-2.238-6.906v-4.404c0-3.254.744-5.545 2.238-6.875 1.492-1.33 4.164-1.994 8.018-1.994h3.5c3.176 0 5.564.426 7.164 1.28 1.602.854 2.402 2.103 2.402 3.75v1.578h-8.223v-.565c0-.516-.148-.854-.447-1.013-.299-.158-.896-.24-1.79-.24h-1.956c-1.11 0-1.824.09-2.135.27-.313.178-.469.604-.469 1.279v3.034c1.193-.654 2.672-.98 4.438-.98h2.89c2.903 0 5.026.49 6.37 1.472 1.342.982 2.014 2.496 2.014 4.539zm.541-34.81h-6.65v5.454h11.954zm5.303-6.575h-11.955v5.454h6.576zm-12.328-.374v-7.023c-1.419-.374-2.392-.524-3.81-.524-7.398 0-13.898 6.203-13.898 13.898 0 7.921 6.574 13.824 13.972 13.824 1.345 0 2.092-.15 3.736-.6v-7.172c-1.645.821-2.465 1.045-3.81 1.045-4.11 0-7.25-3.436-7.25-7.247 0-3.959 3.064-7.323 7.174-7.323 1.421 0 2.616.375 3.886 1.122zm36.26 43.276h-3.5v4.048h-8.222v-4.048h-14.857l.041-5.892 11.764-11.696h11.273v12.797h3.5zm-11.72-4.791v-7.171l-7.124 7.17zm-26.277 2.946v-1.576c0-.557-.184-.91-.55-1.058-.366-.147-1.16-.223-2.382-.223h-1.586c-1.223 0-2.023.069-2.402.209-.38.137-.57.495-.57 1.07v1.577c0 .597.19.969.57 1.116.38.148 1.18.224 2.402.224h1.586c1.248 0 2.05-.075 2.402-.224.352-.146.53-.518.53-1.115z" fill="#fff" style="font-feature-settings:normal;font-variant-alternates:normal;font-variant-caps:normal;font-variant-east-asian:normal;font-variant-ligatures:normal;font-variant-numeric:normal;font-variant-position:normal;font-variation-settings:normal;inline-size:0;isolation:auto;mix-blend-mode:normal;shape-margin:0;shape-padding:0;text-decoration-color:#000;text-decoration-line:none;text-decoration-style:solid;text-indent:0;text-orientation:mixed;text-transform:none;white-space:normal"/>
</svg>
