<?xml version="1.0" encoding="UTF-8" standalone="no"?>
<svg
   xmlns:dc="http://purl.org/dc/elements/1.1/"
   xmlns:cc="http://creativecommons.org/ns#"
   xmlns:rdf="http://www.w3.org/1999/02/22-rdf-syntax-ns#"
   xmlns:svg="http://www.w3.org/2000/svg"
   xmlns="http://www.w3.org/2000/svg"
   xmlns:sodipodi="http://sodipodi.sourceforge.net/DTD/sodipodi-0.dtd"
   xmlns:inkscape="http://www.inkscape.org/namespaces/inkscape"
   version="1.1"
   width="61.718842"
   height="61.718838"
   viewBox="0 0 61.718839 61.718837"
   id="Ebene_1"
   xml:space="preserve"
   sodipodi:docname="c64-v2.svg"
   inkscape:version="1.0.2-2 (e86c870879, 2021-01-15)"><metadata
   id="metadata14"><rdf:RDF><cc:Work
       rdf:about=""><dc:format>image/svg+xml</dc:format><dc:type
         rdf:resource="http://purl.org/dc/dcmitype/StillImage" /><dc:title /></cc:Work></rdf:RDF></metadata><sodipodi:namedview
   pagecolor="#ffffff"
   bordercolor="#666666"
   borderopacity="1"
   objecttolerance="10"
   gridtolerance="10"
   guidetolerance="10"
   inkscape:pageopacity="0"
   inkscape:pageshadow="2"
   inkscape:window-width="2560"
   inkscape:window-height="1417"
   id="namedview12"
   showgrid="false"
   inkscape:zoom="1.1983202"
   inkscape:cx="323.22488"
   inkscape:cy="73.84014"
   inkscape:window-x="2552"
   inkscape:window-y="-8"
   inkscape:window-maximized="1"
   inkscape:current-layer="Ebene_1"
   inkscape:document-rotation="0" /><defs
   id="defs21"><inkscape:path-effect
     effect="fillet_chamfer"
     id="path-effect843"
     is_visible="true"
     lpeversion="1"
     satellites_param="F,0,0,1,0,10,0,1 @ F,0,0,1,0,10,0,1 @ F,0,0,1,0,10,0,1 @ F,0,0,1,0,10,0,1"
     unit="px"
     method="auto"
     mode="F"
     radius="10"
     chamfer_steps="1"
     flexible="false"
     use_knot_distance="true"
     apply_no_radius="true"
     apply_with_radius="true"
     only_selected="false"
     hide_knots="false" /></defs>
<path
   style="fill:#6f685f;fill-opacity:1;fill-rule:evenodd;stroke:none;stroke-width:1.28116"
   id="rect841"
   width="61.718842"
   height="61.718838"
   x="0"
   y="0"
   inkscape:path-effect="#path-effect843"
   d="m 10,0 h 41.718842 a 10,10 45 0 1 10,10 l 0,41.718838 a 10,10 135 0 1 -10,10 H 10 a 10,10 45 0 1 -10,-10 V 10 A 10,10 135 0 1 10,0 Z"
   sodipodi:type="rect"
   inkscape:export-xdpi="780.19"
   inkscape:export-ydpi="780.19" /><g
   transform="translate(-102.68259,-205.03058)"
   id="g3">
	
	
	
	
	
	<g
   id="g870"
   transform="matrix(0.19570493,0,0,1,108.90558,-12.44303)"><polygon
     points="434.238,411.131 319.269,411.131 319.269,408.062 434.238,408.062 "
     id="polygon7"
     style="fill:#e2001a;fill-rule:evenodd"
     transform="translate(-173.18897,-187.64597)" /><polygon
     points="434.238,417.269 319.269,417.269 319.269,414.2 434.238,414.2 "
     id="polygon9"
     style="fill:#e95e38;fill-rule:evenodd"
     transform="translate(-173.18897,-187.64597)" /><polygon
     points="434.238,423.406 319.269,423.406 319.269,420.337 434.238,420.337 "
     id="polygon11"
     style="fill:#ffcc00;fill-rule:evenodd"
     transform="translate(-173.18897,-187.64597)" /><polygon
     points="434.238,429.544 319.269,429.544 319.269,426.475 434.238,426.475 "
     id="polygon13"
     style="fill:#57ab27;fill-rule:evenodd"
     transform="translate(-173.18897,-187.64597)" /><polygon
     points="434.238,435.682 319.269,435.682 319.269,432.613 434.238,432.613 "
     id="polygon15"
     style="fill:#009ee0;fill-rule:evenodd"
     transform="translate(-173.18897,-187.64597)" /></g>
	<path
   style="color:#000000;font-style:normal;font-variant:normal;font-weight:normal;font-stretch:normal;font-size:medium;line-height:normal;font-family:sans-serif;font-variant-ligatures:normal;font-variant-position:normal;font-variant-caps:normal;font-variant-numeric:normal;font-variant-alternates:normal;font-variant-east-asian:normal;font-feature-settings:normal;font-variation-settings:normal;text-indent:0;text-align:start;text-decoration:none;text-decoration-line:none;text-decoration-style:solid;text-decoration-color:#000000;letter-spacing:normal;word-spacing:normal;text-transform:none;writing-mode:lr-tb;direction:ltr;text-orientation:mixed;dominant-baseline:auto;baseline-shift:baseline;text-anchor:start;white-space:normal;shape-padding:0;shape-margin:0;inline-size:0;clip-rule:nonzero;display:inline;overflow:visible;visibility:visible;opacity:1;isolation:auto;mix-blend-mode:normal;color-interpolation:sRGB;color-interpolation-filters:linearRGB;solid-color:#000000;solid-opacity:1;vector-effect:none;fill:#ffffff;fill-opacity:1;fill-rule:nonzero;stroke:none;stroke-width:1;stroke-linecap:butt;stroke-linejoin:miter;stroke-miterlimit:4;stroke-dasharray:none;stroke-dashoffset:0;stroke-opacity:1;color-rendering:auto;image-rendering:auto;shape-rendering:auto;text-rendering:auto;enable-background:accumulate;stop-color:#000000;stop-opacity:1"
   d="m 130.16424,257.2786 c 0,3.889 -3.418,5.833 -10.258,5.833 h -3.5 c -3.854,0 -6.525,-0.666 -8.018,-1.993 -1.494,-1.33 -2.238,-3.632 -2.238,-6.906 v -4.404 c 0,-3.254 0.744,-5.545 2.238,-6.875 1.492,-1.33 4.164,-1.994 8.018,-1.994 h 3.5 c 3.176,0 5.564,0.426 7.164,1.28 1.602,0.854 2.402,2.103 2.402,3.75 v 1.578 h -8.223 v -0.565 c 0,-0.516 -0.148,-0.854 -0.447,-1.013 -0.299,-0.158 -0.896,-0.239 -1.791,-0.239 h -1.955 c -1.111,0 -1.824,0.09 -2.135,0.269 -0.313,0.178 -0.469,0.604 -0.469,1.279 v 3.034 c 1.193,-0.654 2.672,-0.98 4.438,-0.98 h 2.889 c 2.904,0 5.027,0.491 6.371,1.472 1.342,0.982 2.014,2.496 2.014,4.539 z m 0.54111,-34.81029 h -6.651 v 5.455 h 11.955 z m 5.303,-6.574 h -11.955 v 5.454 h 6.576 z m -12.328,-0.374 v -7.023 c -1.419,-0.374 -2.392,-0.524 -3.81,-0.524 -7.398,0 -13.898,6.203 -13.898,13.898 0,7.921 6.574,13.824 13.972,13.824 1.345,0 2.092,-0.15 3.736,-0.6 v -7.172 c -1.645,0.821 -2.465,1.045 -3.81,1.045 -4.11,0 -7.25,-3.436 -7.25,-7.247 0,-3.959 3.064,-7.323 7.174,-7.323 1.421,0 2.616,0.375 3.886,1.122 z m 36.25889,43.27529 h -3.5 v 4.048 h -8.221 v -4.048 h -14.857 l 0.041,-5.892 11.764,-11.696 h 11.273 v 12.797 h 3.5 z m -11.72,-4.791 v -7.171 l -7.123,7.171 z m -26.276,2.946 v -1.576 c 0,-0.557 -0.184,-0.909 -0.551,-1.058 -0.365,-0.147 -1.16,-0.223 -2.381,-0.223 h -1.586 c -1.223,0 -2.023,0.069 -2.402,0.209 -0.381,0.137 -0.57,0.495 -0.57,1.071 v 1.576 c 0,0.597 0.189,0.969 0.57,1.116 0.379,0.148 1.18,0.224 2.402,0.224 h 1.586 c 1.248,0 2.049,-0.075 2.402,-0.224 0.352,-0.146 0.53,-0.518 0.53,-1.115 z"
   id="path17"
   sodipodi:nodetypes="ssscsscsscsccscsscscsscssccccccccccccsssccssscccccccccccccccccsscsscsscsscs" />
</g>
</svg>
