<?xml version="1.0" encoding="UTF-8" standalone="no"?>
<svg
   xmlns:dc="http://purl.org/dc/elements/1.1/"
   xmlns:cc="http://creativecommons.org/ns#"
   xmlns:rdf="http://www.w3.org/1999/02/22-rdf-syntax-ns#"
   xmlns:svg="http://www.w3.org/2000/svg"
   xmlns="http://www.w3.org/2000/svg"
   xmlns:sodipodi="http://sodipodi.sourceforge.net/DTD/sodipodi-0.dtd"
   xmlns:inkscape="http://www.inkscape.org/namespaces/inkscape"
   version="1.0"
   width="848.15863"
   height="848.15863"
   viewBox="-0.96585 -0.96585 183.56021 183.19529"
   id="svg2483"
   sodipodi:docname="cdi-v2.svg"
   inkscape:version="1.0.2-2 (e86c870879, 2021-01-15)">
  <metadata
     id="metadata12">
    <rdf:RDF>
      <cc:Work
         rdf:about="">
        <dc:format>image/svg+xml</dc:format>
        <dc:type
           rdf:resource="http://purl.org/dc/dcmitype/StillImage" />
        <dc:title />
      </cc:Work>
    </rdf:RDF>
  </metadata>
  <sodipodi:namedview
     pagecolor="#ffffff"
     bordercolor="#666666"
     borderopacity="1"
     objecttolerance="10"
     gridtolerance="10"
     guidetolerance="10"
     inkscape:pageopacity="0"
     inkscape:pageshadow="2"
     inkscape:window-width="2560"
     inkscape:window-height="1417"
     id="namedview10"
     showgrid="false"
     inkscape:zoom="0.69951091"
     inkscape:cx="368.66202"
     inkscape:cy="530.31748"
     inkscape:window-x="2552"
     inkscape:window-y="-8"
     inkscape:window-maximized="1"
     inkscape:current-layer="svg2483"
     inkscape:document-rotation="0" />
  <defs
     id="defs2485" />
  <circle
     style="fill:#35538b;fill-opacity:1;stroke:none;stroke-width:0.398511"
     id="path855"
     cx="90.814255"
     cy="90.780266"
     r="91.780106"
     inkscape:export-filename="C:\ScummIcons\platform\new\cdi-v2.png"
     inkscape:export-xdpi="57.950001"
     inkscape:export-ydpi="57.950001" />
  <path
     d="m 55.980546,136.16813 23.6275,-3.9675 -23.6275,-3.96625 v 7.93375"
     id="path20"
     style="fill:#d30437;fill-opacity:1;fill-rule:evenodd;stroke:none"
     inkscape:export-filename="C:\ScummIcons\platform\new\cdi-v2.png"
     inkscape:export-xdpi="57.950001"
     inkscape:export-ydpi="57.950001" />
  <path
     d="m 85.816792,123.57813 h 9.6582 v -6.72608 h -9.6582 z"
     id="path22"
     style="fill:#ffffff;fill-opacity:1;fill-rule:evenodd;stroke:none"
     inkscape:export-filename="C:\ScummIcons\platform\new\cdi-v2.png"
     inkscape:export-xdpi="57.950001"
     inkscape:export-ydpi="57.950001" />
  <path
     d="m 85.816792,145.65438 h 9.6582 v -18.97125 h -9.6582 z"
     id="path24"
     style="fill:#ffffff;fill-opacity:1;fill-rule:evenodd;stroke:none"
     inkscape:export-filename="C:\ScummIcons\platform\new\cdi-v2.png"
     inkscape:export-xdpi="57.950001"
     inkscape:export-ydpi="57.950001" />
  <g
     id="g853"
     transform="translate(3.5074405,73.641494)"
     style="fill:#ffffff;fill-opacity:1"
     inkscape:export-filename="C:\ScummIcons\platform\new\cdi-v2.png"
     inkscape:export-xdpi="57.950001"
     inkscape:export-ydpi="57.950001">
    <path
       d="m 47.5625,11.7075 c -6.46625,0 -11.70875,1.96625 -11.70875,4.39 0,2.425 5.2425,4.39 11.70875,4.39 6.465,0 11.70625,-1.965 11.70625,-4.39 0,-2.42375 -5.24125,-4.39 -11.70625,-4.39 z m 0,2.10625 c 4.8475,0 8.77875,1.0225 8.77875,2.28375 0,1.26125 -3.93125,2.28375 -8.77875,2.28375 -4.85,0 -8.78125,-1.0225 -8.78125,-2.28375 0,-1.26125 3.93125,-2.28375 8.78125,-2.28375"
       id="path16"
       style="fill:#ffffff;fill-opacity:1;fill-rule:evenodd;stroke:none" />
    <path
       d="M 80.95375,19.13625 C 76.6225,23.44625 63.31,26.585 47.5625,26.585 c -19.26375,0 -34.88,-4.695 -34.88,-10.4875 0,-5.7925 15.61625,-10.4875 34.88,-10.4875 15.53625,0 28.7025,3.055 33.2125,7.27625 l 13.3825,-0.0325 C 89.7225,5.5175 70.545,0 47.5625,0 21.29375,0 0,7.2075 0,16.0975 c 0,8.89 21.29375,16.0975 47.5625,16.0975 23.07875,0 42.32,-5.56375 46.64875,-12.945 l -13.2575,-0.11375"
       id="path18"
       style="fill:#ffffff;fill-opacity:1;fill-rule:evenodd;stroke:none" />
    <path
       d="m 107.58125,7.7275 h 27.8525 c 15.28875,0 27.68375,3.02375 27.68375,8.97375 0,5.7775 -12.395,8.97375 -27.68375,8.97375 l -27.8525,-0.0063 z M 96.715,2.30125 v 28.74 h 38.89125 c 21.89,0 39.4625,-5.45875 39.4625,-14.34 0,-9.05375 -17.745,-14.34 -39.635,-14.34 L 96.715,2.30125"
       id="path26"
       style="fill:#ffffff;fill-opacity:1;fill-rule:evenodd;stroke:none" />
  </g>
</svg>
