<?xml version="1.0" encoding="UTF-8"?>
<!-- Created with Inkscape (http://www.inkscape.org/) -->
<svg width="220" height="220" version="1.1" xmlns="http://www.w3.org/2000/svg" xmlns:cc="http://creativecommons.org/ns#" xmlns:dc="http://purl.org/dc/elements/1.1/" xmlns:rdf="http://www.w3.org/1999/02/22-rdf-syntax-ns#">
 <title>CPC</title>
 <g transform="translate(-485.68 -282.07)">
  <rect x="485.68" y="282.07" width="220" height="220" rx="0" ry="28.5" style="fill:#333333"/>
  <g transform="matrix(.71339 0 0 .71339 147.28 109.84)">
   <g transform="translate(450.21 269.12)">
    <path d="m207 85-27 47v7h29v17h7v-17h8v-7h-8v-47zm2 10v37h-21z" style="fill:#ffffff"/>
   </g>
   <path d="m688.87 354.12c-1.5312 0.10938-7.6562 1-7.6562 8v55s0 8 8 8h22s8 0 8-8v-23s1-8-8-8h-23v-23s0-2 2-2h20s2 0 2 2v11h7v-12s1-8-8-8h-22s-0.125-0.0156-0.34375 0zm-0.65625 39h22s2 0 2 2v21s0 2-2 2h-20s-2 0-2-2z" style="fill:#ffffff"/>
   <g transform="translate(546.21 269.12)">
    <path transform="translate(-96)" d="m303 85-27 47v7h29v17h7v-17h8v-7h-8v-47zm2 10v37h-21z" style="fill:#ffffff"/>
   </g>
  </g>
  <g transform="matrix(.71683 0 0 .71683 141.09 110.09)">
   <path d="m526.13 359.07v12h7v-19h-30s-8 0-8 8v55s-1 8 8 8h30v-19h-7v12h-22s-2 0-2-2v-2-51s0-2 2-2h22z" style="fill:#ffffff"/>
   <path d="m540.1 352.07v7h5v57h-5v7h17v-7h-5v-26h23c8 0 8-8 8-8v-22c0-8-8-8-8-8zm12 7h22s2 0 2 2v20s0 2-2 2h-22z" style="fill:#ffffff"/>
   <path d="m621.13 359.07v12h7v-19h-30s-8 0-8 8v55s-1 8 8 8h30v-19h-7v12h-22s-2 0-2-2v-2-51s0-2 2-2h22z" style="fill:#ffffff"/>
  </g>
  <g transform="matrix(.088917 0 0 .088917 482.98 281.11)">
   <path class="st1" d="m462 762.3h-122.1l-10.1-121.2h-49.6l-9.2 121.2h-121.2l77.2-612.4h158.8zm-156.9-460-17.4 237.8h35z" style="fill:#ffffff"/>
   <path class="st1" d="m873.4 762.3h-116.6v-347l-45.9 347.1h-75.3l-48.6-349v349h-116.6v-612.5h170.8l30.1 270.9 32.2-270.9h169.8v612.4z" style="fill:#ffffff"/>
   <path class="st1" d="m1064.3 360.1v-72.5c0-19.3-0.9-25.7-2.8-30.3-3.7-6.4-9.2-11.1-15.6-11.1s-13.8 4.6-16.5 11.1c-1.8 5.5-2.8 10.1-2.8 30.3v45c0 20.2 5.5 27.5 29.4 40.4l55.2 30.3c72.5 40.4 82.7 57 82.7 139.6v98.3c0 53.3-3.7 70.7-18.4 89.9-20.2 27.5-42.2 33.1-137.7 33.1-76.3 0-97.4-4.6-117.6-27.5-12-12.9-17.4-27.5-20.2-50.5-1.8-12-1.8-25.7-1.8-67v-110.3h128.6v118.5c0 24.8 5.5 35 19.3 35 12 0 18.4-10.1 18.4-27.5v-83.5l-0.9-12.9c-0.9-22.9-3.7-27.5-25.7-39.5-8.3-4.6-14.7-7.3-15.6-8.3l-54.2-30.3c-59.7-34-69.7-53.3-69.7-129.5v-71.6c0-50.5 5.5-72.5 24.8-89.9 20.2-18.4 44-22.9 133.1-22.9 78.1 0 99.2 5.5 118.5 31.2 15.6 20.2 19.3 39.5 19.3 96.4v86.3h-129.7v-0.1h-0.1z" style="fill:#ffffff"/>
   <path class="st1" d="m1396.5 762.3h-129.5v-513.2h-65.2v-99.2h258v99.2h-63.3z" style="fill:#ffffff"/>
   <path class="st1" d="m1605.7 149.9 45.9 0.9c89.9 1.8 111.9 25.7 111.9 118.5v64.2c0 85.4-12.9 114.7-57.9 126.7 22 7.3 35 17.4 44 34 12 21.1 13.8 37.6 13.8 109.3v159h-128.6v-183.8c0-60.7 0-59.7-32.2-60.7h-5.5v244.3h-129.3v-612.4zm0.8 256.1c24.8 0 28.4-5.5 28.4-45v-66.1l-0.9-16.5c0-22-5.5-28.4-22.9-28.4h-13.8v156.1c4.6-0.1 7.3-0.1 9.2-0.1z" style="fill:#ffffff"/>
   <path class="st1" d="m2079.3 762.3h-122.1l-10.1-121.2h-49.5l-9.2 121.2h-121.2l77.2-612.4h158.9zm-157-460-17.4 237.8h35z" style="fill:#ffffff"/>
   <path class="st1" d="m2213.4 149.9c111.1 0 126.7 2.8 147.8 27.5 19.3 22 23.9 45.9 23.9 130.4v302.2c0 75.3-2.8 95.5-17.4 117.6-17.4 25.7-43.1 34-106.5 34l-65.2 0.9h-108.4v-612.6zm15.5 512.4c20.2 0 24.8-6.4 24.8-32.2v-12.9-30.3-302.9c0-27.5-4.6-34-24.8-34-2.8 0-7.3 0.9-12 0.9v411.4h12z" style="fill:#ffffff"/>
  </g>
  <g transform="matrix(1.0761 0 0 1.0761 -47.463 28.879)">
   <rect x="505.66" y="369.07" width="184" height="62" rx="4.989" ry="4.989" style="fill:#ffffff"/>
   <g transform="matrix(1.0408 0 0 1.0588 119.75 277.36)" style="fill:#000080">
    <rect x="488" y="97" width="48.999" height="17" rx="2.8681" ry="2.8468" style="fill:#000080"/>
   </g>
   <g transform="matrix(1.0408 0 0 -1.0588 119.75 522.77)" style="fill:#000080">
    <rect x="488" y="97" width="48.999" height="17" rx="2.8681" ry="2.5452" style="fill:#000080"/>
   </g>
   <g transform="matrix(-1.0408 0 0 -1.0588 1075.6 522.77)" style="fill:#800000">
    <rect x="488" y="97" width="48.999" height="17" rx="2.7565" ry="2.6275" style="fill:#800000"/>
   </g>
   <g transform="matrix(-1.0408 0 0 1.0588 1075.6 277.36)" style="fill:#800000">
    <rect x="488" y="97" width="48.999" height="17" rx="2.896" ry="2.9017" style="fill:#800000"/>
   </g>
   <g transform="matrix(-1.04 0 0 1.0588 1130.2 277.36)" style="fill:#008000">
    <rect x="487" y="97" width="49.999" height="17" rx="0" ry="2.8742" style="fill:#008000"/>
   </g>
   <rect transform="scale(-1,1)" x="-623.66" y="402.07" width="52" height="18" rx="0" ry="2.5496" style="fill:#008000"/>
  </g>
 </g>
</svg>
