<?xml version="1.0" encoding="UTF-8" standalone="no"?>
<svg
   xmlns:dc="http://purl.org/dc/elements/1.1/"
   xmlns:cc="http://creativecommons.org/ns#"
   xmlns:rdf="http://www.w3.org/1999/02/22-rdf-syntax-ns#"
   xmlns:svg="http://www.w3.org/2000/svg"
   xmlns="http://www.w3.org/2000/svg"
   xmlns:sodipodi="http://sodipodi.sourceforge.net/DTD/sodipodi-0.dtd"
   xmlns:inkscape="http://www.inkscape.org/namespaces/inkscape"
   version="1.1"
   x="0px"
   y="0px"
   width="924"
   height="339.78299"
   viewBox="-15 -11.333 923.99999 339.78299"
   enable-background="new -15 -11.333 1782 306"
   xml:space="preserve"
   id="svg38"
   sodipodi:docname="fmtowns-v3.svg"
   inkscape:version="1.0.2-2 (e86c870879, 2021-01-15)"><metadata
   id="metadata42"><rdf:RDF><cc:Work
       rdf:about=""><dc:format>image/svg+xml</dc:format><dc:type
         rdf:resource="http://purl.org/dc/dcmitype/StillImage" /><dc:title></dc:title></cc:Work></rdf:RDF></metadata><sodipodi:namedview
   pagecolor="#ffffff"
   bordercolor="#666666"
   borderopacity="1"
   objecttolerance="10"
   gridtolerance="10"
   guidetolerance="10"
   inkscape:pageopacity="0"
   inkscape:pageshadow="2"
   inkscape:window-width="2560"
   inkscape:window-height="1377"
   id="namedview40"
   showgrid="false"
   inkscape:zoom="0.80392724"
   inkscape:cx="366.0101"
   inkscape:cy="349.7422"
   inkscape:window-x="-8"
   inkscape:window-y="-8"
   inkscape:window-maximized="1"
   inkscape:current-layer="svg38"
   inkscape:document-rotation="0" />
<defs
   id="defs2">
</defs>
















<g
   id="g869"
   transform="matrix(2.6249851,0,0,2.6250029,-1912.872,901.288)"
   inkscape:export-xdpi="53.116257"
   inkscape:export-ydpi="53.116257"><polygon
     fill="#33cc66"
     points="336.109,246.726 336.019,170.079 352.002,170.079 352.002,144.922 289.033,144.922 261.005,210.763 230.672,144.892 167.465,144.892 167.465,170.079 182.358,170.079 182.358,246.726 167.465,246.726 167.465,274.333 225.95,274.333 225.95,246.726 210.693,246.726 210.693,201.319 244.477,274.333 264.819,274.333 292.791,203.68 292.791,246.726 282.256,246.726 282.256,274.333 352.002,274.333 352.002,246.726 "
     id="polygon34"
     transform="translate(723.00296,-492.55676)" /><polygon
     fill="#33cc66"
     points="60.755,172.18 115.001,172.18 115.001,197.45 151.165,197.45 151.165,144.892 0,144.892 0,172.136 14.465,172.136 14.465,247.718 0,247.718 0,274.117 75.582,274.117 75.582,247.762 60.077,247.762 60.077,228.234 104.152,228.234 104.152,201.473 60.755,201.473 "
     id="polygon36"
     transform="translate(723.00296,-492.55676)" /></g>
</svg>
