<?xml version="1.0" encoding="UTF-8" standalone="no"?>
<svg
   xmlns:dc="http://purl.org/dc/elements/1.1/"
   xmlns:cc="http://creativecommons.org/ns#"
   xmlns:rdf="http://www.w3.org/1999/02/22-rdf-syntax-ns#"
   xmlns:svg="http://www.w3.org/2000/svg"
   xmlns="http://www.w3.org/2000/svg"
   xmlns:sodipodi="http://sodipodi.sourceforge.net/DTD/sodipodi-0.dtd"
   xmlns:inkscape="http://www.inkscape.org/namespaces/inkscape"
   version="1.1"
   x="0px"
   y="0px"
   width="1439.333"
   height="703.78912"
   viewBox="-15 -11.333 1439.333 703.78912"
   enable-background="new -15 -11.333 1782 306"
   xml:space="preserve"
   id="svg38"
   sodipodi:docname="fmtowns-v2.svg"
   inkscape:version="1.0.2-2 (e86c870879, 2021-01-15)"><metadata
   id="metadata42"><rdf:RDF><cc:Work
       rdf:about=""><dc:format>image/svg+xml</dc:format><dc:type
         rdf:resource="http://purl.org/dc/dcmitype/StillImage" /><dc:title /></cc:Work></rdf:RDF></metadata><sodipodi:namedview
   pagecolor="#ffffff"
   bordercolor="#666666"
   borderopacity="1"
   objecttolerance="10"
   gridtolerance="10"
   guidetolerance="10"
   inkscape:pageopacity="0"
   inkscape:pageshadow="2"
   inkscape:window-width="2560"
   inkscape:window-height="1417"
   id="namedview40"
   showgrid="false"
   inkscape:zoom="0.5684624"
   inkscape:cx="579.10239"
   inkscape:cy="556.37871"
   inkscape:window-x="2552"
   inkscape:window-y="-8"
   inkscape:window-maximized="1"
   inkscape:current-layer="svg38"
   inkscape:document-rotation="0" />
<defs
   id="defs2">
</defs>














<g
   id="g888"
   inkscape:export-xdpi="34.150002"
   inkscape:export-ydpi="34.150002"
   transform="translate(-321.333,408.45614)"><polygon
     fill="#33cc66"
     points="554,9.667 306.333,9.667 306.333,64.667 397,64.667 397,139.292 462.333,139.292 462.333,64.667 554,64.667 "
     id="polygon4" /><rect
     x="397"
     y="146.29201"
     fill="#33cc66"
     width="65.333"
     height="128.04201"
     id="rect6" /><path
     fill="#33cc66"
     d="m 687,59.333 c 44.747,0 81.166,35.559 82.598,79.958 h 59.368 C 827.521,62.118 764.519,0 687,0 609.481,0 546.479,62.118 545.034,139.292 h 59.368 C 605.834,94.893 642.253,59.333 687,59.333 Z"
     id="path8" /><path
     fill="#33cc66"
     d="m 687,224.667 c -44.216,0 -80.323,-34.714 -82.556,-78.375 H 545.07 C 547.34,222.73 610.012,284 687,284 c 76.988,0 139.66,-61.271 141.93,-137.709 h -59.374 c -2.233,43.662 -38.34,78.376 -82.556,78.376 z"
     id="path10" /><polygon
     fill="#33cc66"
     points="1061.782,139.292 1030.333,10 968,10 936.8,139.292 994.133,139.292 999.666,116.333 1005.394,139.292 "
     id="polygon12" /><polygon
     fill="#33cc66"
     points="858.017,139.292 916.285,139.292 886.333,10 827,10 "
     id="polygon14" /><polygon
     fill="#33cc66"
     points="859.696,146.292 890.333,274 961.667,274 992.446,146.292 935.111,146.292 926.333,182.667 917.907,146.292 "
     id="polygon16" /><polygon
     fill="#33cc66"
     points="1082.717,139.292 1140.989,139.292 1172.333,10 1113.667,10 "
     id="polygon18" /><polygon
     fill="#33cc66"
     points="1007.14,146.292 1039,274 1108.333,274 1139.293,146.292 1081.041,146.292 1072.333,182.667 1063.485,146.292 "
     id="polygon20" /><path
     fill="#33cc66"
     d="m 1259,70.667 h 24.667 c 0,0 12.426,31.583 27.067,68.625 h 60.777 c -18.486,-46.342 -40.695,-102.51 -43.845,-111.958 -5.334,-16 -22,-17.333 -28,-17.333 -6,0 -100,0 -100,0 V 139.293 H 1259 Z"
     id="path22" /><rect
     x="1199.667"
     y="146.29201"
     fill="#33cc66"
     width="59.333"
     height="127.709"
     id="rect24" /><path
     fill="#33cc66"
     d="m 1404.333,210 c 0,0 -3.333,1.999 -7.333,-7.334 -1.518,-3.541 -11.099,-27.337 -22.694,-56.375 h -60.803 c 17.96,45.413 38.221,96.405 42.83,107.042 8.667,20 21.334,20.667 40.667,20.667 19.333,0 64.667,0 64.667,0 V 146.292 h -57.334 z"
     id="path26" /><rect
     x="1404.333"
     y="10"
     fill="#33cc66"
     width="57.334"
     height="129.29201"
     id="rect28" /><path
     fill="#33cc66"
     d="m 1656.13,83.333 c -57.896,0 -90.883,0 -98.289,0 -7.406,0 -11.445,-3.333 -11.445,-7.333 0,-4 2.693,-8.667 7.405,-8.667 4.712,0 173.015,0 173.015,0 V 10 c 0,0 -125.89,0 -173.015,0 -47.125,0 -65.301,39.333 -65.301,66 0,26.169 8.434,61.966 64.738,63.292 h 183.883 c -13.01,-29.691 -40.613,-55.959 -80.991,-55.959 z"
     id="path30" /><path
     fill="#33cc66"
     d="m 1685.077,177.333 c 0,22 -20.868,38 -40.392,38 -19.524,0 -156.186,0 -156.186,0 V 274 c 0,0 95.597,0 159.551,0 63.955,0 97.616,-55.333 97.616,-96 0,-10.092 -1.951,-21.004 -5.766,-31.709 h -71.823 c 9.661,6.711 17,17.784 17,31.042 z"
     id="path32" /></g>

<g
   id="g869"
   transform="matrix(2.6249851,0,0,2.6250029,-1655.2055,901.288)"
   inkscape:export-xdpi="53.116249"
   inkscape:export-ydpi="53.116249"><polygon
     fill="#33cc66"
     points="352.002,274.333 352.002,246.726 336.109,246.726 336.019,170.079 352.002,170.079 352.002,144.922 289.033,144.922 261.005,210.763 230.672,144.892 167.465,144.892 167.465,170.079 182.358,170.079 182.358,246.726 167.465,246.726 167.465,274.333 225.95,274.333 225.95,246.726 210.693,246.726 210.693,201.319 244.477,274.333 264.819,274.333 292.791,203.68 292.791,246.726 282.256,246.726 282.256,274.333 "
     id="polygon34"
     transform="translate(723.00296,-492.55676)" /><polygon
     fill="#33cc66"
     points="104.152,201.473 60.755,201.473 60.755,172.18 115.001,172.18 115.001,197.45 151.165,197.45 151.165,144.892 0,144.892 0,172.136 14.465,172.136 14.465,247.718 0,247.718 0,274.117 75.582,274.117 75.582,247.762 60.077,247.762 60.077,228.234 104.152,228.234 "
     id="polygon36"
     transform="translate(723.00296,-492.55676)" /></g>
</svg>
