<svg viewBox="0 0 714.68 863.8" xml:space="preserve" xmlns="http://www.w3.org/2000/svg">
  <path d="M685.92 679.74c-.01-.01-.021-.021-.021-.03-6.069-6.85-8.96-19.55-12.069-33.08-3.101-13.52-6.57-28.1-17.67-37.55-.021-.021-.051-.04-.07-.061a46.067 46.067 0 0 0-6.73-4.89 43.926 43.926 0 0 0-6.899-3.32c15.43-45.76 9.38-91.329-6.2-132.5-19.11-50.54-52.48-94.569-77.97-124.689-28.53-35.99-56.431-70.15-55.88-120.61C503.26 146 510.88 3.19 375.36 3c-5.51-.01-11.26.22-17.25.7-151.44 12.19-111.27 172.19-113.52 225.76-2.77 39.18-10.71 70.06-37.66 108.36-31.65 37.64-76.23 98.57-97.34 162-9.96 29.93-14.7 60.439-10.33 89.319a67.741 67.741 0 0 0-3.92 3.841c-9.29 9.93-16.16 21.949-23.81 30.039-7.15 7.141-17.33 9.851-28.53 13.86-11.2 4.021-23.49 9.94-30.95 24.26 0 0 0 .011-.01.011-.01.02-.02.05-.04.069-3.51 6.55-4.65 13.62-4.65 20.79 0 6.63.98 13.351 1.97 19.82 2.06 13.46 4.15 26.189 1.38 34.81-8.86 24.23-10 40.98-3.76 53.141 6.26 12.18 19.11 17.55 33.64 20.59 29.06 6.06 68.41 4.56 99.42 21l.03.01c33.2 17.36 66.86 23.521 93.71 17.39 19.48-4.439 35.28-16.039 43.4-33.88 21-.1 44.05-9 80.97-11.029 25.05-2.021 56.34 8.899 92.33 6.899.94 3.9 2.301 7.66 4.16 11.23.021.029.04.069.061.1 13.949 27.9 39.869 40.66 67.5 38.48 27.659-2.181 57.069-18.49 80.85-46.78l.031-.04c22.66-27.48 60.27-38.87 85.22-53.91 12.47-7.52 22.58-16.939 23.37-30.62.778-13.67-7.252-28.99-25.712-49.48z" fill="#202020" stroke="#fff" stroke-width="6"/>
  <path d="M700.25 728.57c-17.417 36.785-69.776 36.718-95.771 67.145-25.49 31.2-65.308 64.063-108.35 50.518-29.307-9.902-42.189-44.204-33.477-72.577 8.287-37.475 23.668-73.723 22.326-112.81.379-23.323 9.136-71.784 30.289-69.655.172 30.894 32.472 58.545 61.965 41.21 22.493-12.139 46.251-37.552 71.46-14.723 19.542 21.59 11.51 57.056 34.807 76.696 7.748 9.978 16.535 20.938 16.755 34.196zM271.5 790.95c.422 33.135-34.216 52.514-64.147 48.569-43.885-1.232-78.84-34.254-123-34.96-33.176 1.351-88.019-10.747-65.669-55.973 15.302-28.404-12.339-62.937 8.26-89.236 18.444-16.852 49.757-15.237 62.261-39.946 14.38-37.14 63.022-39.414 80.747-3.355 22.048 39.524 41.365 80.982 72.517 114.51 13.05 17.837 29.312 37.063 29.033 60.393zm163.28-556.26c-22.074-22.327-57.188-26.912-84.07-42.602-28.528-9.322-50.817 12.714-70.709 29.26-45.4 19.85-4.695 55.362 20.425 70.005 22.428 24.683 59.903 15.846 82.929-2.903 21.174-11.277 61.463-21.967 51.425-53.76z" fill="#f8bf11"/>
  <path d="M384.9 263.71c-17.619 9.237-36.43 19.15-56.945 17.937-19.808-.976-37.356-12.182-51.342-25.512-3.75-3.75-10.239-7.723-8.426-13.95 4.834-3.115 6.071 5.65 9.258 7.84 13.098 12.86 28.899 24.845 47.733 26.873 17.718 2.006 34.71-5.518 50.132-13.36 11.39-5.676 21.452-13.596 31.45-21.368 1.907-2.917 7.89-10.895 10.206-4.67-2.872 6.297-9.14 10.149-14.266 14.497-5.65 4.306-11.511 8.387-17.8 11.713z" fill="#202020"/>
  <path d="M624.4 597.47c-2.17-.08-4.31-.069-6.39-.02-.19.01-.38.01-.58.01 5.37-16.96-6.51-29.47-38.17-43.79-32.83-14.439-58.99-13.01-63.41 16.29-.28 1.53-.51 3.1-.68 4.68a49.79 49.79 0 0 0-7.4 3.29c-15.41 8.44-23.83 23.74-28.51 42.521-4.67 18.76-6.02 41.43-7.3 66.92v.02c-.79 12.811-6.07 30.15-11.41 48.511-53.78 38.369-128.42 54.989-191.8 11.729-4.29-6.79-9.22-13.52-14.29-20.16-3.24-4.239-6.57-8.45-9.87-12.609 6.5.01 12.03-1.061 16.5-3.08 5.56-2.53 9.46-6.57 11.4-11.771 3.86-10.39-.02-25.05-12.39-41.8-12.37-16.74-33.32-35.63-64.1-54.51v-.01c-22.62-14.07-35.26-31.311-41.18-50.03-5.93-18.73-5.1-38.98-.53-58.97 8.76-38.37 31.26-75.69 45.62-99.11 3.86-2.84 1.38 5.28-14.54 34.84-14.26 27.021-40.93 89.38-4.42 138.061.98-34.641 9.25-69.971 23.14-103.021 20.23-45.85 62.54-125.38 65.9-188.76 1.74 1.26 7.69 5.28 10.34 6.79.01.01.01.01.02.01 7.76 4.57 13.59 11.25 21.14 17.32 7.57 6.08 17.02 11.33 31.3 12.16 1.37.08 2.71.12 4.02.12 14.72 0 26.2-4.8 35.76-10.27 10.391-5.94 18.69-12.52 26.561-15.08.01-.01.02-.01.03-.01 16.63-5.2 29.84-14.4 37.359-25.12 12.92 50.92 42.96 124.47 62.271 160.36 10.27 19.04 30.689 59.5 39.51 108.25 5.59-.171 11.75.64 18.34 2.329 23.07-59.81-19.56-124.22-39.06-142.16-7.87-7.64-8.25-11.06-4.34-10.9 21.14 18.71 48.909 56.32 59.01 98.78 4.609 19.359 5.59 39.72.649 59.81 2.41 1 4.87 2.09 7.36 3.271 37.03 18.029 50.72 33.709 44.14 55.109z" fill="#fff"/>
  <path d="M360.51 435.8c-45.01-.081-85.466 27.55-111.84 62.415-22.153 28.785-37.088 62.622-46.414 97.59 31.034 20.414 64.542 43.996 78.892 79.909 7.569 17.101.497 40.36-18.417 46.123 9.244 17.296 25.093 28.211 43.719 33.813 48.947 17.61 104 3.04 145.46-25.979 6.332-19.972 11.263-40.466 11.088-61.538 2.394-31.116 4.265-66.434 27.644-89.903 4.122-6.765 15.575-6.84 16.458-14.937-.562-7.13-5.442-13.977-8.042-20.808-21.032-44.202-55.652-85.679-103.59-101.12-11.289-3.577-23.11-5.51-34.955-5.57zm145.51 132.36c-.152.715.01.108 0 0z" fill="#e6e6e6" style="isolation:auto;mix-blend-mode:normal"/>
  <path d="M436.52 176.03c.227 14.367-4.177 29.002-13.189 40.29-6.909-3.133-13.997-5.87-21.189-8.279 5.503-4.363 8.547-10.841 9.217-17.756 1.626-12.13-.904-26.717-11.718-33.998-8.05-4.862-17.733 1.104-21.473 8.66-4.788 8.492-6.013 18.682-4.495 28.224-6.352-4.694-17.903-3.894-21.997-9.37-2.264-20.436 4.458-43.16 21.699-55.539 12.813-9.835 32.053-8.386 43.816 2.456 12.973 11.025 19.114 28.623 19.329 45.312zm-116.08 10.05c-5.618.668-13.926 6.848-16.91 6.62.823-10.782-1.367-23.469-10.5-30.329-5.728-4.144-12.998.765-14.96 6.646-4.757 12.012-3.465 26.969 4.59 37.29 6.55 4.123-5.427 7.414-8.11 10.993-13.253-13.422-17.1-33.781-14.88-51.997 1.932-13.762 8.399-29.35 22.446-34.418 11.12-3.677 22.357 3.65 28.288 12.737 8.306 12.383 11.157 27.752 10.036 42.458z" fill="#fff"/>
  <path d="M346.097 206.89c.806 1.939 3.235 1.773 4.932 2.345 2.46.602 3.917 3.605 6.685 3.211 1.847-.015 4.836-1.135 4.055-3.476-1.009-2.17-3.522-2.96-5.573-3.824-2.99-1.068-6.706-1.691-9.475.25-.395.37-.786.921-.624 1.494zm-19.765 0c-.807 1.939-3.235 1.773-4.932 2.345-2.46.602-3.917 3.605-6.685 3.211-1.847-.015-4.836-1.135-4.055-3.476 1.008-2.17 3.522-2.96 5.573-3.824 2.99-1.068 6.705-1.691 9.474.25.396.37.787.921.625 1.494z" fill="#202020"/>
</svg>
