<?xml version="1.0" encoding="UTF-8" standalone="no"?>
<svg
   xmlns:dc="http://purl.org/dc/elements/1.1/"
   xmlns:cc="http://creativecommons.org/ns#"
   xmlns:rdf="http://www.w3.org/1999/02/22-rdf-syntax-ns#"
   xmlns:svg="http://www.w3.org/2000/svg"
   xmlns="http://www.w3.org/2000/svg"
   xmlns:sodipodi="http://sodipodi.sourceforge.net/DTD/sodipodi-0.dtd"
   xmlns:inkscape="http://www.inkscape.org/namespaces/inkscape"
   width="240"
   height="240"
   version="1.1"
   id="svg6"
   sodipodi:docname="macintosh-v1.svg"
   inkscape:version="1.0.2-2 (e86c870879, 2021-01-15)">
  <metadata
     id="metadata12">
    <rdf:RDF>
      <cc:Work
         rdf:about="">
        <dc:format>image/svg+xml</dc:format>
        <dc:type
           rdf:resource="http://purl.org/dc/dcmitype/StillImage" />
        <dc:title />
      </cc:Work>
    </rdf:RDF>
  </metadata>
  <defs
     id="defs10" />
  <sodipodi:namedview
     pagecolor="#ffffff"
     bordercolor="#666666"
     borderopacity="1"
     objecttolerance="10"
     gridtolerance="10"
     guidetolerance="10"
     inkscape:pageopacity="0"
     inkscape:pageshadow="2"
     inkscape:window-width="2560"
     inkscape:window-height="1377"
     id="namedview8"
     showgrid="false"
     inkscape:zoom="2.9698485"
     inkscape:cx="253.34027"
     inkscape:cy="169.43964"
     inkscape:window-x="-8"
     inkscape:window-y="-8"
     inkscape:window-maximized="1"
     inkscape:current-layer="svg6"
     inkscape:document-rotation="0" />
  <circle
     style="fill:#464646;fill-rule:evenodd;stroke-width:1.33069"
     id="path831"
     cx="120"
     cy="120"
     r="120"
     inkscape:export-xdpi="204.8"
     inkscape:export-ydpi="204.8" />
  <path
     fill="#efefef"
     d="m 130.85405,83.861195 v -1.767659 l -5.49422,0.377307 c -1.55575,0.0982 -2.72385,0.428993 -3.50947,0.987201 -0.78563,0.563377 -1.17844,1.343835 -1.17844,2.341373 0,0.971696 0.38764,1.746985 1.1681,2.320699 0.77529,0.578882 1.81934,0.863155 3.12183,0.863155 0.83214,0 1.6126,-0.129215 2.33104,-0.382476 0.71843,-0.253261 1.349,-0.609894 1.87619,-1.06473 0.5272,-0.449668 0.94069,-0.987202 1.2353,-1.612602 0.29978,-0.625399 0.44967,-1.312822 0.44967,-2.062268 z M 120,12.7 C 60.147688,12.7 12.7,60.096002 12.7,120 12.75169,179.85231 60.147688,227.3 120,227.3 179.85231,227.3 227.3,179.85231 227.3,120 227.3,60.147688 179.85231,12.7 120,12.7 Z m 20.81909,63.573699 c 0.50653,-1.421363 1.21979,-2.641151 2.14497,-3.654195 0.92518,-1.013044 2.03643,-1.793502 3.33891,-2.341373 1.30249,-0.547871 2.75486,-0.821806 4.35196,-0.821806 1.44204,0 2.74452,0.217081 3.90229,0.646074 1.16293,0.428993 2.1553,1.007876 2.98744,1.736647 0.83215,0.728772 1.49373,1.576421 1.97957,2.548117 0.48585,0.971695 0.77529,2.000245 0.8735,3.080482 h -4.30544 c -0.10854,-0.594389 -0.30495,-1.152597 -0.58405,-1.664288 -0.27911,-0.51169 -0.64608,-0.956189 -1.10091,-1.333497 -0.46001,-0.377307 -0.99754,-0.671917 -1.6126,-0.883829 -0.62024,-0.217081 -1.31283,-0.320453 -2.09328,-0.320453 -0.91485,0 -1.74699,0.186069 -2.4861,0.55304 -0.74428,0.36697 -1.38001,0.888998 -1.90721,1.560915 -0.5272,0.671917 -0.93551,1.493723 -1.22496,2.455082 -0.29461,0.966527 -0.43933,2.036425 -0.43933,3.214865 0,1.219788 0.14472,2.31553 0.43933,3.276888 0.28945,0.966527 0.70293,1.777996 1.24047,2.444745 0.53236,0.666748 1.17844,1.178439 1.92788,1.529903 0.74945,0.351465 1.57642,0.532366 2.47576,0.532366 1.47305,0 2.67216,-0.346296 3.60251,-1.038888 0.93034,-0.692591 1.5299,-1.705636 1.80901,-3.039133 h 4.3106 c -0.12404,1.17844 -0.44967,2.253507 -0.97686,3.225203 -0.5272,0.971695 -1.20945,1.79867 -2.04676,2.486093 -0.84249,0.687423 -1.82969,1.219788 -2.96678,1.591927 -1.13709,0.372139 -2.38789,0.563377 -3.74723,0.563377 -1.6126,0 -3.06497,-0.268767 -4.37263,-0.801132 -1.30248,-0.532366 -2.42407,-1.302486 -3.35441,-2.300025 -0.93035,-0.997538 -1.64879,-2.212158 -2.15531,-3.643858 -0.50652,-1.4317 -0.75978,-3.039133 -0.75978,-4.832635 -0.0103,-1.752153 0.24292,-3.34408 0.74944,-4.770612 z M 79.560925,69.750934 h 4.310607 v 3.829928 h 0.0827 c 0.263599,-0.635737 0.609894,-1.209451 1.033719,-1.705636 0.423825,-0.501353 0.909672,-0.925178 1.467881,-1.281811 0.553039,-0.356633 1.168102,-0.6254 1.829682,-0.811469 0.666748,-0.186069 1.369677,-0.279104 2.103617,-0.279104 1.58159,0 2.920255,0.377307 4.00566,1.131922 1.090573,0.754615 1.865862,1.840019 2.320699,3.256214 h 0.10854 c 0.28944,-0.682254 0.67191,-1.292149 1.14226,-1.829682 0.47034,-0.537534 1.01304,-1.002707 1.62293,-1.385183 0.6099,-0.382476 1.28182,-0.671917 2.01059,-0.873493 0.72877,-0.201575 1.49372,-0.299778 2.30002,-0.299778 1.11125,0 2.11912,0.175732 3.0288,0.532365 0.90967,0.356633 1.68496,0.852818 2.33103,1.498892 0.64608,0.646074 1.14226,1.431701 1.48856,2.35171 0.34629,0.92001 0.52203,1.943391 0.52203,3.070145 v 15.402408 h -4.49668 V 78.031021 c 0,-1.483386 -0.38248,-2.635982 -1.14743,-3.447452 -0.75978,-0.811469 -1.85035,-1.219788 -3.26655,-1.219788 -0.69259,0 -1.32833,0.124047 -1.90721,0.36697 -0.57371,0.242924 -1.07507,0.584052 -1.48856,1.023382 -0.41865,0.434162 -0.74427,0.961358 -0.97686,1.571252 -0.23775,0.609894 -0.35663,1.276643 -0.35663,2.000246 v 14.0379 h -4.434653 v -14.69948 c 0,-0.651243 -0.103371,-1.240462 -0.304947,-1.767659 -0.201575,-0.527196 -0.485847,-0.976864 -0.863155,-1.354171 -0.372138,-0.377308 -0.832143,-0.66158 -1.364508,-0.863155 -0.537534,-0.201576 -1.137091,-0.304948 -1.80384,-0.304948 -0.692591,0 -1.333497,0.129215 -1.927885,0.387645 -0.58922,0.25843 -1.095742,0.615063 -1.519566,1.069899 -0.423825,0.460005 -0.754615,0.997538 -0.987202,1.622938 -0.227418,0.620231 -0.599557,1.302486 -0.599557,2.036426 V 92.363531 H 79.560928 V 69.756103 Z m 9.820327,108.230346 c -19.764701,0 -32.169325,-13.73812 -32.169325,-35.66329 0,-21.92518 12.404624,-35.70465 32.169325,-35.70465 19.764698,0 32.127978,13.78981 32.127978,35.70465 0,21.91483 -12.35294,35.66329 -32.127978,35.66329 z M 125.98523,92.306676 c -0.72877,0.18607 -1.47305,0.279104 -2.238,0.279104 -1.12675,0 -2.1553,-0.160226 -3.09082,-0.480679 -0.94068,-0.320453 -1.74181,-0.77012 -2.41373,-1.354171 -0.67192,-0.584051 -1.19912,-1.28698 -1.57125,-2.113955 -0.37731,-0.826975 -0.56338,-1.746985 -0.56338,-2.760029 0,-1.98474 0.73911,-3.535318 2.21733,-4.651734 1.47821,-1.116416 3.61801,-1.767659 6.42456,-1.94856 l 6.09894,-0.351464 v -1.746985 c 0,-1.302485 -0.41349,-2.300024 -1.24046,-2.97711 -0.82698,-0.677085 -1.99508,-1.018212 -3.50948,-1.018212 -0.60989,0 -1.18361,0.07753 -1.7108,0.227418 -0.5272,0.155057 -0.99237,0.372138 -1.39552,0.656411 -0.40315,0.284273 -0.73911,0.6254 -0.99754,1.023382 -0.2636,0.392813 -0.4445,0.837312 -0.54271,1.323159 h -4.2279 c 0.0258,-0.997538 0.27393,-1.922716 0.7391,-2.770366 0.46518,-0.847649 1.09575,-1.581589 1.89688,-2.206989 0.80113,-0.6254 1.73665,-1.111248 2.82205,-1.457543 1.0854,-0.346296 2.26384,-0.522028 3.54049,-0.522028 1.37484,0 2.62047,0.170563 3.73689,0.522028 1.11642,0.351464 2.07261,0.84248 2.8634,1.488555 0.7908,0.646074 1.40069,1.421363 1.82968,2.331035 0.429,0.909673 0.64608,1.927886 0.64608,3.04947 v 15.505781 h -4.30544 v -3.767905 h -0.10854 c -0.32045,0.609894 -0.72361,1.162934 -1.21462,1.65395 -0.49619,0.491016 -1.04923,0.914841 -1.66429,1.261137 -0.62023,0.346295 -1.29215,0.615062 -2.02092,0.801132 z m 28.44794,85.674604 c -15.07162,0 -25.32611,-7.89761 -26.03937,-20.30223 h 9.81515 c 0.76496,7.08614 7.61334,11.78439 16.99434,11.78439 8.99852,0 15.46443,-4.69308 15.46443,-11.10214 0,-5.55107 -3.92813,-8.90549 -13.02485,-11.20551 l -8.85897,-2.20182 c -12.73542,-3.15801 -18.52424,-8.952 -18.52424,-18.48289 0,-11.72237 10.24415,-19.86807 24.8506,-19.86807 14.26531,0 24.22002,8.18705 24.6025,19.9611 h -9.71696 c -0.67191,-7.08614 -6.46074,-11.44326 -15.08195,-11.44326 -8.56953,0 -14.50307,4.40364 -14.50307,10.77135 0,5.02387 3.73172,7.99581 12.82844,10.29067 l 7.46862,1.86586 c 14.22397,3.44745 20.05414,9.05021 20.05414,19.10312 -0.005,12.82845 -10.15111,20.81909 -26.33915,20.81909 z M 89.350241,115.4413 c -13.541715,0 -22.018208,10.38887 -22.018208,26.89736 0,16.46714 8.471324,26.85601 22.018208,26.85601 13.500369,0 22.018209,-10.38887 22.018209,-26.85601 0,-16.5395 -8.47649,-26.87669 -21.97686,-26.87669 z"
     id="path4"
     style="stroke-width:1.03372"
     inkscape:export-xdpi="204.8"
     inkscape:export-ydpi="204.8" />
</svg>
