<?xml version="1.0" encoding="UTF-8" standalone="no"?>
<!--Generator: Adobe Illustrator 23.0.1, SVG Export Plug-In . SVG Version: 6.00 Build 0)-->
<svg version="1.1" id="Livello_1" x="0px" y="0px" width="824.81799" height="1008.5068" viewBox="0 0 824.81799 1008.5068" enable-background="new 0 0 814 1000" xml:space="preserve" sodipodi:docname="macintosh-v2k.svg" inkscape:version="1.1.2 (b8e25be833, 2022-02-05)" inkscape:export-filename="C:\ScummIcons\platform\macintosh-v2.png" inkscape:export-xdpi="6.092175" inkscape:export-ydpi="6.092175" xmlns:inkscape="http://www.inkscape.org/namespaces/inkscape" xmlns:sodipodi="http://sodipodi.sourceforge.net/DTD/sodipodi-0.dtd" xmlns:xlink="http://www.w3.org/1999/xlink" xmlns="http://www.w3.org/2000/svg" xmlns:svg="http://www.w3.org/2000/svg">
  <defs id="defs7">
    <linearGradient inkscape:collect="always" id="linearGradient6758">
      <stop style="stop-color:#f2f4f5;stop-opacity:1" offset="0" id="stop6754"/>
      <stop style="stop-color:#c4ced3;stop-opacity:1" offset="1" id="stop6756"/>
    </linearGradient>
    <inkscape:path-effect effect="bspline" id="path-effect4886" is_visible="true" lpeversion="1" weight="33.333333" steps="2" helper_size="0" apply_no_weight="true" apply_with_weight="true" only_selected="false"/>
    <linearGradient inkscape:collect="always" id="linearGradient2916">
      <stop style="stop-color:#a1b0b8;stop-opacity:1" offset="0" id="stop2912"/>
      <stop style="stop-color:#eaebec;stop-opacity:1" offset="0.45381874" id="stop3088"/>
      <stop style="stop-color:#a1b0b8;stop-opacity:1" offset="1" id="stop2914"/>
    </linearGradient>
    <linearGradient inkscape:collect="always" id="linearGradient2815">
      <stop style="stop-color:#e3e4e6;stop-opacity:1" offset="0" id="stop2811"/>
      <stop style="stop-color:#6e6e6e;stop-opacity:1" offset="1" id="stop2813"/>
    </linearGradient>
    <meshgradient inkscape:collect="always" id="meshgradient1097" gradientUnits="userSpaceOnUse" x="453.50092" y="38.946163" gradientTransform="translate(5.00005,3.6067946)">
      <meshrow id="meshrow2653">
        <meshpatch id="meshpatch2655">
          <stop path="c 114.998,-37.8007  85.6677,-38.9464  153.704,-38.9464" style="stop-color:#f8f9fa;stop-opacity:1" id="stop2657"/>
          <stop path="c 0,76.9  8.01776,55.2917  -35.5115,186.026" style="stop-color:#a9b7bf;stop-opacity:1" id="stop2659"/>
          <stop path="c -98.9593,45.8164  -100.559,44.6708  -168.588,44.672" style="stop-color:#f8f9fa;stop-opacity:1" id="stop2661"/>
          <stop path="c -0.0037,-76.9012  -0.00361761,-56.4374  50.3955,-191.752" style="stop-color:#a9b7bf;stop-opacity:1" id="stop2663"/>
        </meshpatch>
      </meshrow>
    </meshgradient>
    <radialGradient inkscape:collect="always" xlink:href="#linearGradient2815" id="radialGradient2817" cx="426.83481" cy="959.02588" fx="426.83481" fy="959.02588" r="412.409" gradientTransform="matrix(0.50560058,0.00277752,-0.00511634,0.93134295,219.83543,45.044982)" gradientUnits="userSpaceOnUse"/>
    <radialGradient inkscape:collect="always" xlink:href="#linearGradient6758" id="radialGradient6762-6" cx="370.62451" cy="388.81558" fx="370.62451" fy="388.81558" r="391.5094" gradientTransform="matrix(2.1654183,-0.60289385,0.16066182,0.57705028,-521.02157,417.28266)" gradientUnits="userSpaceOnUse"/>
    <inkscape:path-effect effect="bspline" id="path-effect4886-1" is_visible="true" lpeversion="1" weight="33.333333" steps="2" helper_size="0" apply_no_weight="true" apply_with_weight="true" only_selected="false"/>
    <radialGradient inkscape:collect="always" xlink:href="#linearGradient2815" id="radialGradient2817-5" cx="426.83481" cy="959.02588" fx="426.83481" fy="959.02588" r="412.409" gradientTransform="matrix(0.50560058,0.00277752,-0.00511634,0.93134295,219.83538,45.044981)" gradientUnits="userSpaceOnUse"/>
    <linearGradient inkscape:collect="always" xlink:href="#linearGradient2916" id="linearGradient7872" gradientUnits="userSpaceOnUse" x1="-69.797874" y1="733.38629" x2="780.93927" y2="456.37537" gradientTransform="translate(5,3.6067946)"/>
  </defs>
  <sodipodi:namedview id="namedview5" pagecolor="#ffffff" bordercolor="#666666" borderopacity="1.0" inkscape:pageshadow="2" inkscape:pageopacity="0.0" inkscape:pagecheckerboard="0" showgrid="false" inkscape:zoom="0.873" inkscape:cx="309.85109" inkscape:cy="521.19129" inkscape:window-width="2560" inkscape:window-height="1377" inkscape:window-x="-8" inkscape:window-y="-8" inkscape:window-maximized="1" inkscape:current-layer="Livello_1" inkscape:object-paths="true"/>
  <path d="m 559.10005,163.00679 c 31.1,-36.9 53.1,-88.099995 53.1,-139.299995 0,-7.1 -0.6,-14.3000004 -1.9,-20.1000004 -50.6,1.9 -110.8,33.7000004 -147.1,75.8000004 -28.5,32.399995 -55.1,83.599995 -55.1,135.499995 0,7.8 1.3,15.6 1.9,18.1 3.2,0.6 8.4,1.3 13.6,1.3 45.4,0 102.5,-30.4 135.5,-71.3 z" id="path1038" style="fill:url(#meshgradient1097);fill-opacity:1;stroke:#6e6e6e;stroke-width:7;stroke-miterlimit:4;stroke-dasharray:none;stroke-opacity:1"/>
  <path d="m 793.10005,344.50679 c -5.8,4.5 -108.2,62.2 -108.2,190.5 0,148.4 130.3,200.9 134.2,202.2 -0.6,3.2 -20.7,71.9 -68.7,141.9 -42.8,61.6 -87.5,123.10001 -155.5,123.10001 -68,0 -85.5,-39.50001 -164.00005,-39.50001 -76.5,0 -103.7,40.80001 -165.9,40.80001 -62.2,0 -105.6,-57.00001 -155.5,-127.00001 -57.8,-82.2 -104.5,-209.9 -104.5,-331.1 0,-194.4 126.4,-297.5 250.8,-297.5 4.47029,0 8.89028,0.1985 13.25914,0.56865 60.2314,5.10307 110.74747,42.83135 149.44086,42.83135 39.50005,0 101.10005,-46 176.30005,-46 28.5,0 130.9,2.6 198.3,99.2 z" id="path2-1" style="fill:url(#linearGradient7872);fill-opacity:1;stroke:url(#radialGradient2817-5);stroke-width:10;stroke-miterlimit:4;stroke-dasharray:none;stroke-opacity:1" sodipodi:nodetypes="csccssscsssssc"/>
  <path style="fill:url(#radialGradient6762-6);fill-opacity:1;stroke:none;stroke-width:1px;stroke-linecap:butt;stroke-linejoin:miter;stroke-opacity:1" d="m 17.107764,600.95486 c 8.181802,-4.79321 24.545104,-14.37944 42.716492,-28.35237 18.171388,-13.97293 38.15033,-32.33196 55.970034,-46.10167 17.8197,-13.76971 33.47888,-22.94923 49.54376,-29.09154 16.06487,-6.14231 32.534,-9.24715 56.08284,-9.8442 23.54883,-0.59706 54.17553,1.31344 81.23554,5.01593 27.06,3.70249 50.9137,9.28118 77.45081,13.4812 26.53711,4.20003 55.93701,7.06365 82.28301,5.44069 26.346,-1.62296 49.6368,-7.73202 74.83738,-18.23237 25.20057,-10.50035 52.30958,-25.39123 82.95136,-44.48271 30.64177,-19.09149 64.8138,-42.38191 93.67945,-59.84904 28.86564,-17.46714 52.42181,-29.10913 64.7376,-35.96149 12.3158,-6.85236 13.39105,-8.91538 6.58397,-17.88976 -6.80707,-8.97438 -21.49428,-24.85679 -37.15517,-37.47222 -15.66089,-12.61543 -32.29186,-21.95991 -43.13702,-28.05355 -10.84516,-6.09363 -15.90279,-8.93546 -29.15919,-12.68478 -13.25641,-3.74932 -34.71041,-8.4051 -55.0523,-10.43728 -20.3419,-2.03218 -39.5688,-1.44032 -61.67567,2.63325 -22.10686,4.07356 -47.08826,11.62788 -65.05301,17.51525 -17.96475,5.88737 -28.90555,10.10544 -40.12761,13.52706 -11.22205,3.42162 -22.72235,6.04578 -34.37933,6.0994 -11.65699,0.0536 -23.46649,-2.46377 -43.72862,-9.37205 -20.26213,-6.90828 -48.97222,-18.20613 -75.40812,-23.84189 -26.43591,-5.63576 -50.58971,-5.60726 -71.14048,-4.58386 -20.55076,1.0234 -37.49612,3.04179 -63.03799,15.21014 -25.54187,12.16834 -59.68129,34.48764 -83.948051,60.24321 -24.266763,25.75557 -38.662292,54.94863 -48.406733,77.91308 -9.744441,22.96446 -14.947662,40.06078 -18.934273,60.12731 -3.986611,20.06654 -6.8114099,43.28225 -7.9094332,64.85982 -1.0980233,21.57758 -0.4573963,41.8955 0.163599,54.78557 0.6209953,12.89006 1.2282262,18.54155 1.5317892,21.3668 0.303563,2.82525 0.303563,2.82528 8.485366,-1.96793 z" id="path4884-2" sodipodi:nodetypes="ccccccccccccccccccccccccccccccc" inkscape:original-d="m 8.925961,605.74807 c 16.3643,-9.58523 32.7276,-19.17147 49.0899,-28.75871 19.98074,-18.35876 39.959689,-36.71778 59.938029,-55.07819 15.6608,-9.17887 31.31997,-18.3584 46.97846,-27.5391 16.47079,-3.10395 32.93992,-6.20879 49.40841,-9.31469 30.6289,1.91157 61.2556,3.82207 91.8819,5.73161 23.4837,5.53758 47.3473,11.07394 71.0195,16.6094 29.4021,2.86475 58.802,5.72838 88.2016,8.59106 23.2928,-6.10832 46.5836,-12.2174 69.874,-18.32761 27.1111,-14.89047 54.2201,-29.78136 81.3287,-44.67354 34.1751,-23.29079 68.3471,-46.58126 102.5201,-69.87399 23.5581,-11.64149 47.1141,-23.28383 70.6703,-34.92688 1.0762,-2.06186 2.1514,-4.12491 3.2258,-6.18916 -14.6897,-15.88514 -29.3769,-31.76756 -44.0679,-47.654 -16.631,-9.34404 -33.2619,-18.68866 -49.8935,-28.03377 -5.0586,-2.84237 -10.1164,-5.68389 -15.1761,-8.52729 -21.4531,-4.65481 -42.9071,-9.31058 -64.3631,-13.96758 -19.2276,0.59292 -38.4545,1.18478 -57.684,1.7757 -24.9839,7.55637 -49.9653,15.11068 -74.9526,22.6655 -10.9421,4.21993 -21.8829,8.43801 -32.8263,12.6557 -11.5009,2.62553 -23.0012,5.24968 -34.5048,7.87336 -11.8108,-2.51687 -23.6203,-5.03425 -35.4324,-7.55296 -28.7122,-11.29809 -57.4223,-22.59591 -86.1377,-33.89647 -24.1562,0.0295 -48.31,0.058 -72.4669,0.0855 -16.9445,2.0194 -33.88986,4.03779 -50.83594,6.05515 -34.13703,22.31939 -68.27645,44.63869 -102.415419,66.95604 -14.39411,29.19322 -28.78964,58.38628 -43.18596,87.57791 -5.1069,16.73269 -10.2958,33.83337 -15.44519,50.74856 -2.82392,23.21765 -5.64872,46.43336 -8.47457,69.64855 0.6184,19.94015 1.2703,40.25772 1.90395,60.38508 0.60825,5.65271 1.21549,11.30419 1.82173,16.95479 z" inkscape:path-effect="#path-effect4886-1"/>
  <path d="m 793.10005,344.50679 c -5.8,4.5 -108.2,62.2 -108.2,190.5 0,148.4 130.3,200.9 134.2,202.2 -0.6,3.2 -20.7,71.9 -68.7,141.9 -42.8,61.6 -87.5,123.10001 -155.5,123.10001 -68,0 -85.5,-39.50001 -164,-39.50001 -76.5,0 -103.7,40.80001 -165.9,40.80001 -62.2,0 -105.6,-57.00001 -155.5,-127.00001 -57.8,-82.2 -104.5,-209.9 -104.5,-331.1 0,-194.4 126.4,-297.5 250.8,-297.5 4.47029,0 8.89028,0.1985 13.25914,0.56865 60.2314,5.10307 110.74747,42.83135 149.44086,42.83135 39.5,0 101.1,-46 176.3,-46 28.5,0 130.9,2.6 198.3,99.2 z" id="path2" style="fill:none;fill-opacity:1;stroke:url(#radialGradient2817);stroke-width:10;stroke-miterlimit:4;stroke-dasharray:none;stroke-opacity:1" sodipodi:nodetypes="csccssscsssssc"/>
</svg>
