<?xml version="1.0" encoding="UTF-8" standalone="no"?>
<svg
   xmlns:dc="http://purl.org/dc/elements/1.1/"
   xmlns:cc="http://creativecommons.org/ns#"
   xmlns:rdf="http://www.w3.org/1999/02/22-rdf-syntax-ns#"
   xmlns:svg="http://www.w3.org/2000/svg"
   xmlns="http://www.w3.org/2000/svg"
   xmlns:sodipodi="http://sodipodi.sourceforge.net/DTD/sodipodi-0.dtd"
   xmlns:inkscape="http://www.inkscape.org/namespaces/inkscape"
   width="759.33765"
   height="494.38931"
   id="svg2"
   version="1.1"
   inkscape:version="1.0.2-2 (e86c870879, 2021-01-15)"
   sodipodi:docname="megadrive-v2a.svg">
  <defs
     id="defs4">
    <inkscape:path-effect
       effect="skeletal"
       id="path-effect3036"
       is_visible="true"
       pattern="m -9.0913734,-5.0507627 v 10 L 0.90862665,-0.05076273 Z"
       copytype="single_stretched"
       prop_scale="1"
       scale_y_rel="false"
       spacing="0"
       normal_offset="0"
       tang_offset="0"
       prop_units="false"
       vertical_pattern="false"
       fuse_tolerance="0"
       lpeversion="0"
       hide_knot="false" />
    <inkscape:path-effect
       effect="spiro"
       id="path-effect3034"
       is_visible="true"
       lpeversion="0" />
    <inkscape:path-effect
       effect="skeletal"
       id="path-effect3030"
       is_visible="true"
       pattern="M 0,0 V 10 L 10,5 Z"
       copytype="single_stretched"
       prop_scale="1"
       scale_y_rel="false"
       spacing="0"
       normal_offset="0"
       tang_offset="0"
       prop_units="false"
       vertical_pattern="false"
       fuse_tolerance="0"
       lpeversion="0"
       hide_knot="false" />
    <inkscape:path-effect
       effect="spiro"
       id="path-effect3028"
       is_visible="true"
       lpeversion="0" />
    <inkscape:path-effect
       effect="skeletal"
       id="path-effect3024"
       is_visible="true"
       pattern="M 0,0 V 10 L 10,5 Z"
       copytype="single_stretched"
       prop_scale="1"
       scale_y_rel="false"
       spacing="0"
       normal_offset="0"
       tang_offset="0"
       prop_units="false"
       vertical_pattern="false"
       fuse_tolerance="0"
       lpeversion="0"
       hide_knot="false" />
    <inkscape:path-effect
       effect="spiro"
       id="path-effect3022"
       is_visible="true"
       lpeversion="0" />
    <inkscape:path-effect
       effect="skeletal"
       id="path-effect3018"
       is_visible="true"
       pattern="M 0,0 V 10 L 10,5 Z"
       copytype="single_stretched"
       prop_scale="1"
       scale_y_rel="false"
       spacing="0"
       normal_offset="0"
       tang_offset="0"
       prop_units="false"
       vertical_pattern="false"
       fuse_tolerance="0"
       lpeversion="0"
       hide_knot="false" />
    <inkscape:path-effect
       effect="spiro"
       id="path-effect3016"
       is_visible="true"
       lpeversion="0" />
    <inkscape:path-effect
       effect="skeletal"
       id="path-effect3012"
       is_visible="true"
       pattern="M 0,0 V 10 L 10,5 Z"
       copytype="single_stretched"
       prop_scale="1"
       scale_y_rel="false"
       spacing="0"
       normal_offset="0"
       tang_offset="0"
       prop_units="false"
       vertical_pattern="false"
       fuse_tolerance="0"
       lpeversion="0"
       hide_knot="false" />
    <inkscape:path-effect
       effect="spiro"
       id="path-effect3010"
       is_visible="true"
       lpeversion="0" />
  </defs>
  <sodipodi:namedview
     id="base"
     pagecolor="#ffffff"
     bordercolor="#666666"
     borderopacity="1.0"
     inkscape:pageopacity="0.0"
     inkscape:pageshadow="2"
     inkscape:zoom="1.4"
     inkscape:cx="531.13712"
     inkscape:cy="286.52859"
     inkscape:document-units="px"
     inkscape:current-layer="layer2"
     showgrid="false"
     inkscape:window-width="2560"
     inkscape:window-height="1377"
     inkscape:window-x="-8"
     inkscape:window-y="-8"
     inkscape:window-maximized="1"
     fit-margin-top="0"
     fit-margin-left="0"
     fit-margin-right="0"
     fit-margin-bottom="0"
     showguides="true"
     inkscape:guide-bbox="true"
     inkscape:document-rotation="0" />
  <metadata
     id="metadata7">
    <rdf:RDF>
      <cc:Work
         rdf:about="">
        <dc:format>image/svg+xml</dc:format>
        <dc:type
           rdf:resource="http://purl.org/dc/dcmitype/StillImage" />
        <dc:title></dc:title>
      </cc:Work>
    </rdf:RDF>
  </metadata>
  <g
     inkscape:groupmode="layer"
     id="layer2"
     inkscape:label="Layer"
     style="display:inline"
     transform="translate(4.624302,-265.70688)">
    <rect
       style="fill:#000000;fill-opacity:1;stroke:#ffffff;stroke-width:8.5;stroke-linecap:round;stroke-linejoin:miter;stroke-miterlimit:4;stroke-dasharray:none;stroke-dashoffset:0;stroke-opacity:1"
       id="rect4013"
       width="750.83765"
       height="485.88931"
       x="-0.37430203"
       y="269.95688"
       inkscape:export-xdpi="65.029999"
       inkscape:export-ydpi="65.029999" />
    <g
       id="g3975">
      <g
         id="g3903" />
    </g>
    <path
       style="display:inline;fill:#ff0000;fill-opacity:1;stroke:none;stroke-width:0.0831416;stroke-linecap:butt;stroke-linejoin:miter;stroke-miterlimit:4;stroke-dasharray:none;stroke-opacity:1"
       d="M 231.01354,296.02259 V 581.59086 H 33.241599 Z"
       id="path3038"
       inkscape:connector-curvature="0"
       inkscape:export-xdpi="65.029999"
       inkscape:export-ydpi="65.029999" />
    <rect
       style="display:inline;fill:#00aa00;fill-opacity:1;stroke:none;stroke-width:0.555137;stroke-linecap:round;stroke-linejoin:miter;stroke-miterlimit:4;stroke-dasharray:none;stroke-dashoffset:0;stroke-opacity:1"
       id="rect3834"
       width="95.53389"
       height="282.31396"
       x="440.50082"
       y="301.71771"
       inkscape:export-xdpi="65.029999"
       inkscape:export-ydpi="65.029999" />
    <path
       style="display:inline;fill:#00aa00;fill-opacity:1;stroke:none;stroke-width:0.548088;stroke-linecap:round;stroke-linejoin:miter;stroke-miterlimit:4;stroke-dasharray:none;stroke-dashoffset:0;stroke-opacity:1"
       d="m 556.60221,301.85124 c -1.02147,-0.0292 -2.15963,-0.0543 -3.44085,-0.0745 l -0.58671,96.71712 c 0.0769,0.002 0.15551,-0.002 0.23233,0 v -0.30074 c 1.62521,-0.2091 3.26191,-0.31415 4.93048,-0.35086 l 20.0576,-94.78272 c -7.82654,-0.92304 -15.19745,-1.02398 -21.19285,-1.20831 z m 36.78456,2.68693 -28.1632,93.73015 c 2.50845,0.33511 4.96715,0.86818 7.33121,1.57887 l 46.25891,-89.11882 c -8.17033,-2.78517 -16.65886,-4.88047 -25.42692,-6.1902 z m 40.88959,12.48065 -55.31967,85.25933 c 1.84878,0.86854 3.6408,1.86599 5.34352,2.95726 l 71.06629,-75.91138 c -6.62863,-4.66797 -13.68016,-8.78045 -21.09014,-12.30521 z m 34.38442,22.90624 -79.50751,68.89415 c 1.90024,1.60106 3.67949,3.35906 5.29188,5.23787 l 93.55041,-52.87983 c -5.69521,-7.70863 -12.18791,-14.83045 -19.33478,-21.25219 z m 26.58855,32.10383 -97.34508,46.58938 c 1.11635,1.69194 2.1131,3.45145 2.99444,5.28797 l 106.8705,-24.96126 c -3.21183,-9.45996 -7.42301,-18.47054 -12.51986,-26.91609 z m 16.52104,41.25128 -108.90981,15.46297 c 1.1167,3.26461 1.86773,6.7019 2.19421,10.25016 h 109.91655 c -0.25862,-8.79735 -1.3558,-17.39407 -3.20095,-25.71313 z m -106.7156,34.18393 c -2.25658,22.94314 -22.06864,40.87536 -46.15566,40.87536 -2.07228,0 -4.09182,-0.14363 -6.09213,-0.401 v -1.95478 c -0.0768,0.002 -0.15542,-0.002 -0.23233,0 v 97.65576 c 8.24815,-0.0575 12.50423,-0.39195 18.92176,-0.39195 77.7801,0 141.10822,-60.39259 143.47491,-135.78339 z"
       id="path3838"
       inkscape:connector-curvature="0"
       sodipodi:nodetypes="ccccccccccccccccccccccccccccccccccccccsccc"
       inkscape:export-xdpi="65.029999"
       inkscape:export-ydpi="65.029999" />
    <path
       style="display:inline;fill:#ff0000;fill-opacity:1;stroke:none;stroke-width:0.0831416;stroke-linecap:butt;stroke-linejoin:miter;stroke-miterlimit:4;stroke-dasharray:none;stroke-opacity:1"
       d="M 396.51524,296.02259 V 581.59085 H 198.7433 Z"
       id="path3038-4"
       inkscape:connector-curvature="0"
       inkscape:export-xdpi="65.029999"
       inkscape:export-ydpi="65.029999" />
    <path
       style="font-style:normal;font-weight:normal;font-size:69.4688px;font-family:NiseMegaDrive;display:inline;fill:#ffffff;fill-opacity:1;stroke:none;stroke-width:0.106799;stroke-miterlimit:4;stroke-dasharray:none;stroke-opacity:1"
       d="m 14.635195,728.16067 35.257213,-64.57002 c 1.67888,-3.68968 3.357798,-5.53455 5.036764,-5.53461 h 25.183723 v 8.5786 l 1.678918,-3.04399 c 1.678851,-3.68968 3.357764,-5.53455 5.036759,-5.53461 h 30.220448 v 70.10463 H 96.902033 V 672.81492 L 66.681579,728.16067 H 46.534572 l 30.220497,-55.34575 h -10.07349 c -1.119336,7e-5 -2.238624,0.61501 -3.357845,1.84486 l -28.54157,53.50089 z M 143.91166,700.48776 v 12.91403 h 47.00963 v 14.75888 H 123.76471 V 682.0392 c 0,-1.22986 0.27981,-2.45976 0.83944,-3.68967 l 9.23405,-18.44864 c 0.55962,-1.22978 1.67888,-1.84479 3.35783,-1.84485 h 53.72526 v 14.75888 h -40.29395 c -1.11932,7e-5 -1.95878,0.61502 -2.51839,1.84486 l -4.19729,11.06915 h 47.00963 l -6.71566,14.75883 z m 73.87227,12.91403 h 33.57828 v -12.91403 h -13.43132 l 6.71568,-14.75883 h 26.86264 v 38.74201 c -8e-5,2.45982 -1.11934,3.68973 -3.35785,3.68973 h -67.15658 c -2.23855,0 -3.3578,-1.22991 -3.3578,-3.68973 V 682.0392 c 0,-1.22986 0.27981,-2.45976 0.83944,-3.68967 l 9.23398,-18.44864 c 0.55967,-1.22978 1.67894,-1.84479 3.35787,-1.84485 h 57.08309 v 14.75888 h -43.65178 c -1.11926,7e-5 -1.95875,0.61501 -2.51835,1.84486 l -4.1973,11.06915 z m 144.38678,14.75888 h -23.50486 l -9.23404,-14.75888 h -24.34434 l -6.71552,-13.3752 v 28.13408 h -20.14708 v -70.10463 h 38.61499 c 1.67896,6e-5 3.35793,1.84493 5.03684,5.53461 z m -42.05694,-29.51772 -15.0263,-23.98317 c -1.11923,-1.22985 -2.23856,-1.84479 -3.35778,-1.84486 h -3.35774 v 25.82803 z"
       id="text8337-2"
       inkscape:connector-curvature="0"
       inkscape:export-xdpi="65.029999"
       inkscape:export-ydpi="65.029999" />
    <path
       style="font-style:normal;font-weight:normal;font-size:72.2677px;font-family:NiseMegaDrive;display:inline;fill:#ffffff;fill-opacity:1;stroke:none;stroke-width:0.106799;stroke-miterlimit:4;stroke-dasharray:none;stroke-opacity:1"
       d="m 398.34651,714.2494 h 24.37066 c 1.1605,0 2.03078,-0.57766 2.61116,-1.73306 l 7.39818,-17.5227 0.43521,-1.92564 -0.43521,-1.92557 -7.39818,-17.3302 c -0.58038,-1.28367 -1.45066,-1.92551 -2.61116,-1.92557 h -24.37066 z m -20.88908,-57.76743 h 58.31544 c 1.7407,6e-5 3.19124,1.28385 4.35186,3.8512 l 13.49088,30.80926 0.43522,1.92557 -0.43522,1.92564 -13.49088,30.80925 c -1.16062,2.56741 -2.61116,3.85114 -4.35186,3.85114 h -58.31544 z m 83.5564,0 h 55.70428 c 1.74074,6e-5 3.19126,1.28385 4.35185,3.8512 l 9.13892,21.18133 0.43522,1.92559 -0.43522,1.92563 -13.49077,17.3302 13.92599,26.95811 H 509.75502 L 489.73635,693.068 h 10.44453 c 1.16048,6e-5 2.03091,-0.32085 2.61113,-0.96276 l 6.96301,-8.66515 -3.48144,-9.62786 c -0.58039,-1.28367 -1.45068,-1.92551 -2.61113,-1.92557 h -21.75954 v 57.76737 h -20.88908 z m 97.48251,73.17206 h -20.8891 v -73.17206 h 20.8891 z m 27.85211,-49.10227 20.88911,33.69764 20.88904,-33.69764 v -24.06979 h 20.88912 v 26.95812 c -1.2e-4,2.56753 -0.29019,4.49309 -0.87047,5.77677 l -23.50023,40.43717 h -34.81504 l -23.50023,-40.43717 c -0.58022,-1.28367 -0.87047,-3.20924 -0.87047,-5.77677 v -26.95812 h 20.88917 z m 90.51932,20.21859 v 13.47905 h 48.74133 v 15.40463 H 655.97872 V 681.5145 c 0,-1.28365 0.29013,-2.56739 0.8704,-3.85113 l 9.57418,-19.25577 c 0.58021,-1.28367 1.74065,-1.92557 3.48153,-1.92563 h 55.70427 v 15.4047 h -41.77816 c -1.1606,5e-5 -2.03102,0.64189 -2.61117,1.92556 l -4.352,11.5535 h 48.74133 l -6.96311,15.40462 z"
       id="text8339-0"
       inkscape:connector-curvature="0"
       inkscape:export-xdpi="65.029999"
       inkscape:export-ydpi="65.029999" />
  </g>
</svg>
