<?xml version="1.0" encoding="UTF-8" standalone="no"?>
<svg
   xmlns:dc="http://purl.org/dc/elements/1.1/"
   xmlns:cc="http://creativecommons.org/ns#"
   xmlns:rdf="http://www.w3.org/1999/02/22-rdf-syntax-ns#"
   xmlns:svg="http://www.w3.org/2000/svg"
   xmlns="http://www.w3.org/2000/svg"
   xmlns:sodipodi="http://sodipodi.sourceforge.net/DTD/sodipodi-0.dtd"
   xmlns:inkscape="http://www.inkscape.org/namespaces/inkscape"
   width="764.98938"
   height="504.67258"
   id="svg2"
   version="1.1"
   inkscape:version="1.0.2-2 (e86c870879, 2021-01-15)"
   sodipodi:docname="megadrive-v1.svg">
  <defs
     id="defs4">
    <inkscape:path-effect
       effect="skeletal"
       id="path-effect3036"
       is_visible="true"
       pattern="m -9.0913734,-5.0507627 v 10 L 0.90862665,-0.05076273 Z"
       copytype="single_stretched"
       prop_scale="1"
       scale_y_rel="false"
       spacing="0"
       normal_offset="0"
       tang_offset="0"
       prop_units="false"
       vertical_pattern="false"
       fuse_tolerance="0"
       lpeversion="0"
       hide_knot="false" />
    <inkscape:path-effect
       effect="spiro"
       id="path-effect3034"
       is_visible="true"
       lpeversion="0" />
    <inkscape:path-effect
       effect="skeletal"
       id="path-effect3030"
       is_visible="true"
       pattern="M 0,0 V 10 L 10,5 Z"
       copytype="single_stretched"
       prop_scale="1"
       scale_y_rel="false"
       spacing="0"
       normal_offset="0"
       tang_offset="0"
       prop_units="false"
       vertical_pattern="false"
       fuse_tolerance="0"
       lpeversion="0"
       hide_knot="false" />
    <inkscape:path-effect
       effect="spiro"
       id="path-effect3028"
       is_visible="true"
       lpeversion="0" />
    <inkscape:path-effect
       effect="skeletal"
       id="path-effect3024"
       is_visible="true"
       pattern="M 0,0 V 10 L 10,5 Z"
       copytype="single_stretched"
       prop_scale="1"
       scale_y_rel="false"
       spacing="0"
       normal_offset="0"
       tang_offset="0"
       prop_units="false"
       vertical_pattern="false"
       fuse_tolerance="0"
       lpeversion="0"
       hide_knot="false" />
    <inkscape:path-effect
       effect="spiro"
       id="path-effect3022"
       is_visible="true"
       lpeversion="0" />
    <inkscape:path-effect
       effect="skeletal"
       id="path-effect3018"
       is_visible="true"
       pattern="M 0,0 V 10 L 10,5 Z"
       copytype="single_stretched"
       prop_scale="1"
       scale_y_rel="false"
       spacing="0"
       normal_offset="0"
       tang_offset="0"
       prop_units="false"
       vertical_pattern="false"
       fuse_tolerance="0"
       lpeversion="0"
       hide_knot="false" />
    <inkscape:path-effect
       effect="spiro"
       id="path-effect3016"
       is_visible="true"
       lpeversion="0" />
    <inkscape:path-effect
       effect="skeletal"
       id="path-effect3012"
       is_visible="true"
       pattern="M 0,0 V 10 L 10,5 Z"
       copytype="single_stretched"
       prop_scale="1"
       scale_y_rel="false"
       spacing="0"
       normal_offset="0"
       tang_offset="0"
       prop_units="false"
       vertical_pattern="false"
       fuse_tolerance="0"
       lpeversion="0"
       hide_knot="false" />
    <inkscape:path-effect
       effect="spiro"
       id="path-effect3010"
       is_visible="true"
       lpeversion="0" />
  </defs>
  <sodipodi:namedview
     id="base"
     pagecolor="#ffffff"
     bordercolor="#666666"
     borderopacity="1.0"
     inkscape:pageopacity="0.0"
     inkscape:pageshadow="2"
     inkscape:zoom="0.98994949"
     inkscape:cx="789.61154"
     inkscape:cy="431.06844"
     inkscape:document-units="px"
     inkscape:current-layer="layer2"
     showgrid="false"
     inkscape:window-width="2560"
     inkscape:window-height="1377"
     inkscape:window-x="-8"
     inkscape:window-y="-8"
     inkscape:window-maximized="1"
     fit-margin-top="0"
     fit-margin-left="0"
     fit-margin-right="0"
     fit-margin-bottom="0"
     showguides="true"
     inkscape:guide-bbox="true"
     inkscape:document-rotation="0" />
  <metadata
     id="metadata7">
    <rdf:RDF>
      <cc:Work
         rdf:about="">
        <dc:format>image/svg+xml</dc:format>
        <dc:type
           rdf:resource="http://purl.org/dc/dcmitype/StillImage" />
        <dc:title />
      </cc:Work>
    </rdf:RDF>
  </metadata>
  <g
     inkscape:groupmode="layer"
     id="layer2"
     inkscape:label="Layer"
     style="display:inline"
     transform="translate(8.4603243,-261.07413)">
    <rect
       style="display:inline;fill:#000000;fill-opacity:1;stroke:#ffffff;stroke-width:10;stroke-linecap:round;stroke-linejoin:miter;stroke-miterlimit:4;stroke-dasharray:none;stroke-dashoffset:0;stroke-opacity:1"
       id="rect4013-7"
       width="754.98938"
       height="128.20538"
       x="-3.4603243"
       y="632.54132"
       inkscape:export-xdpi="64.295151"
       inkscape:export-ydpi="64.295151" />
    <rect
       style="fill:#000000;fill-opacity:1;stroke:#ffffff;stroke-width:10;stroke-linecap:round;stroke-linejoin:miter;stroke-miterlimit:4;stroke-dasharray:none;stroke-dashoffset:0;stroke-opacity:1"
       id="rect4013"
       width="754.98938"
       height="357.71109"
       x="-3.4603243"
       y="266.07413"
       inkscape:export-xdpi="64.295151"
       inkscape:export-ydpi="64.295151" />
    <g
       id="g3975">
      <g
         id="g3903" />
    </g>
    <flowRoot
       xml:space="preserve"
       id="flowRoot3018"
       style="font-style:normal;font-weight:normal;line-height:0.01%;font-family:sans-serif;letter-spacing:0px;word-spacing:0px;fill:#000000;fill-opacity:1;stroke:none"><flowRegion
         id="flowRegion3020"
         style="font-family:sans-serif"><rect
           id="rect3022"
           width="332.85715"
           height="170"
           x="87.14286"
           y="828.07648" /></flowRegion><flowPara
         id="flowPara3024"
         style="font-size:40px;line-height:1.25;font-family:sans-serif"> </flowPara></flowRoot>
    <path
       style="display:inline;fill:#ff0000;fill-opacity:1;stroke:#000000;stroke-width:0.781966px;stroke-linecap:butt;stroke-linejoin:miter;stroke-opacity:0"
       d="M 221.23314,300.21706 V 577.47365 H 34.815586 Z"
       id="path3038"
       inkscape:connector-curvature="0"
       inkscape:export-xdpi="64.295151"
       inkscape:export-ydpi="64.295151" />
    <rect
       style="display:inline;fill:#00aa00;fill-opacity:1;stroke:#000000;stroke-width:5.22119;stroke-linecap:round;stroke-linejoin:miter;stroke-miterlimit:4;stroke-dasharray:none;stroke-dashoffset:0;stroke-opacity:0"
       id="rect3834"
       width="90.049149"
       height="274.09698"
       x="418.69345"
       y="305.74643"
       inkscape:export-xdpi="64.295151"
       inkscape:export-ydpi="64.295151" />
    <path
       style="display:inline;fill:#00aa00;fill-opacity:1;stroke:#000000;stroke-width:5.15489;stroke-linecap:round;stroke-linejoin:miter;stroke-miterlimit:4;stroke-dasharray:none;stroke-dashoffset:0;stroke-opacity:0"
       d="m 528.12927,305.87607 c -0.96283,-0.0284 -2.03565,-0.0527 -3.24331,-0.0723 l -0.55302,93.9021 c 0.0725,0.002 0.14658,-0.002 0.21899,0 v -0.29199 c 1.53191,-0.20301 3.07464,-0.30501 4.64742,-0.34065 l 18.90605,-92.024 c -7.3772,-0.89617 -14.32493,-0.99417 -19.97613,-1.17314 z m 34.67271,2.60872 -26.54632,91.00206 c 2.36444,0.32536 4.68198,0.84291 6.91031,1.53291 l 43.60313,-86.52494 c -7.70126,-2.70411 -15.70245,-4.73842 -23.96712,-6.01003 z m 38.54205,12.11739 -52.14369,82.77779 c 1.74264,0.84326 3.43178,1.81168 5.03674,2.87119 l 66.98627,-73.70192 c -6.24807,-4.53211 -12.89476,-8.52489 -19.87932,-11.94706 z m 32.41036,22.23954 -74.94287,66.88893 c 1.79115,1.55446 3.46825,3.2613 4.98807,5.08541 l 88.17954,-51.34072 c -5.36824,-7.48426 -11.48818,-14.39879 -18.22474,-20.63362 z m 25.06206,31.16942 -91.75635,45.23336 c 1.05226,1.64269 1.99178,3.351 2.82252,5.13407 l 100.7349,-24.23476 c -3.02743,-9.18461 -6.99684,-17.93293 -11.80107,-26.13267 z m 15.57254,40.05063 -102.65713,15.0129 c 1.05259,3.1696 1.7605,6.50684 2.06823,9.95183 h 103.60608 c -0.24378,-8.5413 -1.27796,-16.8878 -3.01718,-24.96473 z m -100.5889,33.18898 c -2.12702,22.27537 -20.80164,39.68565 -43.50579,39.68565 -1.95331,0 -3.8569,-0.13945 -5.74237,-0.38932 v -1.89789 c -0.0724,0.002 -0.1465,-0.002 -0.21899,0 v 94.81341 c 7.77461,-0.0558 11.78634,-0.38053 17.83543,-0.38053 73.31463,0 133.00698,-58.63482 135.2378,-131.83132 z"
       id="path3838"
       inkscape:connector-curvature="0"
       sodipodi:nodetypes="ccccccccccccccccccccccccccccccccccccccsccc"
       inkscape:export-xdpi="64.295151"
       inkscape:export-ydpi="64.295151" />
    <path
       style="display:inline;fill:#ff0000;fill-opacity:1;stroke:#000000;stroke-width:0.781966px;stroke-linecap:butt;stroke-linejoin:miter;stroke-opacity:0"
       d="M 377.23314,300.21706 V 577.47364 H 190.81559 Z"
       id="path3038-4"
       inkscape:connector-curvature="0"
       inkscape:export-xdpi="64.295151"
       inkscape:export-ydpi="64.295151" />
    <path
       style="font-style:normal;font-weight:normal;font-size:69.4688px;font-family:NiseMegaDrive;display:inline;fill:#ffffff;fill-opacity:1;stroke:none"
       d="m 14.635195,724.89809 35.257213,-58.56692 c 1.67888,-3.34665 3.357798,-5.02 5.036764,-5.02005 h 25.183723 v 7.78104 l 1.678918,-2.76099 c 1.678851,-3.34665 3.357764,-5.02 5.036759,-5.02005 h 30.220448 v 63.58697 H 96.902033 V 674.69786 L 66.681579,724.89809 H 46.534572 l 30.220497,-50.20023 h -10.07349 c -1.119336,6e-5 -2.238624,0.55784 -3.357845,1.67334 l -28.54157,48.52689 z M 143.91166,699.79794 v 11.7134 h 47.00963 v 13.38675 h -67.15658 v -41.83354 c 0,-1.11551 0.27981,-2.23107 0.83944,-3.34664 l 9.23405,-16.73345 c 0.55962,-1.11545 1.67888,-1.67329 3.35783,-1.67334 h 53.72526 v 13.38674 h -40.29395 c -1.11932,6e-5 -1.95878,0.55784 -2.51839,1.67334 l -4.19729,10.04005 h 47.00963 l -6.71566,13.38669 z m 73.87227,11.7134 h 33.57828 v -11.7134 h -13.43132 l 6.71568,-13.38669 h 26.86264 v 35.14014 c -8e-5,2.23113 -1.11934,3.3467 -3.35785,3.3467 h -67.15658 c -2.23855,0 -3.3578,-1.11557 -3.3578,-3.3467 v -38.48684 c 0,-1.11551 0.27981,-2.23107 0.83944,-3.34664 l 9.23398,-16.73345 c 0.55967,-1.11545 1.67894,-1.67329 3.35787,-1.67334 h 57.08309 v 13.38674 h -43.65178 c -1.11926,6e-5 -1.95875,0.55784 -2.51835,1.67334 l -4.1973,10.04005 z m 144.38678,13.38675 h -23.50486 l -9.23404,-13.38675 h -24.34434 l -6.71552,-12.13169 v 25.51844 h -20.14708 v -63.58697 h 38.61499 c 1.67896,5e-5 3.35793,1.6734 5.03684,5.02005 z m -42.05694,-26.77344 -15.0263,-21.75345 c -1.11923,-1.1155 -2.23856,-1.67328 -3.35778,-1.67334 h -3.35774 v 23.42679 z"
       id="text8337-2"
       inkscape:connector-curvature="0"
       inkscape:export-xdpi="64.295151"
       inkscape:export-ydpi="64.295151" />
    <path
       style="font-style:normal;font-weight:normal;font-size:72.2677px;font-family:NiseMegaDrive;display:inline;fill:#ffffff;fill-opacity:1;stroke:none"
       d="m 398.34651,712.28015 h 24.37066 c 1.1605,0 2.03078,-0.52395 2.61116,-1.57193 l 7.39818,-15.89361 0.43521,-1.74661 -0.43521,-1.74655 -7.39818,-15.719 c -0.58038,-1.16433 -1.45066,-1.7465 -2.61116,-1.74655 h -24.37066 z m -20.88908,-52.39676 h 58.31544 c 1.7407,6e-5 3.19124,1.1645 4.35186,3.49315 l 13.49088,27.94491 0.43522,1.74655 -0.43522,1.74661 -13.49088,27.9449 c -1.16062,2.32872 -2.61116,3.4931 -4.35186,3.4931 h -58.31544 z m 83.5564,0 h 55.70428 c 1.74074,6e-5 3.19126,1.1645 4.35185,3.49315 l 9.13892,19.2121 0.43522,1.74656 -0.43522,1.74661 -13.49077,15.719 13.92599,24.4518 H 509.75502 L 489.73635,693.068 h 10.44453 c 1.16048,6e-5 2.03091,-0.29102 2.61113,-0.87325 l 6.96301,-7.85955 -3.48144,-8.73275 c -0.58039,-1.16433 -1.45068,-1.7465 -2.61113,-1.74655 h -21.75954 v 52.39671 h -20.88908 z m 97.48251,66.36922 h -20.8891 v -66.36922 h 20.8891 z m 27.85211,-44.53721 20.88911,30.56475 20.88904,-30.56475 v -21.83201 h 20.88912 v 24.45181 c -1.2e-4,2.32883 -0.29019,4.07537 -0.87047,5.2397 l -23.50023,36.67771 H 589.82998 L 566.32975,689.5749 c -0.58022,-1.16433 -0.87047,-2.91087 -0.87047,-5.2397 v -24.45181 h 20.88917 z m 90.51932,18.33886 v 12.22589 h 48.74133 v 13.97246 h -69.63038 v -43.66397 c 0,-1.16432 0.29013,-2.32871 0.8704,-3.4931 L 666.4233,661.63 c 0.58021,-1.16433 1.74065,-1.74655 3.48153,-1.74661 h 55.70427 v 13.97251 h -41.77816 c -1.1606,5e-5 -2.03102,0.58222 -2.61117,1.74655 l -4.352,10.47936 h 48.74133 l -6.96311,13.97245 z"
       id="text8339-0"
       inkscape:connector-curvature="0"
       inkscape:export-xdpi="64.295151"
       inkscape:export-ydpi="64.295151" />
  </g>
</svg>
