<?xml version="1.0" encoding="UTF-8" standalone="no"?>
<svg
   xmlns:dc="http://purl.org/dc/elements/1.1/"
   xmlns:cc="http://creativecommons.org/ns#"
   xmlns:rdf="http://www.w3.org/1999/02/22-rdf-syntax-ns#"
   xmlns:svg="http://www.w3.org/2000/svg"
   xmlns="http://www.w3.org/2000/svg"
   xmlns:sodipodi="http://sodipodi.sourceforge.net/DTD/sodipodi-0.dtd"
   xmlns:inkscape="http://www.inkscape.org/namespaces/inkscape"
   version="1.1"
   id="svg2"
   width="153.51904"
   height="88.419029"
   viewBox="0 0 153.51904 88.41903"
   sodipodi:docname="nes-v3.svg"
   inkscape:version="1.0.2-2 (e86c870879, 2021-01-15)">
  <metadata
     id="metadata8">
    <rdf:RDF>
      <cc:Work
         rdf:about="">
        <dc:format>image/svg+xml</dc:format>
        <dc:type
           rdf:resource="http://purl.org/dc/dcmitype/StillImage" />
        <dc:title></dc:title>
      </cc:Work>
    </rdf:RDF>
  </metadata>
  <defs
     id="defs6" />
  <sodipodi:namedview
     pagecolor="#ffffff"
     bordercolor="#666666"
     borderopacity="1"
     objecttolerance="10"
     gridtolerance="10"
     guidetolerance="10"
     inkscape:pageopacity="0"
     inkscape:pageshadow="2"
     inkscape:window-width="2560"
     inkscape:window-height="1377"
     id="namedview4"
     showgrid="false"
     inkscape:zoom="5.6568542"
     inkscape:cx="166.68153"
     inkscape:cy="68.715821"
     inkscape:window-x="-8"
     inkscape:window-y="-8"
     inkscape:window-maximized="1"
     inkscape:current-layer="g10"
     inkscape:document-rotation="0" />
  <g
     inkscape:groupmode="layer"
     inkscape:label="Image"
     id="g10"
     transform="translate(-0.24999237,-32.490479)">
    <rect
       style="fill:#ffffff;fill-opacity:1;stroke:#ff0000;stroke-width:15.052;stroke-miterlimit:4;stroke-dasharray:none;stroke-opacity:1"
       id="rect993"
       width="138.46704"
       height="73.367027"
       x="7.7759924"
       y="40.016479"
       ry="36.683514"
       rx="43.625"
       inkscape:export-xdpi="320.17001"
       inkscape:export-ydpi="320.17001" />
    <text
       xml:space="preserve"
       style="font-style:normal;font-weight:normal;font-size:32px;line-height:1.25;font-family:sans-serif;letter-spacing:0px;word-spacing:0px;fill:#000000;fill-opacity:1;stroke:none"
       x="24.395184"
       y="92.454208"
       id="text1003"><tspan
         sodipodi:role="line"
         id="tspan1001"
         x="24.395184"
         y="92.454208" /></text>
    <g
       aria-label="NES"
       transform="scale(1.0421369,0.95956683)"
       id="text1007"
       style="font-style:normal;font-variant:normal;font-weight:bold;font-stretch:normal;font-size:49.834px;line-height:0;font-family:'Segoe MDL2 Assets';-inkscape-font-specification:'Segoe MDL2 Assets Bold';letter-spacing:1.37044px;word-spacing:0px;fill:#ff0000;fill-opacity:1;stroke:#ff0000;stroke-width:1.818;stroke-miterlimit:4;stroke-dasharray:none;stroke-opacity:1">
      <path
         d="M 26.557923,97.56633 V 61.894141 H 33.56583 L 48.165634,85.716155 V 61.894141 h 6.691577 V 97.56633 H 47.630308 L 33.249501,74.303975 V 97.56633 Z"
         style="fill:#ff0000;fill-opacity:1;stroke:#ff0000;stroke-width:1.818;stroke-miterlimit:4;stroke-dasharray:none;stroke-opacity:1"
         id="path835" />
      <path
         d="M 63.843884,97.56633 V 61.894141 h 26.449979 v 6.034586 H 71.046454 v 7.908227 h 17.909094 v 6.010253 H 71.046454 v 9.70887 h 19.928733 v 6.010253 z"
         style="fill:#ff0000;fill-opacity:1;stroke:#ff0000;stroke-width:1.818;stroke-miterlimit:4;stroke-dasharray:none;stroke-opacity:1"
         id="path837" />
      <path
         d="m 96.628234,85.959485 7.007906,-0.681324 q 0.63266,3.528286 2.55497,5.182931 1.94664,1.654644 5.23159,1.654644 3.47962,0 5.2316,-1.45998 1.77631,-1.484314 1.77631,-3.455287 0,-1.265317 -0.75432,-2.141305 -0.73,-0.900321 -2.5793,-1.557312 -1.26532,-0.437995 -5.76693,-1.557313 -5.79125,-1.435647 -8.12722,-3.528286 -3.284957,-2.944294 -3.284957,-7.178237 0,-2.725297 1.532979,-5.085599 1.557308,-2.384635 4.452938,-3.625618 2.91996,-1.240983 7.03224,-1.240983 6.71591,0 10.0982,2.944293 3.40662,2.944294 3.57695,7.859562 L 117.40862,72.406 q -0.46233,-2.74963 -1.9953,-3.941947 -1.50865,-1.216651 -4.55028,-1.216651 -3.13896,0 -4.91526,1.28965 -1.14366,0.827322 -1.14366,2.214304 0,1.265316 1.07066,2.165637 1.36264,1.143652 6.61857,2.384635 5.25593,1.240983 7.76223,2.579299 2.53064,1.313982 3.94195,3.625618 1.43565,2.287303 1.43565,5.669591 0,3.065959 -1.70331,5.742589 -1.70331,2.676631 -4.81794,3.990614 -3.11462,1.289649 -7.76223,1.289649 -6.76457,0 -10.39019,-3.114625 -3.625619,-3.138958 -4.331276,-9.124878 z"
         style="fill:#ff0000;fill-opacity:1;stroke:#ff0000;stroke-width:1.818;stroke-miterlimit:4;stroke-dasharray:none;stroke-opacity:1"
         id="path839" />
    </g>
  </g>
</svg>
