<?xml version="1.0" encoding="UTF-8" standalone="no"?>
<svg
   sodipodi:docname="nes-v4.svg"
   inkscape:version="1.1.2 (b8e25be833, 2022-02-05)"
   id="svg8"
   version="1.1"
   viewBox="0 0 25.745386 6.1966028"
   height="6.1966028mm"
   width="25.745386mm"
   xmlns:inkscape="http://www.inkscape.org/namespaces/inkscape"
   xmlns:sodipodi="http://sodipodi.sourceforge.net/DTD/sodipodi-0.dtd"
   xmlns="http://www.w3.org/2000/svg"
   xmlns:svg="http://www.w3.org/2000/svg"
   xmlns:rdf="http://www.w3.org/1999/02/22-rdf-syntax-ns#"
   xmlns:cc="http://creativecommons.org/ns#"
   xmlns:dc="http://purl.org/dc/elements/1.1/">
  <defs
     id="defs2">
    <clipPath
       clipPathUnits="userSpaceOnUse"
       id="clipPath849">
      <path
         d="M 0,595.276 H 841.89 V 0 H 0 Z"
         id="path847" />
    </clipPath>
    <pattern
       id="EMFhbasepattern"
       patternUnits="userSpaceOnUse"
       width="6"
       height="6"
       x="0"
       y="0" />
  </defs>
  <sodipodi:namedview
     inkscape:window-maximized="1"
     inkscape:window-y="-8"
     inkscape:window-x="-8"
     inkscape:window-height="1377"
     inkscape:window-width="2560"
     fit-margin-bottom="0"
     fit-margin-right="0"
     fit-margin-left="0"
     fit-margin-top="0"
     showgrid="false"
     inkscape:document-rotation="0"
     inkscape:current-layer="layer1"
     inkscape:document-units="mm"
     inkscape:cy="32.678571"
     inkscape:cx="100.80357"
     inkscape:zoom="5.6"
     inkscape:pageshadow="2"
     inkscape:pageopacity="0.0"
     borderopacity="1.0"
     bordercolor="#666666"
     pagecolor="#ffffff"
     id="base"
     inkscape:pagecheckerboard="0" />
  <metadata
     id="metadata5">
    <rdf:RDF>
      <cc:Work
         rdf:about="">
        <dc:format>image/svg+xml</dc:format>
        <dc:type
           rdf:resource="http://purl.org/dc/dcmitype/StillImage" />
      </cc:Work>
    </rdf:RDF>
  </metadata>
  <g
     transform="translate(-20.414232,-41.718201)"
     id="layer1"
     inkscape:groupmode="layer"
     inkscape:label="Layer 1">
    <g
       id="g1577"
       style="fill:#ff0000;fill-opacity:1"
       inkscape:export-filename="C:\ScummIcons\platform\src\nes-v4.png"
       inkscape:export-xdpi="505.13"
       inkscape:export-ydpi="505.13">
      <path
         id="path867"
         style="fill:#ff0000;fill-opacity:1;fill-rule:nonzero;stroke:none;stroke-width:0.205608"
         d="m 26.742634,41.718201 h -6.328402 v 6.196603 h 1.964994 v -4.14546 c 0,-0.262563 0.217327,-0.480505 0.479682,-0.480505 h 3.403015 c 0.261122,0 0.480711,0.217942 0.480711,0.480505 v 4.14546 h 1.962526 v -4.14546 c 0,0 0.262561,-2.051143 -1.962526,-2.051143" />
      <path
         id="path887"
         style="fill:#ff0000;fill-opacity:1;fill-rule:nonzero;stroke:none;stroke-width:0.205608"
         d="m 30.265618,45.863662 c 0,0 -0.306562,2.051142 1.963965,2.051142 h 4.887091 v -1.56981 h -4.538791 c -0.306562,0 -0.567684,-0.26462 -0.567684,-0.52389 0,-0.305534 0.261122,-0.481122 0.567684,-0.481122 h 4.27623 v -1.090134 h -4.27623 c -0.306562,0 -0.567684,-0.217942 -0.567684,-0.480504 0,-0.262563 0.261122,-0.480505 0.567684,-0.480505 h 4.538791 v -1.570638 h -6.851056 v 4.145461" />
      <path
         id="path903"
         style="fill:#ff0000;fill-opacity:1;fill-rule:nonzero;stroke:none;stroke-width:0.205608"
         d="m 44.021297,44.247484 h -2.835948 c -0.349739,0 -0.61086,-0.128916 -0.61086,-0.43322 0,-0.264411 0.261121,-0.52512 0.523682,-0.52512 h 4.97427 v -1.569816 h -5.454775 c -1.090749,0 -1.963965,0.828188 -1.963965,1.789197 0,1.352079 0.960394,1.875765 2.138115,1.875765 h 2.835948 c 0.349739,0 0.610861,0.130145 0.610861,0.434449 0,0.26194 -0.261122,0.523885 -0.523683,0.523885 h -5.061241 v 1.571052 h 5.584924 c 1.003777,0 1.920993,-0.741628 1.920993,-1.789198 0,-1.263874 -0.960599,-1.876994 -2.138321,-1.876994" />
    </g>
  </g>
  <style
     type="text/css"
     id="style1043">.logo{fill:#939598}</style>
</svg>
