<svg viewBox="0 0 512 512" xml:space="preserve" xmlns="http://www.w3.org/2000/svg">
  <path d="M511.966 256.004c0 141.383-114.618 256-256 256s-256-114.617-256-256 114.617-256 256-256 256 114.618 256 256z"/>
  <g fill="#fff">
    <path d="M97.026 335.942c-7.54-6.06-12.49-15.494-13.804-27.558-1.363-34.403-.671-68.795 2.479-102.31 2.67-25.62 19.072-35.655 39.249-37.149 19.938-.624 37.854 11.544 40.94 37 1.025 32.154.692 64.685-1.707 97.286-3.488 35.337-17.416 37.495-37.762 39.87-11.655 1.529-21.815-1.119-29.395-7.14zm22.57-14.274a8.792 8.792 0 0 0 4.704.748c12.897-1.376 12.116-33.848 11.37-65.728.126-43.04 2.179-67.112-10.062-67.223-14.827-.067-14.18 24.553-13.862 66.355.222 38.321-1.571 61.403 7.85 65.848m106.886-97.035 24.684-.015-.185-31.945c-1.694-15.196-15.774-26.976-37.925-27.557-25.511.47-38.445 14.658-39.31 43.304-.676 25.64 9.538 39.096 30.797 54.887 32.403 25.346 27.667 53.01 9.789 54.207-14.106-1.042-13.999-17.935-14.857-37.544l-26.223-.571.447 38.845c1.268 11.733 22.661 26.062 46.202 26.135 20.814-1.007 37.794-21.863 37.115-44.418-1.843-16.31.18-38.358-32.02-62.038-35.444-19.972-27.03-46.387-13.517-47.276 16.162 1.043 15.374 12.785 15.003 34.007M319.2 123.749l9.732 1.33-71.5 261.38-11.046-.28 72.814-262.43m32.9 101.709-28.776 2.11-.777-27.829c.71-23.053 22.576-40.16 45.395-39.133 25.829 1.83 35.67 12.435 38.945 32.91 2.64 19.979-7.893 41.711-30.267 65.622-18.483 20.77-25.894 37.13-28.768 52.882l52.166-1.087-1.16 30.99-79.363 1.779-.104-36.024c.525-13.43 10.813-34.844 28.216-54.864 29.132-30.01 39.248-61.25 17.021-62.393-10.036 1.003-15.202 8.391-12.529 35.037" fill-rule="evenodd"/>
    <path d="M127.046 424.689c46.488 35.622 103.222 49.068 157.202 41.983 53.94-7.085 105.165-34.66 140.767-81.118 35.713-46.598 49.17-103.422 42.077-157.492-7.104-54.08-34.748-105.437-81.226-141.07-46.627-35.723-103.462-49.15-157.553-41.986-54.111 7.163-105.519 34.917-141.252 81.534-35.612 46.469-48.927 103.134-41.692 157.095a212.861 212.861 0 0 0 81.677 141.054zm-6.877 8.975a224.07 224.07 0 0 1-85.974-148.515c-7.627-56.883 6.4-116.56 43.89-165.485 37.613-49.075 91.732-78.296 148.735-85.842 56.992-7.546 116.838 6.583 165.923 44.206 48.936 37.5 78.056 91.589 85.542 148.59 7.456 56.942-6.692 116.777-44.295 165.833-37.48 48.906-91.448 77.947-148.289 85.414-56.871 7.467-116.596-6.7-165.532-44.201"/>
  </g>
</svg>
