<?xml version="1.0" ?><svg enable-background="new 0 0 515.91 728.5" height="512" id="Layer_1" version="1.1" viewBox="0 0 512.00003 512" width="512" xml:space="preserve" xmlns="http://www.w3.org/2000/svg" xmlns:cc="http://creativecommons.org/ns#" xmlns:dc="http://purl.org/dc/elements/1.1/" xmlns:inkscape="http://www.inkscape.org/namespaces/inkscape" xmlns:rdf="http://www.w3.org/1999/02/22-rdf-syntax-ns#" xmlns:sodipodi="http://sodipodi.sourceforge.net/DTD/sodipodi-0.dtd" xmlns:svg="http://www.w3.org/2000/svg"><defs id="defs7"/><g id="g6458" transform="translate(300.32723,-253.93828)"><path d="m -733.62329,72.267944 c 0,203.804876 -165.21649,369.021366 -369.02141,369.021366 -203.8048,0 -369.0213,-165.21649 -369.0213,-369.021366 0,-203.804874 165.2165,-369.021364 369.0213,-369.021364 203.80492,0 369.02141,165.21649 369.02141,369.021364 z" id="path5034" style="fill:#000000;fill-opacity:1;fill-rule:nonzero;stroke:none" transform="matrix(0.69372682,0,0,0.69372682,720.60695,459.80407)"/><g id="g3290" style="fill:#ffffff;fill-opacity:1" transform="matrix(10.024568,0.09940652,0.09940652,-10.024568,-3636.574,4792.0234)"><path d="m 338.27729,422.52161 c -0.75786,0.59779 -1.26178,1.53388 -1.40415,2.73496 -0.17037,3.43048 -0.13472,6.86166 0.14636,10.2079 0.2409,2.55767 1.86605,3.57461 3.87755,3.74378 1.98826,0.082 3.7868,-1.1138 4.1193,-3.65056 0.13418,-3.20569 0.13318,-6.45072 -0.0737,-9.7048 -0.31286,-3.52782 -1.69877,-3.75651 -3.72632,-4.01365 -1.16151,-0.16456 -2.17755,0.0893 -2.93906,0.68237 z m 2.23678,1.44679 c 0.13016,-0.062 0.28673,-0.0878 0.46917,-0.0698 1.28565,0.15018 1.17558,3.3878 1.06963,6.56607 -0.0305,4.2932 0.15112,6.69668 -1.07006,6.69571 -1.47844,-0.008 -1.39071,-2.46342 -1.3173,-6.6327 0.0606,-3.8218 -0.096,-6.12531 0.84854,-6.55944" id="path66" style="fill:#ffffff;fill-opacity:1;fill-rule:evenodd;stroke:none"/><path d="m 351.07859,433.75209 2.46225,0.0262 -0.0498,3.18561 c -0.18398,1.51372 -1.59916,2.67506 -3.80917,2.71121 -2.54442,-0.0726 -3.82116,-1.50018 -3.87869,-4.35817 -0.0417,-2.55796 0.98938,-3.8903 3.12537,-5.44404 3.2571,-2.49552 2.8126,-5.25928 1.03016,-5.39654 -1.40774,0.0903 -1.41387,1.77435 -1.51865,3.73001 l -2.61637,0.0308 0.0838,-3.87425 c 0.13785,-1.16886 2.28584,-2.57662 4.63348,-2.56105 2.07465,0.12133 3.74756,2.21823 3.65754,4.46668 -0.19913,1.62511 -0.0204,3.82681 -3.25455,6.1563 -3.5554,1.95669 -2.7424,4.60006 -1.39493,4.70252 1.61312,-0.0882 1.54632,-1.2598 1.52921,-3.37777" id="path68" style="fill:#ffffff;fill-opacity:1;fill-rule:evenodd;stroke:none"/><path d="m 360.22695,443.90626 0.97254,-0.12367 -6.87317,-26.14065 -1.10236,0.0175 7.00298,26.24689" id="path70" style="fill:#ffffff;fill-opacity:1;fill-rule:evenodd;stroke:none"/><path d="m 363.60884,433.79412 -2.86795,-0.23886 -0.10483,2.77486 c 0.0475,2.30016 2.21232,4.02742 4.48848,3.94784 2.57853,-0.15661 3.56974,-1.20468 3.9171,-3.24366 0.28334,-1.99094 -0.74521,-4.16862 -2.95385,-6.57567 -1.82309,-2.09002 -2.54556,-3.72846 -2.81719,-5.30271 l 5.20191,0.15966 -0.0843,-3.09173 -7.91375,-0.25566 -0.0468,3.59302 c 0.0389,1.34039 1.04444,3.48627 2.76052,5.50032 2.87537,3.0219 3.854,6.14742 1.63549,6.23874 -1.00009,-0.10923 -1.50808,-0.85094 -1.21446,-3.5061" id="path72" style="fill:#ffffff;fill-opacity:1;fill-rule:evenodd;stroke:none"/><path d="m 341.35904,413.70019 c 4.67182,-3.50765 10.3435,-4.79247 15.72133,-4.03206 5.37216,0.75957 10.45444,3.56131 13.95909,8.22906 3.51667,4.68374 4.80229,10.3649 4.04151,15.75048 -0.76176,5.38757 -3.57031,10.48248 -8.24126,13.98955 -4.68537,3.51786 -10.36748,4.80042 -15.75569,4.03287 -5.39021,-0.76857 -10.49008,-3.58711 -14.00794,-8.27246 -3.50586,-4.66935 -4.77804,-10.3343 -4.00307,-15.70928 0.77538,-5.37782 3.5991,-10.4691 8.28603,-13.98816 z m -0.67724,-0.90205 c -4.93246,3.70338 -7.90665,9.06395 -8.72205,14.72817 -0.81702,5.66543 0.52292,11.63215 4.21429,16.54861 3.70337,4.93246 9.07191,7.90065 14.74936,8.70864 5.67722,0.80943 11.66112,-0.54091 16.5936,-4.2443 4.91804,-3.69258 7.87582,-9.05835 8.67882,-14.73578 0.80083,-5.67202 -0.5519,-11.65409 -4.25349,-16.58416 -3.69018,-4.91488 -9.04412,-7.86525 -14.70616,-8.66608 -5.66484,-0.8012 -11.63632,0.5523 -16.55437,4.2449" id="path74" style="fill:#ffffff;fill-opacity:1;fill-rule:nonzero;stroke:none"/></g></g></svg>