<svg preserveAspectRatio="none" viewBox="0 0 480 512" xmlns="http://www.w3.org/2000/svg">
  <path d="M320 496v16h96v-16h-96m-16-32h-16v16h16v-16m16 32v-16h-16v16h16m-32-48h-16v16h16v-16m32-64v16h16v-16h-16m48 16v-16h-16v16h-16v16h64v-16h-32m32-16v16h16v-16h-16m48 96h16v-16h-16v16m0 16v-16h-32v16h32m-192 0h-64v16h112v-16h-48m-96 16v-16H16v16h144m48-64v-16h-32v48h-16v16h32v-48h16M96 176h16v-32H96v32m32 128v-32h-16v16H64v128h96v-16h-16v-16h-16v16H80v-96h32v80h16v-80m48-16v80h-16v32h16v-16h16V272h-16v16m0-64v-16h-16v16h16m-32 0v16h16v-16h-16m0 32v-16h-16v32h16v-16M80 16v32h16V16H80m-48 0h48V0H16v192H0v304h16V208h144v-32h-16v16h-16v-16h-16v16H80v-48h16v-32H80V96H64v96H32V16m80 64V48H96v32h16m32 32h16V80h-16v32m32 32h-16v32h16v-32m-48-32v32h16v-32h-16m-16-32v32h16V80h-16m64-32h-16v32h16V48m16 0V16h-16v32h16m288 304h-16v112h16V352m-32-16v16h16v-16h-16m0-96h16v-16h-16v16m16 0v48h16v-48h-16m-48 80v16h32v-16h-32m-16-32h16v-16h-16v16m16 0v16h48v-16h-48m-144 32v-80h-16v48h-16v-32h-48v16h32v128h-16v32h16v-16h32v32h16v-64h-16v16h-16v-96h16v16h16m16 16v-16h-16v16h16m32-64h48v112h32v-16h-16v-48h32v-16h-32v-32h16v-16h-80v16m0 32v-32h-16v64h-16v16h16v16h-32v16h48v-80m-48-96h16v-16h-32V0h-64v16h48v176h-32V96h-16v16h-16v32h16v48h-16v16h96m16 16h-16v16h16v-16m0 0h16v-16h-16v16m16-48h-16v16h16v-16m112 32v16h32v-16h-32m0-16H304v16h112v-16m0-16v16h16v-16h-16m-16-32h-16v16h16v-16m0-32h16V96h-32v16h16m-32 32h16v-16h-16v16m-48 0v-16h-48v48h16v-32h32m16 0h-16v32h64v-16h-48v-16m-16-32v16h48v-16h-48m-16-16h-16v16h32V96h-16m32-16v16h48V80h-48m0-32h-16v32h16V48m-48-16h-16v64h16V32m0-16v16h32V16h-32m96 0h16V0h-80v16h64m0 32V32h-48v16h48m48 80v-16h-16v16h16m16 0h-16v48h16v-48m-16-96V16h-32v16h32m16 0h-16v32h-32V48h-16v32h64z"/>
  <path d="M272 464v16h16v-16h-16m16 32h16v-16h-16v16m32-112h16v-16h-16v16m-128 96v16h16v-16h-16m32-16h-16v16h16v-16m16 16h16v-16h-16v16m16 0v16h16v-16h-16m-16 16v-16h-16v16h16m0-208h16v-16h-16v16m-80 48h16v-16h-16v16m16 16h-16v16h16v-16m-16-64v16h16v-16h-16m160 48v16h16v-16h-16m0-48h16v-16h-16v16m16 16h-16v16h16v-16m-64-64v-16h-16v16h16m16-16v-16h-16v16z" fill="navy"/>
  <path d="M272 480v16h16v-16h-16m-80-16v16h16v-16h-16m16 32h16v-16h-16v16m48-32v16h16v-16h-16m-16 16v-16h-16v16h16v16h16v-16h-16m-64-208h16v-16h-16v16m-16 64v16h16v-16h-16m0-48h16v-16h-16v16m16 16h-16v16h16v-16m80-48h-16v16h16v-16m64 80h16v-16h-16v16m16 16h-16v16h16v-16m-16-64v16h16v-16z" fill="purple"/>
  <path d="M352 384v-16h-16v16h16m-208-16h-16v16h16v-16m16 32v-16h-16v16h16m80 32h16v-16h-16v16m16 16h-16v16h16v-16m-32-16v16h16v-16h-16m0 16h-16v16h16v-16m-64-96h-16v16h16v-16m-16-32v16h16v-16h-16m-16 32h16v-16h-16v16m16-48h-16v16h16v-16m0-32h-16v16h16v-16m16 32v-16h-16v16h16m0-48h-16v16h16v-16m0-16v16h16v-16h-16m96-16h-16v16h16v-16m-64 16v-16h-16v16h16m32 0v16h16v-16h-16m-32 0v16h16v-16h-16m16-16v-16h-16v16h16m16-16v16h16v-16h-16m0 16h-16v16h16v-16m144 128h-16v16h16v-16m0-32h-16v16h16v-16m-16-16h16v-16h-16v16m-16 0v16h16v-16h-16m0 32v16h16v-16h-16m0-64v16h16v-16h-16m-64-48v-16h-16v16z" fill="#f0f"/>
  <path d="M352 400v-16h-16v16h16m16-32h-16v16h16v-16m-112 80v16h16v-16h-16m-96-64v-16h-16v16h16m80 64h-16v16h16v-16m0-16v16h16v-16h-16m-16-16v16h16v-16h-16m-16 32h-16v16h16v-16h16v-16h-16v16m-64-128h16v-16h-16v16m0 16v16h16v-16h-16m0 16h-16v16h16v-16m0-32h-16v16h16v-16m-16-16h16v-16h-16v16m32-16v-16h-16v16h16m16-32h-16v16h16v-16m0-32h-16v16h16v-16m-32 16v16h16v-16h-16m96 0v16h16v-16h-16m16-16v-16h-16v16h16m-32 0v16h16v-16h-16m-16 16v-16h-16v16h16v16h16v-16h-16m-16 16v-16h-16v16h16m0-32v-16h-16v16h16m16 0h16v-16h-16v16m144 128h-16v16h16v-16h16v-16h-16v16m16-48h-16v16h16v-16m0-32h-16v16h16v-16m-32 48v16h16v-16h-16m0-32v16h16v-16z" fill="#00f"/>
  <path d="M400 384h16v-16h-16v16m32 48v16h-16v16h-80v-16h-32v-16h-16v-32h-16v48h16v16h16v16h16v16h96v-16h32v-16h16v-48h-16v16h-16m-32-80h-16v16h16v-16m16-80v16h48v-32h-16v16h-32m-112 48h-16v16h16v-16m-16-16h-16v16h16v-16m128-48h-16v16h16z" fill="olive"/>
  <path d="M176 448h-16v16H32v16H16v16h144v-16h16v-32m32-48h-16v32h16v-32h16v-16h-16v16m-64-192v16h16v-16h-16m0 16h-16v16h16v-16m-80 32v32h48v-16h16v-16z" fill="maroon"/>
  <path d="M64 288v-32h64v-32h16v-16H16v272h16v-16h128v-16h16v-16h16v-32h16v-16h16V272h-32v112h-16v16h-16v16H64z" fill="red"/>
  <path d="M80 96V80H64V64H48v128h16V96h16m16-48H80v16h16V48M64 16v16h16V16H64m144 80V80h-16v16h16m-64 48h-16v16h16v-16m-16-16v-16h-16v16h16m-16-32V80H96v16h16m128-80h-16v176h16V16m192 160v-48h-16v48h16m-16 16v-16h-16v16h16m0-64v-16h-16v16h16m-32-32h-16v16h16V96m-64-48h-16v48h32V80h-16V48m0 0h16V32h-16v16m64-32v16h16V16h-16m48 48V32h-16v32z" fill="gray"/>
  <path d="M192 16v32h-16v32h-16v32h-16v48h-16v-32h-16V96H96V64H80V32H64V16H32v176h16V64h16v16h16v32h16v32h16v32h16v16h16v-16h16v-32h16v-32h16V80h16v112h16V16h-32m128 128h-32v32h16v16h96v-16h16v-48h-16v-16h-32v16h16v16h16v16h-16v16h-64v-32m16-48h-16v16h48V96h-32m-16-48V32h-32v64h16V48h16m64-16v16h16v16h16V32h-32m0 0V16h-64v16h16z" fill="silver"/>
  <path d="M384 320v32h16v16h16v32h-16v16h-64v-16h-16v-16h-48v16h16v32h16v16h32v16h80v-16h16v-16h16v-16h16v-64h-16v-16h-32v-16h-32m32-96v-16H304v16h-16v16h-16v64h16v16h16v-48h16v-16h96v16h32v-16h16v-16h-16v-16z" fill="#ff0"/>
</svg>
