<?xml version="1.0" encoding="UTF-8" standalone="no"?>
<svg
   xmlns:dc="http://purl.org/dc/elements/1.1/"
   xmlns:cc="http://creativecommons.org/ns#"
   xmlns:rdf="http://www.w3.org/1999/02/22-rdf-syntax-ns#"
   xmlns:svg="http://www.w3.org/2000/svg"
   xmlns="http://www.w3.org/2000/svg"
   xmlns:sodipodi="http://sodipodi.sourceforge.net/DTD/sodipodi-0.dtd"
   xmlns:inkscape="http://www.inkscape.org/namespaces/inkscape"
   version="1.1"
   preserveAspectRatio="none"
   x="0px"
   y="0px"
   width="480"
   height="512"
   viewBox="0 0 480 512"
   id="svg33"
   sodipodi:docname="windows.svg"
   inkscape:version="1.0.2-2 (e86c870879, 2021-01-15)">
  <metadata
     id="metadata37">
    <rdf:RDF>
      <cc:Work
         rdf:about="">
        <dc:format>image/svg+xml</dc:format>
        <dc:type
           rdf:resource="http://purl.org/dc/dcmitype/StillImage" />
      </cc:Work>
    </rdf:RDF>
  </metadata>
  <sodipodi:namedview
     pagecolor="#ffffff"
     bordercolor="#666666"
     borderopacity="1"
     objecttolerance="10"
     gridtolerance="10"
     guidetolerance="10"
     inkscape:pageopacity="0"
     inkscape:pageshadow="2"
     inkscape:window-width="2560"
     inkscape:window-height="1377"
     id="namedview35"
     showgrid="false"
     inkscape:zoom="1.1879394"
     inkscape:cx="209.22187"
     inkscape:cy="313.25603"
     inkscape:window-x="-8"
     inkscape:window-y="-8"
     inkscape:window-maximized="1"
     inkscape:current-layer="svg33" />
  <defs
     id="defs2" />
  <g
     id="_____1"
     transform="translate(-57,-40)">
    <g
       id="g30">
      <g
         id="g28">
        <g
           id="g26">
          <path
             fill="#000000"
             stroke="none"
             d="m 377,536 v 16 h 96 v -16 h -96 m -16,-32 h -16 v 16 h 16 v -16 m 16,32 v -16 h -16 v 16 h 16 m -32,-48 h -16 v 16 h 16 v -16 m 32,-64 v 16 h 16 v -16 h -16 m 48,16 v -16 h -16 v 16 h -16 v 16 h 64 v -16 h -32 m 32,-16 v 16 h 16 v -16 h -16 m 48,96 h 16 v -16 h -16 v 16 m 0,16 v -16 h -32 v 16 h 32 m -192,0 h -16 -16 -16 -16 v 16 h 112 v -16 h -16 -16 -16 m -96,16 V 536 H 73 v 16 h 144 m 48,-64 v -16 h -16 -16 v 16 32 h -16 v 16 h 32 v -16 -16 -16 h 16 M 153,216 h 16 v -32 h -16 v 32 m 32,128 v -16 -16 h -16 v 16 h -48 v 128 h 96 v -16 h -16 v -16 h -16 v 16 h -48 v -96 h 32 v 80 h 16 v -16 -16 -16 -16 -16 m 48,-16 v 16 16 16 16 16 h -16 v 16 16 h 16 v -16 h 16 V 312 h -16 v 16 m 0,-64 v -16 h -16 v 16 h 16 m -32,0 v 16 h 16 v -16 h -16 m 0,32 v -16 h -16 v 16 16 h 16 V 296 M 137,56 v 16 16 h 16 V 56 h -16 m -48,0 h 32 16 V 40 H 73 V 232 H 57 V 536 H 73 V 520 248 h 128 16 v -32 h -16 v 16 h -16 v -16 h -16 v 16 h -32 v -48 h 16 v -32 h -16 v -16 h -16 v 96 H 105 89 V 56 m 80,64 V 88 h -16 v 16 16 h 16 m 32,32 h 16 v -32 h -16 v 32 m 32,32 h -16 v 32 h 16 v -32 m -48,-32 v 16 16 h 16 v -32 h -16 m -16,-32 v 16 16 h 16 v -32 h -16 m 64,-32 h -16 v 32 h 16 V 88 m 16,0 V 56 h -16 v 32 h 16 m 288,304 h -16 v 64 48 h 16 V 392 m -32,-16 v 16 h 16 v -16 h -16 m 0,-96 h 16 v -16 h -16 v 16 m 16,0 v 16 32 h 16 v -48 h -16 m -48,80 v 16 h 32 v -16 h -32 m -16,-32 h 16 v -16 h -16 v 16 m 16,0 v 16 h 48 v -16 h -48 m -144,32 v -16 -64 h -16 v 16 16 16 h -16 v -16 -16 h -16 -16 -16 v 16 h 32 v 112 16 h -16 v 32 h 16 v -16 h 16 16 v 16 16 h 16 v -48 -16 h -16 v 16 h -16 v -96 h 16 v 16 h 16 m 16,16 v -16 h -16 v 16 h 16 m 32,-64 h 16 16 16 v 16 16 16 16 16 16 16 h 32 v -16 h -16 v -16 -32 h 32 v -16 h -32 v -32 h 16 v -16 h -80 v 16 m 0,32 v -16 -16 h -16 v 48 16 h -16 v 16 h 16 v 16 h -32 v 16 h 48 v -16 -16 -16 -16 -16 m -48,-96 h 16 V 232 H 313 V 40 h -64 v 16 h 32 16 v 176 h -16 -16 v -96 h -16 v 16 h -16 v 32 h 16 v 48 h -16 v 16 h 16 16 16 16 16 16 m 16,16 h -16 v 16 h 16 v -16 m 0,0 h 16 v -16 h -16 v 16 m 16,-48 h -16 v 16 h 16 v -16 m 112,32 v 16 h 32 v -16 h -32 m 0,-16 h -16 -96 v 16 h 112 v -16 m 0,-16 v 16 h 16 v -16 h -16 m -16,-32 h -16 v 16 h 16 v -16 m 0,-32 h 16 v -16 h -32 v 16 h 16 m -32,32 h 16 v -16 h -16 v 16 m -48,0 v -16 h -48 v 48 h 16 v -32 h 32 m 16,0 h -16 v 32 h 64 v -16 h -48 v -16 m -16,-32 v 16 h 48 v -16 h -48 m -16,-16 h -16 v 16 h 32 v -16 h -16 m 32,-16 v 16 h 32 16 v -16 h -48 m 0,-32 h -16 v 32 h 16 V 88 M 345,72 h -16 v 64 h 16 V 72 m 0,-16 v 16 h 32 V 56 h -32 m 96,0 h 16 V 40 h -80 v 16 h 64 m 0,32 V 72 h -48 v 16 h 48 m 48,80 v -16 h -16 v 16 h 16 m 16,0 h -16 v 48 h 16 V 168 M 489,72 V 56 h -32 v 16 h 16 16 m 16,0 h -16 v 32 H 473 457 V 88 h -16 v 32 h 64 z"
             id="path4" />
          <path
             fill="#000080"
             stroke="none"
             d="m 329,504 v 16 h 16 v -16 h -16 m 16,32 h 16 v -16 h -16 v 16 m 32,-112 h 16 v -16 h -16 v 16 m -128,96 v 16 h 16 v -16 h -16 m 32,-16 h -16 v 16 h 16 v -16 m 16,16 h 16 v -16 h -16 v 16 m 16,0 v 16 h 16 v -16 h -16 m -16,16 v -16 h -16 v 16 h 16 m 0,-208 h 16 v -16 h -16 v 16 m -80,48 h 16 v -16 h -16 v 16 m 16,16 h -16 v 16 h 16 v -16 m -16,-64 v 16 h 16 v -16 h -16 m 160,48 v 16 h 16 v -16 h -16 m 0,-48 h 16 v -16 h -16 v 16 m 16,16 h -16 v 16 h 16 v -16 m -64,-64 v -16 h -16 v 16 h 16 m 16,-16 v -16 h -16 v 16 z"
             id="path6" />
          <path
             fill="#800080"
             stroke="none"
             d="m 329,520 v 16 h 16 v -16 h -16 m -80,-16 v 16 h 16 v -16 h -16 m 16,32 h 16 v -16 h -16 v 16 m 48,-32 v 16 h 16 v -16 h -16 m -16,16 v -16 h -16 v 16 h 16 m 0,0 v 16 h 16 V 520 H 297 M 233,312 h 16 v -16 h -16 v 16 m -16,64 v 16 h 16 v -16 h -16 m 0,-48 h 16 v -16 h -16 v 16 m 16,16 h -16 v 16 h 16 v -16 m 80,-48 h -16 v 16 h 16 v -16 m 64,80 h 16 v -16 h -16 v 16 m 16,16 h -16 v 16 h 16 v -16 m -16,-64 v 16 h 16 v -16 z"
             id="path8" />
          <path
             fill="#ff00ff"
             stroke="none"
             d="m 409,424 v -16 h -16 v 16 h 16 M 201,408 h -16 v 16 h 16 v -16 m 16,32 v -16 h -16 v 16 h 16 m 80,32 h 16 v -16 h -16 v 16 m 16,16 h -16 v 16 h 16 v -16 m -32,-16 v 16 h 16 v -16 h -16 m 0,16 h -16 v 16 h 16 v -16 m -64,-96 h -16 v 16 h 16 v -16 m -16,-32 v 16 h 16 v -16 h -16 m -16,32 h 16 v -16 h -16 v 16 m 16,-48 h -16 v 16 h 16 v -16 m 0,-32 h -16 v 16 h 16 v -16 m 16,32 v -16 h -16 v 16 h 16 m 0,-48 h -16 v 16 h 16 v -16 m 0,-16 v 16 h 16 v -16 h -16 m 96,-16 h -16 v 16 h 16 v -16 m -64,16 v -16 h -16 v 16 h 16 m 32,0 v 16 h 16 v -16 h -16 m -32,0 v 16 h 16 v -16 h -16 m 16,-16 v -16 h -16 v 16 h 16 m 16,-16 v 16 h 16 v -16 h -16 m 0,16 h -16 v 16 h 16 v -16 m 144,128 h -16 v 16 h 16 v -16 m 0,-32 h -16 v 16 h 16 v -16 m -16,-16 h 16 v -16 h -16 v 16 m -16,0 v 16 h 16 v -16 h -16 m 0,32 v 16 h 16 v -16 h -16 m 0,-64 v 16 h 16 v -16 h -16 m -64,-48 v -16 h -16 v 16 z"
             id="path10" />
          <path
             fill="#0000ff"
             stroke="none"
             d="m 409,440 v -16 h -16 v 16 h 16 m 16,-32 h -16 v 16 h 16 v -16 m -112,80 v 16 h 16 v -16 h -16 m -96,-64 v -16 h -16 v 16 h 16 m 80,64 h -16 v 16 h 16 v -16 m 0,-16 v 16 h 16 v -16 h -16 m -16,-16 v 16 h 16 v -16 h -16 m -16,32 h -16 v 16 h 16 v -16 m 0,0 h 16 v -16 h -16 v 16 M 201,360 h 16 v -16 h -16 v 16 m 0,16 v 16 h 16 v -16 h -16 m 0,16 h -16 v 16 h 16 v -16 m 0,-32 h -16 v 16 h 16 v -16 m -16,-16 h 16 v -16 h -16 v 16 m 32,-16 v -16 h -16 v 16 h 16 m 16,-32 h -16 v 16 h 16 v -16 m 0,-32 h -16 v 16 h 16 v -16 m -32,16 v 16 h 16 v -16 h -16 m 96,0 v 16 h 16 v -16 h -16 m 16,-16 v -16 h -16 v 16 h 16 m -32,0 v 16 h 16 v -16 h -16 m -16,16 v -16 h -16 v 16 h 16 m 0,0 v 16 h 16 v -16 h -16 m -16,16 v -16 h -16 v 16 h 16 m 0,-32 v -16 h -16 v 16 h 16 m 16,0 h 16 v -16 h -16 v 16 m 144,128 h -16 v 16 h 16 v -16 m 0,0 h 16 v -16 h -16 v 16 m 16,-48 h -16 v 16 h 16 v -16 m 0,-32 h -16 v 16 h 16 v -16 m -32,48 v 16 h 16 v -16 h -16 m 0,-32 v 16 h 16 v -16 z"
             id="path12" />
          <path
             fill="#808000"
             stroke="none"
             d="m 457,424 h 16 v -16 h -16 v 16 m 32,48 v 16 h -16 v 16 h -80 v -16 h -32 v -16 h -16 v -32 h -16 v 48 h 16 v 16 h 16 v 16 h 16 v 16 h 96 v -16 h 32 v -16 h 16 v -48 h -16 v 16 h -16 m -32,-80 h -16 v 16 h 16 v -16 m 16,-80 v 16 h 48 v -32 h -16 v 16 h -32 m -112,48 h -16 v 16 h 16 v -16 m -16,-16 h -16 v 16 h 16 v -16 m 128,-48 h -16 v 16 h 16 z"
             id="path14" />
          <path
             fill="#800000"
             stroke="none"
             d="m 233,488 h -16 v 16 H 89 v 16 H 73 v 16 h 144 v -16 h 16 v -32 m 32,-48 h -16 v 32 h 16 v -32 m 0,0 h 16 v -16 h -16 v 16 M 201,248 v 16 h 16 v -16 h -16 m 0,16 h -16 v 16 h 16 v -16 m -80,32 v 32 h 48 v -16 h 16 v -16 z"
             id="path16" />
          <path
             fill="#ff0000"
             stroke="none"
             d="m 121,328 v -32 h 64 v -16 -16 h 16 V 248 H 73 v 272 h 16 v -16 h 128 v -16 h 16 v -16 h 16 v -32 h 16 v -16 h 16 V 312 h -32 v 112 h -16 v 16 h -16 v 16 h -96 z"
             id="path18" />
          <path
             fill="#808080"
             stroke="none"
             d="m 137,136 v -16 h -16 v -16 h -16 v 128 h 16 v -96 h 16 m 16,-48 h -16 v 16 h 16 V 88 M 121,56 v 16 h 16 V 56 h -16 m 144,80 v -16 h -16 v 16 h 16 m -64,48 h -16 v 16 h 16 v -16 m -16,-16 v -16 h -16 v 16 h 16 m -16,-32 v -16 h -16 v 16 h 16 M 297,56 h -16 v 176 h 16 V 56 m 192,160 v -48 h -16 v 48 h 16 m -16,16 v -16 h -16 v 16 h 16 m 0,-64 v -16 h -16 v 16 h 16 m -32,-32 h -16 v 16 h 16 V 136 M 377,88 h -16 v 48 h 16 16 V 120 H 377 V 88 m 0,0 h 16 V 72 h -16 v 16 m 64,-32 v 16 h 16 V 56 h -16 m 48,48 V 72 h -16 v 32 z"
             id="path20" />
          <path
             fill="#c0c0c0"
             stroke="none"
             d="m 249,56 v 32 h -16 v 32 h -16 v 32 h -16 v 32 16 H 185 V 184 168 H 169 V 152 136 H 153 V 120 104 H 137 V 88 72 H 121 V 56 H 89 v 176 h 16 V 104 h 16 v 16 h 16 v 16 16 h 16 v 32 h 16 v 32 h 16 v 16 h 16 v -16 h 16 v -32 h 16 v -32 h 16 v -16 -16 h 16 v 16 96 h 16 V 56 h -32 m 128,128 h -32 v 32 h 16 v 16 h 96 v -16 h 16 v -48 h -16 v -16 h -16 -16 v 16 h 16 v 16 h 16 v 16 h -16 v 16 h -64 v -32 m 16,-48 h -16 v 16 h 48 V 136 H 393 M 377,88 V 72 h -32 v 64 h 16 V 88 h 16 m 64,-16 v 16 h 16 v 16 h 16 V 72 h -16 -16 m 0,0 V 56 h -64 v 16 h 16 z"
             id="path22" />
          <path
             fill="#ffff00"
             stroke="none"
             d="m 441,360 v 32 h 16 v 16 h 16 v 16 16 h -16 v 16 h -64 v -16 h -16 v -16 h -48 v 16 h 16 v 32 h 16 v 16 h 32 v 16 h 80 v -16 h 16 v -16 h 16 v -16 h 16 v -64 h -16 v -16 h -32 v -16 h -32 m 32,-96 V 248 H 361 v 16 h -16 v 16 h -16 v 64 h 16 v 16 h 16 v -48 h 16 v -16 h 80 16 v 16 h 32 v -16 h 16 v -16 h -16 v -16 z"
             id="path24" />
        </g>
      </g>
    </g>
  </g>
</svg>
