<?xml version="1.0" encoding="UTF-8" standalone="no"?>
<svg
   xmlns:dc="http://purl.org/dc/elements/1.1/"
   xmlns:cc="http://creativecommons.org/ns#"
   xmlns:rdf="http://www.w3.org/1999/02/22-rdf-syntax-ns#"
   xmlns:svg="http://www.w3.org/2000/svg"
   xmlns="http://www.w3.org/2000/svg"
   xmlns:sodipodi="http://sodipodi.sourceforge.net/DTD/sodipodi-0.dtd"
   xmlns:inkscape="http://www.inkscape.org/namespaces/inkscape"
   version="1.1"
   x="0px"
   y="0px"
   width="579.38202"
   height="579.38202"
   viewBox="-14.625 -9 579.38202 579.38203"
   enable-background="new -14.625 -9 1386 180"
   xml:space="preserve"
   id="svg36"
   sodipodi:docname="pc98-v2.svg"
   inkscape:version="1.0.2-2 (e86c870879, 2021-01-15)"><metadata
   id="metadata40"><rdf:RDF><cc:Work
       rdf:about=""><dc:format>image/svg+xml</dc:format><dc:type
         rdf:resource="http://purl.org/dc/dcmitype/StillImage" /><dc:title /></cc:Work></rdf:RDF></metadata><sodipodi:namedview
   pagecolor="#ffffff"
   bordercolor="#666666"
   borderopacity="1"
   objecttolerance="10"
   gridtolerance="10"
   guidetolerance="10"
   inkscape:pageopacity="0"
   inkscape:pageshadow="2"
   inkscape:window-width="2560"
   inkscape:window-height="1417"
   id="namedview38"
   showgrid="false"
   inkscape:zoom="0.73088023"
   inkscape:cx="722.78556"
   inkscape:cy="366.46414"
   inkscape:window-x="2552"
   inkscape:window-y="-8"
   inkscape:window-maximized="1"
   inkscape:current-layer="svg36"
   inkscape:document-rotation="0" />
<defs
   id="defs2">
</defs>












<rect
   style="fill:#6f685f;fill-opacity:1;stroke-width:1.43554"
   id="rect896"
   width="579.38202"
   height="579.38202"
   x="-14.625"
   y="-9"
   rx="31.795855"
   ry="31.060919" />



<g
   id="g909"
   transform="translate(35.029475,115.50687)"><g
     id="g894"
     transform="translate(-14.625,179.32097)"><path
       fill-rule="evenodd"
       clip-rule="evenodd"
       d="m 351.375,159.77 h -36.5 l 29.533,-59.521 c -7.981,0 -30.033,-4.249 -38.076,-11.495 -10.428,-9.395 -18.869,-28.396 -12.999,-50.994 6.481,-24.946 34.497,-43.741 64.992,-35.996 21.805,5.539 34.549,16.485 38.299,40.376 1.727,11.003 1.013,21.703 -6.193,37.881 z M 324.33,52.758 c 0,25.899 39.995,26.614 39.995,1 0,-26.742 -39.995,-26.992 -39.995,-1 z"
       id="path4" /><path
       fill-rule="evenodd"
       clip-rule="evenodd"
       d="m 448.314,1.765 c 35.151,-4.551 65.75,23.095 54.993,58.993 C 501.625,66.372 492,78.373 492,78.373 c 0,0 14.699,13.6 16.307,22.38 6.706,36.626 -20.935,58.203 -48.994,58.992 -29.72,0.838 -62.426,-19.279 -55.993,-56.992 0.87,-5.1 4.273,-9.96 6,-12.999 1.74,-3.063 9.931,-11.381 9.931,-11.381 0,0 -10.901,-17.317 -11.931,-24.614 -3.761,-26.653 12.136,-48.258 40.994,-51.994 z m -6.999,44.026 c 0,19.225 28.997,18.975 28.997,0.968 0,-20.368 -28.997,-20.618 -28.997,-0.968 z m 14.989,83.957 c 22.679,0 22.8,-33.995 -0.388,-33.995 -23.261,0 -22.656,33.995 0.388,33.995 z"
       id="path6" /><path
       fill-rule="evenodd"
       clip-rule="evenodd"
       d="M 199.345,3.024 V 34 c -84.938,-22.833 -84.368,114.5 -1.14,91.754 V 156.75 C 69.355,189 68.785,-26.667 199.345,3.024 Z"
       id="path12" /><path
       fill-rule="evenodd"
       clip-rule="evenodd"
       d="m 40.256,96 0.108,-30.918 c 15.01,0 23.997,-5.203 23.997,-16.088 0,-9 -1.487,-17.866 -31.862,-17.866 L 32.624,159.75 H 0 L 0.37,0 31.875,0.003 C 92.375,0.209 99.5,24.5 99.5,47.994 99.5,81.755 75.875,96 40.256,96 Z"
       id="path14" /><rect
       x="200.345"
       y="69.755997"
       fill-rule="evenodd"
       clip-rule="evenodd"
       width="77.989998"
       height="23.997"
       id="rect28" /></g><g
     id="g882"
     transform="matrix(1.29675,0,0,1.29675,-14.625,-9)"><g
       id="g887"><path
         fill="#ff0000"
         d="m 134.565,5.753 h 100.083 l -6.637,38.029 c 0,0 -2.946,-20.616 -15.264,-28.684 -3.058,-1.432 -10.893,-1.333 -30.527,-1.333 l -7.686,45.345 c 15.655,3.681 33.016,-20.173 33.016,-20.173 l -9.985,52.729 c 0,0 -6.125,-23.875 -25.307,-23.083 l -8.509,46.904 c 27.938,0 27.396,-0.196 34.146,-4.321 6.513,-3.979 21.722,-23.573 22.296,-26.317 l -6.204,39.301 H 112.815 c 0.75,-5.234 10.607,-5.796 15.018,-8.799 l 8.276,-45.621 c -0.667,-4.078 -8.669,-0.565 -10.293,-4.066 1.374,-3.749 9.42,-1.291 11.756,-3.997 L 145.969,15.38 C 144.47,11.881 134.565,10.167 134.565,5.753 Z"
         id="path867" /><path
         fill="#ff0000"
         d="m 323.372,2.193 c 4.404,9.086 7.945,19.066 11.169,29.376 -6.12,2.374 -14.605,6.232 -14.605,6.232 L 303.827,15.42 c -16.779,-1.313 -39.454,23.677 -41.171,39.292 -2.008,18.474 9.484,36.722 27.491,38.28 18.759,1.631 41.238,-14.242 41.238,-14.242 l -20.619,45.4 c -42.526,15.131 -73.994,-12.647 -75.604,-45.4 -2.47,-50.001 42.779,-77.559 88.21,-76.557 z"
         id="path869" /><path
         fill="#ff0000"
         d="M 90.815,67.792 105.357,0 133.024,17 110.908,30.044 90.858,127.777 26.19,55 17.333,100.064 33.065,113.042 0,127.778 16.065,51.667 C 17.815,40.167 9.863,36.207 2.863,33.832 L 31.19,1.193 Z"
         id="path871" /></g></g></g></svg>
