<?xml version="1.0" encoding="UTF-8" standalone="no"?>
<svg
   xmlns:dc="http://purl.org/dc/elements/1.1/"
   xmlns:cc="http://creativecommons.org/ns#"
   xmlns:rdf="http://www.w3.org/1999/02/22-rdf-syntax-ns#"
   xmlns:svg="http://www.w3.org/2000/svg"
   xmlns="http://www.w3.org/2000/svg"
   xmlns:sodipodi="http://sodipodi.sourceforge.net/DTD/sodipodi-0.dtd"
   xmlns:inkscape="http://www.inkscape.org/namespaces/inkscape"
   width="745.27pt"
   height="360.63pt"
   viewBox="0 0 745.27 360.63"
   version="1.1"
   id="svg29"
   sodipodi:docname="pce-v2.svg"
   inkscape:version="1.0.2-2 (e86c870879, 2021-01-15)">
  <metadata
     id="metadata33">
    <rdf:RDF>
      <cc:Work
         rdf:about="">
        <dc:format>image/svg+xml</dc:format>
        <dc:type
           rdf:resource="http://purl.org/dc/dcmitype/StillImage" />
        <dc:title></dc:title>
      </cc:Work>
    </rdf:RDF>
  </metadata>
  <sodipodi:namedview
     pagecolor="#ffffff"
     bordercolor="#666666"
     borderopacity="1"
     objecttolerance="10"
     gridtolerance="10"
     guidetolerance="10"
     inkscape:pageopacity="0"
     inkscape:pageshadow="2"
     inkscape:window-width="2560"
     inkscape:window-height="1377"
     id="namedview31"
     showgrid="false"
     inkscape:zoom="1.0194292"
     inkscape:cx="455.5877"
     inkscape:cy="236.75032"
     inkscape:window-x="-8"
     inkscape:window-y="-8"
     inkscape:window-maximized="1"
     inkscape:current-layer="svg29" />
  <defs
     id="defs8">
    <clipPath
       id="clip1">
      <path
         d="M 394 85 L 745.269531 85 L 745.269531 325 L 394 325 Z M 394 85 "
         id="path2" />
    </clipPath>
    <clipPath
       id="clip2">
      <path
         d="M 73 21 L 674 21 L 674 360.628906 L 73 360.628906 Z M 73 21 "
         id="path5" />
    </clipPath>
  </defs>
  <g
     id="surface1">
    <path
       style="fill:none;stroke-width:70;stroke-linecap:round;stroke-linejoin:round;stroke:rgb(92.199707%,17.599487%,17.999268%);stroke-opacity:1;stroke-miterlimit:4;"
       d="M 761.132813 990.284375 C 295.234375 1216.417188 24.0625 1488.760938 35.351563 1774.346875 C 53.710938 2245.167188 834.257813 2630.753125 1974.179688 2809.776563 "
       transform="matrix(0.1,0,0,-0.1,0,360.63)"
       id="path10" />
    <path
       style="fill:none;stroke-width:70;stroke-linecap:round;stroke-linejoin:round;stroke:rgb(92.199707%,17.599487%,17.999268%);stroke-opacity:1;stroke-miterlimit:4;"
       d="M 3952.226563 2905.089063 C 4360.820313 2885.51875 4751.40625 2844.034375 5113.398438 2784.58125 "
       transform="matrix(0.1,0,0,-0.1,0,360.63)"
       id="path12" />
    <g
       clip-path="url(#clip1)"
       clip-rule="nonzero"
       id="g16">
      <path
         style="fill:none;stroke-width:70;stroke-linecap:round;stroke-linejoin:round;stroke:rgb(92.199707%,17.599487%,17.999268%);stroke-opacity:1;stroke-miterlimit:4;"
         d="M 5478.789063 2712.39375 C 6646.015625 2464.854688 7432.578125 2021.885938 7417.5 1540.479688 C 7397.03125 882.39375 5886.445313 388.760938 3982.304688 393.878125 "
         transform="matrix(0.1,0,0,-0.1,0,360.63)"
         id="path14" />
    </g>
    <path
       style=" stroke:none;fill-rule:nonzero;fill:rgb(92.199707%,17.599487%,17.999268%);fill-opacity:1;"
       d="M 464.550781 142.507813 L 556.960938 72.0625 L 448.417969 115.390625 L 417.917969 83.640625 L 427.640625 127.636719 L 335.230469 198.078125 L 443.773438 154.738281 L 474.273438 186.488281 L 464.550781 142.507813 "
       id="path18" />
    <g
       clip-path="url(#clip2)"
       clip-rule="nonzero"
       id="g22">
      <path
         style=" stroke:none;fill-rule:nonzero;fill:rgb(92.199707%,17.599487%,17.999268%);fill-opacity:1;"
         d="M 247.410156 105.914063 L 254.667969 66.867188 L 281.890625 62.550781 C 285.460938 61.984375 287.285156 64.019531 286.574219 67.785156 L 281.613281 94.507813 C 280.902344 98.289063 278.199219 101.03125 274.632813 101.597656 Z M 556.859375 217.804688 L 564.285156 177.878906 C 566.636719 165.253906 580.207031 152.847656 591.769531 151.011719 L 641.789063 143.085938 C 650.214844 141.746094 656.070313 151.15625 654.351563 160.371094 L 651.894531 173.21875 C 650.175781 182.433594 640.765625 192.226563 632.339844 193.5625 L 580.417969 201.804688 L 579.667969 206.464844 C 578.683594 211.765625 582.203125 215.902344 587.058594 215.128906 L 645.097656 205.886719 L 641.1875 226.941406 L 575.71875 237.320313 C 564.15625 239.160156 554.519531 230.445313 556.859375 217.804688 Z M 427.128906 177.128906 L 448.039063 173.824219 L 431.984375 260.132813 L 410.605469 263.519531 L 426.644531 177.222656 Z M 288.097656 282.957031 L 266.703125 286.34375 L 277.125 230.300781 C 278.4375 223.277344 276.3125 220.996094 269.539063 222.070313 L 232.261719 227.992188 L 220.042969 293.746094 L 198.648438 297.144531 L 214.6875 210.835938 L 215.1875 210.757813 L 286.152344 199.496094 C 296.890625 197.789063 302.71875 204.300781 300.605469 215.652344 Z M 185.355469 277.3125 L 181.152344 299.914063 L 91.707031 314.101563 L 119.585938 164.085938 L 193.480469 152.363281 L 189.660156 172.917969 L 137.160156 181.253906 L 129.140625 224.40625 L 171.914063 217.621094 L 168.09375 238.164063 L 125.320313 244.949219 L 117.289063 288.113281 Z M 188.414063 260.867188 L 137.855469 268.886719 L 139.757813 258.625 L 180.589844 252.140625 L 190.527344 198.707031 L 149.695313 205.191406 L 151.597656 194.914063 L 202.152344 186.894531 Z M 300.605469 296.921875 L 300.933594 295.125 C 302.324219 295.226563 304.1875 295.765625 305.816406 295.519531 L 347.855469 288.929688 C 346.292969 297.316406 335.214844 299.417969 318.3125 302.09375 L 299.070313 305.152344 L 288.753906 360.628906 L 314.03125 356.625 C 376.269531 350.484375 399.949219 318.316406 407.546875 279.964844 L 483.382813 267.929688 L 495.601563 202.171875 L 501.773438 201.1875 C 508.53125 200.113281 507.535156 198.890625 506.234375 205.914063 L 495.050781 266.078125 L 549.496094 257.441406 L 550.242188 253.453125 C 554.351563 255.261719 559.15625 255.90625 564.234375 255.105469 L 658.390625 240.167969 L 667.171875 192.90625 L 661.070313 188.5625 C 666.359375 182.300781 670.480469 174.636719 671.675781 168.203125 L 673.15625 160.75 C 677.855469 132.871094 652.15625 125.46875 640.425781 127.335938 L 586.390625 135.90625 C 576.820313 137.425781 566.28125 144.09375 558.617188 152.929688 C 551.527344 145.90625 540.582031 143.175781 534.21875 144.1875 L 474.066406 153.726563 L 480.796875 168.613281 L 535.058594 160.015625 C 542.878906 158.769531 548.101563 161.890625 549.535156 168.085938 C 548.957031 169.726563 535.058594 243.777344 535.058594 243.777344 L 515.605469 246.863281 L 526.027344 190.808594 C 527.328125 183.785156 525.199219 181.515625 518.441406 182.589844 L 481.164063 188.511719 L 468.933594 254.265625 L 447.550781 257.664063 L 461.542969 182.378906 L 443.941406 161.617188 L 380.574219 184.519531 L 410.605469 179.753906 L 411.089844 179.691406 L 391.996094 282.429688 C 387.136719 308.539063 359.285156 333.488281 334.585938 337.414063 L 309.308594 341.417969 L 313.140625 320.863281 L 332.367188 317.816406 C 349.273438 315.125 368.304688 298.210938 371.585938 280.515625 L 373.660156 269.386719 L 323.585938 277.328125 C 312.851563 279.03125 307.023438 272.511719 309.136719 261.167969 L 318.113281 212.867188 C 319.703125 204.285156 325.058594 197.160156 332.222656 193.457031 L 332.339844 192.171875 L 357.460938 172.839844 L 342.789063 175.304688 C 334.980469 176.539063 320.503906 182.394531 311.300781 194.128906 C 304.347656 185.832031 292.179688 182.578125 285.328125 183.664063 L 231.355469 192.238281 L 240.152344 144.960938 L 279.527344 138.714844 C 300.488281 135.394531 323.679688 111.820313 327.800781 89.679688 L 333.71875 57.824219 C 337.839844 35.667969 322.261719 18.253906 301.300781 21.574219 L 215.253906 35.222656 L 196.917969 133.871094 L 117.683594 146.445313 C 110.976563 147.507813 104.453125 154.121094 103.140625 161.210938 L 73.53125 320.480469 C 72.21875 327.570313 76.585938 332.464844 83.292969 331.402344 L 234.480469 307.410156 L 246.714844 241.652344 L 252.871094 240.667969 C 259.640625 239.605469 258.644531 238.386719 257.332031 245.40625 L 246.148438 305.558594 Z M 584.40625 180.359375 L 583.949219 182.851563 L 624.398438 176.433594 C 627.589844 175.921875 630.699219 172.695313 631.355469 169.203125 C 632 165.710938 629.9375 163.296875 626.75 163.808594 L 616.351563 165.449219 L 599.777344 168.085938 L 595.578125 168.742188 C 590.71875 169.519531 585.390625 175.054688 584.40625 180.359375 Z M 335.464844 221.046875 L 330.675781 246.824219 C 329.363281 253.859375 331.488281 256.128906 338.261719 255.054688 L 377.476563 248.832031 L 385.878906 203.628906 L 346.660156 209.839844 C 339.886719 210.914063 336.765625 214.011719 335.464844 221.046875 Z M 348.8125 230.445313 C 350.140625 223.921875 352.554688 224.867188 359.167969 223.816406 L 365.324219 222.84375 L 363.410156 233.109375 L 357.253906 234.09375 C 350.636719 235.144531 347.722656 236.914063 348.8125 230.445313 "
         id="path20" />
    </g>
    <path
       style=" stroke:none;fill-rule:nonzero;fill:rgb(92.199707%,17.599487%,17.999268%);fill-opacity:1;"
       d="M 421.40625 124.183594 L 415.632813 101.292969 L 412.378906 101.6875 L 411.328125 107.332031 C 410.605469 111.242188 407.457031 114.433594 403.765625 115.023438 L 381.402344 118.566406 C 377.714844 119.15625 375.601563 116.796875 376.324219 112.882813 L 387.597656 52.257813 C 388.320313 48.359375 391.46875 45.171875 395.15625 44.582031 L 417.523438 41.035156 C 421.210938 40.445313 423.324219 42.808594 422.601563 46.707031 L 421.15625 54.425781 L 466.375 47.246094 L 468.09375 38.003906 C 472.425781 14.683594 456.570313 -3.050781 434.492188 0.441406 L 391.234375 7.304688 C 369.171875 10.808594 345.546875 34.804688 341.214844 58.125 L 329.179688 122.859375 C 324.847656 146.179688 340.703125 163.914063 362.777344 160.410156 L 377.242188 158.125 L 421.40625 124.183594 "
       id="path24" />
    <path
       style=" stroke:none;fill-rule:nonzero;fill:rgb(92.199707%,17.599487%,17.999268%);fill-opacity:1;"
       d="M 453.457031 110.378906 C 454.640625 107.199219 455.453125 105.992188 456.058594 102.738281 L 457.59375 94.507813 L 439.597656 97.371094 L 453.457031 110.378906 "
       id="path26" />
  </g>
</svg>
