<?xml version="1.0" encoding="UTF-8" standalone="no"?>
<svg
   xmlns:dc="http://purl.org/dc/elements/1.1/"
   xmlns:cc="http://creativecommons.org/ns#"
   xmlns:rdf="http://www.w3.org/1999/02/22-rdf-syntax-ns#"
   xmlns:svg="http://www.w3.org/2000/svg"
   xmlns="http://www.w3.org/2000/svg"
   xmlns:sodipodi="http://sodipodi.sourceforge.net/DTD/sodipodi-0.dtd"
   xmlns:inkscape="http://www.inkscape.org/namespaces/inkscape"
   width="600.42517pt"
   height="360.62753pt"
   viewBox="0 0 600.42516 360.62753"
   version="1.1"
   id="svg29"
   sodipodi:docname="pce-v1.svg"
   inkscape:version="1.0.2-2 (e86c870879, 2021-01-15)"
   inkscape:export-filename="C:\ScummIcons\platform\src\pce-v1.png"
   inkscape:export-xdpi="61.279999"
   inkscape:export-ydpi="61.279999">
  <metadata
     id="metadata33">
    <rdf:RDF>
      <cc:Work
         rdf:about="">
        <dc:format>image/svg+xml</dc:format>
        <dc:type
           rdf:resource="http://purl.org/dc/dcmitype/StillImage" />
        <dc:title />
      </cc:Work>
    </rdf:RDF>
  </metadata>
  <sodipodi:namedview
     pagecolor="#000000"
     bordercolor="#666666"
     borderopacity="1"
     objecttolerance="10"
     gridtolerance="10"
     guidetolerance="10"
     inkscape:pageopacity="0"
     inkscape:pageshadow="2"
     inkscape:window-width="2560"
     inkscape:window-height="1377"
     id="namedview31"
     showgrid="false"
     inkscape:zoom="1.0194292"
     inkscape:cx="440.6747"
     inkscape:cy="465.55757"
     inkscape:window-x="-8"
     inkscape:window-y="-8"
     inkscape:window-maximized="1"
     inkscape:current-layer="svg29"
     inkscape:document-rotation="0" />
  <defs
     id="defs8">
    <clipPath
       id="clip1">
      <path
         d="M 394,85 H 745.26953 V 325 H 394 Z m 0,0"
         id="path2" />
    </clipPath>
    <clipPath
       id="clip2">
      <path
         d="M 73,21 H 674 V 360.62891 H 73 Z m 0,0"
         id="path5" />
    </clipPath>
  </defs>
  <path
     id="path858"
     style="fill:#ffffff;fill-opacity:1;stroke:none;stroke-width:1px;stroke-linecap:butt;stroke-linejoin:miter;stroke-opacity:1"
     d="M 780.33398 183.8125 L 670.04688 194.2168 L 650.625 217.80078 L 623.57422 202.53906 L 543.33203 224.81641 L 499.6543 231.76367 L 479.125 229.9375 L 409.70117 246.02344 L 345.23242 257.94141 L 314.9082 271.20898 L 282.30664 258.72461 L 185.21875 266.15039 L 156.79297 363.69531 L 74.923828 370.89844 L 81.451172 336.24805 L 127.16016 329.48047 L 139.95898 273.66992 L 89.681641 285.73047 L 99.191406 251.7168 L 172.67188 240.9707 L 168.88086 195.55078 L 56.183594 205.31445 L 15.953125 431.4375 L 203.92773 401.61133 L 220.57422 314.21484 L 258.03125 308.66602 L 246.23828 394.67578 L 378.0293 375.25391 L 367.62305 398.14453 L 350.2832 411.32227 L 309.35938 416.87109 L 305.89062 465.42578 L 349.58984 459.18359 L 398.83789 440.45508 L 426.58203 404.38672 L 441.14844 362.76758 L 539.64453 349.58984 L 555.59766 260.80469 L 590.97266 256.64258 L 577.79297 339.87891 L 770.62305 309.35938 L 769.92969 266.35352 L 784.49609 221.26758 L 780.33398 183.8125 z M 387.39258 287.50977 L 395.7168 291.32422 L 397.79688 319.76367 L 378.375 329.12695 L 360.6875 313.17383 L 362.76758 294.44531 L 387.39258 287.50977 z "
     transform="scale(0.75)"
     inkscape:export-xdpi="61.400002"
     inkscape:export-ydpi="61.400002" />
  <g
     id="surface1"
     transform="translate(-73.29834,-0.00137833)"
     inkscape:export-xdpi="61.400002"
     inkscape:export-ydpi="61.400002">
    <g
       clip-path="url(#clip1)"
       clip-rule="nonzero"
       id="g16" />
    <path
       style="fill:#eb2b2b;fill-opacity:1;fill-rule:nonzero;stroke:none"
       d="m 464.55078,142.50781 92.41016,-70.44531 -108.54297,43.32813 -30.5,-31.750005 9.72265,43.996095 -92.41015,70.4414 108.54297,-43.33984 30.5,31.75 -9.72266,-43.98047"
       id="path18" />
    <g
       clip-path="url(#clip2)"
       clip-rule="nonzero"
       id="g22">
      <path
         style="fill:#eb2b2b;fill-opacity:1;fill-rule:nonzero;stroke:none"
         d="m 247.41016,105.91406 7.25781,-39.046872 27.22265,-4.316407 c 3.57032,-0.566406 5.39454,1.46875 4.6836,5.234375 l -4.96094,26.722657 c -0.71094,3.78125 -3.41406,6.523437 -6.98047,7.089847 z m 309.44921,111.89063 7.42579,-39.92578 c 2.35156,-12.625 15.92187,-25.03125 27.48437,-26.86719 l 50.01953,-7.92578 c 8.42578,-1.33985 14.28125,8.07031 12.5625,17.28515 l -2.45703,12.84766 c -1.71875,9.21484 -11.12891,19.00781 -19.55469,20.34375 l -51.92187,8.24219 -0.75,4.66015 c -0.98438,5.30078 2.53515,9.4375 7.39062,8.66407 l 58.03907,-9.24219 -3.91016,21.05469 -65.46875,10.3789 c -11.5625,1.83985 -21.19922,-6.875 -18.85938,-19.51562 z m -129.73046,-40.67578 20.91015,-3.30469 -16.05469,86.30859 -21.3789,3.38672 16.03906,-86.29687 z m -139.03125,105.82812 -21.39454,3.38672 10.42188,-56.04297 c 1.3125,-7.02344 -0.8125,-9.30469 -7.58594,-8.23047 l -37.27734,5.92188 -12.21875,65.7539 -21.39453,3.39844 16.03906,-86.30859 0.5,-0.0781 70.96484,-11.26172 c 10.73828,-1.70703 16.56641,4.80469 14.45313,16.15625 z m -102.74219,-5.64453 -4.20313,22.60156 -89.445309,14.1875 27.878909,-150.01562 73.89453,-11.72266 -3.82031,20.55469 -52.5,8.33594 -8.01954,43.15234 42.77344,-6.78516 -3.82031,20.54297 -42.77344,6.78516 -8.03125,43.16406 z m 3.05859,-16.44531 -50.55859,8.01953 1.90234,-10.26172 40.83203,-6.48438 9.9375,-53.43359 -40.83203,6.48438 1.90235,-10.27735 50.55468,-8.01953 z m 112.19141,36.05468 0.32812,-1.79687 c 1.39063,0.10156 3.25391,0.64062 4.88282,0.39453 l 42.03906,-6.58984 c -1.5625,8.38672 -12.64063,10.48828 -29.54297,13.16406 l -19.24219,3.05859 -10.3164,55.47657 25.27734,-4.00391 c 62.23828,-6.14063 85.91797,-38.30859 93.51562,-76.66016 l 75.83594,-12.03515 12.21875,-65.75782 6.17188,-0.98437 c 6.75781,-1.07422 5.76172,-2.29688 4.46093,4.72656 l -11.18359,60.16406 54.44531,-8.63671 0.7461,-3.98829 c 4.10937,1.8086 8.91406,2.45313 13.99218,1.65235 l 94.15625,-14.9375 8.78125,-47.26172 -6.10156,-4.34375 c 5.28906,-6.26172 9.41016,-13.92578 10.60547,-20.35938 l 1.48047,-7.45312 c 4.69922,-27.87891 -21,-35.28125 -32.73047,-33.41406 l -54.03516,8.57031 c -9.57031,1.51953 -20.10937,8.1875 -27.77343,17.02344 -7.08985,-7.02344 -18.03516,-9.75391 -24.39844,-8.74219 l -60.15234,9.53906 6.73046,14.88672 54.26172,-8.59766 c 7.82032,-1.24609 13.04297,1.875 14.47657,8.07032 -0.57813,1.64062 -14.47657,75.6914 -14.47657,75.6914 l -19.45312,3.08594 10.42187,-56.05469 c 1.30078,-7.02343 -0.82812,-9.29297 -7.58593,-8.21875 l -37.27735,5.92188 -12.23047,65.7539 -21.38281,3.39844 13.99219,-75.28515 -17.60156,-20.76172 -63.36719,22.90234 30.03125,-4.76562 0.48437,-0.0625 -19.09375,102.73828 c -4.85937,26.10937 -32.71093,51.05859 -57.41015,54.98437 l -25.27735,4.00391 3.83203,-20.55469 19.22657,-3.04687 c 16.90625,-2.69141 35.9375,-19.60547 39.21875,-37.30079 l 2.07422,-11.1289 -50.07422,7.9414 c -10.73438,1.70313 -16.5625,-4.8164 -14.44922,-16.16015 l 8.97656,-48.30078 c 1.58984,-8.58203 6.94531,-15.70703 14.10938,-19.41016 l 0.11718,-1.28516 25.1211,-19.33203 -14.67188,2.46485 c -7.80859,1.23437 -22.28515,7.08984 -31.48828,18.82422 -6.95312,-8.29688 -19.12109,-11.55079 -25.97266,-10.46485 l -53.97265,8.57422 8.79687,-47.27734 39.375,-6.2461 c 20.96094,-3.32031 44.15235,-26.89453 48.27344,-49.035152 l 5.91797,-31.855469 c 4.12109,-22.15625 -11.45703,-39.570313 -32.41797,-36.25 l -86.04687,13.648437 -18.33594,98.648434 -79.23438,12.57422 c -6.70703,1.0625 -13.23046,7.67578 -14.54296,14.76563 L 73.53125,320.48047 c -1.3125,7.08984 3.054688,11.98437 9.761719,10.92187 l 151.187501,-23.99218 12.23437,-65.75782 6.15625,-0.98437 c 6.76953,-1.0625 5.77344,-2.28125 4.46094,4.73828 l -11.18359,60.15234 z m 283.80078,-116.5625 -0.45703,2.49219 40.44922,-6.41797 c 3.1914,-0.51172 6.30078,-3.73828 6.95703,-7.23047 C 632,165.71094 629.9375,163.29687 626.75,163.80859 l -10.39844,1.64063 -16.57422,2.63672 -4.19922,0.65625 c -4.85937,0.77734 -10.1875,6.3125 -11.17187,11.61718 z m -248.94141,40.6875 -4.78906,25.77735 c -1.3125,7.03515 0.8125,9.30469 7.58594,8.23047 l 39.21484,-6.22266 8.40235,-45.20312 -39.21875,6.21093 c -6.77344,1.07422 -9.89454,4.17188 -11.19532,11.20703 z m 13.34766,9.39844 c 1.32812,-6.52344 3.74219,-5.57812 10.35547,-6.6289 l 6.15625,-0.97266 -1.91406,10.26562 -6.15625,0.98438 c -6.61719,1.05078 -9.53125,2.82031 -8.44141,-3.64844"
         id="path20" />
    </g>
    <path
       style="fill:#eb2b2b;fill-opacity:1;fill-rule:nonzero;stroke:none"
       d="m 421.40625,124.18359 -5.77344,-22.89062 -3.2539,0.39453 -1.05079,5.64453 c -0.72265,3.91016 -3.87109,7.10156 -7.5625,7.69141 l -22.36328,3.54297 c -3.6875,0.58984 -5.80078,-1.76953 -5.07812,-5.6836 l 11.27344,-60.624997 c 0.72265,-3.898438 3.87109,-7.085938 7.55859,-7.675782 l 22.36719,-3.546875 c 3.6875,-0.589843 5.80078,1.773438 5.07812,5.671875 l -1.44531,7.71875 45.21875,-7.179687 1.71875,-9.242188 c 4.33203,-23.320312 -11.52344,-41.054687 -33.60156,-37.5625 l -43.25782,6.863282 c -22.0625,3.503906 -45.6875,27.5 -50.01953,50.820312 l -12.03515,64.73438 c -4.33203,23.32031 11.52343,41.05468 33.59765,37.55078 l 14.46485,-2.28516 44.16406,-33.94141"
       id="path24" />
    <path
       style="fill:#eb2b2b;fill-opacity:1;fill-rule:nonzero;stroke:none"
       d="m 453.45703,110.37891 c 1.18359,-3.17969 1.99609,-4.38672 2.60156,-7.64063 l 1.53516,-8.230467 -17.99609,2.863281 13.85937,13.007816"
       id="path26" />
  </g>
</svg>
