<svg width="129.77" height="98.599" overflow="visible" version="1.0" viewBox="0 0 591.69 541.86" xml:space="preserve" xmlns="http://www.w3.org/2000/svg">
  <g clip-rule="evenodd" fill-rule="evenodd">
    <path d="m321.964 112.67-.468 429.18-114.99-37.398V-.008l146.78 38.806c93.954 25.252 151.45 74.336 150.52 160.36-.934 100.05-47.212 140.26-137.43 114.08v-197.3c0-23.845-44.407-25.241-44.407-3.267z" fill="#de0029"/>
    <path d="m153.684 421.23-54.225 18.237c-35.064 12.159-64.976-16.359-32.723-28.054l26.175-9.344-98.632-31.33c-30.386 10.29-58.902 32.263-57.028 63.121 1.87 31.32 73.387 38.805 128.55 47.688 51.417 8.412 98.163 3.737 140.71-11.224v-32.262zm168.75 120.63 100.5-35.067-101.44-32.255v64.98z" fill="#f3c202"/>
    <path d="m589.814 447.88 1.869-.47c43.94-15.424 62.639-36.938 57.968-57.034-7.48-33.66-61.238-51.898-143.98-57.977-59.364-4.205-117.79 8.882-174.82 28.516l-9.35 3.277 102.37 31.79 59.832-20.105c62.64-11.685 87.886 8.883 27.582 28.054l-29.918 10.28zm-383.31-148.67-45.347 15.424 45.347 14.027z" fill="#326db3"/>
    <path d="m422.934 506.79 166.88-58.903-108.45-33.67-159.87 54.7v5.618zm-216.43-103.32-52.823 17.766 52.823 16.831zm114.99 27.593v-66.86l102.37 31.792zm-228.58-28.989 113.59-40.674v-32.727l-45.346-14.027-164.54 55.636c-.468 0-1.402.462-2.337.462z" fill="#00aa9e"/>
  </g>
</svg>
