<?xml version="1.0" encoding="UTF-8" standalone="no"?>
<svg
   xmlns:dc="http://purl.org/dc/elements/1.1/"
   xmlns:cc="http://creativecommons.org/ns#"
   xmlns:rdf="http://www.w3.org/1999/02/22-rdf-syntax-ns#"
   xmlns:svg="http://www.w3.org/2000/svg"
   xmlns="http://www.w3.org/2000/svg"
   xmlns:sodipodi="http://sodipodi.sourceforge.net/DTD/sodipodi-0.dtd"
   xmlns:inkscape="http://www.inkscape.org/namespaces/inkscape"
   width="1073.6091"
   height="425.90155"
   viewBox="0 0 1073.6091 425.90156"
   id="svg3353"
   version="1.1"
   inkscape:version="1.0.2-2 (e86c870879, 2021-01-15)"
   sodipodi:docname="ppc.svg">
  <defs
     id="defs3355" />
  <sodipodi:namedview
     id="base"
     pagecolor="#ffffff"
     bordercolor="#666666"
     borderopacity="1.0"
     inkscape:pageopacity="0.0"
     inkscape:pageshadow="2"
     inkscape:zoom="0.59335935"
     inkscape:cx="570.2909"
     inkscape:cy="283.05763"
     inkscape:document-units="px"
     inkscape:current-layer="layer1"
     showgrid="false"
     fit-margin-top="0"
     fit-margin-left="0"
     fit-margin-right="0"
     fit-margin-bottom="0"
     units="px"
     inkscape:window-width="2560"
     inkscape:window-height="1417"
     inkscape:window-x="2552"
     inkscape:window-y="-8"
     inkscape:window-maximized="1"
     inkscape:document-rotation="0" />
  <metadata
     id="metadata3358">
    <rdf:RDF>
      <cc:Work
         rdf:about="">
        <dc:format>image/svg+xml</dc:format>
        <dc:type
           rdf:resource="http://purl.org/dc/dcmitype/StillImage" />
        <dc:title />
      </cc:Work>
    </rdf:RDF>
  </metadata>
  <g
     inkscape:label="Layer 1"
     inkscape:groupmode="layer"
     id="layer1"
     transform="translate(-260.52406,-222.85218)">
    <g
       id="g836"
       inkscape:export-xdpi="45.779999"
       inkscape:export-ydpi="45.779999">
      <path
         style="color:#000000;font-style:normal;font-variant:normal;font-weight:normal;font-stretch:normal;font-size:medium;line-height:normal;font-family:sans-serif;font-variant-ligatures:normal;font-variant-position:normal;font-variant-caps:normal;font-variant-numeric:normal;font-variant-alternates:normal;font-variant-east-asian:normal;font-feature-settings:normal;font-variation-settings:normal;text-indent:0;text-align:start;text-decoration:none;text-decoration-line:none;text-decoration-style:solid;text-decoration-color:#000000;letter-spacing:normal;word-spacing:normal;text-transform:none;writing-mode:lr-tb;direction:ltr;text-orientation:mixed;dominant-baseline:auto;baseline-shift:baseline;text-anchor:start;white-space:normal;shape-padding:0;shape-margin:0;inline-size:0;clip-rule:evenodd;display:inline;overflow:visible;visibility:visible;opacity:1;isolation:auto;mix-blend-mode:normal;color-interpolation:sRGB;color-interpolation-filters:linearRGB;solid-color:#000000;solid-opacity:1;vector-effect:none;fill:#ce4f32;fill-opacity:1;fill-rule:evenodd;stroke:none;stroke-width:1;stroke-linecap:butt;stroke-linejoin:miter;stroke-miterlimit:4;stroke-dasharray:none;stroke-dashoffset:0;stroke-opacity:1;color-rendering:auto;image-rendering:auto;shape-rendering:auto;text-rendering:auto;enable-background:accumulate;stop-color:#000000;stop-opacity:1"
         d="m 421.73823,222.85263 h 121.39699 c 77.62404,0 169.16463,37.80686 117.42824,165.16993 -51.73639,127.37606 -121.39699,145.2873 -177.12807,145.2873 h -37.80686 l 35.82249,-99.50403 c 39.80421,-1.98437 59.71279,-39.8042 65.66592,-57.70248 5.96609,-17.92421 13.92952,-51.74936 -31.84078,-51.74936 H 503.34398 L 379.94965,648.75373 H 260.52406 Z m 321.31093,-4.5e-4 h 121.4099 c 77.6111,0 169.16474,37.80686 117.4153,165.16994 -51.7234,127.37606 -121.384,145.2873 -177.1151,145.2873 h -37.8198 l 35.8225,-99.50403 c 39.8171,-1.98437 59.7128,-39.8042 65.6788,-57.70248 5.9532,-17.92421 13.9296,-51.74936 -31.8407,-51.74936 h -11.9581 l -123.3684,324.39974 h -119.4386 z m 243.1571,209.04666 c -42.7094,169.87797 22.16534,216.84148 121.05984,216.84148 h 67.6632 l 45.7703,-123.39433 h -81.5927 c -45.7703,0 -42.8132,-41.80155 -26.8734,-93.53794 l -126.02724,0.0908 z m 133.47184,-20.97211 c 20.3366,-43.9675 57.508,-86.58615 107.0006,-86.58615 h 71.632 l 35.8225,-101.4884 H 1222.697 c -64.797,0 -179.9555,13.79983 -230.82294,188.03564 l 127.80404,0.0389 z"
         id="path8"
         sodipodi:nodetypes="cscscccscccccscscccsccccssccsccsssccsccs" />
    </g>
  </g>
</svg>
