<?xml version="1.0" encoding="UTF-8" standalone="no"?>
<svg
   xmlns:dc="http://purl.org/dc/elements/1.1/"
   xmlns:cc="http://creativecommons.org/ns#"
   xmlns:rdf="http://www.w3.org/1999/02/22-rdf-syntax-ns#"
   xmlns:svg="http://www.w3.org/2000/svg"
   xmlns="http://www.w3.org/2000/svg"
   xmlns:sodipodi="http://sodipodi.sourceforge.net/DTD/sodipodi-0.dtd"
   xmlns:inkscape="http://www.inkscape.org/namespaces/inkscape"
   version="1.1"
   x="0px"
   y="0px"
   width="165.647"
   height="108.03799"
   viewBox="0 0 165.64701 108.038"
   id="svg137"
   sodipodi:docname="saturn-v2.svg"
   inkscape:version="1.0.2-2 (e86c870879, 2021-01-15)">
  <metadata
     id="metadata143">
    <rdf:RDF>
      <cc:Work
         rdf:about="">
        <dc:format>image/svg+xml</dc:format>
        <dc:type
           rdf:resource="http://purl.org/dc/dcmitype/StillImage" />
        <dc:title>Sega Saturn Logo</dc:title>
      </cc:Work>
    </rdf:RDF>
  </metadata>
  <defs
     id="defs141" />
  <sodipodi:namedview
     pagecolor="#ffffff"
     bordercolor="#666666"
     borderopacity="1"
     objecttolerance="10"
     gridtolerance="10"
     guidetolerance="10"
     inkscape:pageopacity="0"
     inkscape:pageshadow="2"
     inkscape:window-width="2560"
     inkscape:window-height="1417"
     id="namedview139"
     showgrid="false"
     inkscape:zoom="3.4109484"
     inkscape:cx="122.61298"
     inkscape:cy="106.52231"
     inkscape:window-x="2552"
     inkscape:window-y="-8"
     inkscape:window-maximized="1"
     inkscape:current-layer="svg137"
     inkscape:document-rotation="0" />
  <title
     id="title2">Sega Saturn Logo</title>
  <linearGradient
     id="SVGID_1_"
     gradientUnits="userSpaceOnUse"
     x1="38.512199"
     y1="155.3213"
     x2="70.132103"
     y2="123.7017"
     gradientTransform="translate(-4.2812101,-4.1360002)">
    <stop
       offset="0"
       stop-color="#999999"
       id="stop4" />
    <stop
       offset="0.98"
       stop-color="#F3F3F3"
       id="stop6" />
  </linearGradient>
  <linearGradient
     id="SVGID_2_"
     gradientUnits="userSpaceOnUse"
     x1="4.4208999"
     y1="193.53909"
     x2="36.637501"
     y2="161.3224"
     gradientTransform="translate(-4.2812101,-4.1360002)">
    <stop
       offset="0"
       stop-color="#999999"
       id="stop11" />
    <stop
       offset="0.98"
       stop-color="#F3F3F3"
       id="stop13" />
  </linearGradient>
  <linearGradient
     id="SVGID_3_"
     gradientUnits="userSpaceOnUse"
     x1="72.103996"
     y1="152.6436"
     x2="102.8901"
     y2="121.8574"
     gradientTransform="translate(-4.2812101,-4.1360002)">
    <stop
       offset="0"
       stop-color="#999999"
       id="stop18" />
    <stop
       offset="0.98"
       stop-color="#F3F3F3"
       id="stop20" />
  </linearGradient>
  <linearGradient
     id="SVGID_4_"
     gradientUnits="userSpaceOnUse"
     x1="101.3784"
     y1="155.9043"
     x2="135.2655"
     y2="122.0172"
     gradientTransform="translate(-4.2812101,-4.1360002)">
    <stop
       offset="0"
       stop-color="#999999"
       id="stop25" />
    <stop
       offset="0.98"
       stop-color="#F3F3F3"
       id="stop27" />
  </linearGradient>
  <linearGradient
     id="SVGID_5_"
     gradientUnits="userSpaceOnUse"
     x1="140.39549"
     y1="157.2148"
     x2="173.5679"
     y2="124.0427"
     gradientTransform="translate(-4.2812101,-4.1360002)">
    <stop
       offset="0"
       stop-color="#999999"
       id="stop32" />
    <stop
       offset="0.98"
       stop-color="#F3F3F3"
       id="stop34" />
  </linearGradient>
  <linearGradient
     id="SVGID_6_"
     gradientUnits="userSpaceOnUse"
     x1="41.523399"
     y1="197.4736"
     x2="76.365898"
     y2="162.6313"
     gradientTransform="translate(-4.2812101,-4.1360002)">
    <stop
       offset="0"
       stop-color="#999999"
       id="stop39" />
    <stop
       offset="0.98"
       stop-color="#F3F3F3"
       id="stop41" />
  </linearGradient>
  <linearGradient
     id="SVGID_7_"
     gradientUnits="userSpaceOnUse"
     x1="65.424797"
     y1="189.6338"
     x2="97.999802"
     y2="157.05881"
     gradientTransform="translate(-4.2812101,-4.1360002)">
    <stop
       offset="0"
       stop-color="#999999"
       id="stop46" />
    <stop
       offset="0.98"
       stop-color="#F3F3F3"
       id="stop48" />
  </linearGradient>
  <linearGradient
     id="SVGID_8_"
     gradientUnits="userSpaceOnUse"
     x1="99.466301"
     y1="192.6514"
     x2="132.3989"
     y2="159.7188"
     gradientTransform="translate(-4.2812101,-4.1360002)">
    <stop
       offset="0"
       stop-color="#999999"
       id="stop53" />
    <stop
       offset="0.98"
       stop-color="#F3F3F3"
       id="stop55" />
  </linearGradient>
  <linearGradient
     id="SVGID_9_"
     gradientUnits="userSpaceOnUse"
     x1="136.96291"
     y1="194.1104"
     x2="170.1333"
     y2="160.9399"
     gradientTransform="translate(-4.2812101,-4.1360002)">
    <stop
       offset="0"
       stop-color="#999999"
       id="stop60" />
    <stop
       offset="0.98"
       stop-color="#F3F3F3"
       id="stop62" />
  </linearGradient>
  <linearGradient
     id="SVGID_10_"
     gradientUnits="userSpaceOnUse"
     x1="173.21001"
     y1="193.8428"
     x2="205.4281"
     y2="161.62469"
     gradientTransform="translate(-4.2812101,-4.1360002)">
    <stop
       offset="0"
       stop-color="#999999"
       id="stop67" />
    <stop
       offset="0.98"
       stop-color="#F3F3F3"
       id="stop69" />
  </linearGradient>
  <radialGradient
     id="SVGID_11_"
     cx="157.4951"
     cy="52.9604"
     r="22.196199"
     gradientUnits="userSpaceOnUse"
     gradientTransform="translate(-21.714985,-4.1359988)">
    <stop
       offset="0.43"
       stop-color="#FFFFFF"
       id="stop74" />
    <stop
       offset="0.64"
       stop-color="#7A7A7A"
       id="stop76" />
    <stop
       offset="0.99"
       stop-color="#000000"
       id="stop78" />
  </radialGradient>
  <path
     style="fill:url(#SVGID_11_)"
     d="m 145.28301,42.276001 c 1.59,-0.151 2.738,-0.154 3.447,-0.015 v 0.104 c 2.266,1.442 3.504,2.889 3.608,4.536 -0.827,2.577 -3.404,5.466 -7.528,8.663 -4.947,3.708 -11.752,7.524 -20.104,11.441 -3.791,1.729 -7.782,3.39 -11.978,5.004 -4.814,1.854 -4.092,14.738 -0.559,13.456 6.304,-2.284 12.21,-4.711 17.69,-7.22 9.279,-4.332 16.807,-8.559 22.478,-12.887 7.217,-5.57 11.34,-10.825 12.06,-15.879 1.336,-4.886 0.169,-9.239 -3.536,-13.177 -1.453,-1.547 -16.298,6.042 -15.578,5.974 z"
     id="path81"
     inkscape:export-xdpi="296.73001"
     inkscape:export-ydpi="296.73001" />
  <radialGradient
     id="SVGID_12_"
     cx="50.105499"
     cy="85.897003"
     r="22.9105"
     gradientUnits="userSpaceOnUse"
     gradientTransform="translate(-21.714985,-4.1359988)">
    <stop
       offset="0"
       stop-color="#FFFFFF"
       id="stop83" />
    <stop
       offset="1"
       stop-color="#000000"
       id="stop85" />
  </radialGradient>
  <path
     style="fill:url(#SVGID_12_)"
     d="m 61.697015,86.514001 c -3.623,0.684 -7.145,1.281 -10.599,1.833 l 0.104,-0.104 c -7.009,1.031 -13.095,1.546 -18.35,1.65 h -0.104 c -4.535,0 -8.043,-0.308 -10.309,-1.135 -1.547,-0.619 -3.093,-0.515 -4.64,0.208 -1.65,0.619 -2.681,1.854 -3.3,3.4 -0.62,1.65 -0.516,3.197 0.208,4.744 0.719,1.547 1.854,2.682 3.401,3.300999 3.3,1.234 8.144,1.854 14.845,1.854 5.67,-0.104 12.271,-0.619 19.899,-1.754 h 0.104 c 3.813,-0.528999 7.732,-1.190999 11.749,-1.968999 3.8,-0.731 0.833,-12.751 -3.008,-12.028 z"
     id="path88"
     inkscape:export-xdpi="296.73001"
     inkscape:export-ydpi="296.73001" />
  <radialGradient
     id="SVGID_13_"
     cx="61.441898"
     cy="37.691399"
     r="52.493401"
     gradientUnits="userSpaceOnUse"
     gradientTransform="translate(-21.714985,-4.1359988)">
    <stop
       offset="0.8128"
       stop-color="#FFFFFF"
       id="stop90" />
    <stop
       offset="1"
       stop-color="#575757"
       id="stop92" />
  </radialGradient>
  <path
     style="fill:url(#SVGID_13_)"
     d="m 60.891015,20.103001 c -3.487,1.156 -6.888,2.359 -10.206,3.601 -7.732,2.993 -14.641,5.981 -20.827,9.178 h 0.104 c -6.701,3.401 -12.164,6.702 -16.392,10.206 v -0.104 c -5.1550001,4.02 -8.6590001,7.94 -10.5170001,11.648 v 0.104 c -2.88500003,5.259 -3.09300003,10.106 -0.72,14.641 1.443,4.432 5.875,6.805 13.4020001,7.217 4.328,0.308 10.206,-0.312 17.63,-1.754 3.73,-0.77 7.983,-1.826 12.783,-3.107 2.892,-0.773 -0.548,-12.679 -3.397,-11.906 -4.417,1.203 -8.352,2.158 -11.863,2.849 -6.082,1.235 -10.825,1.75 -14.433,1.546 -1.443,0 -2.474,-0.104 -2.885,-0.104 l -0.104,-0.104 c -0.308,-1.031 -0.204,-2.266 0.516,-3.504 v -0.104 c 1.342,-2.37 3.712,-4.947 7.217,-7.628 3.816,-2.989 8.559,-5.978 14.33,-8.867 5.774,-3.093 12.271,-5.875 19.488,-8.659 v 0.104 c 2.044,-0.77 4.124,-1.525 6.232,-2.259 5.234,-1.818 3.949,-14.419 -0.358,-12.994 z"
     id="path95"
     inkscape:export-xdpi="296.73001"
     inkscape:export-ydpi="296.73001" />
  <path
     style="fill:#cccccc"
     d="m 112.24901,20.769001 c 3.981,-0.512 7.865,-0.87 11.635,-1.084 7.424,-0.619 14.125,-0.516 20,0.104 1.753,0.208 3.196,-0.308 4.535,-1.339 1.342,-1.135 2.063,-2.477 2.27,-4.124 0.207,-1.754 -0.309,-3.3 -1.339,-4.5389998 -1.135,-1.339 -2.477,-2.162 -4.124,-2.266 -6.601,-0.723 -14.021,-0.723 -22.165,-0.208 -5.23,0.354 -10.65,0.949 -16.299,1.787 -2.596,0.382 1.85,12.1339998 5.487,11.6689998 z"
     id="path97"
     inkscape:export-xdpi="296.73001"
     inkscape:export-ydpi="296.73001" />
  <radialGradient
     id="SVGID_14_"
     cx="162.86819"
     cy="1.0562"
     r="29.353399"
     gradientUnits="userSpaceOnUse"
     gradientTransform="translate(-21.714985,-4.1359988)">
    <stop
       offset="0"
       stop-color="#FFFFFF"
       id="stop99" />
    <stop
       offset="1"
       stop-color="#000000"
       id="stop101" />
  </radialGradient>
  <path
     style="fill:url(#SVGID_14_)"
     d="m 112.24901,20.769001 c 3.981,-0.512 7.865,-0.87 11.635,-1.084 7.424,-0.619 14.125,-0.516 20,0.104 1.753,0.208 3.196,-0.308 4.535,-1.339 1.342,-1.135 2.063,-2.477 2.27,-4.124 0.207,-1.754 -0.309,-3.3 -1.339,-4.5389998 -1.135,-1.339 -2.477,-2.162 -4.124,-2.266 -6.601,-0.723 -14.021,-0.723 -22.165,-0.208 -5.23,0.354 -10.65,0.949 -16.299,1.787 -2.596,0.382 1.85,12.1339998 5.487,11.6689998 z"
     id="path104"
     inkscape:export-xdpi="296.73001"
     inkscape:export-ydpi="296.73001" />
  <linearGradient
     id="SVGID_15_"
     gradientUnits="userSpaceOnUse"
     x1="53.883301"
     y1="44.713902"
     x2="44.934898"
     y2="37.913101"
     gradientTransform="translate(-21.714985,-4.1359988)">
    <stop
       offset="0"
       stop-color="#000000"
       id="stop106" />
    <stop
       offset="1"
       stop-color="#FFFFFF"
       id="stop108" />
  </linearGradient>
  <path
     style="fill:url(#SVGID_15_)"
     d="m 9.3260149,57.980001 c 0,6.684 4.2780001,6.197 4.2710001,6.143 0,-0.003 -0.007,-0.003 -0.025,-0.003 l -0.104,-0.104 c -0.308,-1.031 -0.204,-2.266 0.516,-3.504 v -0.104 c 1.342,-2.37 3.712,-4.947 7.217,-7.628 3.816,-2.989 8.559,-5.978 14.33,-8.867 5.774,-3.093 12.271,-5.875 19.488,-8.659 v 0.104 c 2.044,-0.77 4.124,-1.525 6.232,-2.259 2.305,-0.802 3.347,-3.698 3.422,-6.562 -2.696,-0.369 -5.474,-0.562 -8.316,-0.562 -6.143,0 -11.996,0.902 -17.315,2.531 -3.226,1.428 -6.282,2.878 -9.182,4.378 h 0.104 c -2.087,1.06 -4.052,2.109 -5.903,3.157 -7.462,5.719 -14.7350001,13.469 -14.7350001,21.939 z"
     id="path111"
     inkscape:export-xdpi="296.73001"
     inkscape:export-ydpi="296.73001" />
  <path
     style="fill:none;stroke:#333333;stroke-width:1.44;stroke-linecap:round;stroke-linejoin:round"
     d="m 150.68801,14.325001 c 0.207,-1.754 -0.309,-3.3 -1.339,-4.5389998 -1.135,-1.339 -2.477,-2.162 -4.124,-2.266 -6.601,-0.723 -14.021,-0.723 -22.165,-0.208 -7.633,0.516 -15.673,1.546 -24.228995,3.0929998 -8.146,1.443 -16.395,3.404 -24.642,5.67 -8.248,2.27 -16.08,4.847 -23.504,7.628 -7.732,2.993 -14.641,5.981 -20.827,9.178 h 0.104 c -6.701,3.401 -12.164,6.702 -16.392,10.206 v -0.104 c -5.1550001,4.02 -8.6590001,7.94 -10.5170001,11.648 v 0.104 c -2.88500003,5.259 -3.09300003,10.106 -0.72,14.641 1.443,4.432 5.795,6.485 13.3230001,6.896 4.328,0.308 10.286,0.009 17.71,-1.434 5.978,-1.235 13.298,-3.197 22.062,-5.67 6.39,-1.958 14.537,-4.535 24.432,-7.836 l 24.538995,-8.04 c 8.967,-2.989 16.287,-5.259 21.958,-6.805 6.908,-2.062 12.371,-3.297 16.495,-3.917 2.889,-0.412 4.847,-0.516 5.878,-0.312 v 0.104 c 2.266,1.442 3.504,2.889 3.608,4.536 -0.827,2.577 -3.404,5.466 -7.528,8.663 -4.947,3.708 -11.752,7.524 -20.104,11.441 -8.144,3.712 -17.215,7.116 -27.216995,10.413 h -0.104 c -7.732,2.474 -15.668,4.64 -23.813,6.598 -7.939,1.858 -15.364,3.197 -22.477,4.332 l 0.104,-0.104 c -7.009,1.031 -13.095,1.546 -18.35,1.65 h -0.104 c -4.535,0 -8.043,-0.308 -10.309,-1.135 -1.547,-0.619 -3.093,-0.515 -4.64,0.208 -1.65,0.619 -2.681,1.854 -3.3,3.4 -0.62,1.65 -0.516,3.197 0.208,4.744 0.719,1.547 1.854,2.682 3.401,3.300999 3.3,1.234 8.144,1.854 14.845,1.854 5.67,-0.104 12.271,-0.619 19.899,-1.754 h 0.104 c 7.421,-1.030999 15.257,-2.575999 23.401,-4.431999 h 0.104 c 8.456,-2.062 16.703,-4.332 24.743995,-6.909 10.517,-3.297 20.104,-7.009 28.658,-10.925 9.279,-4.332 16.807,-8.559 22.478,-12.887 7.217,-5.57 11.34,-10.825 12.06,-15.879 1.858,-6.802 -1.131,-12.576 -9.071,-17.626 -2.474,-1.962 -7.112,-2.477 -14.125,-1.546 h -0.1 c -4.54,0.719 -10.622,2.062 -18.146,4.224 -5.773,1.65 -13.198,3.919 -22.477,7.013 l -24.535995,8.04 c -9.794,3.197 -17.734,5.774 -24.02,7.628 -8.352,2.478 -15.26,4.332 -21.035,5.466 -6.082,1.235 -10.825,1.75 -14.433,1.546 -1.443,0 -2.474,-0.104 -2.885,-0.104 l -0.104,-0.104 c -0.308,-1.031 -0.204,-2.266 0.516,-3.504 v -0.104 c 1.342,-2.37 3.712,-4.947 7.217,-7.628 3.816,-2.989 8.559,-5.978 14.33,-8.867 5.774,-3.093 12.271,-5.875 19.488,-8.659 v 0.104 c 7.113,-2.681 14.638,-5.155 22.474,-7.32 7.94,-2.27 15.772,-4.124 23.607995,-5.463 7.939,-1.546 15.568,-2.477 22.785,-2.889 7.424,-0.619 14.125,-0.516 20,0.104 1.753,0.208 3.196,-0.308 4.535,-1.339 1.342,-1.134 2.062,-2.477 2.269,-4.124 z"
     id="path113"
     inkscape:export-xdpi="296.73001"
     inkscape:export-ydpi="296.73001" />
  <radialGradient
     id="SVGID_16_"
     cx="113.4971"
     cy="35.629902"
     r="47.610298"
     gradientUnits="userSpaceOnUse"
     gradientTransform="translate(-21.714985,-4.1359988)">
    <stop
       offset="0.04"
       stop-color="#FFFFFF"
       id="stop115" />
    <stop
       offset="0.04"
       stop-color="#FFFFFF"
       id="stop117" />
    <stop
       offset="0.23"
       stop-color="#6E93E1"
       id="stop119" />
    <stop
       offset="1"
       stop-color="#363499"
       id="stop121" />
  </radialGradient>
  <circle
     style="fill:url(#SVGID_16_);stroke:#33317a;stroke-width:2.88;stroke-linecap:round;stroke-linejoin:round"
     cx="83.19101"
     cy="54.018997"
     r="52.578999"
     id="circle124"
     inkscape:export-xdpi="296.73001"
     inkscape:export-ydpi="296.73001" />
  <linearGradient
     id="SVGID_17_"
     gradientUnits="userSpaceOnUse"
     x1="110.5596"
     y1="63.437"
     x2="106.9759"
     y2="51.730499"
     gradientTransform="translate(-21.714985,-4.1359988)">
    <stop
       offset="0"
       stop-color="#000000"
       id="stop126" />
    <stop
       offset="0.9893"
       stop-color="#FFFFFF"
       id="stop128" />
  </linearGradient>
  <path
     style="fill:url(#SVGID_17_)"
     d="m 30.401015,62.824001 c -0.604,0.116 -16.489,3.589 -19.115,0.964 -0.771,-0.771 1.671,1.196 4.16,4.434 0.316,0.411 0.112,1.094 -0.257,1.935 -0.084,0.193 -0.176,0.253 -0.334,0.461 -0.074,0.099 -0.096,0.497 -0.109,0.598 -0.04,0.322 -0.21,0.578 -0.257,0.862 -0.15,0.901 -0.681,1.62 -0.795,2.195 -0.043,0.217 0.281,0.414 0.259,0.592 -0.023,0.191 -0.411,0.239 -0.398,0.391 0.013,0.152 -0.439,0.203 -0.4,0.329 0.011,0.035 -0.014,0.16 0.067,0.179 0.308,0.071 1.039,0.142 1.141,0.157 0.157,0.022 1.572,0.23 3.602,0.246 2.03,0.015 4.526,0.019 6.712,-0.224 1.338,-0.148 2.733,-0.337 4.045,-0.529 1.724,-0.253 3.303,-0.511 4.416,-0.688 1.035,-0.164 1.498,-0.042 1.644,-0.028 5.699,-1.242 12.54,-3.085 20.604,-5.362 6.39,-1.958 14.538,-4.535 24.432,-7.836 l 24.538995,-8.04 c 4.947,-1.65 9.394,-3.079 13.338,-4.289 3.207,-0.984 6.078,-1.822 8.62,-2.517 3.129,-0.931 5.957,-1.693 8.502,-2.309 3.078,-0.745 5.734,-1.271 7.993,-1.607 2.889,-0.412 4.847,-0.516 5.878,-0.312 v 0.104 c 0.87,0.555 4.665,0.114 6.583,3.014 3.09,4.668 4.604,13.073 5.863,11.348 1.801,-2.466 2.886,-4.879 3.222,-7.249 1.858,-6.802 -1.131,-12.318 -9.07,-17.369 -2.474,-1.962 -7.113,-2.478 -14.126,-1.546 h -0.1 c -2.75,0.437 -6.067,1.103 -9.931,2.041 -2.509,0.608 -5.251,1.074 -8.216,1.926 -2.863,0.82 -6.135,1.79 -9.837,2.939 -3.758,1.167 -7.961,2.513 -12.64,4.073 l -24.534995,8.04 c -6.941,2.266 -12.948,4.221 -18.099,5.828 z"
     id="path131"
     inkscape:export-xdpi="296.73001"
     inkscape:export-ydpi="296.73001" />
  <path
     style="fill:none;stroke:#333333;stroke-linecap:round;stroke-linejoin:round"
     d="m 131.92601,32.060001 c -2.51,0.609 -6.005,1.618 -8.97,2.47 -5.773,1.65 -13.198,3.919 -22.477,7.013 l -24.535995,8.04 c -7.467,2.438 -13.784,4.411 -19.184,5.987 -2.343,0.684 -3.99,1.048 -4.832,1.296 -8.151,2.416 -28.108,8.23 -35.859,7.381"
     id="path133"
     inkscape:export-xdpi="296.73001"
     inkscape:export-ydpi="296.73001" />
  <path
     style="fill:none;stroke:#333333;stroke-linecap:round;stroke-linejoin:round"
     d="m 33.220015,74.841001 c 5.699,-1.242 14.144,-3.394 22.208,-5.67 6.39,-1.958 14.537,-4.535 24.432,-7.836 l 24.538995,-8.04 c 8.967,-2.989 16.287,-5.259 21.958,-6.805 3.129,-0.931 6.733,-1.823 9.278,-2.439"
     id="path135"
     inkscape:export-xdpi="296.73001"
     inkscape:export-ydpi="296.73001" />
</svg>
