<?xml version="1.0" encoding="UTF-8" standalone="no"?>
<svg
   width="630.00952"
   height="371.8045"
   id="svg6120"
   version="1.1"
   inkscape:version="1.1.2 (b8e25be833, 2022-02-05)"
   sodipodi:docname="segacd.svg"
   inkscape:export-filename="C:\ScummIcons\platform - rest\default\icons\platforms\segacd.png"
   inkscape:export-xdpi="82.080002"
   inkscape:export-ydpi="82.080002"
   xmlns:inkscape="http://www.inkscape.org/namespaces/inkscape"
   xmlns:sodipodi="http://sodipodi.sourceforge.net/DTD/sodipodi-0.dtd"
   xmlns="http://www.w3.org/2000/svg"
   xmlns:svg="http://www.w3.org/2000/svg"
   xmlns:rdf="http://www.w3.org/1999/02/22-rdf-syntax-ns#"
   xmlns:cc="http://creativecommons.org/ns#"
   xmlns:dc="http://purl.org/dc/elements/1.1/">
  <defs
     id="defs6122" />
  <sodipodi:namedview
     id="base"
     pagecolor="#ffffff"
     bordercolor="#666666"
     borderopacity="1.0"
     inkscape:pageopacity="0.0"
     inkscape:pageshadow="2"
     inkscape:zoom="2"
     inkscape:cx="337.25"
     inkscape:cy="167"
     inkscape:document-units="px"
     inkscape:current-layer="layer1"
     showgrid="false"
     inkscape:window-width="2560"
     inkscape:window-height="1377"
     inkscape:window-x="-8"
     inkscape:window-y="-8"
     inkscape:window-maximized="1"
     fit-margin-top="0"
     fit-margin-left="0"
     fit-margin-right="0"
     fit-margin-bottom="0"
     inkscape:document-rotation="0"
     inkscape:pagecheckerboard="0"
     showguides="true" />
  <metadata
     id="metadata6125">
    <rdf:RDF>
      <cc:Work
         rdf:about="">
        <dc:format>image/svg+xml</dc:format>
        <dc:type
           rdf:resource="http://purl.org/dc/dcmitype/StillImage" />
      </cc:Work>
    </rdf:RDF>
  </metadata>
  <g
     inkscape:label="Layer 1"
     inkscape:groupmode="layer"
     id="layer1"
     transform="translate(86.135056,-539.29315)">
    <rect
       style="color:#000000;display:inline;overflow:visible;visibility:visible;fill:#b2ae85;fill-opacity:1;stroke:none;stroke-width:1.36613;marker:none;enable-background:accumulate"
       id="rect6249"
       width="630.00952"
       height="371.8045"
       x="-86.135056"
       y="539.29315"
       inkscape:export-xdpi="78.019997"
       inkscape:export-ydpi="78.019997"
       ry="0"
       inkscape:export-filename="C:\ScummIcons\platform - rest\default\icons\platforms\segacd.png" />
    <path
       inkscape:connector-curvature="0"
       id="path6225"
       d="m -74.671693,899.63415 1.37e-4,-348.87752 H 532.41094 l 5e-4,348.878 z M 211.48183,655.99317 h -3.80634 c 0,3.06324 -2.18414,4.41681 -3.98344,4.89893 h -83.4367 v -27.01409 h 54.13691 c 0.67854,0.008 3.07771,2.40785 3.43391,4.26401 h 3.08307 v -25.36489 h -3.46037 c 0,2.55496 -2.02193,4.95927 -3.35005,4.94365 h -53.84347 v -23.92127 h 80.79306 c 2.125,0.42187 4.34149,3.10651 4.34149,4.9972 h 3.06667 v -26.01927 h -3.01062 c -0.125,1.875 -1.6229,4.40032 -3.96665,4.83782 H 86.276589 v 2.14655 c 3.86699,0.0663 5.626032,3.11858 5.626032,4.44441 v 86.87106 c -0.2516,1.73296 -1.905425,3.95663 -5.842925,3.72856 v 2.89784 H 204.07681 c 1.46649,0.7375 3.38803,1.65281 3.70309,4.87475 h 3.76443 z M 77.641191,646.74023 c -0.713228,-25.82639 -36.843314,-30.27552 -55.852028,-31.2115 -17.7497017,-0.87398 -34.644476,-2.75151 -38.213701,-6.32073 -3.401678,-3.40168 -4.681221,-7.42217 2.266255,-12.46789 5.0047503,-3.63478 13.0455303,-5.43272 26.499449,-5.48253 19.623142,-0.0727 40.187875,5.80633 46.109455,13.18774 1.94091,2.4194 0.02282,2.94117 3.04827,3.90762 l 16.08789,-24.0173 -2.697053,-1.44516 c 0,0 -3.117898,1.98796 -4.900438,1.98796 -4.47304,0 -27.651023,-11.1859 -58.287438,-11.19481 -25.983483,0 -56.716201,8.5214 -57.500001,32.05089 0,7.00727 -0.140769,16.72331 20.268132,25.83854 20.5280543,9.16845 74.896588,0.42526 74.896588,16.39606 0,16.8934 -44.5762037,17.17889 -68.23046,8.90062 -3.467669,-1.21358 -15.289023,-3.62959 -14.67993,-13.10398 l -2.551205,-0.55095 -14.989235,25.08187 c 3.236984,3.23698 2.527094,0.32993 7.04002,0.32993 4.79276,0.26578 25.362611,10.82792 59.216653,11.44541 30.03268,0.5478 61.626633,-8.97541 62.468777,-33.33179 z m 431.843249,229.33029 -3.3e-4,-171.52725 -561.228666,-0.63764 9.6e-5,172.802 z M 202.4568,734.42559 C 2.1847863,771.8093 36.965444,863.8162 211.36747,843.74334 -64.769184,901.28969 -144.18414,780.1858 202.4568,734.42559 Z m 38.79375,28.66541 17.41192,63.76527 C 404.7612,810.41256 471.51052,716.80988 233.24128,727.43364 428.4563,702.00072 497.30856,729.18807 480.64301,757.15569 463.97745,785.12332 366.04526,821.76621 240.44482,838.9293 Z M 363.76162,661.59994 c -0.0415,-2.07366 -3.98225,-1.23577 -6.02675,-4.77695 v -24.48816 c -0.0442,-0.92808 2.48306,-3.48564 5.75343,-3.61822 l -0.0723,-2.59979 h -63.52332 c -1.46111,-1.43557 -2.52475,-2.92797 -2.81838,-4.36798 h -3.66388 v 23.61922 h 3.09202 c 1.5534,-1.10938 1.02035,-3.75086 3.98066,-4.622 l 34.31963,0.0661 v 13.61599 c -119.40025,37.34247 -112.61097,-92.2614 -6.44314,-56.74548 11.09246,4.52268 5.54381,9.07616 11.1028,9.07848 l 14.36446,-23.95277 c -1.5,-2.46906 -4.03794,0.51057 -6.86836,0.33014 -5.80964,0 -26.57667,-8.71527 -51.16975,-8.81434 -35.35773,0.0844 -76.78959,12.76665 -76.78959,53.93367 2.34579,39.49365 45.12058,51.95831 79.00168,49.31357 16.32565,0 44.60999,-4.70131 65.76079,-15.97148 z m 40.57791,12.05482 c -1.59268,-0.007 -5.941,-1.17582 -5.85594,-5.61719 l 9.57297,-17.33839 53.81955,0.11298 c 1.1233,2.45647 9.81737,15.36618 9.59088,18.359 0,0.64351 -0.0506,4.11265 -5.79586,4.56298 v 2.7576 l 43.748,-3e-4 v -2.65902 c -3.16702,-0.18627 -5.28866,-0.99566 -6.43188,-2.2695 l -51.34797,-88.13608 c 0.0625,-3.59186 4.33789,-3.93363 5.43789,-4.62059 v -2.81258 h -42.13735 l -0.0193,2.78133 c 4.2767,0.31216 5.99816,2.84811 5.37944,6.07051 l -48.68481,85.93401 c -2.15266,1.88794 -3.71268,3.17164 -6.62681,2.93364 v 2.6201 h 39.41359 z m 11.23191,-36.87115 19.39576,-35.77344 19.4223,35.81274 z"
       style="fill:#000000;fill-opacity:1"
       sodipodi:nodetypes="cccccccccccccccccccccccccccccccccccssssscccsccsssccccsccccccccccccscccccccccccccccccccccccccccccccccccccccccccccccc"
       inkscape:export-filename="C:\ScummIcons\platform - rest\default\icons\platforms\segacd.png"
       inkscape:export-xdpi="78.019997"
       inkscape:export-ydpi="78.019997" />
  </g>
</svg>
