<?xml version="1.0" encoding="UTF-8" standalone="no"?>
<svg
   xmlns:dc="http://purl.org/dc/elements/1.1/"
   xmlns:cc="http://creativecommons.org/ns#"
   xmlns:rdf="http://www.w3.org/1999/02/22-rdf-syntax-ns#"
   xmlns:svg="http://www.w3.org/2000/svg"
   xmlns="http://www.w3.org/2000/svg"
   xmlns:xlink="http://www.w3.org/1999/xlink"
   xmlns:sodipodi="http://sodipodi.sourceforge.net/DTD/sodipodi-0.dtd"
   xmlns:inkscape="http://www.inkscape.org/namespaces/inkscape"
   id="mnemonic"
   viewBox="0 0 170 136.02"
   version="1.1"
   sodipodi:docname="shockwave.svg"
   inkscape:version="1.0.2-2 (e86c870879, 2021-01-15)"
   width="170"
   height="136.02">
  <metadata
     id="metadata25">
    <rdf:RDF>
      <cc:Work
         rdf:about="">
        <dc:format>image/svg+xml</dc:format>
        <dc:type
           rdf:resource="http://purl.org/dc/dcmitype/StillImage" />
        <dc:title>shockwave_app_RGB</dc:title>
      </cc:Work>
    </rdf:RDF>
  </metadata>
  <sodipodi:namedview
     pagecolor="#ffffff"
     bordercolor="#666666"
     borderopacity="1"
     objecttolerance="10"
     gridtolerance="10"
     guidetolerance="10"
     inkscape:pageopacity="0"
     inkscape:pageshadow="2"
     inkscape:window-width="2560"
     inkscape:window-height="1417"
     id="namedview23"
     showgrid="false"
     inkscape:zoom="2.1104167"
     inkscape:cx="89.08607"
     inkscape:cy="115.53886"
     inkscape:window-x="2552"
     inkscape:window-y="-8"
     inkscape:window-maximized="1"
     inkscape:current-layer="mnemonic"
     inkscape:document-rotation="0" />
  <defs
     id="defs14">
    <style
       id="style2">.cls-1,.cls-2{fill-rule:evenodd;}.cls-1{fill:url(#linear-gradient);}.cls-2{fill:url(#linear-gradient-2);}</style>
    <linearGradient
       id="linear-gradient-2"
       x1="35"
       y1="117"
       x2="205"
       y2="117"
       gradientUnits="userSpaceOnUse"
       xlink:href="#linear-gradient"
       gradientTransform="translate(-35,-49)">
      <stop
         offset="0"
         stop-color="#ffcc00"
         id="stop9" />
      <stop
         offset="1"
         stop-color="#d90000"
         id="stop11" />
    </linearGradient>
  </defs>
  <title
     id="title16">shockwave_app_RGB</title>
  <path
     class="cls-2"
     d="M 0,6.54 A 6.54,6.54 0 0 1 6.54,0 H 6.46 A 6.54,6.54 0 0 1 13,6.54 V 63.35 A 6.54,6.54 0 0 1 6.46,69.89 H 6.54 A 6.54,6.54 0 0 1 0,63.35 Z M 20,32.93 A 6.53,6.53 0 0 1 26.54,26.4 H 26.46 A 6.53,6.53 0 0 1 33,32.93 v 56.81 a 6.54,6.54 0 0 1 -6.54,6.54 h 0.08 A 6.54,6.54 0 0 1 20,89.74 Z m 20,17.85 a 6.54,6.54 0 0 1 6.54,-6.54 H 46.46 A 6.54,6.54 0 0 1 53,50.78 v 56.81 a 6.54,6.54 0 0 1 -6.54,6.54 h 0.08 A 6.54,6.54 0 0 1 40,107.59 Z m 19,2.51 a 6.53,6.53 0 0 1 6.54,-6.53 H 65.46 A 6.53,6.53 0 0 1 72,53.29 v 56.82 a 6.53,6.53 0 0 1 -6.54,6.53 h 0.08 A 6.53,6.53 0 0 1 59,110.11 Z m 20,-5 c 0,-3.61 2.39,-6.54 6,-6.54 3.61,0 7,2.93 7,6.54 v 56.81 a 6.54,6.54 0 0 1 -6.54,6.54 h 0.08 A 6.54,6.54 0 0 1 79,105.1 V 48.27 Z m 19,-9.81 a 6.53,6.53 0 0 1 6.54,-6.53 h 0.92 a 6.53,6.53 0 0 1 6.54,6.51 v 57 a 6.54,6.54 0 0 1 -6.54,6.54 h -0.92 A 6.54,6.54 0 0 1 98,95.46 v -57 z m 20,-0.25 a 6.54,6.54 0 0 1 6.54,-6.54 h -0.08 A 6.54,6.54 0 0 1 131,38.21 V 95 a 6.54,6.54 0 0 1 -6.54,6.54 h 0.08 A 6.54,6.54 0 0 1 118,95 V 38.21 Z m 20,13.07 a 6.53,6.53 0 0 1 6.54,-6.53 h -0.08 A 6.53,6.53 0 0 1 151,51.3 v 56.8 a 6.53,6.53 0 0 1 -6.54,6.53 h 0.08 A 6.53,6.53 0 0 1 138,108.1 V 51.28 Z m 19,21.37 a 6.54,6.54 0 0 1 6.54,-6.54 h -0.08 a 6.54,6.54 0 0 1 6.54,6.54 v 56.81 a 6.54,6.54 0 0 1 -6.54,6.54 h 0.08 A 6.54,6.54 0 0 1 157,129.48 V 72.65 Z"
     id="path20"
     style="fill:url(#linear-gradient-2);fill-opacity:1"
     inkscape:export-filename="C:\ScummIcons\platform\shockwave.png"
     inkscape:export-xdpi="289.13"
     inkscape:export-ydpi="289.13" />
</svg>
