<?xml version="1.0" encoding="UTF-8" standalone="no"?>
<svg
   xmlns:dc="http://purl.org/dc/elements/1.1/"
   xmlns:cc="http://creativecommons.org/ns#"
   xmlns:rdf="http://www.w3.org/1999/02/22-rdf-syntax-ns#"
   xmlns:svg="http://www.w3.org/2000/svg"
   xmlns="http://www.w3.org/2000/svg"
   xmlns:sodipodi="http://sodipodi.sourceforge.net/DTD/sodipodi-0.dtd"
   xmlns:inkscape="http://www.inkscape.org/namespaces/inkscape"
   version="1.1"
   id="Capa_1"
   x="0px"
   y="0px"
   viewBox="0 0 18 18"
   xml:space="preserve"
   sodipodi:docname="wii.svg"
   width="18"
   height="18"
   inkscape:version="1.0.2-2 (e86c870879, 2021-01-15)"><metadata
   id="metadata47"><rdf:RDF><cc:Work
       rdf:about=""><dc:format>image/svg+xml</dc:format><dc:type
         rdf:resource="http://purl.org/dc/dcmitype/StillImage" /><dc:title></dc:title></cc:Work></rdf:RDF></metadata><defs
   id="defs45" /><sodipodi:namedview
   pagecolor="#ffffff"
   bordercolor="#666666"
   borderopacity="1"
   objecttolerance="10"
   gridtolerance="10"
   guidetolerance="10"
   inkscape:pageopacity="0"
   inkscape:pageshadow="2"
   inkscape:window-width="2560"
   inkscape:window-height="1377"
   id="namedview43"
   showgrid="false"
   inkscape:zoom="35.262016"
   inkscape:cx="3.3398694"
   inkscape:cy="8.4636964"
   inkscape:window-x="-8"
   inkscape:window-y="-8"
   inkscape:window-maximized="1"
   inkscape:current-layer="Capa_1" />
<circle
   style="fill:#00beea;fill-opacity:1;stroke-width:1.47903"
   id="path872"
   cx="9"
   cy="9"
   r="9"
   inkscape:export-xdpi="2730.6699"
   inkscape:export-ydpi="2730.6699" /><g
   id="g10"
   style="fill:#ffffff;fill-opacity:1"
   transform="translate(1.4746747,1.7866259)"
   inkscape:export-xdpi="2730.6699"
   inkscape:export-ydpi="2730.6699">
	<g
   id="g8"
   style="fill:#ffffff;fill-opacity:1">
		<path
   style="fill:#ffffff;fill-opacity:1"
   d="M 5.823,9.66 4.636,5.259 3.434,9.66 C 3.34,9.994 3.267,10.233 3.211,10.379 3.156,10.524 3.06,10.654 2.923,10.77 2.786,10.884 2.604,10.943 2.378,10.943 2.194,10.943 2.043,10.908 1.924,10.839 1.806,10.772 1.71,10.674 1.636,10.549 1.562,10.424 1.502,10.276 1.456,10.104 1.409,9.931 1.367,9.773 1.331,9.625 L 0.11,4.682 C 0.037,4.396 0,4.177 0,4.026 0,3.836 0.067,3.675 0.2,3.546 0.334,3.416 0.499,3.351 0.696,3.351 c 0.271,0 0.452,0.087 0.545,0.26 0.094,0.173 0.176,0.425 0.246,0.756 L 2.448,8.653 3.524,4.642 C 3.604,4.335 3.676,4.101 3.739,3.941 3.802,3.781 3.906,3.642 4.05,3.525 4.194,3.408 4.389,3.35 4.636,3.35 c 0.25,0 0.445,0.061 0.583,0.183 0.139,0.122 0.235,0.254 0.288,0.398 0.053,0.144 0.125,0.381 0.215,0.711 L 6.808,8.653 7.769,4.367 C 7.816,4.144 7.86,3.97 7.902,3.843 7.944,3.716 8.015,3.602 8.118,3.503 8.22,3.402 8.367,3.353 8.56,3.353 c 0.194,0 0.358,0.064 0.493,0.193 0.136,0.128 0.203,0.29 0.203,0.483 0,0.137 -0.037,0.355 -0.11,0.656 L 7.924,9.626 C 7.841,9.96 7.772,10.204 7.716,10.36 7.661,10.514 7.568,10.65 7.436,10.767 7.304,10.883 7.119,10.943 6.878,10.943 6.651,10.943 6.469,10.885 6.333,10.772 6.196,10.659 6.101,10.531 6.047,10.389 5.994,10.247 5.919,10.003 5.823,9.66 Z"
   id="path2" />
		<path
   style="fill:#ffffff;fill-opacity:1"
   d="m 10.839,4.748 c -0.19,0 -0.354,-0.059 -0.488,-0.175 -0.136,-0.117 -0.202,-0.282 -0.202,-0.496 0,-0.193 0.068,-0.353 0.207,-0.478 0.139,-0.125 0.3,-0.188 0.483,-0.188 0.177,0 0.333,0.057 0.471,0.17 0.137,0.114 0.205,0.279 0.205,0.496 0,0.21 -0.066,0.375 -0.2,0.494 -0.134,0.118 -0.292,0.177 -0.476,0.177 z m 0.676,1.412 v 3.95 c 0,0.274 -0.065,0.481 -0.195,0.621 -0.13,0.141 -0.296,0.211 -0.496,0.211 -0.199,0 -0.362,-0.072 -0.487,-0.216 -0.125,-0.144 -0.188,-0.349 -0.188,-0.616 V 6.2 c 0,-0.27 0.063,-0.474 0.188,-0.611 0.125,-0.137 0.288,-0.205 0.487,-0.205 0.2,0 0.366,0.068 0.496,0.205 0.13,0.137 0.195,0.328 0.195,0.571 z"
   id="path4" />
		<path
   style="fill:#ffffff;fill-opacity:1"
   d="m 13.617,4.748 c -0.19,0 -0.353,-0.059 -0.488,-0.175 -0.135,-0.117 -0.202,-0.282 -0.202,-0.496 0,-0.193 0.069,-0.353 0.208,-0.478 0.138,-0.125 0.299,-0.188 0.482,-0.188 0.177,0 0.334,0.057 0.471,0.17 0.137,0.114 0.205,0.279 0.205,0.496 0,0.21 -0.066,0.375 -0.2,0.494 -0.133,0.118 -0.292,0.177 -0.476,0.177 z m 0.676,1.412 v 3.95 c 0,0.274 -0.064,0.481 -0.195,0.621 -0.13,0.141 -0.295,0.211 -0.495,0.211 -0.2,0 -0.363,-0.072 -0.488,-0.216 C 12.99,10.582 12.927,10.377 12.927,10.11 V 6.2 c 0,-0.27 0.063,-0.474 0.188,-0.611 0.125,-0.137 0.288,-0.205 0.488,-0.205 0.2,0 0.365,0.068 0.495,0.205 0.131,0.137 0.195,0.328 0.195,0.571 z"
   id="path6" />
	</g>
</g>
<g
   id="g12"
   transform="translate(1.4746747,1.7866259)">
</g>
<g
   id="g14"
   transform="translate(1.4746747,1.7866259)">
</g>
<g
   id="g16"
   transform="translate(1.4746747,1.7866259)">
</g>
<g
   id="g18"
   transform="translate(1.4746747,1.7866259)">
</g>
<g
   id="g20"
   transform="translate(1.4746747,1.7866259)">
</g>
<g
   id="g22"
   transform="translate(1.4746747,1.7866259)">
</g>
<g
   id="g24"
   transform="translate(1.4746747,1.7866259)">
</g>
<g
   id="g26"
   transform="translate(1.4746747,1.7866259)">
</g>
<g
   id="g28"
   transform="translate(1.4746747,1.7866259)">
</g>
<g
   id="g30"
   transform="translate(1.4746747,1.7866259)">
</g>
<g
   id="g32"
   transform="translate(1.4746747,1.7866259)">
</g>
<g
   id="g34"
   transform="translate(1.4746747,1.7866259)">
</g>
<g
   id="g36"
   transform="translate(1.4746747,1.7866259)">
</g>
<g
   id="g38"
   transform="translate(1.4746747,1.7866259)">
</g>
<g
   id="g40"
   transform="translate(1.4746747,1.7866259)">
</g>
</svg>
