<svg viewBox="0 0 800 693.61" xmlns="http://www.w3.org/2000/svg">
  <path d="M617.62 693.61 800 254.5Q680 121.56 501 124.69L317.41 567.86c112-14.87 211.5 27.37 300.21 125.75Zm-127-568.92-67.47 4-22.88 56.05 67.48-6.32Zm-26.85 63.5-66.93 4.56-23.39 56.05 68-6.29Zm-26.3 64.04-66.87 4-23.48 55.53 68-5.19Zm-26.27 64.01-67.52 4-22.84 55.46 67.48-5.7Zm-26.31 62.88-67.48 4-22.9 55.49 68-5.73ZM358 444.3l-67.51 4.05-22.84 56 67.48-5.74Zm-26.92 64.08-66.9 4-23.42 56 68-6.32Zm21.19-386.57-21.19 50.92 62.33-5.15 21.18-50.27Z"/>
  <path d="m367.14 232.18 20.6-50.31-62.33 4.53-21.19 50.89zm-25.79 61.74L362.53 243l-62.87 5.12-20.61 50.3z" fill="#f30"/>
  <path d="m273.32 312.26-21.74 50.89 63.5-5.15 20.57-50.89z"/>
  <path d="m245.88 376.82-20.57 50.86 62.88-5 20.64-51zm-25.72 61.81-20.57 50.86 62.94-5.15 21.12-50.89z" fill="#02a5ff"/>
  <path d="M235.61 548.35 256.73 498l-62.26 4.54-21.19 50.34ZM349.42 93.82l-52.61 2.3L278 141.31l53.16-2.92Z"/>
  <path d="m269.92 161.26-18.86 44.61 53.16-2.87 18.38-44zm-25.72 61.23-18.31 45.16 53.16-2.85 18.31-44.06z" fill="#f30"/>
  <path d="m270.5 284.79-53.16 1.68L199 331.66l53.23-2.81Z"/>
  <path d="m190.45 351.72-18.85 45.16 53.74-2.82 18.27-44.58zm-25.2 61.74-18.31 44 52.61-2.24 18.86-44.6z" fill="#02a5ff"/>
  <path d="m173.28 519.27 18.31-44.61-52.59 2.26-18.86 44.51ZM244.2 77.2l-13.12 32 42.27-1.75 13.74-32.56Z"/>
  <path d="m217.34 141.83-13.15 32 42.31-1.65 13.73-32.62Zm-25.75 61.23-13.16 32 42.93-1.17L235 200.21Z" fill="#f30"/>
  <path d="m208.17 264.8-42.92 2.3-13.7 32 42.92-1.06z"/>
  <path d="m138.43 331.66-13.7 32.63 43.47-1.72 13.15-33.21zm-25.72 61.82-13.19 32.58 42.92-1.71 13.12-33.18z" fill="#02a5ff"/>
  <path d="m85.85 457.45-13.22 32.63 42.89-1.72 13.74-33.14ZM225.34 58.38l11.44-27.47-32.59 4.6-10.89 26.85Z"/>
  <path d="M177.27 100.1 165.83 127l32.56-4 11.43-28zm-25.72 61.82-11.44 26.85 32.59-4 12-28z" fill="#f30"/>
  <path d="m125.24 225.89-11.44 26.93 32-4 12-28.06z"/>
  <path d="m98.39 290.56-10.82 26.82 32-3.95L131 286Zm-25.76 61.71-10.82 26.85 32-4 11.44-28Z" fill="#02a5ff"/>
  <path d="m45.78 416.31-10.31 26.34 32-3.5 11.44-28ZM165.25 2.3l-8 18.3 24.55-.6 8.62-20Z"/>
  <path d="m139 66.35-8 18.88 24-.58 8-20Zm-25.74 61.16-7.46 18.88h23.42l8-20Z" fill="#f30"/>
  <path d="m86.92 191.62-8 18.82h24l8.55-20z"/>
  <path d="m60.06 256.77-8 18.3 24-.55 8-18.85Zm-25.72 61.77-8 18.86 24-.55 8.51-19.51Z" fill="#02a5ff"/>
  <path d="M7.45 382.59 0 401.51l24-.65 8-20Z"/>
  <path d="M530.28 339.08 588.59 199c-28.57-9.75-66.35-13.7-113.19-12.6L417.6 326c42.9-1.75 80.67 2.92 112.68 13.12Z" fill="#f30"/>
  <path d="m663.84 407.18 58.38-141.25a224.14 224.14 0 0 0-92.62-57.21q-29.73 71.78-59.48 143.55c13.32 2.66 35 11.58 56.36 24.82 18.05 11.16 29.22 20.58 37.36 30.09z" fill="#6c3"/>
  <path d="M646.74 447.25C620.4 420.88 589 403.16 553 393.48l-57.22 137.77c33.13 11.47 64.08 30.32 93.81 55.46Z" fill="#fc0"/>
  <path d="m456.8 516.31 55.42-133.79c-34.89-11.44-72.56-16-112.6-13.16L343.45 505c33.72-1.84 71.04 2.21 113.35 11.31Z" fill="#02a5ff"/>
</svg>
