<?xml version="1.0" encoding="UTF-8"?>
<svg width="82.3" height="43.8" version="1.1" viewBox="0 0 82.3 43.8" xmlns="http://www.w3.org/2000/svg">
 <g transform="translate(-1.24)" stroke-width=".32">
  <path d="m67.3 0h16.2c-16.3 43.8-0.0477 0.549-16.3 43.8l-16.7 0.0106c16.8-43.8 0.0817 4.82e-4 16.8-43.8z" fill="#05fcf8"/>
  <path d="m34.3 0h16.3l-16.3 43.8c16.2-0.0037-16.8-0.0031-16.8-0.0031z" fill="#f9f902"/>
  <path d="m1.34 43.8c15.9-43.4 0 0 16-43.8h16.9c-16.5 43.3 0 0-16.8 43.8-5.35-3e-3 -11.3 0.0037-16.2-8.46e-4z" fill="#fa0805"/>
  <path d="m34.3 43.8c16.3-43.8 0.204-0.662 16.3-43.8h16.7l-16.7 43.8-16.3 0.0026z" fill="#04fc04"/>
 </g>
</svg>