<?xml version="1.0" encoding="UTF-8" standalone="no"?>
<svg
   xmlns:dc="http://purl.org/dc/elements/1.1/"
   xmlns:cc="http://creativecommons.org/ns#"
   xmlns:rdf="http://www.w3.org/1999/02/22-rdf-syntax-ns#"
   xmlns:svg="http://www.w3.org/2000/svg"
   xmlns="http://www.w3.org/2000/svg"
   xmlns:sodipodi="http://sodipodi.sourceforge.net/DTD/sodipodi-0.dtd"
   xmlns:inkscape="http://www.inkscape.org/namespaces/inkscape"
   version="1.1"
   id="svg2"
   width="400.215"
   height="400.215"
   viewBox="0 0 400.21499 400.215"
   sodipodi:docname="Sierra_logo_1980.svg"
   inkscape:version="1.0.2-2 (e86c870879, 2021-01-15)">
  <metadata
     id="metadata8">
    <rdf:RDF>
      <cc:Work
         rdf:about="">
        <dc:format>image/svg+xml</dc:format>
        <dc:type
           rdf:resource="http://purl.org/dc/dcmitype/StillImage" />
        <dc:title />
      </cc:Work>
    </rdf:RDF>
  </metadata>
  <defs
     id="defs6">
    <inkscape:path-effect
       effect="bspline"
       id="path-effect857"
       is_visible="true"
       lpeversion="1"
       weight="33.333333"
       steps="2"
       helper_size="0"
       apply_no_weight="true"
       apply_with_weight="true"
       only_selected="false" />
    <inkscape:path-effect
       effect="bspline"
       id="path-effect854"
       is_visible="true"
       lpeversion="1"
       weight="33.333333"
       steps="2"
       helper_size="0"
       apply_no_weight="true"
       apply_with_weight="true"
       only_selected="false" />
    <inkscape:path-effect
       effect="bspline"
       id="path-effect952"
       is_visible="true"
       lpeversion="1"
       weight="33.333333"
       steps="2"
       helper_size="0"
       apply_no_weight="true"
       apply_with_weight="true"
       only_selected="false" />
    <inkscape:path-effect
       effect="bspline"
       id="path-effect948"
       is_visible="true"
       lpeversion="1"
       weight="33.333333"
       steps="2"
       helper_size="0"
       apply_no_weight="true"
       apply_with_weight="true"
       only_selected="false" />
    <inkscape:path-effect
       effect="bspline"
       id="path-effect919"
       is_visible="true"
       lpeversion="1"
       weight="33.333333"
       steps="2"
       helper_size="0"
       apply_no_weight="true"
       apply_with_weight="true"
       only_selected="false" />
    <inkscape:path-effect
       effect="bspline"
       id="path-effect913"
       is_visible="true"
       lpeversion="1"
       weight="33.333333"
       steps="2"
       helper_size="0"
       apply_no_weight="true"
       apply_with_weight="true"
       only_selected="false" />
    <inkscape:path-effect
       effect="bspline"
       id="path-effect844"
       is_visible="true"
       lpeversion="1"
       weight="33.333333"
       steps="2"
       helper_size="0"
       apply_no_weight="true"
       apply_with_weight="true"
       only_selected="false" />
    <inkscape:path-effect
       effect="bspline"
       id="path-effect839"
       is_visible="true"
       lpeversion="1"
       weight="33.333333"
       steps="2"
       helper_size="0"
       apply_no_weight="true"
       apply_with_weight="true"
       only_selected="false" />
  </defs>
  <sodipodi:namedview
     pagecolor="#ffffff"
     bordercolor="#666666"
     borderopacity="1"
     objecttolerance="10"
     gridtolerance="10"
     guidetolerance="10"
     inkscape:pageopacity="0"
     inkscape:pageshadow="2"
     inkscape:window-width="2560"
     inkscape:window-height="1377"
     id="namedview4"
     showgrid="false"
     inkscape:zoom="2.8284271"
     inkscape:cx="61.495418"
     inkscape:cy="206.68658"
     inkscape:window-x="-8"
     inkscape:window-y="-8"
     inkscape:window-maximized="1"
     inkscape:current-layer="g10"
     inkscape:document-rotation="0" />
  <g
     inkscape:groupmode="layer"
     inkscape:label="Image"
     id="g10"
     transform="translate(11.130429,63.619427)">
    <rect
       style="fill:#000000;fill-opacity:1;stroke:#ffffff;stroke-width:0;stroke-opacity:1"
       id="rect890"
       width="400.215"
       height="400.215"
       x="-11.130428"
       y="-63.619427"
       ry="64.329247"
       inkscape:export-xdpi="122.57411"
       inkscape:export-ydpi="122.57411" />
    <g
       id="g908"
       transform="translate(1.1676684,67.8853)"
       inkscape:export-xdpi="122.57411"
       inkscape:export-ydpi="122.57411">
      <path
         id="path841"
         style="fill:none;fill-opacity:1;stroke:#ffffff;stroke-width:7.81097;stroke-miterlimit:4;stroke-dasharray:none;stroke-opacity:1"
         d="M 153.07142,68.598816 A 74.094513,66.094513 0 0 1 78.976906,134.69333 74.094513,66.094513 0 0 1 4.8823929,68.598816 74.094513,66.094513 0 0 1 78.976906,2.504303 74.094513,66.094513 0 0 1 153.07142,68.598816 Z" />
      <path
         id="rect843"
         style="fill:none;fill-opacity:1;stroke:#ffffff;stroke-width:5.11579;stroke-miterlimit:4;stroke-dasharray:none;stroke-opacity:1"
         d="M 84.277118,134.4657 H 372.084 v 1.58313 H 84.277118 Z" />
      <path
         id="path837"
         style="fill:#ffffff;fill-opacity:1;stroke:none;stroke-width:1px;stroke-linecap:butt;stroke-linejoin:miter;stroke-opacity:1"
         d="m 165.29883,93.244141 c -2.65681,0.243558 -5.35877,0.76249 -7.77735,1.890625 -1.86658,0.870659 -3.37548,2.416981 -4.75,3.951172 -1.4292,1.595222 -2.14183,3.337942 -2.90158,5.339842 -1.03978,2.73975 -1.74458,5.5293 -1.9749,8.44903 -0.29104,3.68952 -0.58623,7.58399 -0.25242,11.26777 0.0646,0.71311 0.47071,1.42122 1.00781,1.89062 1.18104,1.03216 2.08906,1.40961 3.53171,2.01804 0.67352,0.28405 5.40844,1.29788 6.13725,1.30405 5.88644,0.0498 6.86644,0.40668 12.73959,0.041 1.39399,-0.0868 4.33922,-1.17243 5.38051,-2.10139 2.4463,-2.18239 4.78587,-4.68289 6.17969,-7.65039 1.71915,-3.66015 2.26493,-7.78362 2.94336,-11.77148 0.47543,-2.79461 1.39242,-5.79836 0.50391,-8.492191 -0.59051,-1.790338 -2.52189,-2.610308 -4.12072,-3.614399 -1.32089,-0.829541 -3.04021,-1.600038 -4.58241,-1.850444 -3.97497,-0.645415 -8.05355,-1.039566 -12.06445,-0.671875 z m 2.35463,4.89676 c 1.75546,-0.373407 3.06418,-0.160529 4.71967,0.52746 0.88313,0.367011 1.66848,1.400269 1.62687,2.353119 -0.10387,2.37875 -1.22733,6.2049 -1.84381,8.69667 -1.02457,4.14125 -0.99881,6.90712 -2.40182,10.93448 -0.56306,1.61626 -1.08729,2.79984 -2.57477,3.64519 -1.44892,0.82344 -3.42539,0.77392 -5.09396,0.76392 -0.69976,-0.004 -2.35377,-0.35644 -2.66549,-0.98527 -0.72323,-1.45889 -0.33138,-2.59651 -0.21703,-4.22298 0.13989,-1.98966 0.32807,-4.52382 0.75745,-6.47332 0.79014,-3.58744 1.83,-6.61662 2.90076,-10.13215 0.51889,-1.7036 0.66486,-2.58385 1.89127,-3.876564 0.5698,-0.600601 1.59906,-0.953648 2.4069,-1.125484 z"
         sodipodi:nodetypes="ssssssssssssssssssssssssssssssss" />
      <path
         style="fill:#ffffff;fill-opacity:1;stroke:none;stroke-width:1px;stroke-linecap:butt;stroke-linejoin:miter;stroke-opacity:1"
         d="m 230.46811,91.794818 -8.70981,36.088002 h -14.44699 l -9.01639,-19.40341 v 0 l -4.91767,19.40341 h -9.27833 l 9.18157,-36.088002 h 12.60396 l 10.2853,23.781032 v 0 l 5.95846,-23.781052 z"
         id="path849"
         sodipodi:nodetypes="ccccccccccccc" />
      <rect
         style="fill:#ffffff;fill-opacity:1;stroke:none;stroke-width:0"
         id="rect855"
         width="13.788909"
         height="8.8595915"
         x="279.98016"
         y="117.81865"
         ry="3.5484717"
         transform="matrix(1,0,-0.42261826,0.90630779,0,0)" />
      <path
         style="fill:#ffffff;fill-opacity:1;stroke:none;stroke-width:1px;stroke-linecap:butt;stroke-linejoin:miter;stroke-opacity:1"
         d="m 264.44529,91.794818 h -14.50645 l -8.68013,36.088002 h 31.45044 l -0.0595,-5.29155 -14.86316,-0.11896 0.41617,-1.66467 z"
         id="path861"
         sodipodi:nodetypes="cccccccc" />
      <path
         style="fill:#ffffff;fill-opacity:1;stroke:none;stroke-width:1px;stroke-linecap:butt;stroke-linejoin:miter;stroke-opacity:1"
         d="m 298.86836,91.794818 -9.27461,36.088002 h -13.97137 l 8.56118,-36.088002 z"
         id="path865"
         sodipodi:nodetypes="ccccc" />
      <path
         style="fill:#ffffff;fill-opacity:1;stroke:none;stroke-width:1px;stroke-linecap:butt;stroke-linejoin:miter;stroke-opacity:1"
         d="m 341.00213,91.794818 -11.10729,36.088002 h -12.04951 l -9.01639,-19.96314 v 0 l -5.77164,19.96314 h -8.42436 l 9.18157,-36.088002 h 12.60396 l 10.2853,23.221302 v 0 l 6.43576,-23.221302 z"
         id="path849-3"
         sodipodi:nodetypes="ccccccccccccc" />
      <path
         style="fill:#ffffff;fill-opacity:1;stroke:none;stroke-width:1px;stroke-linecap:butt;stroke-linejoin:miter;stroke-opacity:1"
         d="m 374.61101,91.794818 v 5.41 h -13.79302 l -2.46726,8.026002 h 10.67218 v 5.185 h -12.15847 l -3.35907,11.224 h 16.88454 l -0.0594,6.243 h -34.66088 l 10.16639,-36.088002 z"
         id="path907"
         sodipodi:nodetypes="ccccccccccccc" />
      <path
         style="fill:#ffffff;fill-opacity:1;stroke:none;stroke-width:1px;stroke-linecap:butt;stroke-linejoin:miter;stroke-opacity:1"
         d="m 145.42113,89.238394 -7.72884,-11.177094 -6.18308,-10.344757 -4.29812,-6.086847 -7.483,-10.341682 -6.13775,-5.465116 -6.3059,-2.270125 -15.134171,-8.744186 -15.05009,-0.252236 0.168157,1.093023 7.398927,3.531306 5.381038,3.615384 1.765653,4.035779 0.756708,5.717352 2.354204,5.21288 2.101968,4.624329 3.279066,7.23077 5.5492,6.221824 3.11091,3.867621 1.26118,11.602862 0.58855,33.547409 -3.02683,1.34526 0.0841,-30.184261 -1.26118,-16.31127 -5.29696,-4.876565 -5.044725,-8.576029 -3.86762,-7.735241 -3.447228,-10.005367 -1.597495,-4.792487 -4.960644,-3.110912 -5.969589,-3.026834 -6.221824,-2.774597 -1.513417,1.177102 -1.093023,5.465116 -4.288015,11.77102 -1.008944,5.465116 -1.261181,2.186047 -4.288014,1.849731 -8.828265,3.194991 -1.177102,2.270126 -2.522361,6.726297 -3.110913,12.191413 v 3.699463 l -3.026833,3.9517 H 12.948122 l -2.354204,-6.726297 5.633273,3.531306 20.515206,0.08408 2.270125,-7.314848 3.026834,-8.996422 2.438283,-8.996422 3.531306,-3.783542 8.323792,-2.774598 3.110913,-2.186046 4.035778,-14.629696 4.119857,-9.921288 28.418604,0.252236 5.885511,3.867621 6.81037,4.288014 5.63328,2.942755 5.54919,3.363149 6.89446,9.164579 9.0805,13.368515 9.66905,14.37746 2.27013,1.765653 z"
         id="path909" />
      <path
         style="fill:#ffffff;fill-opacity:1;stroke:none;stroke-width:1px;stroke-linecap:butt;stroke-linejoin:miter;stroke-opacity:1"
         d="m 187.64273,61.266528 c 0.30749,0.565395 0.92184,1.694998 2.13057,1.763658 1.20874,0.06866 3.0121,-0.922196 4.27029,-1.88319 1.25819,-0.960993 1.97161,-1.892396 2.32178,-2.997158 0.35018,-1.104762 0.33698,-2.383649 -1.11915,-3.018328 -1.45612,-0.63468 -4.35606,-0.624067 -7.25281,-0.499888 -2.89675,0.124178 -5.79005,0.361984 -8.45571,0.926727 -2.66566,0.564744 -5.10317,1.456516 -7.47148,2.496953 -2.36831,1.040438 -4.6671,2.229468 -6.21316,3.597184 -1.54607,1.367717 -2.33876,2.913456 -2.73501,4.33073 -0.39625,1.417273 -0.39625,2.705387 0.16906,3.924181 0.5653,1.218794 1.69488,2.36819 3.13173,3.051463 1.43685,0.683272 3.18076,0.901261 5.62825,1.208437 2.4475,0.307176 5.59843,0.703519 8.10615,1.16673 2.50772,0.463212 4.40868,1.003484 5.47839,1.766891 1.06971,0.763407 1.32733,1.754267 0.71314,2.476923 -0.6142,0.722656 -2.10049,1.178452 -3.89403,1.792798 -1.79354,0.614345 -3.89416,1.387215 -6.27216,1.971877 -2.378,0.584662 -5.03349,0.981004 -7.4026,1.070192 -2.36912,0.08919 -4.44787,-0.128585 -5.54814,-0.474865 -1.10027,-0.346281 -1.21918,-0.821892 -1.54613,-0.921664 -0.32695,-0.09977 -0.86201,0.177666 -1.61527,0.792115 -0.75327,0.614449 -1.72431,1.565673 -2.41406,2.294145 -0.68976,0.728473 -1.11374,1.253406 -1.16291,1.798931 -0.0492,0.545526 0.26791,1.120222 0.90234,1.684776 0.63443,0.564555 1.58566,1.119438 3.64665,1.485748 2.06099,0.366311 5.23173,0.544665 8.65014,0.217554 3.4184,-0.327111 7.08458,-1.159431 10.28496,-2.28906 3.20038,-1.129629 5.93515,-2.556464 7.89686,-4.003003 1.96171,-1.446538 3.15074,-2.913009 3.6463,-4.339382 0.49556,-1.426374 0.29739,-2.813575 -0.34621,-3.913599 -0.6436,-1.100024 -1.73354,-1.912524 -3.39819,-2.725252 -1.66466,-0.812727 -3.904,-1.625231 -6.35154,-2.190187 -2.44755,-0.564956 -5.10304,-0.88203 -7.16403,-1.248556 -2.061,-0.366526 -3.52747,-0.782686 -4.30091,-1.466033 -0.77343,-0.683346 -0.8527,-1.634567 -0.20852,-2.536897 0.64417,-0.90233 2.01155,-1.754466 3.69886,-2.624268 1.68731,-0.869803 3.69419,-1.75716 5.55032,-2.224783 1.85613,-0.467623 3.56079,-0.515636 4.92546,-0.616972 1.36466,-0.101336 2.38935,-0.25589 2.90129,-0.333106 0.51194,-0.07722 0.51198,-0.07722 0.81948,0.488178 z"
         id="path911"
         inkscape:path-effect="#path-effect913"
         inkscape:original-d="m 187.33523,60.701133 c 0.61534,1.1306 1.22969,2.2602 1.84303,3.3888 1.80443,-0.989897 3.60779,-1.980755 5.41019,-2.972632 0.71445,-0.930443 1.42786,-1.861849 2.14029,-2.794273 -0.0122,-1.277962 -0.0254,-2.556849 -0.0396,-3.836808 -2.89904,0.01161 -5.79898,0.02223 -8.69997,0.03184 -2.89242,0.238816 -5.78572,0.476621 -8.68009,0.713432 -2.4366,0.892807 -4.87411,1.784579 -7.31267,2.675368 -2.29788,1.190077 -4.59667,2.379105 -6.8965,3.567158 -0.79172,1.546799 -1.58441,3.092537 -2.37811,4.637305 0.001,1.289166 0.001,2.57728 0,3.864421 1.13062,1.15044 2.2602,2.299835 3.3888,3.448252 1.74498,0.218997 3.48889,0.436986 5.23183,0.653979 3.15205,0.397359 6.30298,0.793702 9.45297,1.189052 1.86389,0.536085 3.76633,1.071148 5.648,1.605221 0.25863,0.991897 0.51626,1.982755 0.77288,2.972632 -1.48534,0.456812 -2.97163,0.912607 -4.45894,1.36741 -2.0997,0.7739 -4.20032,1.546769 -6.30198,2.318653 -2.65461,0.397358 -5.3101,0.793701 -7.96665,1.189052 -2.07989,-0.236815 -4.16069,-0.434986 -6.24253,-0.653979 -0.11791,-0.47463 -0.23681,-0.950242 -0.35672,-1.426863 -0.53408,0.278451 -1.06914,0.555891 -1.60522,0.832337 -0.97008,0.952261 -1.94112,1.903484 -2.91317,2.853726 -0.39536,0.516267 -0.83134,1.031512 -1.24851,1.545769 0.31809,0.57572 0.63516,1.150417 0.95124,1.724126 0.95226,0.555902 1.90349,1.110782 2.85373,1.664673 3.17187,0.179362 6.34261,0.357716 9.51242,0.535074 3.66732,-0.831353 7.33349,-1.663674 10.99873,-2.49701 2.73588,-1.425892 5.47065,-2.852727 8.20447,-4.28059 1.19007,-1.465527 2.3791,-2.931996 3.56715,-4.399494 -0.19717,-1.386256 -0.39535,-2.773456 -0.59452,-4.161684 -1.08899,-0.811535 -2.17893,-1.624038 -3.2699,-2.437558 -2.23842,-0.811535 -4.47776,-1.624038 -6.71814,-2.437557 -2.65461,-0.316087 -5.3101,-0.633162 -7.96665,-0.951242 -1.46553,-0.415177 -2.932,-0.831337 -4.3995,-1.248506 -0.0783,-0.950261 -0.15754,-1.901484 -0.23781,-2.853726 1.36844,-0.851171 2.73582,-1.703308 4.10223,-2.556463 2.00801,-0.886413 4.01489,-1.773769 6.02089,-2.66218 1.70576,-0.04702 3.41042,-0.09503 5.11417,-0.144044 1.02572,-0.153559 2.05041,-0.308112 3.07412,-0.46367 z"
         sodipodi:nodetypes="cccccccccccccccccccccccccccccccccccccccc" />
      <ellipse
         style="fill:#ffffff;fill-opacity:1;stroke:none;stroke-width:0"
         id="path915"
         cx="112.88311"
         cy="182.44073"
         rx="3.6209438"
         ry="2.0575306"
         transform="matrix(0.78262738,-0.62249048,0.66282625,0.74877324,0,0)" />
      <path
         id="path917"
         style="fill:#ffffff;fill-opacity:1;stroke:none;stroke-width:1px;stroke-linecap:butt;stroke-linejoin:miter;stroke-opacity:1"
         d="m 224.11448,69.421598 c -0.78688,-0.04663 -2.31586,-0.158401 -3.6594,0.19559 -1.06872,0.281582 -2.19809,0.476165 -3.15664,1.027661 -1.08745,0.625655 -2.02318,1.693393 -2.98203,2.503589 -0.88449,0.747359 -1.57035,1.741566 -2.18555,2.732421 -0.97555,1.571235 -1.49316,3.411475 -2.56445,4.917969 -0.74685,1.05026 -1.75232,1.921314 -2.81641,2.648438 -0.65093,0.444801 -1.44199,0.729575 -2.22852,0.798828 -1.4803,0.130337 -3.13695,0.477894 -4.45703,-0.208985 -0.76218,-0.39659 -0.99517,-1.559498 -1.01015,-2.421015 -0.0141,-0.811585 0.46228,-1.747128 0.92617,-2.414922 0.85366,-1.228889 3.03502,-2.445157 4.0871,-3.50906 0.81884,-0.82804 1.28082,-1.134335 1.82344,-2.164768 0.2842,-0.539694 -0.032,-1.360193 -0.42421,-1.830078 -0.42241,-0.506026 -1.23904,-0.702879 -1.89063,-0.587891 -1.01485,0.179094 -1.92575,0.793459 -2.7539,1.408203 -1.0145,0.753076 -1.83121,1.741557 -2.71094,2.648438 -1.39099,1.433922 -2.46249,2.563467 -3.46902,4.288967 -0.45241,0.775571 -0.61811,2.231475 -0.44189,3.109848 0.28529,1.422014 0.43831,2.540495 1.17848,3.784778 0.59352,0.997743 1.41816,2.002772 2.5,2.416016 1.33072,0.508312 2.8784,0.473592 4.26757,0.167969 0.83507,-0.183717 1.35643,-1.040488 2.03907,-1.554688 0.93592,-0.704982 1.9232,-1.494589 3.02448,-1.893478 0.7933,-0.287335 1.59036,-0.470789 2.31341,-0.04012 0.71776,0.427524 0.72413,1.545789 1.32422,2.123047 0.72252,0.695034 1.55235,1.477906 2.54492,1.597657 2.16381,0.261057 4.40252,0.02026 6.51562,-0.50586 1.39386,-0.347047 2.63474,-1.197241 3.78321,-2.058594 1.45125,-1.088437 2.87033,-2.285421 3.95117,-3.742187 0.29209,-0.393687 0.35815,-1.254171 -0.084,-1.470703 -0.60682,-0.297179 -1.43156,0.13201 -2.01757,0.503906 -0.92044,0.584127 -1.4867,1.608398 -2.35352,2.269531 -0.79855,0.609061 -1.63032,1.278446 -2.60742,1.513672 -1.36209,0.327907 -2.83136,0.420905 -4.20313,0.126953 -0.88793,-0.190272 -1.88791,-0.687537 -2.27148,-1.513672 -0.44825,-0.965428 -0.10129,-2.122176 0.56152,-2.957501 0.63441,-0.79954 2.55963,-0.610581 3.45999,-1.088044 1.92017,-1.018272 3.26688,-1.679999 4.92172,-3.088208 1.2764,-1.086171 1.99044,-2.748821 2.87118,-4.17484 0.35366,-0.572609 0.35868,-1.38445 0.125,-2.017578 -0.23978,-0.649662 -0.45983,-1.137575 -0.95798,-1.300791 -0.36754,-0.120421 -0.70719,-0.224782 -0.9724,-0.240498 z m -3.73557,3.054964 c 0.53802,0.0047 0.96975,0.170683 1.24023,0.476563 0.75415,0.850403 0.0965,2.549617 -1.46875,3.794922 -1.56592,1.245842 -3.44615,1.564744 -4.19922,0.712891 -0.75269,-0.851414 -0.0946,-2.550088 1.47071,-3.794922 0.94453,-0.751169 2.05334,-1.197349 2.95703,-1.189454 z"
         sodipodi:nodetypes="sssssssssssssssssssssssssssssssssssssssssssssssss" />
      <path
         style="fill:#ffffff;fill-opacity:1;stroke:none;stroke-width:1px;stroke-linecap:butt;stroke-linejoin:miter;stroke-opacity:1"
         d="m 244.96953,74.192031 c 0.0247,-0.03458 0.0743,-0.103956 0.12383,-0.499945 0.0496,-0.395989 0.0991,-1.119317 -0.0836,-1.629681 -0.18271,-0.510364 -0.59887,-0.80762 -1.71866,-0.946754 -1.11978,-0.139134 -2.94295,-0.119317 -4.2509,-0.1193 -1.30796,1.8e-5 -2.10064,-0.0198 -2.65069,-0.247147 -0.55005,-0.227349 -0.85722,-0.663327 -1.1741,-0.931252 -0.31689,-0.267925 -0.64388,-0.367013 -1.0802,-0.307842 -0.43633,0.05917 -0.9813,0.277159 -1.51664,0.648847 -0.53534,0.371689 -1.06049,0.89684 -1.6154,1.466615 -0.55491,0.569774 -1.13952,1.184103 -1.43181,1.793986 -0.2923,0.609884 -0.2923,1.214307 -0.46545,1.585285 -0.17315,0.370978 -0.51995,0.509698 -0.66382,0.852209 -0.14388,0.342511 -0.0844,0.887476 0.20843,1.2786 0.29286,0.391124 0.81801,0.628928 0.91643,0.970601 0.0984,0.341673 -0.22857,0.787557 -0.52076,1.114415 -0.29218,0.326857 -0.5498,0.534936 -0.45513,0.748318 0.0947,0.213382 0.54057,0.431373 1.08264,0.03344 0.54206,-0.397934 1.19059,-1.425605 1.79508,-2.267945 0.60449,-0.842341 1.16928,-1.506216 2.03684,-1.843162 0.86756,-0.336947 2.03677,-0.346856 2.75509,-0.172886 0.71831,0.17397 0.98584,0.530678 1.05472,1.095332 0.0689,0.564654 -0.0599,1.337523 -0.50087,2.199256 -0.44094,0.861733 -1.19399,1.812955 -1.51593,2.982674 -0.32194,1.16972 -0.21295,2.55692 0.14922,3.518004 0.36216,0.961084 0.9765,1.496144 1.9227,1.688851 0.9462,0.192707 2.22441,0.04408 3.32894,-0.322586 1.10454,-0.366663 2.03595,-0.951271 3.01194,-1.60029 0.97599,-0.649019 1.99657,-1.362435 2.9378,-2.169926 0.94123,-0.807491 1.80328,-1.709173 2.16022,-2.367519 0.35694,-0.658345 0.20831,-1.074506 -0.0888,-1.238679 -0.29709,-0.164173 -0.74298,-0.075 -1.20914,0.291789 -0.46616,0.366785 -0.95168,1.010844 -1.49653,1.555691 -0.54484,0.544847 -1.14926,0.99073 -1.92675,1.26324 -0.77749,0.272509 -1.72871,0.371594 -2.47668,0.292653 -0.74796,-0.07894 -1.29293,-0.336565 -1.5071,-1.05485 -0.21417,-0.718285 -0.0943,-1.917126 0.40121,-2.928286 0.4955,-1.011159 1.36746,-1.843482 2.17009,-2.596562 0.80263,-0.75308 1.53586,-1.426865 1.90247,-1.763743 0.3666,-0.336878 0.3666,-0.336875 0.3913,-0.37145 z"
         id="path946"
         inkscape:path-effect="#path-effect948"
         inkscape:original-d="m 244.94483,74.226606 c 0.0505,-0.06836 0.10008,-0.137723 0.14863,-0.208085 0.0505,-0.722354 0.10008,-1.44568 0.14863,-2.170021 -0.41518,-0.296269 -0.83134,-0.593526 -1.24851,-0.891789 -1.82225,0.02082 -3.64542,0.04063 -5.46964,0.05945 -0.79172,-0.01882 -1.5844,-0.03863 -2.3781,-0.05945 -0.30618,-0.434995 -0.61335,-0.870972 -0.92152,-1.307958 -0.32599,-0.09809 -0.65298,-0.197175 -0.98097,-0.297263 -0.54399,0.218997 -1.08896,0.436986 -1.63494,0.653979 -0.52418,0.526175 -1.04933,1.05133 -1.5755,1.575495 -0.58363,0.615356 -1.16823,1.229687 -1.75385,1.843031 0.001,0.605447 0.001,1.20987 0,1.813305 -0.34582,0.139726 -0.69262,0.278446 -1.04042,0.416169 0.0605,0.545993 0.1199,1.090964 0.17836,1.634947 0.52617,0.238815 1.05132,0.476621 1.57549,0.713431 -0.326,0.446904 -0.65298,0.89279 -0.98097,1.337685 -0.25663,0.209088 -0.51425,0.417168 -0.77288,0.624252 0.4469,0.218997 0.89279,0.436986 1.33768,0.653979 0.64508,-1.009715 1.28914,-2.040207 1.93221,-3.06181 0.56581,-0.662901 1.1306,-1.326776 1.6944,-1.991663 1.17026,-0.0089 2.33947,-0.01882 3.50771,-0.02973 0.26854,0.357723 0.53607,0.714432 0.80261,1.070148 -0.12782,0.773899 -0.25663,1.546768 -0.38644,2.318652 -0.75209,0.952261 -1.50514,1.903484 -2.2592,2.853726 0.10999,1.388256 0.21899,2.775456 0.32698,4.161684 0.61536,0.536085 1.22969,1.071147 1.84304,1.605221 1.27925,-0.147634 2.55746,-0.296263 3.83469,-0.445895 0.93244,-0.583629 1.86385,-1.168235 2.79427,-1.753852 1.02163,-0.712446 2.04221,-1.425863 3.06181,-2.140295 0.86308,-0.900716 1.72513,-1.802396 2.58619,-2.705094 -0.14763,-0.415177 -0.29626,-0.831337 -0.44589,-1.248505 -0.4449,0.09018 -0.89079,0.179357 -1.33769,0.267536 -0.48453,0.645083 -0.97005,1.289141 -1.45658,1.932211 -0.60345,0.446903 -1.20787,0.892789 -1.81331,1.337684 -0.95026,0.10009 -1.90148,0.199175 -2.85373,0.297263 -0.54399,-0.256633 -1.08896,-0.514256 -1.63494,-0.772884 0.1199,-1.178167 0.23881,-2.377105 0.35671,-3.567158 0.87299,-0.831353 1.74495,-1.663673 2.61592,-2.49701 0.73426,-0.67281 1.4675,-1.346593 2.19975,-2.021389 z" />
      <path
         id="path950"
         style="fill:#ffffff;fill-opacity:1;stroke:none;stroke-width:1px;stroke-linecap:butt;stroke-linejoin:miter;stroke-opacity:1"
         d="m 285.57617,68.265625 c -0.92656,0.01479 -1.85768,0.104563 -3.11133,0.441406 -1.25364,0.336844 -2.82878,0.921227 -4.12695,1.50586 -1.29817,0.584632 -2.31804,1.168974 -3.62109,1.976562 -1.30306,0.807588 -2.88943,1.837924 -3.97461,2.705078 -1.08518,0.867154 -1.66943,1.570718 -2.3086,2.482422 -0.63916,0.911704 -1.3332,2.033032 -1.9375,2.800781 -0.60429,0.76775 -1.11952,1.183589 -1.63476,1.589844 -0.51525,0.406255 -1.03009,0.802814 -1.74805,0.996094 -0.71796,0.19328 -1.6405,0.18249 -2.32422,-0.04492 -0.68371,-0.227412 -1.12851,-0.673067 -1.18359,-1.525391 -0.0551,-0.852324 0.28161,-2.109808 0.72265,-3.001953 0.44105,-0.892144 0.98633,-1.417913 1.6504,-1.888672 0.66406,-0.470758 1.44667,-0.887714 1.83789,-1.095703 0.39121,-0.207988 0.39035,-0.207877 0.54882,-0.425781 0.15848,-0.217904 0.47576,-0.653504 0.58985,-1.212891 0.11408,-0.559387 0.0256,-1.243734 -0.31641,-1.703125 -0.34199,-0.459391 -0.95433,-0.699757 -1.80664,-0.779296 -0.85231,-0.07954 -1.95377,-0.0013 -2.99414,0.01367 -1.04037,0.01492 -2.0213,-0.03408 -2.7793,-0.271484 -0.758,-0.237403 -1.29212,-0.663231 -1.82226,-0.896484 -0.53014,-0.233254 -1.05512,-0.27368 -1.61524,-0.179688 -0.56011,0.09399 -1.1542,0.322231 -1.67968,0.71875 -0.52549,0.396519 -0.98125,0.962485 -1.54102,1.537109 -0.55977,0.574625 -1.22509,1.15876 -1.5918,1.763672 -0.3667,0.604913 -0.18289,0.892126 -0.15791,1.427357 0.025,0.535231 1.23724,1.318535 1.50513,1.744518 0.26789,0.425984 -0.87243,1.840248 -0.3621,2.057774 0.51032,0.217525 1.32498,-0.760577 1.86449,-0.983555 0.53951,-0.222977 1.01602,-0.699386 1.83399,-0.957031 0.81796,-0.257645 1.97655,-0.297102 2.78906,-0.04883 0.81251,0.248273 1.27893,0.783966 1.26367,1.24414 -0.0153,0.460175 -0.5106,0.845525 -0.99609,1.197266 -0.48549,0.351741 -0.96234,0.668433 -1.32422,1.283203 -0.36188,0.61477 -0.60883,1.527233 -0.6582,2.533203 -0.0494,1.00597 0.099,2.105258 0.26757,2.927735 0.16859,0.822477 0.35791,1.367213 1.38868,1.544922 1.03077,0.177708 2.90331,-0.0098 4.2207,-0.554688 1.31739,-0.544902 2.0786,-1.447564 2.82617,-1.972656 0.74757,-0.525092 1.48398,-0.673349 2.31641,-0.777344 0.83243,-0.103995 1.76431,-0.164007 2.46289,0.06445 0.69858,0.22846 1.1631,0.744885 2.17383,1.091797 1.01072,0.346912 2.54711,0.522865 3.91406,0.166016 1.36695,-0.35685 2.55526,-1.248924 3.39258,-1.863282 0.83732,-0.614358 1.32298,-0.951221 1.98242,-0.90625 0.65943,0.04497 1.49261,0.471906 1.97266,1.25 0.48004,0.778094 0.60786,1.907813 0.94531,2.566407 0.33744,0.658593 0.88377,0.847628 1.64648,0.802734 0.76272,-0.04489 1.74294,-0.323522 2.6543,-0.779297 0.91136,-0.455775 1.75403,-1.090255 2.75976,-1.873047 1.00574,-0.782791 2.17473,-1.714033 2.79883,-2.33789 0.62411,-0.623858 0.70269,-0.940487 0.55469,-1.119141 -0.148,-0.178654 -0.52345,-0.218991 -0.90039,-0.125 -0.37694,0.09399 -0.75347,0.323383 -1.25391,0.650391 -0.50043,0.327007 -1.12567,0.75304 -1.91797,0.941406 -0.79229,0.188366 -1.75229,0.13828 -2.16406,-0.876953 -0.41177,-1.015233 -0.27412,-2.997405 0.17188,-4.291016 0.44599,-1.293611 1.19887,-1.897996 1.63476,-2.908203 0.43589,-1.010207 0.55444,-2.42779 0.49024,-3.582031 -0.0642,-1.154242 -0.31191,-2.045284 -0.89649,-2.521485 -0.58458,-0.4762 -1.50508,-0.536271 -2.43164,-0.521484 z m -2.71289,4.878906 c 0.44268,0.01582 0.79011,0.101538 1,0.25586 0.41979,0.308642 0.28818,0.890114 -0.38086,1.748047 -0.66904,0.857932 -1.87544,1.9947 -2.79687,2.951171 -0.92143,0.956472 -1.55824,1.733614 -2.31836,2.490235 -0.76013,0.756621 -1.64361,1.491944 -2.51563,1.964844 -0.87201,0.472899 -1.73322,0.682804 -2.57031,0.728515 -0.83709,0.04571 -1.65053,-0.07316 -2.28125,-0.416015 -0.63072,-0.342859 -1.07852,-0.910503 -1.08594,-1.394532 -0.007,-0.484029 0.42646,-0.882598 1.04297,-1.576172 0.61651,-0.693573 1.4154,-1.682405 2.51563,-2.607422 1.10022,-0.925016 2.50123,-1.78565 3.88867,-2.486328 1.38743,-0.700677 2.76168,-1.242026 3.93555,-1.49414 0.58693,-0.126057 1.12372,-0.179887 1.5664,-0.164063 z"
         sodipodi:nodetypes="sssssssssssssssssssssssssssssssssssssssssssssssssssssssssssssssssssssssssss" />
      <path
         id="path855"
         style="fill:#ffffff;fill-opacity:1;stroke:none;stroke-width:1px;stroke-linecap:butt;stroke-linejoin:miter;stroke-opacity:1"
         d="m 64.195312,79.160156 c -0.163522,-0.02791 -0.335592,4.74e-4 -0.488281,0.09961 -0.305377,0.198271 -0.533525,0.674827 -0.652343,1.09375 -0.118818,0.418924 -0.130014,0.780061 -0.523438,1 -0.393424,0.21994 -1.169615,0.299147 -1.59375,0.398437 -0.424136,0.09929 -0.493898,0.219489 -0.478516,0.34375 0.01538,0.124261 0.11398,0.251734 0.359375,0.447266 0.245394,0.195532 0.636384,0.458224 0.833985,1.042969 0.197602,0.584743 0.20242,1.491305 0.123047,2.207031 -0.07937,0.715725 -0.241306,1.241237 -0.587891,1.671875 -0.346584,0.430639 -0.877658,0.767095 -1.716797,0.880859 -0.839138,0.113763 -1.988461,0.0056 -2.572265,0.240235 -0.583808,0.234639 -0.600451,0.811035 -0.625,1.273437 -0.02455,0.462403 -0.05685,0.810592 -0.291016,0.976563 -0.234168,0.16597 -0.672138,0.150412 -0.917969,0.255859 -0.245831,0.105448 -0.297106,0.330388 -0.05469,0.552734 0.24242,0.222346 0.778527,0.442271 1.072265,0.775391 0.293737,0.333119 0.345867,0.779909 0.146485,1.050781 -0.199383,0.270873 -0.650891,0.367156 -0.914063,0.728516 -0.263172,0.36136 -0.338072,0.985724 -0.625,1.382812 -0.286929,0.397089 -0.787512,0.568989 -1.066406,0.765625 -0.278894,0.196637 -0.33577,0.417256 -0.08984,0.613282 0.245922,0.196021 0.793213,0.368153 1.269531,0.685546 0.476318,0.317394 0.882554,0.779959 1.185547,1.142578 0.302994,0.362619 0.502516,0.624529 0.570313,0.873047 0.0678,0.248519 0.0058,0.483611 -0.59961,0.609371 -0.605495,0.12577 -1.755127,0.14266 -2.398437,0.21094 -0.64331,0.0683 -0.779701,0.18729 -0.851563,0.44531 -0.07186,0.25802 -0.07988,0.65518 0.300782,1.17188 0.380664,0.5167 1.14763,1.15281 1.820312,1.64844 0.672682,0.49563 1.251849,0.85022 1.726563,1.10937 0.474715,0.25915 0.846188,0.42448 1.048828,0.6875 0.202641,0.26303 0.237849,0.62287 0.18164,0.99219 -0.05621,0.36932 -0.203466,0.74884 -0.607421,0.87305 -0.403957,0.12421 -1.065785,-0.005 -1.841797,-0.1211 -0.776011,-0.11566 -1.667475,-0.21896 -2.195313,-0.16992 -0.527839,0.049 -0.690919,0.24926 -0.595703,0.4668 0.09521,0.21753 0.448616,0.45163 1.003906,0.79492 0.555291,0.3433 1.312504,0.79623 1.560547,1.43555 0.248043,0.63932 -0.01134,1.46528 -0.376953,1.92382 -0.365612,0.45855 -0.838597,0.55044 -1.287109,0.66602 -0.448513,0.11558 -0.872896,0.25487 -1.078125,0.5918 -0.20523,0.33694 -0.191215,0.87035 0.138671,1.33789 0.329887,0.46755 0.974462,0.8695 1.652344,1.31445 0.677883,0.44495 1.388056,0.93294 1.94336,1.26563 0.555304,0.33269 0.955604,0.51017 1.158203,0.7539 0.2026,0.24372 0.210042,0.55219 -0.01563,0.7793 -0.22567,0.2271 -0.684298,0.37532 -0.878906,0.60547 -0.194609,0.23015 -0.125417,0.54103 0.113281,0.79297 0.238697,0.25194 0.644212,0.44583 0.945312,0.67382 0.3011,0.22799 0.497677,0.48914 0.81836,0.64454 0.320682,0.15539 0.766317,0.20431 1.054687,0.0801 0.288369,-0.1242 0.421143,-0.42198 0.302734,-0.66015 -0.118408,-0.23816 -0.489378,-0.4157 -0.755859,-0.63086 -0.266481,-0.21517 -0.427065,-0.46841 -0.425781,-0.75781 0.0013,-0.28941 0.165894,-0.6145 0.798828,-0.79688 0.632934,-0.18239 1.731294,-0.22009 2.65625,-0.17969 0.924957,0.0404 1.674943,0.1594 2.052734,0.78516 0.377792,0.62576 0.384635,1.75661 0.472657,2.42578 0.08802,0.66916 0.256634,0.87569 0.535156,0.96094 0.278523,0.0852 0.668098,0.0503 0.902344,-0.88281 0.234247,-0.93313 0.315384,-2.76526 0.617187,-3.6836 0.301803,-0.91834 0.823441,-0.92244 1.41211,-0.78906 0.588665,0.13339 1.243571,0.4039 1.763671,0.75977 0.5201,0.35585 0.904865,0.79704 1.091797,1.10351 0.186932,0.30647 0.177012,0.47904 0.03711,0.63086 -0.139902,0.15183 -0.409974,0.28467 -0.664063,0.43359 -0.254089,0.14892 -0.491689,0.31394 -0.484375,0.57032 0.0073,0.25638 0.258681,0.60237 0.521484,0.93164 0.262802,0.32928 0.535286,0.64151 1.25,0.79687 0.714715,0.15537 1.871678,0.1543 2.449219,0.1543 0.577542,0 0.577478,7.1e-4 1.306641,-0.0273 0.729163,-0.028 2.185912,-0.0832 3.169922,-0.31445 0.98401,-0.23125 1.496723,-0.63922 2.095703,-1.2207 0.59898,-0.58147 1.285809,-1.33802 1.853515,-1.84961 0.567708,-0.5116 1.01592,-0.77654 1.394532,-0.69531 0.378612,0.0812 0.687264,0.50877 0.833984,1.09375 0.14672,0.58498 0.131979,1.32627 0.142578,1.82031 0.0106,0.49403 0.0452,0.74043 0.238282,0.85547 0.193083,0.11503 0.542801,0.10084 0.773437,-0.0215 0.230637,-0.12238 0.343342,-0.35334 0.458984,-0.80859 0.115641,-0.45524 0.235274,-1.13523 0.757813,-1.5 0.522539,-0.36476 1.447268,-0.4139 2.109375,-0.20312 0.662106,0.21075 1.061915,0.67942 1.429687,1.16992 0.367772,0.49051 0.703293,1.002 1.25,1.32031 0.546706,0.31832 1.303136,0.4441 1.691407,0.31836 0.38827,-0.12575 0.409288,-0.50316 0.11914,-0.80469 -0.290148,-0.30154 -0.891711,-0.52579 -1.294922,-0.86523 -0.403212,-0.33944 -0.607805,-0.79481 -0.597656,-1.22266 0.01015,-0.42784 0.235474,-0.82676 0.589844,-1.05469 0.354371,-0.22794 0.838373,-0.28549 0.978515,-0.43554 0.140143,-0.15005 -0.06298,-0.39504 -0.388671,-0.55664 -0.32569,-0.16159 -0.774953,-0.23792 -0.947266,-0.50391 -0.172312,-0.26599 -0.0674,-0.72239 0.234375,-0.99609 0.301768,-0.27369 0.800356,-0.36343 0.982422,-0.54493 0.182067,-0.1815 0.04753,-0.4554 -0.369141,-0.59961 -0.416679,-0.14422 -1.117709,-0.15849 -2.021484,-0.48046 -0.903774,-0.32198 -2.010009,-0.9526 -2.980469,-1.32422 -0.97046,-0.37162 -1.804159,-0.48355 -2.246094,-0.89649 -0.441935,-0.41294 -0.491851,-1.12689 0.208985,-1.8457 0.700836,-0.71881 2.152942,-1.43987 3.039062,-1.96875 0.886119,-0.52889 1.20774,-0.86701 1.501953,-1.71094 0.294213,-0.84393 0.559546,-2.19519 -0.0039,-2.92773 -0.563426,-0.73254 -1.957165,-0.84435 -2.693359,-1.54102 -0.736193,-0.69666 -0.812686,-1.97927 -1.302735,-2.585936 -0.49005,-0.606664 -1.393882,-0.53584 -1.884765,-1.130859 -0.490883,-0.595019 -0.568815,-1.857524 -0.789063,-2.673828 -0.220248,-0.816304 -0.583358,-1.187362 -0.90625,-1.138672 -0.322892,0.04869 -0.604051,0.518751 -0.863281,1.363281 -0.25923,0.844529 -0.496474,2.062427 -0.990234,2.90625 -0.49376,0.843823 -1.244451,1.314434 -2.007813,1.552734 -0.763362,0.2383 -1.54075,0.2454 -1.96875,0.34375 -0.427999,0.0983 -0.505639,0.28736 -0.361328,0.51172 0.144311,0.22436 0.50856,0.48309 0.662109,1.13477 0.15355,0.65169 0.09766,1.69512 -0.273437,2.36718 -0.371094,0.67205 -1.056482,0.97391 -1.414063,1.72071 -0.357581,0.74681 -0.386571,1.93751 -0.789062,2.61132 -0.402491,0.67382 -1.181039,0.8327 -1.835938,0.79102 -0.654899,-0.0417 -1.187011,-0.28332 -1.626953,-0.72266 -0.439943,-0.43935 -0.786824,-1.07827 -1.630859,-1.57617 -0.844035,-0.49791 -2.184997,-0.85532 -3.25,-1.14258 -1.065003,-0.28727 -1.853547,-0.50291 -2.283203,-0.83008 -0.429655,-0.32715 -0.498854,-0.76569 -0.371094,-1.1621 0.127761,-0.39642 0.453725,-0.75029 1.041016,-0.95704 0.587292,-0.20674 1.434756,-0.26736 2.308593,-0.5039 0.873838,-0.23655 1.773673,-0.64858 2.453125,-1.05664 0.679451,-0.40806 1.138775,-0.81123 1.75586,-0.98633 0.617084,-0.1751 1.390495,-0.12219 1.982422,-0.13281 0.591927,-0.0106 1.002578,-0.0856 1.009765,-0.24805 0.0072,-0.16246 -0.388163,-0.414 -0.859375,-0.585938 -0.471211,-0.171936 -1.019145,-0.262643 -1.292968,-0.521484 -0.273826,-0.258842 -0.272427,-0.685676 0.148437,-0.929687 0.420865,-0.244011 1.260241,-0.30421 1.667969,-0.447266 0.407728,-0.143057 0.384578,-0.370728 0.15039,-0.607422 -0.234188,-0.236693 -0.679452,-0.48166 -0.802734,-1.136719 -0.123282,-0.655059 0.07605,-1.720244 -0.666016,-2.398437 -0.742067,-0.678192 -2.427821,-0.968586 -3.515625,-1.320313 -1.087803,-0.351728 -1.577767,-0.766207 -1.984375,-1.279296 -0.406609,-0.513093 -0.728342,-1.126139 -0.728515,-1.533204 -1.74e-4,-0.407065 0.322212,-0.607074 0.800781,-0.705078 0.478569,-0.098 1.112518,-0.09395 1.423828,-0.226562 0.311309,-0.132611 0.301237,-0.402669 -0.539062,-0.580078 -0.8403,-0.177409 -2.512082,-0.260793 -3.402344,-0.621094 -0.890261,-0.360302 -0.998632,-0.99777 -0.996094,-1.441406 0.0025,-0.443636 0.116353,-0.692632 0.404297,-0.84961 0.287945,-0.156977 0.748255,-0.221737 0.960937,-0.394531 0.212684,-0.172795 0.178265,-0.455192 -0.130859,-0.693359 -0.309123,-0.238167 -0.893826,-0.431796 -1.097656,-0.763672 -0.203831,-0.331876 -0.02493,-0.801161 0.210937,-1.056641 0.235863,-0.25548 0.528232,-0.295228 0.738282,-0.572265 0.21005,-0.27704 0.338436,-0.793087 0.353515,-1.273438 0.01508,-0.48035 -0.08438,-0.926407 -0.324219,-1.189453 -0.119921,-0.131523 -0.273977,-0.216227 -0.4375,-0.244141 z m 1.208985,12.90625 a 0.84078711,0.84078711 0 0 1 0.0098,0 0.84078711,0.84078711 0 0 1 0.839844,0.839844 0.84078711,0.84078711 0 0 1 -0.839844,0.841797 0.84078711,0.84078711 0 0 1 -0.841796,-0.841797 0.84078711,0.84078711 0 0 1 0.832031,-0.839844 z m -5.826172,2.94336 a 1.4293381,1.4293381 0 0 1 0.0332,0 1.4293381,1.4293381 0 0 1 1.429688,1.427734 1.4293381,1.4293381 0 0 1 -1.429688,1.429688 1.4293381,1.4293381 0 0 1 -1.429687,-1.429688 1.4293381,1.4293381 0 0 1 1.396484,-1.427734 z m 1.902344,17.404294 a 1.765653,1.3872988 0 0 1 0.002,0 1.765653,1.3872988 0 0 1 0.0625,0 1.765653,1.3872988 0 0 1 1.765625,1.38672 1.765653,1.3872988 0 0 1 -1.765625,1.38672 1.765653,1.3872988 0 0 1 -1.765625,-1.38672 1.765653,1.3872988 0 0 1 1.701172,-1.38672 z m 13.433593,4.70703 a 1.6815742,1.5134169 0 0 1 1.681641,1.51368 1.6815742,1.5134169 0 0 1 -1.681641,1.51367 1.6815742,1.5134169 0 0 1 -1.68164,-1.51367 1.6815742,1.5134169 0 0 1 1.68164,-1.51368 z" />
    </g>
  </g>
</svg>
