<?xml version="1.0" encoding="UTF-8" standalone="no"?>
<svg
   width="394.95764pt"
   height="284.944pt"
   viewBox="0 0 394.95764 284.944"
   fill-rule="evenodd"
   version="1.1"
   id="svg70"
   sodipodi:docname="director.svg"
   inkscape:version="1.1.2 (b8e25be833, 2022-02-05)"
   xmlns:inkscape="http://www.inkscape.org/namespaces/inkscape"
   xmlns:sodipodi="http://sodipodi.sourceforge.net/DTD/sodipodi-0.dtd"
   xmlns="http://www.w3.org/2000/svg"
   xmlns:svg="http://www.w3.org/2000/svg"
   xmlns:rdf="http://www.w3.org/1999/02/22-rdf-syntax-ns#"
   xmlns:cc="http://creativecommons.org/ns#"
   xmlns:dc="http://purl.org/dc/elements/1.1/">
  <metadata
     id="metadata76">
    <rdf:RDF>
      <cc:Work
         rdf:about="">
        <dc:format>image/svg+xml</dc:format>
        <dc:type
           rdf:resource="http://purl.org/dc/dcmitype/StillImage" />
      </cc:Work>
    </rdf:RDF>
  </metadata>
  <defs
     id="defs74" />
  <sodipodi:namedview
     pagecolor="#ffffff"
     bordercolor="#666666"
     borderopacity="1"
     objecttolerance="10"
     gridtolerance="10"
     guidetolerance="10"
     inkscape:pageopacity="0"
     inkscape:pageshadow="2"
     inkscape:window-width="1664"
     inkscape:window-height="1062"
     id="namedview72"
     showgrid="false"
     inkscape:zoom="0.63496742"
     inkscape:cx="232.29538"
     inkscape:cy="156.70095"
     inkscape:window-x="0"
     inkscape:window-y="0"
     inkscape:window-maximized="0"
     inkscape:current-layer="svg70"
     inkscape:pagecheckerboard="0"
     inkscape:document-units="pt" />
  <g
     id="g68"
     inkscape:export-filename="C:\ScummIcons\engine\pngs\macromedia.png"
     inkscape:export-xdpi="93.339996"
     inkscape:export-ydpi="93.339996"
     transform="translate(-121.36518,-305.449)">
    <g
       id="g66">
      <g
         id="g10">
        <path
           style="fill:#4e5ea1;stroke:#4e5ea1;stroke-width:1.5"
           d="m 192.393,355.258 v 94.14 h 126.451 v -94.14 z"
           id="path2" />
        <path
           style="fill:#e31b31;stroke:#e31b31;stroke-width:1.5"
           d="m 318.844,355.139 v 94.259 h 128.112 v -94.259 z"
           id="path4" />
        <path
           style="fill:#ffd410;stroke:#ffd410;stroke-width:1.5"
           d="m 192.274,449.398 v 91.095 h 126.57 v -91.095 z"
           id="path6" />
        <path
           style="fill:#0096ab;stroke:#0096ab;stroke-width:1.5"
           d="m 318.844,449.398 v 91.174 h 128.112 v -91.174 z"
           id="path8" />
      </g>
      <path
         style="fill:none;stroke:#2b2a28;stroke-width:4.5"
         d="M 447.055,540.615 V 355.186 H 192.256 v 185.429 z"
         id="path12" />
      <path
         style="fill:#000000;stroke:#2e292a;stroke-width:4.5"
         d="M 447.055,355.215 V 307.699 H 192.256 v 47.516 z"
         id="path14" />
      <path
         style="fill:#000000;stroke:#2d2d29;stroke-width:4.5"
         d="M 447.055,588.143 V 540.627 H 192.256 v 47.516 z"
         id="path16" />
      <g
         id="g22">
        <path
           style="fill:none;stroke:none"
           d="M 318.844,518.345 122.873,449.463 318.844,380.58 514.815,449.463 Z"
           id="path18" />
        <path
           style="fill:#000000;stroke:#000000;stroke-width:1"
           d="M 318.844,518.345 122.873,449.463 318.844,380.58 514.815,449.463 Z"
           id="path20" />
      </g>
      <path
         style="fill:#ffffff;stroke:#ffffff;stroke-width:3.028"
         d="m 269.259,495.606 h 23.07 v -2.379 h -1.665 c -6.421,0 -8.919,-1.849 -8.919,-12.552 v -74.917 h 0.238 l 28.421,89.848 h 3.211 l 27.707,-88.262 h 0.238 v 85.883 h -10.227 v 2.379 h 37.697 v -2.379 h -8.919 v -88.261 h 8.919 v -2.379 h -28.659 l -20.097,63.818 h -0.238 l -19.739,-63.818 h -30.443 v 2.379 h 9.038 v 76.898 c 0,5.682 -1.19,11.363 -9.157,11.363 h -0.476 z"
         id="path24" />
      <g
         id="g42">
        <path
           style="fill:#ffffff;stroke:#ffffff;stroke-width:0.9285"
           d="m 213.582,316.612 h -3.059 v -0.713 h 6.708 l 7.298,23.703 7.16,-23.703 h 6.603 v 0.713 h -3.059 v 29.94 h 3.059 v 0.713 h -9.87 v -0.713 h 3.267 v -28.247 h -0.07 l -8.48,28.247 h -0.313 l -8.619,-27.712 h -0.069 v 24.014 c 0,2.941 0.313,3.698 2.154,3.698 h 1.391 v 0.713 h -7.16 v -0.713 h 0.904 c 1.842,0 2.155,-0.757 2.155,-3.698 z"
           id="path26" />
        <path
           style="fill:#ffffff;stroke:#ffffff;stroke-width:0.9285"
           d="m 254.281,337.107 h -7.438 l -1.425,5.614 c -0.243,0.891 -0.521,1.96 -0.521,2.718 0,0.623 0.417,1.113 1.529,1.113 h 1.808 v 0.713 h -7.16 v -0.713 h 1.112 c 1.078,0 1.529,-0.133 2.19,-2.628 l 7.472,-28.738 h 0.382 l 8.445,31.366 h 2.885 v 0.713 h -10.183 v -0.713 h 3.406 z m -3.754,-14.213 h -0.069 l -3.406,13.5 h 7.055 z"
           id="path28" />
        <path
           style="fill:#ffffff;stroke:#ffffff;stroke-width:0.9285"
           d="m 269.409,316.612 h -3.301 v -0.713 h 10.878 c 9.244,0 11.851,9.758 11.851,15.683 0,9.713 -4.692,15.683 -11.817,15.683 h -10.912 v -0.713 h 3.301 z m 3.545,29.94 h 2.989 c 3.128,0 8.932,-1.514 8.932,-14.97 0,-7.618 -1.703,-14.97 -10.218,-14.97 h -1.703 z"
           id="path30" />
        <path
           style="fill:#ffffff;stroke:#ffffff;stroke-width:0.9285"
           d="m 294.496,316.612 h -3.059 v -0.713 h 18.524 l 0.417,7.574 h -0.556 c 0,-5.123 -2.641,-6.861 -6.325,-6.861 h -5.457 v 14.346 h 2.607 c 3.615,0 3.962,-2.806 3.962,-5.703 h 0.556 v 11.852 h -0.556 c 0,-3.386 -0.347,-5.436 -3.997,-5.436 h -2.572 v 14.881 h 4.762 c 5.63,0 8.341,-0.846 8.341,-8.42 h 0.556 v 9.133 h -20.262 v -0.713 h 3.059 z"
           id="path32" />
        <path
           style="fill:#ffffff;stroke:#ffffff;stroke-width:0.9285"
           d="m 326.737,316.612 h -2.468 v -0.713 h 8.063 v 0.713 h -1.842 l 6.603,24.683 h 0.07 l 2.606,-9.356 -4.135,-15.327 h -2.086 v -0.713 h 14.145 v 0.713 h -0.938 c -1.39,0 -2.224,0.401 -2.746,2.451 l -2.05,7.262 3.858,14.97 h 0.069 l 5.943,-21.43 c 0.347,-1.293 0.417,-1.649 0.417,-2.005 0,-0.669 -0.348,-1.248 -1.529,-1.248 h -1.008 v -0.713 h 6.186 v 0.713 h -0.313 c -1.807,0 -2.467,0.98 -3.023,2.985 l -8.028,28.738 h -0.452 l -3.927,-15.238 h -0.07 l -4.275,15.238 h -0.451 z m 14.805,8.688 h 0.069 l 1.599,-5.747 c 0.243,-0.847 0.313,-1.426 0.313,-1.827 0,-0.535 -0.139,-1.114 -1.39,-1.114 h -2.885 z"
           id="path34" />
        <path
           style="fill:#ffffff;stroke:#ffffff;stroke-width:0.9285"
           d="m 362.364,316.612 h -3.163 v -0.713 h 9.87 v 0.713 h -3.162 v 29.94 h 3.162 v 0.713 h -9.87 v -0.713 h 3.163 z"
           id="path36" />
        <path
           style="fill:#ffffff;stroke:#ffffff;stroke-width:0.9285"
           d="m 380.702,316.612 h -0.73 c -6.186,0 -7.577,1.203 -7.577,8.51 h -0.556 v -9.223 h 21.27 v 9.223 h -0.556 c 0,-7.307 -1.39,-8.51 -7.542,-8.51 h -0.765 v 29.94 h 3.58 v 0.713 h -10.704 v -0.713 h 3.58 z"
           id="path38" />
        <path
           style="fill:#ffffff;stroke:#ffffff;stroke-width:0.9285"
           d="m 398.655,316.612 h -3.059 v -0.713 h 9.871 v 0.713 H 402.2 v 14.168 h 12.65 v -14.168 h -3.267 v -0.713 h 9.87 v 0.713 h -3.058 v 29.94 h 3.058 v 0.713 h -9.87 v -0.713 h 3.267 V 331.493 H 402.2 v 15.059 h 3.267 v 0.713 h -9.871 v -0.713 h 3.059 z"
           id="path40" />
      </g>
      <g
         id="g64">
        <path
           style="fill:#ffffff;stroke:#ffffff;stroke-width:0.9375"
           d="m 207.206,550.737 h -3.089 v -0.72 h 6.775 l 7.372,23.942 7.231,-23.942 h 6.67 v 0.72 h -3.089 v 30.243 h 3.089 v 0.72 h -9.97 v -0.72 h 3.3 v -28.533 h -0.07 l -8.566,28.533 h -0.315 l -8.706,-27.993 h -0.071 v 24.258 c 0,2.97 0.316,3.735 2.177,3.735 h 1.404 v 0.72 h -7.231 v -0.72 h 0.912 c 1.861,0 2.177,-0.765 2.177,-3.735 z"
           id="path44" />
        <path
           style="fill:#ffffff;stroke:#ffffff;stroke-width:0.9375"
           d="m 248.316,571.439 h -7.513 l -1.439,5.671 c -0.246,0.9 -0.527,1.98 -0.527,2.745 0,0.63 0.421,1.125 1.545,1.125 h 1.825 v 0.72 h -7.231 v -0.72 h 1.123 c 1.088,0 1.545,-0.135 2.212,-2.655 l 7.547,-29.028 h 0.386 l 8.531,31.683 h 2.914 v 0.72 h -10.286 v -0.72 h 3.44 z m -3.792,-14.356 h -0.07 l -3.44,13.636 h 7.126 z"
           id="path46" />
        <path
           style="fill:#ffffff;stroke:#ffffff;stroke-width:0.9375"
           d="M 276.361,560.278 H 275.8 c 0,-5.175 -3.405,-10.261 -7.723,-10.261 -6.249,0 -7.092,9.946 -7.092,15.841 0,5.896 0.843,15.842 7.092,15.842 4.423,0 7.723,-5.581 7.723,-11.206 h 0.561 V 581.16 H 275.8 c 0,-0.9 -0.351,-2.25 -1.194,-2.25 -1.053,0 -2.914,3.51 -6.529,3.51 -5.933,0 -11.094,-7.336 -11.094,-16.562 0,-9.225 5.161,-16.561 11.094,-16.561 3.58,0 5.125,3.285 6.424,3.285 0.983,0 1.299,-0.855 1.299,-1.935 h 0.561 z"
           id="path48" />
        <path
           style="fill:#ffffff;stroke:#ffffff;stroke-width:0.9375"
           d="m 283.203,550.737 h -3.51 v -0.72 h 10.777 c 4.037,0 8.425,1.17 8.425,7.966 0,5.49 -4.95,6.93 -7.512,7.336 v 0.09 c 4.037,0.449 6.178,1.575 6.705,7.515 l 0.491,5.491 c 0.246,2.655 1.229,2.835 1.826,2.835 0.631,0 1.088,-0.27 1.439,-0.45 l 0.21,0.585 c -0.702,0.315 -1.579,0.585 -2.878,0.585 -4.283,0 -4.529,-2.925 -5.02,-8.101 l -0.246,-2.7 c -0.246,-2.835 -0.877,-5.401 -4.844,-5.401 h -2.282 v 15.212 h 3.581 v 0.72 h -10.672 v -0.72 h 3.51 z m 3.581,14.311 h 1.755 c 4.142,0 6.565,-1.845 6.565,-7.065 0,-3.601 -0.948,-7.246 -5.933,-7.246 h -2.387 z"
           id="path50" />
        <path
           style="fill:#ffffff;stroke:#ffffff;stroke-width:0.9375"
           d="m 313.145,549.297 c 5.932,0 11.093,7.336 11.093,16.561 0,9.226 -5.161,16.562 -11.093,16.562 -5.933,0 -11.093,-7.336 -11.093,-16.562 0,-9.225 5.16,-16.561 11.093,-16.561 z m 0,32.403 c 6.248,0 7.091,-9.946 7.091,-15.842 0,-5.895 -0.843,-15.841 -7.091,-15.841 -6.249,0 -7.092,9.946 -7.092,15.841 0,5.896 0.843,15.842 7.092,15.842 z"
           id="path52" />
        <path
           style="fill:#ffffff;stroke:#ffffff;stroke-width:0.9375"
           d="m 327.743,550.737 h -3.089 v -0.72 h 6.775 l 7.372,23.942 7.231,-23.942 h 6.67 v 0.72 h -3.089 v 30.243 h 3.089 v 0.72 h -9.969 v -0.72 h 3.299 v -28.533 h -0.07 l -8.565,28.533 h -0.316 l -8.706,-27.993 h -0.07 v 24.258 c 0,2.97 0.315,3.735 2.176,3.735 h 1.404 v 0.72 h -7.231 v -0.72 h 0.912 c 1.861,0 2.177,-0.765 2.177,-3.735 z"
           id="path54" />
        <path
           style="fill:#ffffff;stroke:#ffffff;stroke-width:0.9375"
           d="m 358.848,550.737 h -3.089 v -0.72 h 18.71 l 0.422,7.651 h -0.562 c 0,-5.176 -2.668,-6.931 -6.389,-6.931 h -5.512 v 14.492 h 2.633 c 3.651,0 4.002,-2.836 4.002,-5.761 h 0.562 v 11.971 h -0.562 c 0,-3.42 -0.351,-5.49 -4.037,-5.49 h -2.598 v 15.031 h 4.81 c 5.687,0 8.425,-0.855 8.425,-8.506 h 0.562 v 9.226 h -20.466 v -0.72 h 3.089 z"
           id="path56" />
        <path
           style="fill:#ffffff;stroke:#ffffff;stroke-width:0.9375"
           d="m 382.259,550.737 h -3.335 v -0.72 h 10.988 c 9.338,0 11.971,9.856 11.971,15.841 0,9.811 -4.739,15.842 -11.936,15.842 h -11.023 v -0.72 h 3.335 z m 3.581,30.243 h 3.019 c 3.159,0 9.022,-1.53 9.022,-15.122 0,-7.695 -1.72,-15.121 -10.321,-15.121 h -1.72 z"
           id="path58" />
        <path
           style="fill:#ffffff;stroke:#ffffff;stroke-width:0.9375"
           d="m 406.11,550.737 h -3.195 v -0.72 h 9.97 v 0.72 h -3.195 v 30.243 h 3.195 v 0.72 h -9.97 v -0.72 h 3.195 z"
           id="path60" />
        <path
           style="fill:#ffffff;stroke:#ffffff;stroke-width:0.9375"
           d="m 429.326,571.439 h -7.512 l -1.439,5.671 c -0.246,0.9 -0.527,1.98 -0.527,2.745 0,0.63 0.421,1.125 1.545,1.125 h 1.825 v 0.72 h -7.231 v -0.72 h 1.123 c 1.088,0 1.545,-0.135 2.212,-2.655 l 7.547,-29.028 h 0.386 l 8.531,31.683 h 2.913 v 0.72 h -10.285 v -0.72 h 3.44 z m -3.791,-14.356 h -0.07 l -3.44,13.636 h 7.126 z"
           id="path62" />
      </g>
    </g>
  </g>
</svg>
