<?xml version="1.0" encoding="UTF-8" standalone="no"?>
<!-- Created with Inkscape (http://www.inkscape.org/) -->

<svg
   version="1.1"
   id="svg2"
   width="78.940102"
   height="90.955521"
   viewBox="0 0 78.940102 90.955522"
   sodipodi:docname="gob-new-v1.svg"
   inkscape:version="1.1.2 (b8e25be833, 2022-02-05)"
   xmlns:inkscape="http://www.inkscape.org/namespaces/inkscape"
   xmlns:sodipodi="http://sodipodi.sourceforge.net/DTD/sodipodi-0.dtd"
   xmlns:xlink="http://www.w3.org/1999/xlink"
   xmlns="http://www.w3.org/2000/svg"
   xmlns:svg="http://www.w3.org/2000/svg">
  <defs
     id="defs6">
    <inkscape:path-effect
       effect="bspline"
       id="path-effect11432"
       is_visible="true"
       lpeversion="1"
       weight="33.333333"
       steps="2"
       helper_size="0"
       apply_no_weight="true"
       apply_with_weight="true"
       only_selected="false" />
    <inkscape:path-effect
       effect="bspline"
       id="path-effect11428"
       is_visible="true"
       lpeversion="1"
       weight="33.333333"
       steps="2"
       helper_size="0"
       apply_no_weight="true"
       apply_with_weight="true"
       only_selected="false" />
    <inkscape:path-effect
       effect="bspline"
       id="path-effect11406"
       is_visible="true"
       lpeversion="1"
       weight="33.333333"
       steps="2"
       helper_size="0"
       apply_no_weight="true"
       apply_with_weight="true"
       only_selected="false" />
    <inkscape:path-effect
       effect="bspline"
       id="path-effect10496"
       is_visible="true"
       lpeversion="1"
       weight="33.333333"
       steps="2"
       helper_size="0"
       apply_no_weight="true"
       apply_with_weight="true"
       only_selected="false" />
    <inkscape:path-effect
       effect="bspline"
       id="path-effect10470"
       is_visible="true"
       lpeversion="1"
       weight="33.333333"
       steps="2"
       helper_size="0"
       apply_no_weight="true"
       apply_with_weight="true"
       only_selected="false" />
    <linearGradient
       inkscape:collect="always"
       id="linearGradient1451">
      <stop
         style="stop-color:#550900;stop-opacity:1"
         offset="0"
         id="stop1447" />
      <stop
         style="stop-color:#c34429;stop-opacity:1;"
         offset="0.34397122"
         id="stop9972" />
      <stop
         style="stop-color:#e0c353;stop-opacity:1"
         offset="1"
         id="stop1449" />
    </linearGradient>
    <inkscape:path-effect
       effect="bspline"
       id="path-effect881"
       is_visible="true"
       lpeversion="1"
       weight="33.333333"
       steps="2"
       helper_size="0"
       apply_no_weight="true"
       apply_with_weight="true"
       only_selected="false" />
    <linearGradient
       inkscape:collect="always"
       xlink:href="#linearGradient1451"
       id="linearGradient1453"
       x1="59.4506"
       y1="94.43647"
       x2="62.068073"
       y2="9.2112684"
       gradientUnits="userSpaceOnUse" />
    <linearGradient
       inkscape:collect="always"
       xlink:href="#linearGradient1451"
       id="linearGradient10600"
       x1="84.739525"
       y1="77.65255"
       x2="86.140625"
       y2="35.957031"
       gradientUnits="userSpaceOnUse" />
    <linearGradient
       inkscape:collect="always"
       xlink:href="#linearGradient1451"
       id="linearGradient11520"
       x1="104.87161"
       y1="82.216019"
       x2="106.86477"
       y2="24.498426"
       gradientUnits="userSpaceOnUse" />
  </defs>
  <sodipodi:namedview
     id="namedview4"
     pagecolor="#ffffff"
     bordercolor="#666666"
     borderopacity="1.0"
     inkscape:pageshadow="2"
     inkscape:pageopacity="0.0"
     inkscape:pagecheckerboard="0"
     showgrid="false"
     inkscape:zoom="2"
     inkscape:cx="351.25"
     inkscape:cy="176"
     inkscape:window-width="2560"
     inkscape:window-height="1377"
     inkscape:window-x="-8"
     inkscape:window-y="-8"
     inkscape:window-maximized="1"
     inkscape:current-layer="g8" />
  <g
     inkscape:groupmode="layer"
     inkscape:label="Image"
     id="g8"
     transform="translate(-40.771102,-3.7866596)">
    <path
       style="fill:url(#linearGradient1453);fill-opacity:1;stroke:none;stroke-width:1px;stroke-linecap:butt;stroke-linejoin:miter;stroke-opacity:1"
       d="m 65.445531,20.9475 c -0.06741,0.471897 -0.202121,1.414852 -0.329332,2.4701 -0.127211,1.055248 -0.246949,2.222693 -0.246739,3.02361 2.1e-4,0.800917 0.119948,1.234967 0.292942,1.479725 0.172994,0.244758 0.426557,0.308149 0.807589,-0.0062 0.381032,-0.314397 0.904886,-1.002891 1.391295,-2.065363 0.48641,-1.062473 0.935427,-2.499329 1.698785,-4.205786 0.763358,-1.706458 1.841,-3.682135 2.656743,-5.134022 0.815744,-1.451888 1.369531,-2.379857 1.661468,-3.187783 0.291936,-0.807925 0.321872,-1.496418 0.225135,-1.937978 -0.09674,-0.44156 -0.321246,-0.636135 -0.80819,-0.653186 -0.486943,-0.01705 -1.264576,0.150673 -2.027977,0.345239 -0.763402,0.194566 -1.526732,0.419075 -2.387109,0.396883 C 67.519765,11.4505 66.56186,11.181089 65.603807,10.515381 64.645754,9.849672 63.687851,8.786998 62.849642,7.8290809 62.011433,6.8711638 61.293005,6.0180313 60.462437,5.3293101 59.63187,4.640589 58.688934,4.1167356 58.119792,3.8992743 57.550651,3.681813 57.356077,3.7716165 56.936701,4.2357942 c -0.419375,0.4641777 -1.062967,1.3023437 -2.612168,3.8619243 -1.549202,2.5595805 -4.00383,6.8402125 -5.822406,10.1480995 -1.818577,3.307887 -3.000989,5.642777 -3.667036,7.102271 -0.666047,1.459494 -0.81572,2.043217 -1.070159,3.225705 -0.25444,1.182488 -0.613654,2.963591 -1.032711,6.705605 -0.419057,3.742015 -0.898009,9.444536 -1.287152,15.424153 -0.389144,5.979617 -0.688489,12.235925 -0.673422,16.614038 0.01507,4.378113 0.344347,6.877643 1.42241,9.2051 1.078064,2.327456 2.904068,4.48274 5.044464,6.94492 2.140396,2.462179 4.595024,5.23112 6.384498,7.14078 1.789473,1.90966 2.913603,2.960035 3.909661,3.548335 0.996059,0.588301 1.863901,0.715302 2.572417,0.461244 0.708516,-0.254058 1.258855,-0.889065 2.433604,-2.68821 1.17475,-1.799145 2.973935,-4.762508 4.688492,-7.789423 1.714558,-3.026914 3.344408,-6.117278 4.44511,-8.487926 1.100702,-2.370648 1.672208,-4.021665 1.841752,-5.471356 0.169544,-1.449691 -0.06329,-2.698537 -0.518291,-4.286077 -0.454999,-1.587539 -1.132339,-3.513725 -1.989679,-6.413695 -0.857339,-2.899969 -1.894516,-6.773509 -2.476738,-9.588836 -0.582222,-2.815327 -0.709223,-4.572178 -0.410054,-5.684364 0.299169,-1.112186 1.024308,-1.578423 1.843409,-2.099679 0.819101,-0.521256 1.732103,-1.097495 2.371806,-1.595052 0.639704,-0.497556 1.006401,-0.916639 1.100175,-1.398784 0.09377,-0.482145 -0.08583,-1.028449 -0.291448,-1.27983 -0.205614,-0.251381 -0.437608,-0.206479 -0.886826,-0.01941 -0.449218,0.187073 -1.115261,0.516352 -2.488387,0.913015 -1.373126,0.396662 -3.453573,0.860647 -5.429146,1.029149 -1.975573,0.168503 -3.846479,0.04128 -5.32447,-0.186832 -1.477991,-0.228114 -2.563115,-0.557393 -3.32648,-0.770734 -0.763364,-0.213342 -1.204898,-0.310629 -1.509409,-0.240089 -0.30451,0.07054 -0.482591,0.326047 -0.561087,0.768006 -0.0785,0.441958 -0.06353,1.078066 0.157806,1.541944 0.221337,0.463878 0.647903,0.755739 1.564659,0.987413 0.916756,0.231674 2.323677,0.403797 3.610947,0.755747 1.28727,0.351949 2.454715,0.883286 3.464767,1.901413 1.010052,1.018127 1.863185,2.522335 2.682489,4.733818 0.819303,2.211482 1.605084,5.130095 2.072118,7.532395 0.467035,2.4023 0.617879,4.318016 0.610306,6.069143 -0.0076,1.751127 -0.172213,3.352622 -0.561434,4.879127 -0.38922,1.526506 -1.002877,2.978328 -1.721258,4.183021 -0.718382,1.204692 -1.541581,2.162596 -2.349691,2.910864 -0.808111,0.748267 -1.601375,1.287088 -2.716072,1.541622 -1.114696,0.254534 -2.551552,0.224602 -3.831237,-0.209057 -1.279686,-0.433658 -2.402229,-1.271824 -3.584962,-3.045321 -1.182734,-1.773498 -2.424991,-4.482516 -3.334401,-6.888606 -0.90941,-2.406091 -1.485649,-4.508989 -1.931049,-7.379069 -0.4454,-2.87008 -0.759718,-6.507194 -0.898222,-9.583096 -0.138503,-3.075903 -0.101085,-5.5904 0.201948,-8.385718 0.303032,-2.795319 0.871788,-5.871088 1.425581,-8.576524 0.553793,-2.705436 1.092614,-5.040326 1.743693,-7.300522 0.651079,-2.260197 1.414408,-4.445414 2.35741,-6.316571 0.943002,-1.871157 2.065545,-3.427751 3.218215,-4.632804 1.152671,-1.205054 2.335083,-2.058187 3.51054,-2.349851 1.175457,-0.291663 2.342902,-0.02225 3.225958,0.352245 0.883056,0.374497 1.481746,0.853449 1.997815,1.654388 0.516069,0.800939 0.950119,1.923482 1.099512,3.105768 0.149393,1.182286 0.01469,2.424568 -0.05262,3.045281 -0.06731,0.620712 -0.0673,0.620707 -0.134718,1.092605 z"
       id="path879"
       inkscape:path-effect="#path-effect881"
       inkscape:original-d="m 65.512945,20.475602 c -0.133708,0.943955 -0.268416,1.88691 -0.404123,2.828866 -0.118743,1.168492 -0.238481,2.335937 -0.359222,3.502405 0.120743,0.435068 0.240481,0.869118 0.359222,1.302177 0.225517,0.06087 0.479961,0.12074 0.718442,0.17961 0.524874,-0.68752 1.048728,-1.376014 1.571592,-2.065521 0.450035,-1.435913 0.899053,-2.872769 1.347079,-4.310653 1.078685,-1.974755 2.156327,-3.950432 3.23299,-5.927148 0.55481,-0.927006 1.108598,-1.854975 1.661397,-2.783963 0.03094,-0.687521 0.06087,-1.376014 0.08981,-2.065521 -0.223518,-0.193582 -0.448027,-0.388157 -0.67354,-0.583735 -0.747392,0.165647 -1.52569,0.330286 -2.290034,0.493929 -0.76236,0.225518 -1.52569,0.450027 -2.290035,0.67354 C 67.519577,11.451167 66.561673,11.181756 65.602751,10.91134 64.645808,9.8496235 63.687905,8.786949 62.728982,7.7232533 62.011525,6.8710862 61.293098,6.0179532 60.573655,5.1638031 59.631681,4.6409285 58.688745,4.1170749 57.744789,3.5922108 c -0.193582,0.090807 -0.388156,0.1806106 -0.583734,0.2694159 -0.642617,0.8391992 -1.286209,1.677365 -1.930813,2.5145475 -2.453727,4.2818038 -4.908355,8.5624358 -7.364033,12.8421538 -1.181459,2.335984 -2.363872,4.670874 -3.547308,7.004811 -0.148678,0.584746 -0.298351,1.168469 -0.449026,1.751203 -0.358228,1.782173 -0.717442,3.563276 -1.077663,5.343414 -0.477971,5.703748 -0.956923,11.406269 -1.436885,17.107904 -0.298357,6.257559 -0.597701,12.513867 -0.898052,18.769301 0.330292,2.50063 0.659572,5.00016 0.987858,7.49874 1.827077,2.15637 3.653081,4.311654 5.478121,6.46598 2.455727,2.770051 4.910355,5.538992 7.364032,8.306988 1.125174,1.051416 2.249303,2.101791 3.372454,3.151186 0.868877,0.128006 1.736719,0.255008 2.603578,0.381012 0.551361,-0.634032 1.1017,-1.269039 1.65105,-1.905058 1.800257,-2.962482 3.599442,-5.925845 5.397663,-8.890268 1.630915,-3.089489 3.260765,-6.179853 4.889648,-9.27128 0.572528,-1.650083 1.144034,-3.3011 1.714551,-4.953149 -0.231845,-1.247896 -0.46468,-2.496742 -0.698521,-3.746613 -0.676367,-1.925264 -1.353707,-3.85145 -2.032061,-5.778675 -1.036219,-3.872694 -2.073396,-7.746234 -3.111594,-11.62085 -0.126006,-1.755922 -0.253008,-3.512773 -0.381011,-5.27066 0.726167,-0.465255 1.451305,-0.931493 2.175458,-1.398739 0.914038,-0.575262 1.82704,-1.151501 2.739061,-1.728752 0.367712,-0.418099 0.734409,-0.837182 1.100114,-1.257273 -0.178614,-0.545327 -0.358221,-1.091631 -0.538831,-1.638947 -0.231002,0.0459 -0.462994,0.09081 -0.695991,0.134708 -0.665069,0.330293 -1.331112,0.659572 -1.998167,0.987858 -2.079531,0.465003 -4.159978,0.928988 -6.241467,1.391982 -1.86998,-0.126227 -3.740886,-0.253448 -5.612829,-0.381672 -1.084169,-0.328293 -2.169294,-0.657572 -3.255441,-0.987858 -0.440552,-0.09629 -0.882086,-0.193579 -1.324628,-0.291868 -0.163646,0.240486 -0.343254,0.494929 -0.51638,0.740894 0.01597,0.637133 0.03093,1.273241 0.0449,1.908362 0.427584,0.292873 0.85415,0.584734 1.279725,0.875601 1.407978,0.173131 2.814899,0.345254 4.220848,0.516381 1.168492,0.532358 2.335937,1.063695 3.502406,1.594043 0.854167,1.505269 1.7073,3.009477 2.55945,4.512715 0.786812,2.91973 1.572592,5.838343 2.357388,8.756014 0.150679,1.886948 0.300351,3.802756 0.449027,5.702635 -0.163647,1.602559 -0.328286,3.204054 -0.493929,4.804582 -0.612682,1.452881 -1.226339,2.904703 -1.841008,4.355555 -0.822232,0.958942 -1.64543,1.916846 -2.469645,2.873769 -0.792296,0.539842 -1.58556,1.078663 -2.37984,1.616495 -1.435913,-0.02894 -2.872769,-0.05887 -4.310653,-0.0898 -1.121588,-0.8372 -2.244132,-1.675365 -3.367698,-2.514548 -1.241331,-2.70818 -2.483588,-5.417198 -3.726919,-8.127377 -0.575262,-2.101982 -1.151501,-4.20488 -1.728751,-6.30882 -0.313318,-3.636113 -0.627637,-7.273227 -0.942955,-10.911341 0.03842,-2.513598 0.07584,-5.028095 0.112256,-7.543643 0.569778,-3.074892 1.138534,-6.150661 1.7063,-9.227491 0.539843,-2.333984 1.078664,-4.668874 1.616495,-7.004811 0.76436,-2.184306 1.52769,-4.369523 2.290035,-6.555785 1.123588,-1.555656 2.246131,-3.112249 3.367697,-4.669874 1.18346,-0.852167 2.365872,-1.7053 3.547309,-2.55945 1.168491,0.270421 2.335937,0.539831 3.502405,0.808247 0.599714,0.479971 1.198404,0.958923 1.796106,1.436884 0.435067,1.123589 0.869117,2.246132 1.302176,3.367698 -0.133711,1.243331 -0.268416,2.485613 -0.404124,3.726919 z"
       sodipodi:nodetypes="scccccccccccccccccccccccccccccccccccccccccccccccccccccccccccccccccccccccccss" />
    <path
       id="path10468"
       style="fill:url(#linearGradient10600);fill-opacity:1;stroke:none;stroke-width:1px;stroke-linecap:butt;stroke-linejoin:miter;stroke-opacity:1"
       d="m 86.140625,35.957031 c -0.165154,-0.0054 -0.325623,-1.49e-4 -0.480469,0.01172 -0.619382,0.04747 -1.149832,0.216933 -1.785156,0.65625 -0.635324,0.439317 -1.374597,1.14889 -2.136719,2.101562 -0.762121,0.952673 -1.545404,2.147044 -2.296875,3.628907 -0.751471,1.481862 -1.471163,3.249142 -2.021484,5.191406 -0.550322,1.942264 -0.932089,4.060246 -1.154297,5.806641 -0.222208,1.746394 -0.286015,3.122155 -0.275391,4.990234 0.01063,1.868079 0.09633,4.228344 0.339844,6.503906 0.243515,2.275562 0.645296,4.466109 1.164063,6.28125 0.518766,1.815142 1.154053,3.254551 1.796875,4.251953 0.642821,0.997402 1.303955,1.563551 2.171875,1.970703 0.867919,0.407153 1.94767,0.661708 3.132812,0.619141 1.185142,-0.04257 3.039289,-0.787995 4.113281,-1.269531 1.073993,-0.481537 1.932114,-1.105588 3.027344,-2.888672 1.09523,-1.783084 2.240189,-4.132308 2.867188,-6.818359 0.608788,-2.608034 0.922753,-4.24107 0.861328,-6.941407 -0.04864,-2.138228 -0.04318,-4.232967 -0.28125,-6.386718 -0.238068,-2.153752 -0.608638,-4.367077 -1.074219,-6.314454 -0.465581,-1.947376 -1.02623,-3.62859 -1.724609,-5.173828 -0.69838,-1.545237 -1.533735,-2.954181 -2.337891,-3.949218 -0.804156,-0.995037 -1.577483,-1.575839 -2.318359,-1.904297 -0.555657,-0.246344 -1.092429,-0.350982 -1.587891,-0.367189 z m -0.152344,7.47461 c 0.112669,-0.0068 0.231106,-0.0052 0.365235,0 0.268258,0.01045 0.60674,0.0315 0.992187,0.208984 0.385448,0.177482 0.81594,0.510904 1.271485,1.060547 0.455544,0.549642 0.936336,1.315077 1.339843,2.140625 0.403507,0.825548 0.731197,1.710938 1.080078,2.914062 0.348882,1.203125 0.718869,2.725318 0.921875,3.894532 0.203006,1.169213 0.238979,1.985708 0.220704,3.152343 -0.01828,1.166635 -0.09172,2.681767 -0.28711,4.017578 -0.195385,1.335812 -0.513013,2.493644 -0.929687,3.542969 -0.416675,1.049326 -0.932377,1.99105 -1.390625,2.667969 -0.458249,0.676919 -0.857789,1.089282 -1.294922,1.349609 -0.437134,0.260327 -0.911548,0.369024 -1.367188,0.375 -0.45564,0.006 -0.904312,-0.0945 -1.412109,-0.255859 -0.507798,-0.161355 -1.081142,-0.384449 -1.732422,-1.066406 -0.65128,-0.681957 -1.379298,-1.82355 -1.869141,-3.021485 -0.489843,-1.197934 -0.740763,-2.452375 -0.855468,-3.77539 -0.114706,-1.323015 -0.09372,-2.714793 -0.01563,-4.308594 0.0781,-1.593801 0.213601,-3.389811 0.5,-4.978516 0.286399,-1.588705 0.724602,-2.967955 1.177734,-4.08789 0.453132,-1.119935 0.922332,-1.979299 1.283203,-2.509766 0.360871,-0.530467 0.617208,-0.736628 0.88086,-0.902344 0.263651,-0.165715 0.543984,-0.298279 0.78125,-0.363281 0.118632,-0.0325 0.227175,-0.04787 0.339843,-0.05469 z"
       sodipodi:nodetypes="sssssssssssssssssssssssssssssssssssssssssssssss" />
    <path
       id="path11404"
       style="fill:url(#linearGradient11520);fill-opacity:1;stroke:none;stroke-width:1px;stroke-linecap:butt;stroke-linejoin:miter;stroke-opacity:1"
       d="m 104.92773,23.871094 c -0.5368,0.01056 -1.0744,0.04875 -1.59375,0.111328 -1.03869,0.125149 -2.00351,0.345708 -3.06445,0.861328 -1.060934,0.51562 -2.217164,1.327209 -3.011718,2.058594 -0.794553,0.731384 -1.230827,1.390498 -1.6875,2.064453 -0.456672,0.673955 -0.935819,1.365967 -1.197265,1.996094 -0.261446,0.630126 -0.304996,1.197371 -0.308594,1.683593 -0.0036,0.486223 0.03221,0.89055 0.283203,1.207032 0.25099,0.316481 0.715118,0.544486 1.164063,0.5625 0.448945,0.01801 0.882949,-0.174051 1.332031,-0.498047 0.449082,-0.323996 0.912936,-0.779011 1.28125,-1.128907 0.368314,-0.349895 0.641487,-0.593588 0.921875,-0.582031 0.280388,0.01156 0.568461,0.277091 0.689453,0.884766 0.120992,0.607675 0.07626,1.556981 0.142578,7.84375 0.06632,6.286769 0.243244,17.909811 0.291014,23.824219 0.0478,5.914407 -0.0326,6.121743 -0.171873,6.195312 -0.139252,0.07357 -0.338424,0.01403 -0.638672,-0.175781 -0.300248,-0.189812 -0.710334,-0.517814 -1.214844,-0.845703 -0.50451,-0.32789 -1.107618,-0.658426 -1.646484,-0.761719 -0.538866,-0.103293 -1.008634,0.02152 -1.380859,0.183594 -0.372226,0.162074 -0.645411,0.360096 -0.888672,0.699219 -0.243262,0.339122 -0.455812,0.819116 -0.595704,1.382812 -0.139891,0.563696 -0.206243,1.212147 -0.191406,1.974609 0.01484,0.762463 0.110906,1.637178 0.560547,2.675782 0.449641,1.038603 1.251506,2.240947 2.083985,3.216797 0.832478,0.975849 1.694559,1.727036 2.810546,2.375 1.115986,0.647963 2.485826,1.191669 3.892576,1.449218 1.40675,0.257549 2.85098,0.228422 4.47852,-0.257812 1.62753,-0.486234 3.4385,-1.428849 5.0293,-2.636719 1.59079,-1.20787 2.96129,-2.681794 4.125,-4.419922 1.1637,-1.738128 2.12239,-3.740324 2.66015,-5.412109 0.53776,-1.671786 0.65433,-3.012556 0.625,-4.183594 -0.0293,-1.171038 -0.20553,-2.173515 -0.5332,-3.359375 -0.32767,-1.18586 -0.8059,-2.555107 -1.53125,-3.947266 -0.72535,-1.392158 -1.69862,-2.807156 -2.91016,-4.169921 -1.21154,-1.362766 -2.66189,-2.674059 -3.96289,-3.681641 -1.30099,-1.007582 -2.46268,-1.71661 -2.86328,-2.205078 -0.4006,-0.488469 -0.0352,-0.764689 0.47656,-1.294922 0.51181,-0.530233 1.17368,-1.319136 1.94336,-2.361328 0.76969,-1.042193 1.64693,-2.337222 2.39453,-3.548828 0.74761,-1.211607 1.36603,-2.338467 1.83008,-3.56836 0.46405,-1.229892 0.77325,-2.563291 0.86914,-3.796875 0.0959,-1.233583 -0.0213,-2.367895 -0.40039,-3.505859 -0.37906,-1.137965 -1.02071,-2.281079 -1.52148,-3.083985 -0.50078,-0.802905 -0.86001,-1.265124 -1.51172,-1.74414 -0.65171,-0.479016 -1.59451,-0.972891 -2.54102,-1.333984 -0.94651,-0.361094 -1.89839,-0.589864 -2.92969,-0.689454 -0.51564,-0.04979 -1.05108,-0.0672 -1.58789,-0.05664 z m 1.69727,6.90039 c 0.46881,-0.0052 1.09431,0.0095 1.62305,0.103516 0.52874,0.09398 0.96161,0.266722 1.20117,0.371094 0.23955,0.104371 0.2857,0.140398 0.30859,0.158203 0.0229,0.0178 0.0228,0.01853 0.35157,0.216797 0.32871,0.198271 0.98531,0.592849 1.43554,1.041015 0.45023,0.448167 0.69567,0.948104 0.72656,1.765625 0.0309,0.817521 -0.1523,1.95332 -0.52734,3.09375 -0.37504,1.14043 -0.94279,2.286633 -1.57031,3.226563 -0.62753,0.93993 -1.31453,1.674537 -1.97852,2.296875 -0.66399,0.622337 -1.30518,1.132674 -1.76562,1.367187 -0.46045,0.234514 -0.74071,0.19287 -0.91016,0.13086 -0.16944,-0.06201 -0.22746,-0.146403 -0.23828,-2.115235 -0.0108,-1.968831 0.0267,-5.822858 0.0449,-8.007812 0.0182,-2.184955 0.0177,-2.700867 0.0488,-3.021484 0.0311,-0.320618 0.0927,-0.442731 0.28125,-0.519532 0.18858,-0.0768 0.49994,-0.102262 0.96875,-0.107422 z m -0.79297,22.197266 c 0.12932,-0.0016 0.26754,0.01743 0.4082,0.05664 0.28134,0.07843 0.56837,0.230434 0.9668,0.457031 0.39843,0.226597 0.90944,0.528994 1.16406,0.679687 0.25462,0.150694 0.254,0.151272 0.61133,0.419922 0.35733,0.26865 1.071,0.803325 1.67774,1.300781 0.60673,0.497457 1.10623,0.956282 1.61914,1.560547 0.5129,0.604266 1.03856,1.354778 1.4707,2.146485 0.43214,0.791706 0.77095,1.625014 1.01562,2.390625 0.24468,0.76561 0.39599,1.462992 0.4375,2.478515 0.0415,1.015524 -0.0253,2.349784 -0.19726,3.404297 -0.17195,1.054514 -0.45137,1.834508 -0.89063,2.667969 -0.43925,0.833461 -1.04311,1.729976 -1.66796,2.427734 -0.62486,0.697759 -1.2692,1.197928 -2.05274,1.53125 -0.78354,0.333323 -1.70656,0.499568 -2.38086,0.453125 -0.6743,-0.04644 -1.10021,-0.306722 -1.51953,-0.603515 -0.41931,-0.296793 -0.83095,-0.629689 -1.08398,-1.025391 -0.25304,-0.395702 -0.34819,-0.854078 -0.38477,-4.15625 -0.0366,-3.302172 -0.0142,-9.449457 0.0586,-12.626953 0.0728,-3.177496 0.19732,-3.384628 0.39844,-3.486328 0.10056,-0.05085 0.22029,-0.07457 0.34961,-0.07617 z" />
  </g>
</svg>
