<svg viewBox="0 0 387.08 368.35" xmlns="http://www.w3.org/2000/svg" xmlns:xlink="http://www.w3.org/1999/xlink">
  <defs>
    <linearGradient id="a">
      <stop stop-color="#24344e" offset="0"/>
      <stop stop-color="#fdfcfd" offset="1"/>
    </linearGradient>
    <linearGradient id="d" x1="258.35" x2="259.7" y1="49.077" y2="150.3" gradientUnits="userSpaceOnUse" xlink:href="#a"/>
    <linearGradient id="e" x1="120.48" x2="120.03" y1="54.976" y2="149.79" gradientUnits="userSpaceOnUse" xlink:href="#a"/>
    <linearGradient id="b" x1="148.64" x2="148.53" y1="15.056" y2="228.91" gradientUnits="userSpaceOnUse">
      <stop stop-color="#244067" offset="0"/>
      <stop stop-color="#ed843e" offset=".331"/>
      <stop stop-color="#c0b5ad" offset="1"/>
    </linearGradient>
    <filter id="c" x="-.113" y="-.163" width="1.226" height="1.326" color-interpolation-filters="sRGB">
      <feGaussianBlur result="result8" stdDeviation="15"/>
      <feTurbulence baseFrequency=".025" numOctaves="5" result="result7" seed="27" type="fractalNoise"/>
      <feComposite in="result7" in2="result8" result="result6"/>
      <feColorMatrix result="result9" values="1 0 0 0 0 0 1 0 0 0 0 0 1 0 0 0 0 0 6 -4"/>
      <feDisplacementMap in="result7" in2="result9" result="result4" scale="45"/>
      <feComposite in="result8" in2="result4" operator="in" result="result2"/>
      <feComposite in="result2" in2="result9" operator="in" result="fbSourceGraphic"/>
      <feComposite in="fbSourceGraphic" in2="fbSourceGraphic" k1=".5" k2="1" operator="arithmetic" result="result91"/>
      <feBlend in="fbSourceGraphic" in2="result91" mode="multiply"/>
    </filter>
  </defs>
  <g transform="translate(32.071 64.586)">
    <rect transform="matrix(.98909 0 0 1.2589 1.761 -32.091)" x="1.795" y="10.188" width="319.35" height="220.6" ry="40.431" fill="url(#b)" filter="url(#c)"/>
    <g stroke="#000" fill="#140be3" aria-label="Legend">
      <path d="M226.29 48.82v4.55l22.434 22.435-5.693 5.693h-16.703v3.895h16.143v4.644l-7.305 7.305h-24.83v4.418h27.826l6.404-6.404L254.81 105.6h-12.266l-8.174 8.173v4.467h4.055l7.865-7.865h12.06v12.021l-7.51 7.51v3.427l7.51 7.743v5.029l-7.786 8.02v11.267l7.785 8.52h4.44v-2.039l-7.848-8.326v-6.73l3.408-3.222v4.008h4.44v-8.353l7.845-8.174v-11.17l-7.845-7.51v-12.02h12.078l7.922 7.864h3.875v-4.466l-8.258-8.174h-11.404l9.54-9.916 6.62 6.076h27.436v-4.418h-24.906l-6.967-7.305v-4.644h15.881v-3.895h-16.219l-5.822-5.693 22.02-22.434v-4.55h-3.987l-24.383 24.85v3.671l8.052 8.05v4.645l-11.479 12.811v-2.398l3.5-4.149.018-3.814-3.227-6.488-1.31-.758h-2.258l-1.436.828-3.144 6.418.02 3.815 3.398 4.16v2.242l-11.246-12.666v-4.645c2.605-2.47 4.837-5.723 7.576-8.05V73.67l-24.85-24.85zm34.383 42.521 1.363 2.25v1.895l-1.28 1.28-1.376-1.374v-1.688zm-2.324 36.865v6.727l-2.946-3.55zm4.44.482 3.726 3.633.037 6.217-3.764 4.082z" fill="url(#d)" transform="translate(-.293)"/>
      <path d="M220.78 111.67c.813.23 1.563 1.02 2.25 2.375.146.02.646.77 1.5 2.25.208 0 .542.667 1 2 .167-.083.292-.125.375-.125l1.125 1.5v.125l-.375.5v.125h.875c.354.5.563.75.625.75.688.667 1.188 1.292 1.5 1.875.167 0 .458.333.875 1 .354 0 .604.458.75 1.375 0 .375-.292 1-.875 1.875 0 .25-.042.375-.125.375l.125.625v.875a.99.99 0 0 1-.125.5.99.99 0 0 1 .125.5v.25c0 .083-.042.125-.125.125l.125.25v1.25a.99.99 0 0 1-.125.5.99.99 0 0 1 .125.5v.625c0 .167-.083.25-.25.25.167.27.25.52.25.75 0 .292-.042.667-.125 1.125.083.146.125.354.125.625-.167.02-.25.104-.25.25v.25c0 .083.083.417.25 1l-.375 1.625c.25 0 .375.083.375.25v3.875l.25.375v.5h-.25v.125h.125a.99.99 0 0 1 .5-.125l.125.25v.25l-.125.25c.167.02.25.104.25.25 0 .688-.542 1.313-1.625 1.875 0 0-.708.583-1.375 1h-.5c-.063 0-.562-.292-1.5-.875-.104.5-.23.75-.375.75-.167 0-.75.354-.75.5v1c0 .083-.042.125-.125.125l.125.25v.25c-1.48 1.333-2.563 2-3.25 2 0 .083-.042.125-.125.125-.5 0-1.583-.583-3.25-1.75-.833-.333-1.292-.625-1.375-.875v-.875h-.375c-.354.25-.77.375-1.25.375 0-.167-.333-.333-1-.5l-.875-1.5c.167-.083.292-.125.375-.125l-.125-.875.75-1.25-.125-.625v-4c0-.25.042-.375.125-.375l-.125-.625v-6.375l.125-.75c-.083-.146-.125-.354-.125-.625 0-.083.042-.208.125-.375l-.125-.75v-.125c.083-.354.125-.646.125-.875-.104 0-.354-.292-.75-.875v-.125c0-.083.042-.125.125-.125-.167-.333-.25-.583-.25-.75 0-.52 1.5-1.312 4.5-2.375 0-.062.25-.23.75-.5h.5c.125 0 .625.25.625.25l.5-.5c.02-.167.104-.25.25-.25h.5c-.167-.208-.25-.333-.25-.375v-.25c.27-.417.73-.792 1.375-1.125 0-.167-.625-1.042-1.875-2.625-.688-.708-1.604-2.125-2.75-4.25-.104 0-.27-.208-.5-.625v-.5c0-.687.917-1.604 2.75-2.75.27-.167.48-.25.625-.25zm-.5 14.875c-.167 0-.25-.083-.25-.25.083-.146-.375-.125-.375-.125-.146-.083-.167.5.5 1.125v.25c0 .083-.042.125-.125.125.167.27.25.48.25.625-.104 0-.313.208-.625.625.417 0 .625.375.625 1.125 0 .27-.042.48-.125.625.083.458.125.833.125 1.125v.875c0 .542-.042 1.083-.125 1.625.083.313.125.688.125 1.125l-.125.75c.083.458.125.917.125 1.375 0 .48-.125.896-.375 1.25l.125.625a.99.99 0 0 1-.5.125v.25c.333.042.5.167.5.375v2.25c0 .27-.042.48-.125.625l.125.75v1.125c0 .75.833 1.5 2.5 2.25 0 .125.417.417 1.25.875h.625l.375-.25-.125-.625c0-.104.333-.27 1-.5h.25l.25.125.375-.5c-.75 0-1.125-.333-1.125-1 .042 0-.125-.625-.125-.625l-.125.25.125.625-.25.125h-.125c-.167 0-.25-.125-.25-.375l.125-.25a.99.99 0 0 1-.125-.5c.02-.167.104-.25.25-.25-.167-.27-.25-.52-.25-.75v-.875c.02-.167.104-.25.25-.25h.125c.042 0 .375-.25.375-.75l-.375.25h-.125c-.167 0-.25-.083-.25-.25v-4.75l.125-.75c-.083-.146-.125-.354-.125-.625v-.25c0-.333.042-.5.125-.5l-.125-.875v-3l.25-.375v-1.125c0-.167.167-.25.5-.25v-.125l-.375-.5v-.125l.25-.375s.688-.208.25-.125l-.25-.125a.99.99 0 0 1-.5.125l.125-.625c-.167 0-.25-.083-.25-.25v-1.5c0-.583-.292-1-.875-1.25-.777.37-.878.775-1.577 1.253-.445.304-1.51.649-1.923.997zm-.625 1.625.25-.5c-.583 0-.563.5-.25.5zm7 20.125h.375c.125 0 .25.125.375.375 0 .125-.25.333-.75.625h-.125c-.167 0-.25-.083-.25-.25v-.375c0-.125.125-.25.375-.375zm-.875 1h.5v.375c0 .104-.208.27-.625.5-.167 0-.25-.083-.25-.25v-.25c0-.125.125-.25.375-.375zm-31.562-28.125h.375c1.438.396 2.938 1.98 4.5 4.75h.125c.77-.542 2.313-2.083 4.625-4.625l.25-.125h.75c.583 0 1.958 1.208 4.125 3.625 1.083.542 1.625 1.167 1.625 1.875v.375c-.5.833-.75 1.417-.75 1.75v16.125c0 .938.667 1.646 2 2.125.625-.667 1.208-1 1.75-1 .417.438.625.813.625 1.125 0 .438-.5 1.23-1.5 2.375-.375.688-.833 1.23-1.375 1.625 0 0-.458.042-.125.25-.438.75-1.063 1.125-1.875 1.125h-.125c-.23 0-.354-.208-.375-.625h-.5l-.625-.125-.125.25c-.25 0-.5-.375-.75-1.125-.667 0-1-.25-1-.75-.542 0-1-1.042-1.375-3.125v-18c0-.292-.75-1.125-2.25-2.5h-.375c-.083 0-1.042.792-2.875 2.375v11.375l-.375.5c.125 0 .25.125.375.375v1c0 .25-.042.375-.125.375l.125.625v2l-.125 1.25c.5 0 .958.417 1.375 1.25v.875c-2.208 2.417-3.5 3.625-3.875 3.625l-.625.125-.375-.625c.208-.5-.25-.625-.25-.625-.583-.125-.875-.292-.875-.5v-.125l.125-.25c-.646 0-1.354-.625-2.125-1.875v-.125c.292-.687.708-1.437 1.25-2.25 0-.25.042-.375.125-.375-.083-.167-.125-.292-.125-.375 0-.083.042-.125.125-.125l-.125-.625v-7.5c0-.083.042-.125.125-.125l-.125-.25v-1.625c0-1.125.042-2.042.125-2.75-.083-.562-.125-1.437-.125-2.625v-1c-.375-.792-.833-1.375-1.375-1.75h-.5c-.354.333-.688.5-1 .5h-.25c-.125 0-.375-.25-.75-.75v-.125c0-.792 1.458-2.5 4.375-5.125zm-10.688-1.625c.583.104.875.27.875.5v.5l-.375.5h.25c.042 0 .167-.083.375-.25 1.104 2.083 1.77 3.125 2 3.125h.125l1.875-.5c.354.104.604.313.75.625v.625c-2.667 2.375-4.292 4.292-4.875 5.75-.708 1-1.25 1.958-1.625 2.875-.333 0-.5.458-.5 1.375-.104 0-.313.208-.625.625v.125c.167.167.333.792.5 1.875v.875l.25.375v.625h.125c.104 0 .563-.083 1.375-.25 1.333.5 2 1.167 2 2v.125c0 .563-.292.98-.875 1.25-.042.333-.458.708-1.25 1.125h-1.25c-.438 0-1.354-.917-2.75-2.75-.167.583-.25.917-.25 1v.875c0 .083-.042.125-.125.125l.125.25v1.25c1.5 1.625 2.708 2.667 3.625 3.125h.75c.458 0 .875-.958 1.25-2.875.396-.5.646-.75.75-.75h.75c.917.396 1.375 1.146 1.375 2.25-.396 1.125-1.063 2-2 2.625-.563 1.333-1.396 2.292-2.5 2.875-.333 0-.708.25-1.125.75-.646.25-1.063.375-1.25.375-1.042 0-1.667-.375-1.875-1.125-.833 0-1.25-.167-1.25-.5v-.375c-.333-.083-.5-.25-.5-.5h-.75c-.167 0-.25-.083-.25-.25v-.125c0-.167-.375-.125-.375-.125l.125.25c0 .167-.083.25-.25.25 0-.375-.292-.667-.875-.875 0-.146-.375-.396-1.125-.75l-.125-.25c.417-.333.625-.542.625-.625h-.625v.5h-.25c-.167 0-.25-.125-.25-.375l.125-.25a.99.99 0 0 1-.125-.5c.333-.167.583-.25.75-.25-.167-.208-.25-.333-.25-.375.375-.792.667-1.208.875-1.25l-.125-.625a.99.99 0 0 1 .125-.5.99.99 0 0 1-.125-.5v-.5c0-.083.042-.125.125-.125l-.125-.25v-7.875l.125-.75c-.083-.146-.125-.354-.125-.625v-.875l.25-.375c-.167-.27-.25-.52-.25-.75v-4.5l-.75-2.125v-.375c.313-.5.77-.75 1.375-.75v.125c.27-.167.52-.25.75-.25h.875l1.875-.625c.938-.437 2.02-1.187 3.25-2.25.542-.667 1-1 1.375-1zm-3.625 5.875v12.5h.125c.167 0 .375-.667.625-2 .396-.48.688-.73.875-.75-.25-.417-.375-.75-.375-1v-.125c.5-.52.75-.98.75-1.375.313-1.333.688-2.5 1.125-3.5v-.125c-.458-1.208-1.25-2.583-2.375-4.125h-.25c-.125 0-.292.167-.5.5zm2.875 14.75v.25l2 1.625h.125c-.333-.646-.958-1.27-1.875-1.875zm-18.625-19.562h.375c.188 0 .896.583 2.125 1.75 1.458.938 2.5 1.73 3.125 2.375 1.417.5 2.125 1.083 2.125 1.75v.125c-.75 1.646-1.125 2.52-1.125 2.625v15.5c.188 1.27.396 2.313.625 3.125.458.75.875 1.75 1.25 3 .583.667.875 1.917.875 3.75 0 2.104-.375 3.604-1.125 4.5-.25.583-.708 1.125-1.375 1.625l-4.625 3.25c-.792.75-1.458 1.125-2 1.125h-.25c-.396 0-.73-.917-1-2.75-.938-1.917-2.063-2.875-3.375-2.875 0-.083-.125-.125-.375-.125h-.875c-.813.25-1.23.458-1.25.625 0 .042-.042.208-.125.5.792.333 1.292.75 1.5 1.25v1.125c0 .77-.542 1.23-1.625 1.375-.875 0-1.625-.833-2.25-2.5v-1.625c0-1.146.833-2.23 2.5-3.25l2.25-.75h.625a3.87 3.87 0 0 0 1-.125c3.083.604 4.625 1.188 4.625 1.75 1.083.896 1.625 1.688 1.625 2.375h.25c.458-.292 1.125-1.208 2-2.75v-2c-.417-.646-1.375-1.73-2.875-3.25-.417-.125-1.042-1.083-1.875-2.875v-.125h-.125l-.375.25c.167.27.25.52.25.75 0 .5-.375.75-1.125.75l.125.25c-.292.5-.5.75-.625.75h-.125l-.25-.125c0 .5-.125.75-.375.75s-.375-.042-.375-.125l-.625.125h-.5c-1.396-.5-2.23-1.083-2.5-1.75-.167.083-.292.125-.375.125-.083-.167-.125-.292-.125-.375l-.25.125h-.25l-1.625-1.25c.167 0 .25-.083.25-.25v-.125h-.125l-.375.25h-.125c-.125 0-.292-.167-.5-.5v-1.625c0-.167.292-.958.875-2.375-.167-.208-.25-.333-.25-.375v-.25c0-.313.042-.688.125-1.125-.083-.167-.125-.292-.125-.375 0-.167.042-.25.125-.25l-.125-1.25v-5.875c-.25-1.125-.375-2.042-.375-2.75v-.875c0-.458.125-1.083.375-1.875v-.375c-.833-1.042-1.25-1.833-1.25-2.375 0-1.02 1-1.646 3-1.875 1.167-.292 2.417-.958 3.75-2 .125-.25.833-.75 2.125-1.5 0-.52.375-.854 1.125-1zm-2.625 6v2c-.208.333-.417.792-.625 1.375l.125.625v2.375c.292.313.5.938.625 1.875-.083.896-.292 1.604-.625 2.125v1.625c0 .063.083.396.25 1v6.375c.188.396.98.98 2.375 1.75v.25c.625-.313.958-.563 1-.75v-13.5l.25-.875c-.146 0-.313-.5-.5-1.5v-.875l.5-1.25c0-.688-.917-1.688-2.75-3h-.25c-.125 0-.25.125-.375.375zm.25 25.625h.125s-.125-.146-.125 0zm-13.688-32.688c.583.104.875.27.875.5v.5l-.375.5h.25c.042 0 .167-.083.375-.25 1.104 2.083 1.77 3.125 2 3.125h.125l1.875-.5c.354.104.604.313.75.625v.625c-2.667 2.375-4.292 4.292-4.875 5.75-.708 1-1.25 1.958-1.625 2.875-.333 0-.5.458-.5 1.375-.104 0-.313.208-.625.625v.125c.167.167.333.792.5 1.875v.875l.25.375v.625h.125c.104 0 .563-.083 1.375-.25 1.333.5 2 1.167 2 2v.125c0 .563-.292.98-.875 1.25-.042.333-.458.708-1.25 1.125h-1.25c-.438 0-1.354-.917-2.75-2.75-.167.583-.25.917-.25 1v.875c0 .083-.042.125-.125.125l.125.25v1.25c1.5 1.625 2.708 2.667 3.625 3.125h.75c.458 0 .875-.958 1.25-2.875.396-.5.646-.75.75-.75h.75c.917.396 1.375 1.146 1.375 2.25-.396 1.125-1.063 2-2 2.625-.563 1.333-1.396 2.292-2.5 2.875-.333 0-.708.25-1.125.75-.646.25-1.063.375-1.25.375-1.042 0-1.667-.375-1.875-1.125-.833 0-1.25-.167-1.25-.5v-.375c-.333-.083-.5-.25-.5-.5h-.75c-.167 0-.25-.083-.25-.25v-.5l-.375.25.125.25c0 .167-.083.25-.25.25 0-.375-.292-.667-.875-.875 0-.146-.375-.396-1.125-.75l-.125-.25c.417-.333.625-.542.625-.625h-.625v.5h-.25c-.167 0-.25-.125-.25-.375l.125-.25a.99.99 0 0 1-.125-.5c.333-.167.583-.25.75-.25-.167-.208-.25-.333-.25-.375.375-.792.667-1.208.875-1.25l-.125-.625a.99.99 0 0 1 .125-.5.99.99 0 0 1-.125-.5v-.5c0-.083.042-.125.125-.125l-.125-.25v-7.875l.125-.75c-.083-.146-.125-.354-.125-.625v-.875l.25-.375c-.167-.27-.25-.52-.25-.75v-4.5l-.75-2.125v-.375c.313-.5.77-.75 1.375-.75v.125c.27-.167.52-.25.75-.25h.875l1.875-.625c.938-.437 2.02-1.187 3.25-2.25.542-.667 1-1 1.375-1zm-3.625 5.875v12.5h.125c.167 0 .375-.667.625-2 .396-.48.688-.73.875-.75-.25-.417-.375-.75-.375-1v-.125c.5-.52.75-.98.75-1.375.313-1.333.688-2.5 1.125-3.5v-.125c-.458-1.208-1.25-2.583-2.375-4.125h-.25c-.125 0-.292.167-.5.5zm2.875 14.75v.25l2 1.625h.125c-.333-.646-.958-1.27-1.875-1.875zm-25.062-36.75h4.875l3.5 1.125c1.646.896 3.104 2.146 4.375 3.75.896 1.063 1.52 2.688 1.875 4.875v1c-.25 1.646-.625 2.813-1.125 3.5-1.02 1.083-2.062 1.792-3.125 2.125-.333.23-1 .438-2 .625h-.375c-.98-.146-1.937-.52-2.875-1.125-.854-.854-1.437-1.73-1.75-2.625l.25-.375v-.25c-.583 0-.875-.417-.875-1.25-.083 0-.125-.042-.125-.125v-1h-.25c-.167.02-.25.104-.25.25v3.5c0 .083-.042.125-.125.125.25.396.375.938.375 1.625v5.875c0 .583-.083.875-.25.875.083.833.125 1.458.125 1.875v4.75c0 .27.125.563.375.875v1.25l-.375.5v3.875c.417 1.646 1.042 3.104 1.875 4.375-.208.5-.458.75-.75.75v.125l.875.25h1.125c.042 0 .167.083.375.25.208-.167 1.042-.333 2.5-.5 1.667-.917 2.5-1.875 2.5-2.875-.167-.75-.375-1.125-.625-1.125h-.25c-1.5.667-2.792 1.083-3.875 1.25-.48 0-1.02-.25-1.625-.75-.333 0-.625-.5-.875-1.5 0-1.104.792-1.812 2.375-2.125v.125c.313-.167.646-.25 1-.25h.25c.917.146 1.375.48 1.375 1h.125l1-.625-.125-1.25v-.75c-.333-.437-.5-.812-.5-1.125.167-.27.25-.52.25-.75v-.125l-.875-.25h-.875l-.875.25-.25-.375v-.625l.25-.375v-.25c0-.417-.458-1.833-1.375-4.25v-1.25c.167-1 .833-2.083 2-3.25-.125-.333-.25-.5-.375-.5h-.625c-.458 0-1.042.5-1.75 1.5v.75l.25.375v1c0 .23-.333.396-1 .5-.75-.417-1.125-.917-1.125-1.5.23-1.417.604-2.125 1.125-2.125 0-.812.792-1.437 2.375-1.875h2c1.042.25 1.708.375 2 .375.167-.083.292-.125.375-.125 2.667.708 4 1.5 4 2.375.083 0 .208.167.375.5v2.875c0 .125-.375.458-1.125 1h-.375l.125-1.25v-1.375c0-.73-.625-1.27-1.875-1.625-.167.02-.25.104-.25.25.417.792.625 1.542.625 2.25v.75c0 .75-.292 1.25-.875 1.5h-.375c-.292 0-.542-.5-.75-1.5v-.375c0-.27.042-.48.125-.625 0-1.5-.375-2.25-1.125-2.25h-1c-.187 0-.396.458-.625 1.375-.167 0-.333.292-.5.875a.99.99 0 0 0 .125.5 9.79 9.79 0 0 0-.125 1.375v.25c0 .354.458 1.063 1.375 2.125h.125c.604-.167.938-.25 1-.25h.375c.25.083.375.333.375.75-.417 1-.625 1.583-.625 1.75v.625c1.417 1.02 2.125 2.063 2.125 3.125-.208.75-.458 1.292-.75 1.625 1.25 1.833 1.875 3 1.875 3.5v2.5c-.187.23-.354.688-.5 1.375v.125c.917 0 1.5.708 1.75 2.125 0 .917-.542 1.958-1.625 3.125h-.125c-.104 0-.52-.417-1.25-1.25v-.125c.667-.687 1-1.48 1-2.375v-1l-.25-.125c-1 1-2 1.708-3 2.125l-.125-.25v-.125c0-.167.125-.25.375-.25 0 0-1.23.27-.75.75-.312.25-.604.375-.875.375h-1c-.167.02-.25.104-.25.25.25.25.792.583 1.625 1h1.875l.375.25c.02-.167.104-.25.25-.25h.125c.188 0 .646.417 1.375 1.25v.125c0 .167-.333.417-1 .75 0 .146-.625.354-1.875.625h-.5c-2.042 0-3.708-.458-5-1.375l-.875-.125c-.125.333-.375.5-.75.5l.125.25c-.146.917-.604 1.375-1.375 1.375-.25-.333-.375-.583-.375-.75.5-.333.75-.667.75-1-.396-.167-.77-.458-1.125-.875h-.125c0 .417-.125.625-.375.625h-.25c-.208 0-.333-.5-.375-1.5.083 0 .125-.042.125-.125h-.25c-.27.167-.52.25-.75.25-1.667-.583-2.5-1-2.5-1.25v-.125h-.375c0 .333-.083.5-.25.5a.99.99 0 0 1-.5-.125.99.99 0 0 1-.5.125l-.25-.375c.5-.25.75-.5.75-.75l-.875.625h-.125c-.083 0-.125-.042-.125-.125-1.083.5-2.5.75-4.25.75 0 .167-.208.25-.625.25h-.375c0 .25-.5.583-1.5 1-.875.708-1.583 1.375-2.125 2-.312 0-.562.083-.75.25l-.25-.125.125.25v.125c0 .167-.333.292-1 .375-.25-.312-.375-.604-.375-.875h.5v-.125c0-.167-.125-.25-.375-.25.542-2.042 1.625-3.667 3.25-4.875 1.25-1.125 3-2.125 5.25-3h.125c.042 0 .167.083.375.25.188-.5.354-.75.5-.75.083 0 .125.042.125.125l.25-.125h.375c.104.104.313.48.625 1.125h.125c.104-.583.23-.875.375-.875h.875v-.125l-.125-.25-.25.125c-.333-.125-.5-.25-.5-.375v-.25c0-.125.125-.25.375-.375h.625l-.125-.625c.583-.75.875-1.458.875-2.125h.25v-.125c-.25 0-.375-.083-.375-.25v-.375l.25-.375v-1.375c-.23-.417-.812-.625-1.75-.625h-.5a.99.99 0 0 0-.5.125c-.375-.167-.583-.333-.625-.5.167-.208.25-.333.25-.375-.417 0-.625-.125-.625-.375-.75 0-1.125.333-1.125 1l.25.375v.375l-1.875 1.375h-.625c-.583-.292-.875-.75-.875-1.375.375-1.958 1-3.375 1.875-4.25l1.375-1.125c-.52-.833-.854-1.25-1-1.25h-1c-2.083 1.23-3.125 2.354-3.125 3.375-.104 0-.27.25-.5.75v1a.99.99 0 0 1-.125.5c.48 1.52 1.146 2.52 2 3 1 .188 1.5.52 1.5 1h.125c0-.333.083-.5.25-.5h.125c.083 0 .125.042.125.125l.25-.125h1.25l1.375-.75h.625c0-.333.375-.5 1.125-.5l.125.25c0 .833-.375 1.5-1.125 2 0 .417-.958.833-2.875 1.25h-.25c-1.48 0-3.146-.792-5-2.375-1.333-1.354-2-2.687-2-4 .083 0 .125-.042.125-.125-.146 0-.354-.375-.625-1.125v-.75c.667-3.083 1.208-4.708 1.625-4.875.063 0 .27.208.625.625v-.125c0-.333-.208-.625-.625-.875.917-1.104 1.542-1.73 1.875-1.875 0-.083.375-.458 1.125-1.125v-.25c-.25-1.083-.375-1.792-.375-2.125v-.75c0-.312-.875-.77-2.625-1.375-.917-.75-1.375-1.25-1.375-1.5-1.25-.896-1.875-1.937-1.875-3.125-.187 0-.396-1.125-.625-3.375.396-2.48 1.063-4.187 2-5.125 2.146-1.917 4.063-2.875 5.75-2.875l.5.125c0-.25.083-.375.25-.375h1.125c.104 0 .563.083 1.375.25h2c.27 0 .563.125.875.375h.125c.313-.146.98-.312 2-.5.396-.23 1.313-.48 2.75-.75 0-.167.542-.375 1.625-.625zm-3.125 3v.25c1.188 1.208 1.938 2.458 2.25 3.75-.167.5-.333.75-.5.75h-.75c-.083 0-.417-.5-1-1.5-.687-1.333-1.396-2-2.125-2-.312 0-.562-.083-.75-.25h-.125l.125.25c0 .146-.417.438-1.25.875-1.75 2.25-2.625 3.625-2.625 4.125-.458.48-.875 1.563-1.25 3.25-.167 0-.333.333-.5 1 0 .083.042.125.125.125a8.736 8.736 0 0 0-.25 2.125v.125c.02.167.104.25.25.25h.625c.98 0 2.146-.375 3.5-1.125l1.375-1.25h.375c.167 0 .25.125.25.375l-.25.5h.125c.313-.458 1-1.125 1-1.125-.27.167-.48.25-.625.25-.167-.208-.25-.333-.25-.375v-.125c.042-.187.417-.396 1.125-.625 0-.625 1-1.625 3-3 1.583-1.417 3.167-2.333 4.75-2.75h2.5c.77 0 1.73.708 2.875 2.125 1.063 3.167 1.77 4.75 2.125 4.75.542-.167 1.083-1 1.625-2.5v-2.375c-.687-1.833-1.396-3-2.125-3.5-2.646-2.083-4.937-3.125-6.875-3.125 0-.083-.167-.125-.5-.125h-2.625c-.354 0-.687.083-1 .25-.27-.167-.52-.25-.75-.25h-.375c-1 .375-1.5.667-1.5.875zm-7.25.25h-.75l-.25-.125c0 .25-.083.375-.25.375h-1.25c-2.417.98-4.042 2.313-4.875 4l-.375 1.25a.99.99 0 0 1 .125.5v.125c0 .167-.125.25-.375.25v.375c.25 0 .375.083.375.25v1.375c.396 1.625 1.27 2.958 2.625 4 .396.25.73.375 1 .375.125 0 .333-.167.625-.5l-.125-.625v-1.375c.25-1.292.5-2.042.75-2.25-.083-.167-.125-.292-.125-.375.167 0 .667-1 1.5-3 1.02-1.77 2.188-3.312 3.5-4.625-.52-.167-.854-.25-1-.25-.542.167-.917.25-1.125.25zm-1.875 9v.125h.375v-.375h-.125c-.167.02-.25.104-.25.25zm5.5 5.25c0-.083-.042-.125-.125-.125-.27.563-1.562.896-3.875 1 0 .083-.167.125-.5.125h-.5c0 .167-.042.25-.125.25.125 1.5.458 2.25 1 2.25.542-.333 1.833-.667 3.875-1 .042 0 .25.167.625.5 0-.375.5-.583 1.5-.625l.125-.625v-1.25l.125-.625-.375-.25c-.25 0-.833.125-1.75.375zm-.875 9.25.125.625h.625l.375.25h.75c.438 0 .688-.125.75-.375v-.125c0-.125-.125-.25-.375-.375zm12.125 2.75c.333.125.5.25.5.375v.375c0 .167-.083.25-.25.25h-.5c-.125 0-.25-.125-.375-.375v-.125c.167-.333.375-.5.625-.5zm-20.875 4.75h.25v-.25c-.167.02-.25.104-.25.25zm22.125 1.625.25.125h1.625c.333-.167.583-.417.75-.75v-.25l-2.5.625zm-7.125 2.25c-.667.833-1.125 1.25-1.375 1.25 0 .167.625.375 1.875.625 0 .042.125.125.375.25l.25-.125h.875v-.75c-.604 0-1.27-.417-2-1.25zm-11.375 4.875c-.125 0 0 0 0 0zm12.25 5h.125c.188 0 .313.292.375.875l-.25.125c-.104 0-.27-.25-.5-.75.02-.167.104-.25.25-.25zM51.057 75.944c.474.085.71.22.71.406v.407l-.304.406h.203c.034 0 .136-.068.305-.203.897 1.692 1.439 2.539 1.625 2.539h.102l1.523-.407a.93.93 0 0 1 .61.508v.508c-2.167 1.93-3.488 3.487-3.961 4.672-.576.813-1.016 1.591-1.32 2.336-.272 0-.407.372-.407 1.117-.085 0-.254.17-.508.508v.101c.136.136.271.644.406 1.524v.71l.204.306v.507h.101c.085 0 .457-.067 1.117-.203 1.084.406 1.625.948 1.625 1.625v.102c0 .457-.237.795-.71 1.015-.035.271-.373.576-1.016.914h-1.016c-.355 0-1.1-.744-2.234-2.234-.136.474-.203.745-.203.813v.71c0 .068-.034.102-.102.102l.102.203v1.016c1.218 1.32 2.2 2.166 2.945 2.539h.61c.372 0 .71-.779 1.015-2.336.322-.406.525-.61.61-.61h.609c.744.322 1.117.932 1.117 1.829-.322.914-.863 1.625-1.625 2.132-.457 1.084-1.134 1.862-2.031 2.336-.271 0-.576.203-.914.61-.525.203-.864.304-1.016.304-.846 0-1.354-.304-1.523-.914-.677 0-1.016-.135-1.016-.406v-.305c-.27-.067-.406-.203-.406-.406h-.61c-.135 0-.203-.068-.203-.203v-.102c0-.135-.304-.101-.304-.101l.101.203c0 .135-.068.203-.203.203 0-.305-.237-.542-.71-.71 0-.12-1.423-1.677-1.423-1.829.271-.135.474-.203.61-.203-.136-.17-.204-.27-.204-.305.305-.643.542-.981.711-1.015l-.101-.508a.81.81 0 0 1 .101-.406.804.804 0 0 1-.101-.407v-.406c0-.068.034-.101.101-.101l-.101-.204v-6.398l.101-.61c-.067-.118-.101-.287-.101-.507v-.711l.203-.305c-.136-.22-.203-.423-.203-.61v-3.655l-.61-1.727v-.305c.254-.406.627-.609 1.118-.609v.102c.22-.136.423-.204.609-.204h.71l1.524-.507c.762-.356 1.642-.965 2.64-1.828.441-.542.813-.813 1.118-.813zm-2.945 4.773v10.156h.101c.136 0 .305-.541.508-1.625.322-.389.559-.592.711-.609-.203-.339-.305-.61-.305-.812v-.102c.407-.423.61-.796.61-1.117.254-1.084.558-2.031.914-2.844v-.102c-.373-.981-1.016-2.099-1.93-3.351h-.203c-.102 0-.237.135-.406.406zm2.336 11.984v.204l1.625 1.32h.101c-.27-.525-.778-1.033-1.523-1.524zm3.351 3.758v.102c.102 0 .203-.102.305-.305h-.102c-.135.017-.203.085-.203.203zM36.457 63.857c1.016.237 1.524.711 1.524 1.422v.203c0 .39-.305.83-.914 1.32H36.05l-.813-.507c-1.015.338-1.523 1.252-1.523 2.742-.61 1.32-1.083 2.539-1.422 3.656-.068 0-.101.034-.101.102v1.015c-.271 1.033-.407 1.574-.407 1.625v5.18c.017.135.085.203.203.203.491-.034 1.778-1.32 3.86-3.86l.203-.1h.508c.152 0 .694.54 1.625 1.624 2.031 1.439 3.08 2.32 3.148 2.64a.804.804 0 0 1 .102.407l-.61 1.016v14.523c0 .524.508 1.032 1.524 1.523h.101c.677-.406 1.118-.61 1.32-.61h.102c.102 0 .305.204.61.61v.203c0 .525-1.151 1.777-3.454 3.758-.101 0-.237.068-.406.203h-.71c-2.506-1.303-3.759-2.454-3.759-3.453-.067 0-.101-.102-.101-.305v-14.32l.101-.61c0-.93-.677-1.743-2.03-2.437-1.473.627-2.252 1.1-2.337 1.422v2.031c0 .204-.033.305-.101.305l.101.508v11.78c.61.746.914 1.321.914 1.728-.084 0-.22.27-.406.812-.118 0-.999.779-2.64 2.336h-.508c-.119 0-.593-.508-1.422-1.523-.254 0-.728-.44-1.422-1.32V99.2c.474-1.15.71-1.76.71-1.828v-2.437c0-.406.035-.61.102-.61l-.101-1.015V76.552a43.705 43.705 0 0 1-.914-3.352c-.406-.863-.677-1.676-.813-2.437v-.508c0-.372.136-.61.407-.711h.812c.27.05.813.83 1.625 2.336.22.101.559.677 1.016 1.727h.304c0-.237.237-1.084.711-2.54 0-1.388.508-2.505 1.524-3.351.66-1.524 1.608-2.607 2.844-3.25.795-.39 1.438-.593 1.93-.61zM22.67 68.224h.61c.203.068.304.271.304.61v.304c-1.692 3.047-2.539 5.383-2.539 7.008-.068 0-.101.102-.101.305v.203c.017.136.084.203.203.203h2.234l1.828-.406c.457 0 .762.406.914 1.219 0 .355-.508 1.134-1.523 2.336v.304c.27.407.406.745.406 1.016-.135.423-.305.66-.508.71h-.812c-.61-.372-.914-1.082-.914-2.132h-.305c-.152.119-.525.22-1.117.305v2.234c0 .406-.136 1.016-.406 1.828v.203c0 .068.067.339.203.813v1.523c-.136.474-.203.745-.203.813.135.203.27.71.406 1.523-.136.88-.237 1.32-.305 1.32.068.796.102 1.372.102 1.727v5.18l1.625 1.422h.406c.626-.542 1.1-.813 1.422-.813.338.254.508.525.508.813v.304c-.051.22-1.371 1.44-3.961 3.657h-.813c-.152 0-1.37-1.016-3.656-3.047h-.101c-.44.406-.88.609-1.32.609a1.135 1.135 0 0 1-.61-.508v-.203c0-.372.61-1.219 1.828-2.539l.102-.203v-7.922c-.136-.17-.204-.27-.204-.305v-.101c0-.102.237-.271.711-.508a.804.804 0 0 1-.101-.406h-.102c0 .27-.135.474-.406.61h-.305v-.61l-.203-.305v-2.031c.271-.254.406-.694.406-1.32-.135 0-.27-.339-.406-1.016v-1.016l.61-1.32v-.305c0-.135-.068-.203-.204-.203H14.14c-.812-.152-1.219-.39-1.219-.71v-.915c.423-1.015 1.1-1.523 2.031-1.523 0-.068.102-.102.305-.102h.813c.033 0 .135-.067.304-.203l-.406-1.015v-1.422l-.406-.914v-1.016c0-.102.135-.237.406-.406h.203c.593 0 1.337.846 2.235 2.539.169 0 .406-.576.71-1.727 1.338-2.2 2.32-3.555 2.946-4.062 0-.051.203-.187.61-.407zm163.56 2.521h.375c1.438.396 2.938 1.98 4.5 4.75h.125c.771-.542 2.313-2.083 4.625-4.625l.25-.125h.75c.584 0 1.959 1.208 4.125 3.625 1.084.542 1.625 1.167 1.625 1.875v.375c-.5.833-.75 1.417-.75 1.75v16.125c0 .938.667 1.646 2 2.125.625-.667 1.209-1 1.75-1 .417.438.625.813.625 1.125 0 .438-.5 1.23-1.5 2.375-.375.688-.833 1.23-1.375 1.625 0 0-.458.042-.125.25-.437.75-1.062 1.125-1.875 1.125h-.125c-.229 0-.354-.208-.375-.625h-.5l-.625-.125-.125.25c-.25 0-.5-.375-.75-1.125-.666 0-1-.25-1-.75-.541 0-1-1.042-1.375-3.125v-18c0-.292-.75-1.125-2.25-2.5h-.375c-.083 0-1.041.792-2.875 2.375V89.87l-.375.5c.125 0 .25.125.375.375v1c0 .25-.041.375-.125.375l.125.625v2l-.125 1.25c.5 0 .959.417 1.375 1.25v.875c-2.208 2.417-3.5 3.625-3.875 3.625l-.625.125-.375-.625c.209-.5.459-.75.75-.75 0-.167-.083-.25-.25-.25h-.25l-.5.375c-.583-.125-.875-.292-.875-.5v-.125l.125-.25c-.646 0-1.354-.625-2.125-1.875v-.125c.292-.687.709-1.437 1.25-2.25 0-.25.042-.375.125-.375-.083-.167-.125-.292-.125-.375 0-.083.042-.125.125-.125l-.125-.625v-7.5c0-.083.042-.125.125-.125l-.125-.25v-1.625c0-1.125.042-2.042.125-2.75-.083-.562-.125-1.437-.125-2.625v-1c-.375-.792-.833-1.375-1.375-1.75h-.5c-.354.333-.687.5-1 .5h-.25c-.125 0-.375-.25-.75-.75v-.125c0-.792 1.459-2.5 4.375-5.125zm-14.125-1.625q.531 0 2.5 1.75 3.938 2.813 5.625 3.625l.375.625v.625q-1.125 1.281-1.125 2.625l.125 1.25v13l1 1.625v.375q0 .938-3 2.5 0 .156-2 1.25-1.219 1.094-2.875 2.125-.906 1.094-1.875 1.625h-.875q-3.531-2.781-6.125-3.625v-.375h-.625q-.719-.406-1-.875v-.5l.625-2.875v-16.5q-.5-.75-.875-1.625 0-1.187 3.75-2.375 2.844-1.719 5.875-4.125.281 0 .5-.125zm-3.625 5.75v19.125q.688.969 4.125 3h.5q1-.625 1-1.625v-3q0-3.906.125-6.375-.125-1.781-.125-6v-.125q0-.687.125-1.75 0-1.156-4.25-3.875-.219-.125-.5-.125-.469 0-1 .75zm-5.406-19.75h1.125c.313 0 .563.5.75 1.5l-.125.625v2.5c-.27 1.417-.896 2.583-1.875 3.5a16.84 16.84 0 0 1-2.125 1h-2.375c-.563 0-1.354-.458-2.375-1.375h-.125l-.125.625v5.625l.125.625h3.375c.23 0 .48-.083.75-.25.313 0 .646.25 1 .75v.625c-.5 1.167-.75 1.875-.75 2.125v1.25c.333 1.083.5 1.667.5 1.75-.146.833-.52 1.25-1.125 1.25h-.5c-.813-.52-1.354-1.23-1.625-2.125 0-.5-.208-.75-.625-.75-.458 0-.792.25-1 .75.083.98.125 1.688.125 2.125v2c0 .354-.083.688-.25 1 .083 1.792.125 3.083.125 3.875 0 .396-.042 1.354-.125 2.875.5 1.25.75 2 .75 2.25v1.875c0 .125-.25.792-.75 2 0 0-.125 1.417-.125 1.375h.375c0 .833.708 1.667 2.125 2.5h.125c.688-.146 1.146-.312 1.375-.5h.125c.667.188 1 .52 1 1v.25a7.065 7.065 0 0 0-1.125 1.375c-.5.27-.875.646-1.125 1.125l-.25.125c-.208-.167-.333-.25-.375-.25h-.125l.125.625c0 .25-.167.375-.5.375-.292 0-.958-.125-.75-.125l.125.25v.375c0 .125-.333.292-1 .5-.667-.208-1-.375-1-.5 0 0-.438-.25-.625-.25 0-.125-.25-.333-.75-.625l-.5-.25c-.23-.375-.77-.792-1.625-1.25-.667-.854-1-1.312-1-1.375s.208-.27.625-.625v-.125c-.417 0-.625-.083-.625-.25.02-.083.437-.125 1.25-.125 0-.062-.292-.354-.875-.875v-.375l.125-.75c-.083-.146-.125-.354-.125-.625l.375-.5c-.417 0-.625-.125-.625-.375v-.375c-.25-.083-.375-.333-.375-.75v-1.125c0-.083.042-.125.125-.125l-.125-.25v-.125c0-.5.208-1.042.625-1.625v-1.375l-.5-1.875v-.5c0-.312.167-.73.5-1.25v-5.375l.125-.75c-.083-.146-.125-.354-.125-.625v-.25l.25-.375c-.167-.27-.25-.52-.25-.75V65.37l-.5-2.125v-.25c.354-.667.854-1 1.5-1h.875c2.23-1.104 3.688-2.396 4.375-3.875.27-.5.646-.875 1.125-1.125h.625c1.333 1.354 2.333 2.146 3 2.375 1-.208 1.5-.708 1.5-1.5 0-.27-.208-.73-.625-1.375v-.5c0-.458.167-.75.5-.875zm-11.906 0h1.125c.313 0 .563.5.75 1.5l-.125.625v2.5c-.27 1.417-.896 2.583-1.875 3.5a16.84 16.84 0 0 1-2.125 1h-2.375c-.563 0-1.354-.458-2.375-1.375h-.125l-.125.625v5.625l.125.625h3.375c.23 0 .48-.083.75-.25.313 0 .646.25 1 .75v.625c-.5 1.167-.75 1.875-.75 2.125v1.25c.333 1.083.5 1.667.5 1.75-.146.833-.52 1.25-1.125 1.25h-.5c-.813-.52-1.354-1.23-1.625-2.125 0-.5-.208-.75-.625-.75-.458 0-.792.25-1 .75.083.98.125 1.688.125 2.125v2c0 .354-.083.688-.25 1 .083 1.792.125 3.083.125 3.875 0 .396-.042 1.354-.125 2.875.5 1.25.75 2 .75 2.25v1.875c0 .125-.25.792-.75 2 0 0-.125 1.417-.125 1.375h.375c0 .833.708 1.667 2.125 2.5h.125c.688-.146 1.146-.312 1.375-.5h.125c.667.188 1 .52 1 1v.25a7.065 7.065 0 0 0-1.125 1.375c-.5.27-.875.646-1.125 1.125l-.25.125c-.208-.167-.333-.25-.375-.25h-.125l.125.625c0 .25-.167.375-.5.375-.292 0-.958-.125-.75-.125l.125.25v.375c0 .125-.333.292-1 .5-.667-.208-1-.375-1-.5 0 0-.438-.25-.625-.25 0-.125-.25-.333-.75-.625l-.5-.25c-.23-.375-.77-.792-1.625-1.25-.667-.854-1-1.312-1-1.375s.208-.27.625-.625v-.125c-.417 0-.625-.083-.625-.25.02-.083.437-.125 1.25-.125 0-.062-.292-.354-.875-.875v-.375l.125-.75c-.083-.146-.125-.354-.125-.625l.375-.5c-.417 0-.625-.125-.625-.375v-.375c-.25-.083-.375-.333-.375-.75v-1.125c0-.083.042-.125.125-.125l-.125-.25v-.125c0-.5.208-1.042.625-1.625v-1.375l-.5-1.875v-.5c0-.312.167-.73.5-1.25v-5.375l.125-.75c-.083-.146-.125-.354-.125-.625v-.25l.25-.375c-.167-.27-.25-.52-.25-.75V65.37l-.5-2.125v-.25c.354-.667.854-1 1.5-1h.875c2.23-1.104 3.688-2.396 4.375-3.875.27-.5.646-.875 1.125-1.125h.625c1.333 1.354 2.333 2.146 3 2.375 1-.208 1.5-.708 1.5-1.5 0-.27-.208-.73-.625-1.375v-.5c0-.458.167-.75.5-.875zm-20.875 4h.125q1.125 0 1.125 2.25.813 1.25 1 1.25h1.75l.25-.125-.125-1.5v-.75q.438-.875 1.25-.875h.125q1.125.438 1.125 1.25.25.031.25.25v.875q0 1.281-2.25 3.375-2.375 1.438-4.25 1.75h-1q-2.625-.812-2.625-1.5-1.625-.125-1.625-.75t3.375-3.875q1.219-1.625 1.5-1.625zm1.25 11.125q.188.031 2.375 2.375.188 0 1.75 1.875v.875q0 .469-.875 1.375v11q-.25.875-.25 1v6.625q0 .75.875 1.375.094 0 1.75-.625.781.25.875.625v.625q0 .438-4.5 4.75h-1.375q-2.875-2.156-2.875-4.125-.125 0-.125-.375V76.995q-.406-.875-1.125-1.375-.25 1.75-1.375 1.75-.75 0-1-1.25 0-1.969 4.75-5.875zm-19.25-.5h.625c.917 0 1.917.917 3 2.75.25.604.375.938.375 1h.375c2.417-2.417 3.75-3.625 4-3.625h.5c.25 0 .708.458 1.375 1.375.646.896 1.146 1.438 1.5 1.625.27-.167.52-.25.75-.25h.125c.125 0 .375.25.75.75v.125c0 .52-.458 1.146-1.375 1.875 0 .23-.667 1.063-2 2.5-.354.688-.73 1.313-1.125 1.875v1.125l.875.5c-.25.417-.375.75-.375 1v.125c.125 0 .292.083.5.25v-1.25c.02-.167.104-.25.25-.25 0 .208.292.375.875.5l.125.875c-.23 1-.73 1.5-1.5 1.5h-1c-.125 0-.292-.167-.5-.5l-.25.125h-.25c-.667-.542-1-1.167-1-1.875.083 0 .125-.042.125-.125-.292 0-.5-.417-.625-1.25l.875-2.625c0-.604-.583-1.312-1.75-2.125-.208 0-.583.333-1.125 1V93.87l-.25.375c.063.208.77.75 2.125 1.625.23.25.563.708 1 1.375v1c-1.813 2.25-2.938 3.375-3.375 3.375-.125 0-.292.167-.5.5h-.625c-.813-.5-1.48-1.208-2-2.125-.104 0-.52-.417-1.25-1.25-1.063-.604-1.77-1.23-2.125-1.875v-.5c.75-1.083 1.125-1.833 1.125-2.25v-1.5c0-.23.083-.48.25-.75-.167 0-.25-.083-.25-.25V76.495c0-.5-.292-.958-.875-1.375h-.625c-.583.167-.917.25-1 .25-.5-.167-.75-.5-.75-1v-.125c.104-.458 1.48-1.75 4.125-3.875 0-.125.292-.333.875-.625zm-24.281-16h3.25c3.333.458 5 .917 5 1.375v.125h.875c1.417.458 2.792 1.167 4.125 2.125 1.73 1.25 3.146 2.708 4.25 4.375.75 2.167 1.125 3.5 1.125 4v.375l-.375.625c.25 0 .375.458.375 1.375-.125 1-.708 2.083-1.75 3.25l-1.625.875h-.125l-.625-.5c-.125 0-.292.167-.5.5.083 0 .125.042.125.125-.333.167-.583.25-.75.25-.27 0-1.146-.25-2.625-.75-.396.583-.77.875-1.125.875h-.5l-.875-1.125c-.917.25-1.5.375-1.75.375-1.25-.104-1.875-.604-1.875-1.5v-.25c0-.833.625-1.25 1.875-1.25.583-.396.875-1.02.875-1.875v-1.5a3.009 3.009 0 0 0-1.125-1.375h-.875c-.688.208-1.23.875-1.625 2v5.875l-.125.75c.083.146.125.354.125.625v.75c.02.167.104.25.25.25.854-.48 1.52-.937 2-1.375h.375c.125 0 .292.167.5.5v.5c-.646 1.167-1.688 2.083-3.125 2.75h-.125l.125.25v7.375c0 .083-.042.125-.125.125l.125.25v1.375c0 .167-.125.25-.375.25v.25l.375.5v4a.99.99 0 0 1-.125.5.99.99 0 0 1 .125.5v1.25c.333 1 .917 1.5 1.75 1.5a.99.99 0 0 1 .5-.125c.333.125.5.417.5.875h.125c.438-.125.73-.917.875-2.375l.25-.125-.125-.25V91.87l.5-.5c-.083-.292-.125-.458-.125-.5.063-.5.146-.75.25-.75l-.125-.25c0-.167.125-.25.375-.25v-.25c-.25 0-.417-.208-.5-.625l.125-.25c-.5-.896-.75-1.52-.75-1.875l-.875.125h-.75c-.208.167-.333.25-.375.25h-.375c-.292-.375-.583-.583-.875-.625v-.375c0-.083.042-.125.125-.125l-.125-.25c0-.667.542-1.458 1.625-2.375h.125l.375.25h.125c.042-.333.167-.5.375-.5h.125c.167.02.25.104.25.25l-.125.25c.604.25.98.375 1.125.375v-.25l-.25-.375c.02-.167.104-.25.25-.25h.5c.167 0 .25.167.25.5h.125c.583 0 1-.708 1.25-2.125 0-.125-.147-1.546.27-1.755 1.083.875 1.294 2.87 2.23 3.755h.125c.77-.417 1.354-.625 1.75-.625h.125c.25 0 .375.042.375.125l.625-.125h.875c.854 0 1.563.542 2.125 1.625v1.75c0 .125-.167.292-.5.5h-1a1.745 1.745 0 0 0-1.125-.375c-.667.333-1.083.5-1.25.5v.125c.25 0 .375.083.375.25 0 .25-.042.375-.125.375l.125.625v.375c0 .083-.042.125-.125.125l.125.25c0 .23-.083.48-.25.75.167.708.25 1.125.25 1.25 0 .333-.208.5-.625.5.333.375.5.583.5.625v.25c0 .125-.167.25-.5.375-.604-.333-.667.25-.5.25h.125l.375.25a.99.99 0 0 1 .5-.125l.125.25v.125c0 .167-.083.25-.25.25h-.125l-.25-.125v.25c.417.02.625.146.625.375v1c0 .167-.208.25-.625.25.104.854.188 1.354.25 1.5l-.25.5c.583.167.875.333.875.5v.125c0 .167-.208.25-.625.25l.125.25v.375c0 .167-.125.25-.375.25l-.25-.125-.75.375h-.125c-.167 0-.25-.25-.25-.75-.48.208-1.02.833-1.625 1.875-.208.167-.333.25-.375.25h-.875c-.292-.104-.708-.604-1.25-1.5-.167-.083-.292-.125-.375-.125-.292.48-1.375.98-3.25 1.5-.938.5-1.688.75-2.25.75 0-.167-.083-.25-.25-.25h-.125c0 .333-.083.5-.25.5h-.75l-.375-.25c0 .167-.083.25-.25.25-.167-.083-.292-.125-.375-.125 0 .104-.208.313-.625.625h-.625c-.5-.146-.75-.437-.75-.875h-.25c0 .25-.083.375-.25.375l-.25-.375-.625.125c-3.48-.917-5.604-1.708-6.375-2.375-2.5-1.687-3.75-2.98-3.75-3.875-.563-.792-1.563-2.958-3-6.5-.77.417-1.396.917-1.875 1.5.167.27.25.48.25.625l-.125.625h.25c.833 0 1.625.542 2.375 1.625.458 0 1.405.017 1.53.35l.188.55c.04.118-1.01.142-1.343.35-.458-.083-.792-.125-1-.125l-.875.25c-.563-.146-.98-.312-1.25-.5h-.125c-.125.02-.417.688-.875 2-.333.167-.676.541-.843.541-.125-.333-.17.4-.295.4 0 .167-.07-.941-.237-.941-.75-.687-1.125-1.354-1.125-2 .167 0 .292-.333.375-1l-.125-.875c.187-1.25-.896-3.375-.5-3.375-.083-.167-.021-1.52.72-.543.55 1.216 1.311 1.294 3.53-.957.583-.354.875-.687.875-1l-.625-4.375c-.125 0-.75-.417-1.875-1.25h-.125c-.313 1.75-.646 3.083-1 4-.167 2.75-.667 4.125-1.5 4.125h-.125a1.397 1.397 0 0 1-.75-.625c.104-4.062.73-6.562 1.875-7.5a.99.99 0 0 0 .5.125v-.25c-.333 0-.5-.125-.5-.375.167-.23.292-.77.375-1.625 0-.333-.375-1.5-1.125-3.5v-3.875c.938-3.833 1.938-6.458 3-7.875 2.98-3.312 4.938-5.062 5.875-5.25 0-.333 1.417-1.083 4.25-2.25 2.396-1.083 4.73-1.625 7-1.625zM69.137 70.12v5.5c.104.625.27.958.5 1h.375c2.125-1.25 3.5-1.875 4.125-1.875.5-.896 1.5-2.187 3-3.875v-.125c0-.333-.208-1.25-.625-2.75v-.25c.188-.937.396-1.604.625-2l-.125-.25c.52-1.5 1.688-2.667 3.5-3.5.313 0 .563-.083.75-.25h2.5c.958.333 1.75.75 2.375 1.25.438 0 .77-.833 1-2.5.604-.833.98-1.25 1.125-1.25h.625c.25 0 .458.375.625 1.125-.083.104-.125.313-.125.625.167-.083.292-.125.375-.125.48 1.208.854 1.917 1.125 2.125h.25c.896-.75 1.563-1.125 2-1.125.167.083.292.125.375.125.146-.333.438-.5.875-.5h1.125c1.688.25 2.77.625 3.25 1.125 1.5 1.292 2.25 2.792 2.25 4.5.167 0 .25.208.25.625-.167.02-.25.104-.25.25v.875l1.375 1.375s.875-.083.875-.25c0-.104.375-.437 1.125-1-.167 0-.25-.083-.25-.25v-.125l.75-1.375v-.875c-.146-.187-.27-.646-.375-1.375-.27 0-.48-.5-.625-1.5-.333-.25-.625-.708-.875-1.375-.75-.792-1.125-1.208-1.125-1.25l.125-.625h-.375l-.375.25c-.917-1.02-2.708-2.02-5.375-3l-.25-.375-.25.125h-.5c-1.48-.187-2.52-.437-3.125-.75h-4.625c-.98.333-2.604.667-4.875 1-.708.417-1.875.875-3.5 1.375 0 .104-.75.563-2.25 1.375-3.208 1.75-5.5 4.5-6.875 8.25 0 .146-.167.688-.5 1.625zm9.375-2.125v.25l.375 1.25h.125c.48 0 1.563-.458 3.25-1.375.333 0 1.083-.333 2.25-1v-.125c0-.73-.667-1.48-2-2.25h-1.125c-.563.02-1.354.604-2.375 1.75-.333.833-.5 1.333-.5 1.5zm3.125 5c0 .417.917.875 2.75 1.375.23-.062.438-.27.625-.625v-.625c-.167-.583-.25-.917-.25-1v-2.625c-1.02 0-2.063 1.042-3.125 3.125zm15.375.375h.25c.23 0 .563.792 1 2.375 1.083.896 1.625 1.52 1.625 1.875l-.25.125c-.208-.167-.333-.25-.375-.25 0 .125-.167.292-.5.5h-.25l-.5-.75c0 .333-.083.5-.25.5h-.25c-.354 0-.813-.833-1.375-2.5.25-1.25.542-1.875.875-1.875zm-16.75 2.375c1.063 1.167 1.77 2.125 2.125 2.875v.375c0 .23-.25.73-.75 1.5 0 .625-.708 1.292-2.125 2-.333.23-.542.854-.625 1.875a.99.99 0 0 1 .125.5v.875c0 .313.667.646 2 1 .917.98 1.375 1.52 1.375 1.625v1.375l-.375.5c.125 0 .25.167.375.5 0 .188-.25.604-.75 1.25l-.75 1.25c.563 1.23 1.063 2.02 1.5 2.375h.25c.938-.833 1.563-2 1.875-3.5v-1.375c.333-1.437.542-2.562.625-3.375l-.125-.625V81.62a.99.99 0 0 1 .125-.5.99.99 0 0 1-.125-.5v-3.625c0-.52-.875-.937-2.625-1.25v-.25l-.25.125-1.25-.875h-.125c-.333.104-.5.438-.5 1zm-9.5 3.125c.23.563.52.938.875 1.125h.25c.75-1.27 1.125-2.187 1.125-2.75v-.125c-1.5.604-2.25 1.188-2.25 1.75zm9.125-1-.375.5v1.25l-.125.625c.042 0 .167.083.375.25l1.25-.5v-.625c-.104-1-.48-1.5-1.125-1.5zm-10.25 1.125v.25h.375c0-.167-.083-.25-.25-.25zm8.125 4.875.625.25v-.25c0-.167-.083-.25-.25-.25h-.125c-.167.02-.25.104-.25.25zm16.625 0v.125c.5.708.875 1.083 1.125 1.125l.25-.5c-.083 0-.125-.042-.125-.125l-.25.125c-.313 0-.48-.333-.5-1-.208.167-.375.25-.5.25zm9.5.75v.125h.25v-.125zm-2.125.375h.5c0-.167-.083-.25-.25-.25-.167.02-.25.104-.25.25zm1.5-.25v.25h.25c.167 0 .25-.083.25-.25zm-7.75 1.125h.5v-.375h-.125c-.125 0-.25.125-.375.375zm6.625-.125c0 .083-.042.208-.125.375.083.167.125.292.125.375h.5v-.25c0-.125-.167-.292-.5-.5zm-11.25 2.125v.125h.25v-.375c-.167.02-.25.104-.25.25zm-11.25.375-.125.25v.625l.625 1.625h.125c.52-.583.854-.875 1-.875v-.125c-.542-.98-.958-1.48-1.25-1.5zm10.625.25v-.125zm6.75.75v.125h.25v-.125zm-27.125.5v.125c.02.167.104.25.25.25h.125c0-.125-.125-.25-.375-.375zm21.25 2v.25h.125c.167 0 .25-.083.25-.25zM67.762 92.87c0 .125.125.25.375.375l.125-.25v-.125zm28.625.5v.125c.083.583 0-.125 0-.125zm-4.75 2.375v.25h.25c0-.167-.083-.25-.25-.25zm-7.375 1.75v.125c.48.708 1.188 1.167 2.125 1.375 0 .083.042.125.125.125h.375v-1.125c-.25-.75-.5-1.208-.75-1.375h-.125c-.52 0-1.104.292-1.75.875zm2.875-.75v.25c.167 0 .25-.083.25-.25zm2.875.125c-.5.23-.75.73-.75 1.5-.104 0-.188.333-.25 1h.125l.875-.125c.167.083.292.125.375.125.125-.333.25-.5.375-.5h.25c.167.02.25.104.25.25l-.25.375h.125c.27-.25.48-.375.625-.375l-.125-.25c.813-.48 1.52-1.02 2.125-1.625l.125-.25v-.125c-.52.417-1.063.625-1.625.625l-.125-.25c-.417.167-.708.25-.875.25-.083 0-.458-.208-1.125-.625zm-18.375 1.5c.75.208 3.314.116 3.997-.171.29-.273 1.15-1.142 1.5-1.204 1.424-.252 1.909-.191-1.686 2.68 0 0-2.644.008-3.061.32h-1.125c-.25 0-1.2-.176-1.777-.78-1.337-.75-1.466-2.554-1.272-2.643.045-.02.595-.706.878-.557.315.166.486.947.92 1.4.623.647 1.494.984 1.626.955zm32.125.375h.25c.167 0 .25.25.25.75h.875c.125 0 .375.25.75.75l-.125.25c.083.167.125.292.125.375-.25.042-.583.25-1 .625h-.125a.99.99 0 0 1-.5-.125.99.99 0 0 1-.5.125h-.375l-.5-.5h-.125l-.625.125-.25-.375.25-.375.625.125h.125c0-.5.083-.75.25-.75h.125c.23.417.396.625.5.625.146 0 .354.125.625.375.333-.125.5-.25.5-.375 0-.146-.375-.27-1.125-.375 0-.208-.125-.417-.375-.625v-.25c0-.125.125-.25.375-.375zm-15.875.625v.125h.25v-.125zm12.875-.125h.125c.125 0 .292.167.5.5v.125c0 .167-.083.25-.25.25h-.125c-.125 0-.292-.167-.5-.5v-.125c.02-.167.104-.25.25-.25z" fill="url(#e)" transform="translate(-.293)"/>
    </g>
  </g>
</svg>
