<?xml version="1.0" encoding="UTF-8" standalone="no"?>
<!-- Created with Inkscape (http://www.inkscape.org/) -->

<svg
   width="140.96939mm"
   height="75.055374mm"
   viewBox="0 0 140.96939 75.055374"
   version="1.1"
   id="svg5"
   inkscape:version="1.1.2 (b8e25be833, 2022-02-05)"
   sodipodi:docname="scumm8.svg"
   inkscape:export-filename="C:\ScummIcons\engine\scumm8.png"
   inkscape:export-xdpi="138.43129"
   inkscape:export-ydpi="138.43129"
   xmlns:inkscape="http://www.inkscape.org/namespaces/inkscape"
   xmlns:sodipodi="http://sodipodi.sourceforge.net/DTD/sodipodi-0.dtd"
   xmlns="http://www.w3.org/2000/svg"
   xmlns:svg="http://www.w3.org/2000/svg">
  <sodipodi:namedview
     id="namedview7"
     pagecolor="#ffffff"
     bordercolor="#666666"
     borderopacity="1.0"
     inkscape:pageshadow="2"
     inkscape:pageopacity="0"
     inkscape:pagecheckerboard="0"
     inkscape:document-units="mm"
     showgrid="false"
     inkscape:zoom="2.8284272"
     inkscape:cx="462.6246"
     inkscape:cy="122.32947"
     inkscape:window-width="2560"
     inkscape:window-height="1377"
     inkscape:window-x="-8"
     inkscape:window-y="-8"
     inkscape:window-maximized="1"
     inkscape:current-layer="layer1" />
  <defs
     id="defs2" />
  <g
     inkscape:label="Layer 1"
     inkscape:groupmode="layer"
     id="layer1"
     transform="translate(-45.657776,-87.324043)">
    <rect
       style="fill:#000000;fill-opacity:1;stroke-width:0"
       id="rect36130"
       width="140.96939"
       height="75.055374"
       x="45.657776"
       y="87.324043"
       rx="7.4888129"
       ry="9.1211557"
       inkscape:export-filename="C:\ScummIcons\engine\scumm8.png"
       inkscape:export-xdpi="138.43129"
       inkscape:export-ydpi="138.43129" />
    <g
       id="g36073"
       transform="translate(0.23759247,3.2157462)"
       inkscape:export-filename="C:\ScummIcons\engine\scumm8.png"
       inkscape:export-xdpi="138.43129"
       inkscape:export-ydpi="138.43129">
      <rect
         style="fill:#00e435;fill-opacity:1;stroke-width:0"
         id="rect4549-6"
         width="12"
         height="4"
         x="163.86493"
         y="119.63611" />
      <rect
         style="fill:#ffec26;fill-opacity:1;stroke-width:0"
         id="rect4549-6-1-4"
         width="16"
         height="4"
         x="115.63583"
         y="-167.86469"
         transform="rotate(90)" />
      <rect
         style="fill:#29adff;fill-opacity:1;stroke-width:0"
         id="rect4549-6-1-1-1"
         width="12"
         height="4"
         x="119.63611"
         y="-175.86472"
         transform="rotate(90)" />
      <path
         id="rect4549-6-1-0"
         style="fill:#ffffff;fill-opacity:1;stroke-width:0"
         d="m 619.33203,421.93164 v 15.11719 15.11914 h 15.11719 v -15.11914 h 15.11914 v 15.11914 h 15.11719 v -30.23633 h -15.11719 -15.11914 z"
         transform="scale(0.26458333)" />
      <rect
         style="fill:#ffffff;fill-opacity:1;stroke-width:0"
         id="rect4549-5"
         width="8"
         height="4"
         x="151.86485"
         y="119.63586" />
      <path
         id="rect858-1-1-9-1-2-1-3-9"
         style="fill:#00e435;fill-opacity:1;stroke-width:0"
         d="m 226.56445,421.93164 v 15.11719 h 30.23633 v -15.11719 z m 0,15.11719 h -15.11914 v 30.23633 h 15.11914 15.11719 v 15.11718 h 15.11914 v -30.23437 h -30.23633 z m 15.11719,45.35351 h -30.23633 v 15.11914 h 30.23633 z m 45.05078,-60.4707 v 15.11719 h 30.23633 v -15.11719 z m 0,15.11719 h -15.11719 v 45.35547 h 15.11719 z m 0,45.35547 v 15.11718 h 30.23633 V 482.4043 Z m 45.35547,-60.47266 v 60.47266 h 15.11719 v -60.47266 z m 15.11719,60.47266 v 15.11718 h 30.23633 V 482.4043 421.93164 h -15.11719 v 60.47266 z m 45.35547,-60.47266 v 15.11719 60.47265 h 15.11718 v -60.47265 h 15.11915 v -15.11719 z m 30.23633,15.11719 v 30.23633 h 15.11718 v -30.23633 z m 15.11718,0 h 15.11914 v 60.47265 h 15.11719 v -75.58984 h -30.23633 z m 45.35547,-15.11719 v 15.11719 60.47265 h 15.11719 v -60.47265 h 15.11719 v -15.11719 z m 30.23438,15.11719 v 30.23633 h 15.11914 v -30.23633 z m 15.11914,0 h 15.11718 v 60.47265 h 15.11915 v -75.58984 h -30.23633 z"
         inkscape:export-filename="C:\ScummIcons\engine\pngs\scumm8.png"
         inkscape:export-xdpi="138.43129"
         inkscape:export-ydpi="138.43129"
         transform="scale(0.26458333)" />
      <rect
         style="fill:#ffa300;fill-opacity:1;stroke-width:0"
         id="rect4549-6-1-4-3"
         width="8"
         height="4"
         x="123.63586"
         y="-167.86485"
         transform="rotate(90)" />
      <rect
         style="fill:#fd004d;fill-opacity:1;stroke-width:0"
         id="rect4549-6-1-0-3"
         width="12"
         height="4"
         x="-175.86485"
         y="-131.63586"
         transform="scale(-1)" />
      <rect
         style="fill:#ff77a9;fill-opacity:1;stroke-width:0"
         id="rect4549-6-1-0-9"
         width="8"
         height="4"
         x="-175.86485"
         y="-131.63586"
         transform="scale(-1)" />
      <rect
         style="fill:#82769c;fill-opacity:1;stroke-width:0"
         id="rect4549-6-1-0-9-6"
         width="4"
         height="4"
         x="-175.86485"
         y="-131.63586"
         transform="scale(-1)" />
    </g>
  </g>
</svg>
