<?xml version="1.0" encoding="utf-8"?>
<!-- Generator: Adobe Illustrator 13.0.1, SVG Export Plug-In . SVG Version: 6.00 Build 14948)  -->
<!DOCTYPE svg PUBLIC "-//W3C//DTD SVG 1.1 Tiny//EN" "http://www.w3.org/Graphics/SVG/1.1/DTD/svg11-tiny.dtd">
<svg version="1.1" baseProfile="tiny" id="Layer_1" xmlns="http://www.w3.org/2000/svg" xmlns:xlink="http://www.w3.org/1999/xlink"
	 x="0px" y="0px" width="367.459px" height="729.184px" viewBox="0 0 367.459 729.184" xml:space="preserve">
<rect x="0.108" y="178.643" fill-rule="evenodd" stroke="#000000" stroke-width="0.216" stroke-miterlimit="22.9256" width="367.243" height="125.295"/>
<rect x="0.108" y="603.781" fill-rule="evenodd" stroke="#000000" stroke-width="0.216" stroke-miterlimit="22.9256" width="367.243" height="125.294"/>
<path fill-rule="evenodd" fill="#4E287E" stroke="#4E287E" stroke-width="0.216" stroke-linejoin="round" stroke-miterlimit="22.9256" d="
	M37.24,43.938c-9.189-3.393-17.051-8.416-22.941-16.388c-1.599-2.163-0.75-4.396,1.513-5.392c2.952-1.299,5.548-1.836,8.592-2.512
	c3.13-0.694,4.981,0.479,6.474,2.135c5.079,5.509,10.146,9.067,16.321,11.845c2.049,0.923,3.421,0.049,1.632-1.927
	c-3.113-3.44-6.189-7.166-9.163-10.798c-1.579-1.928-1.635-3.617,0.669-4.939c2.766-1.592,5.728-2.48,8.623-3.139
	c3.036-0.692,5.605-0.047,7.408,1.881c3.141,3.365,6.024,6.99,8.998,10.505c0.753-0.25,1.422-0.501,2.178-0.752
	c-2.321-5.941-4.361-11.85-6.156-17.87c-0.711-2.385-0.699-3.597,1.505-4.292c2.577-0.813,5.142-1.365,7.791-1.901
	c4.428-0.901,6.131,0.407,6.93,2.676c1.823,5.178,3.428,10.114,5.06,15.261c5.491-4.098,11.466-7.788,18.127-9.596
	c2.38-0.644,6.962-1.845,6.323,3.624c-0.228,1.96-0.557,3.835-1.043,5.834c-0.69,2.846-1.057,4.221-5.587,6.014
	c-6.697,2.654-12.211,5.592-17.004,9.763c-2.476,2.153-0.71,2.846,1.104,2.209c4.135-1.445,8.586-2.874,13.383-4.48
	c3.189-1.07,4.771-0.57,5.159,1.963c0.272,1.795,0.015,5.12-0.245,6.999c-0.49,3.545-2.439,5.672-5.71,6.877
	c-3.478,1.282-8.724,2.781-13.384,4.358v2.026c6.686-0.132,13.255-0.431,19.461-0.121c3.025,0.15,4.278,0.277,3.683,3.559
	c-0.355,1.971-0.715,3.93-1.165,5.895c-0.812,3.541-2.649,5.252-6.141,5.219l-13.32-0.123c-1.653,4.754-3.407,9.439-4.959,14.26
	c-1.242,3.863-3.411,4.6-6.579,3.959c-2.699-0.546-5.418-1.242-8.069-2.058c-2.145-0.657-2.997-1.322-1.902-4.831
	c1.805-5.787,3.921-11.618,6.32-17.426l-2.106-0.718c-2.896,3.289-5.775,6.646-8.687,9.92c-2.314,2.603-5.497,3.248-9.458,1.952
	c-2.609-0.849-5.249-1.69-7.453-3.187c-2.214-1.501-1.529-3.274,0-5.038c2.809-3.236,5.62-6.476,8.43-9.713
	c3.118-2.964,0.592-3.547-3.239-1.491c-5.373,2.884-10.105,6.102-13.672,10.074c-1.898,2.112-4.107,3.61-9.05,2.16
	c-2.552-0.75-4.647-1.288-7.042-2.363c-3.059-1.376-1.925-4.431-0.101-6.529C23.604,51.727,29.689,47.268,37.24,43.938L37.24,43.938
	z M60.39,45.254c-1.46,1.713-0.731,5.495,3.329,3.424c2.076-1.062,3.635-0.459,4.848,1.14c2.751,3.617,5.56,1.263,4.233-2.757
	c-0.562-1.708,0.086-3.138,1-4.091c2.609-2.725,2.282-7.009-2.853-4.42c-1.704,0.857-3.576,0.296-5.088-1.619
	c-1.991-2.518-4.805-0.552-3.736,2.845C62.781,41.872,61.968,43.403,60.39,45.254z"/>
<path fill="#C1001F" d="M133.345,46.822h-8.67l-5.335-27.857h8.619l1.795,13.954l1.796-13.954h8.259l1.693,13.954l1.898-13.954h8.67
	l-5.746,27.857h-8.567l-2.155-13.903L133.345,46.822L133.345,46.822z M163.605,46.822h-8.927V18.965h8.927V46.822L163.605,46.822z
	 M163.605,16.759h-8.927v-4.156h8.927V16.759L163.605,16.759z M177.251,46.822h-8.926V18.965h8.926v0.923
	c1.608-0.616,3.301-0.923,5.079-0.923c4.446,0,6.669,1.223,6.669,3.677v24.18h-8.926V23.325c0-0.752-0.444-1.128-1.333-1.128
	c-0.992,0-1.488,0.394-1.488,1.18V46.822L177.251,46.822z M206.04,43.744v3.078l-3.847,0.051c-3.216,0-5.37-0.359-6.465-1.077
	c-1.094-0.718-1.642-2.121-1.642-4.207V22.248h-2.052v-3.181h2.052v-6.464h8.772v6.464h3.181v3.181h-3.181l0.154,20.47
	c0.034,0.513,0.308,0.838,0.82,0.975c0.172,0.034,0.65,0.051,1.438,0.051H206.04L206.04,43.744z M220.602,36.612h8.927v5.592
	c0,1.916-0.649,3.207-1.949,3.874s-3.813,1-7.541,1c-4.618,0-7.61-0.291-8.979-0.872c-1.368-0.581-2.052-1.864-2.052-3.848V23.531
	c0-1.881,0.675-3.147,2.026-3.796c1.351-0.65,3.941-0.975,7.772-0.975c4.548,0,7.473,0.308,8.772,0.924s1.949,2,1.949,4.155v10.106
	h-11.646v8.619c0,0.479,0.068,0.787,0.205,0.924c0.171,0.239,0.599,0.359,1.283,0.359c0.547,0,0.889-0.077,1.025-0.23
	s0.205-0.505,0.205-1.052V36.612L220.602,36.612z M217.883,23.171v7.644h2.719v-7.644c0-0.376-0.034-0.632-0.103-0.77
	c-0.171-0.273-0.581-0.411-1.231-0.411c-0.684,0-1.086,0.103-1.205,0.308C217.942,22.504,217.883,22.795,217.883,23.171
	L217.883,23.171z M242.405,46.822h-8.824V18.965h8.465v0.872c1.505-0.684,3.096-1.026,4.771-1.026c4.344,0,6.516,1.385,6.516,4.156
	v7.438h-8.209v-6.874c0-0.923-0.428-1.385-1.282-1.385c-0.958,0-1.437,0.479-1.437,1.437V46.822L242.405,46.822z M264.628,46.822
	h-8.927V18.965h8.927v1.18c1.744-0.889,3.625-1.334,5.644-1.334c2.086,0,3.898,0.445,5.438,1.334c1.71-0.787,3.592-1.18,5.644-1.18
	c2.428,0,4.139,0.367,5.13,1.103c0.992,0.727,1.488,2.018,1.488,3.856v22.898h-8.876V23.479c0-0.855-0.461-1.283-1.385-1.283
	c-0.89,0-1.334,0.411-1.334,1.231v23.394h-8.927V23.479c0-0.855-0.444-1.283-1.334-1.283c-0.991,0-1.487,0.427-1.487,1.283V46.822
	L264.628,46.822z M313.407,46.822h-8.926v-0.77c-1.505,0.684-3.164,1.026-4.977,1.026c-2.359,0-4.078-0.376-5.156-1.128
	c-1.077-0.752-1.615-1.966-1.615-3.643V18.965h8.926v23.496c0,0.821,0.496,1.231,1.488,1.231c0.649,0,1.043-0.137,1.18-0.41
	c0.103-0.171,0.154-0.462,0.154-0.873V18.965h8.926V46.822L313.407,46.822z M330.448,43.744v3.078l-3.847,0.051
	c-3.216,0-5.37-0.359-6.465-1.077c-1.094-0.718-1.642-2.121-1.642-4.207V22.248h-2.052v-3.181h2.052v-6.464h8.772v6.464h3.181v3.181
	h-3.181l0.154,20.47c0.034,0.513,0.308,0.838,0.821,0.975c0.171,0.034,0.649,0.051,1.437,0.051H330.448L330.448,43.744z
	 M345.01,36.612h8.927v5.592c0,1.916-0.649,3.207-1.949,3.874s-3.813,1-7.541,1c-4.618,0-7.61-0.291-8.979-0.872
	c-1.368-0.581-2.052-1.864-2.052-3.848V23.531c0-1.881,0.675-3.147,2.026-3.796c1.351-0.65,3.941-0.975,7.772-0.975
	c4.549,0,7.473,0.308,8.772,0.924s1.949,2,1.949,4.155v10.106h-11.646v8.619c0,0.479,0.068,0.787,0.205,0.924
	c0.171,0.239,0.599,0.359,1.283,0.359c0.547,0,0.889-0.077,1.025-0.23s0.205-0.505,0.205-1.052V36.612L345.01,36.612z
	 M342.291,23.171v7.644h2.719v-7.644c0-0.376-0.034-0.632-0.103-0.77c-0.171-0.273-0.581-0.411-1.23-0.411
	c-0.685,0-1.086,0.103-1.206,0.308C342.352,22.504,342.291,22.795,342.291,23.171z"/>
<path fill="#4E287E" d="M264.637,66.756h4.546v2.848c0,0.976-0.331,1.633-0.992,1.973c-0.662,0.34-1.942,0.509-3.841,0.509
	c-2.352,0-3.876-0.148-4.572-0.444c-0.696-0.296-1.045-0.95-1.045-1.96v-9.588c0-0.958,0.344-1.603,1.032-1.934
	c0.688-0.331,2.007-0.497,3.958-0.497c2.316,0,3.806,0.157,4.468,0.47c0.661,0.314,0.992,1.02,0.992,2.117v5.147h-5.931v4.389
	c0,0.244,0.035,0.4,0.104,0.47c0.088,0.122,0.305,0.183,0.653,0.183c0.279,0,0.453-0.039,0.522-0.117
	c0.07-0.079,0.104-0.257,0.104-0.536V66.756L264.637,66.756z M263.252,59.911v3.893h1.385v-3.893c0-0.191-0.018-0.322-0.052-0.392
	c-0.087-0.139-0.296-0.208-0.627-0.208c-0.349,0-0.554,0.052-0.614,0.157C263.282,59.571,263.252,59.719,263.252,59.911
	L263.252,59.911z M281.17,71.955h-4.546V57.769h4.546v0.47c0.818-0.313,1.681-0.47,2.586-0.47c2.265,0,3.396,0.622,3.396,1.872
	v12.314h-4.546V59.989c0-0.383-0.227-0.575-0.68-0.575c-0.505,0-0.757,0.201-0.757,0.601V71.955L281.17,71.955z M294.78,75.325
	v-1.62h4.363c0.731,0,1.171-0.04,1.319-0.118c0.148-0.079,0.222-0.3,0.222-0.667v-1.332c-0.87,0.348-1.715,0.522-2.534,0.522
	c-1.201,0-2.063-0.192-2.586-0.575c-0.522-0.383-0.784-1.011-0.784-1.881v-9.928c0-1.323,1.149-1.985,3.449-1.985
	c0.923,0,1.741,0.174,2.455,0.522v-0.522h4.546v15.149c0,0.906-0.326,1.542-0.979,1.898s-1.781,0.536-3.383,0.536H294.78
	L294.78,75.325z M299.953,70.414c0.384,0,0.61-0.087,0.68-0.262c0.035-0.069,0.052-0.191,0.052-0.365V60.12
	c0-0.47-0.227-0.706-0.679-0.706c-0.471,0-0.706,0.235-0.706,0.706v9.667C299.3,70.205,299.518,70.414,299.953,70.414
	L299.953,70.414z M317.553,71.955h-4.546V57.769h4.546V71.955L317.553,71.955z M317.553,56.645h-4.546v-2.116h4.546V56.645
	L317.553,56.645z M329.88,71.955h-4.546V57.769h4.546v0.47c0.818-0.313,1.681-0.47,2.586-0.47c2.265,0,3.396,0.622,3.396,1.872
	v12.314h-4.546V59.989c0-0.383-0.227-0.575-0.679-0.575c-0.506,0-0.758,0.201-0.758,0.601V71.955L329.88,71.955z M349.391,66.756
	h4.546v2.848c0,0.976-0.331,1.633-0.992,1.973c-0.662,0.34-1.942,0.509-3.841,0.509c-2.352,0-3.876-0.148-4.572-0.444
	c-0.696-0.296-1.045-0.95-1.045-1.96v-9.588c0-0.958,0.344-1.603,1.031-1.934c0.688-0.331,2.008-0.497,3.959-0.497
	c2.316,0,3.806,0.157,4.468,0.47c0.661,0.314,0.992,1.02,0.992,2.117v5.147h-5.931v4.389c0,0.244,0.035,0.4,0.104,0.47
	c0.087,0.122,0.305,0.183,0.653,0.183c0.278,0,0.452-0.039,0.522-0.117c0.069-0.079,0.104-0.257,0.104-0.536V66.756L349.391,66.756z
	 M348.006,59.911v3.893h1.385v-3.893c0-0.191-0.018-0.322-0.053-0.392c-0.087-0.139-0.296-0.208-0.627-0.208
	c-0.348,0-0.553,0.052-0.613,0.157C348.036,59.571,348.006,59.719,348.006,59.911z"/>
<path fill-rule="evenodd" fill="#FFFFFF" stroke="#FFFFFF" stroke-width="0.216" stroke-linejoin="round" stroke-miterlimit="22.9256" d="
	M37.241,244.064c-9.191-3.393-17.052-8.415-22.942-16.387c-1.599-2.165-0.749-4.399,1.513-5.394
	c2.953-1.298,5.549-1.836,8.592-2.511c3.13-0.694,4.979,0.479,6.475,2.135c5.076,5.51,10.145,9.068,16.319,11.846
	c2.05,0.922,3.421,0.05,1.632-1.927c-3.112-3.439-6.189-7.167-9.163-10.798c-1.579-1.929-1.634-3.618,0.669-4.941
	c2.768-1.591,5.728-2.48,8.623-3.139c3.036-0.69,5.605-0.045,7.407,1.884c3.144,3.363,6.025,6.99,8.997,10.506
	c0.754-0.25,1.425-0.502,2.178-0.753c-2.319-5.943-4.361-11.85-6.155-17.87c-0.711-2.386-0.699-3.597,1.506-4.294
	c2.576-0.813,5.141-1.362,7.788-1.9c4.428-0.899,6.133,0.409,6.932,2.679c1.821,5.176,3.428,10.111,5.06,15.259
	c5.489-4.099,11.466-7.787,18.125-9.594c2.382-0.646,6.964-1.848,6.324,3.623c-0.229,1.96-0.558,3.834-1.044,5.832
	c-0.69,2.848-1.058,4.223-5.586,6.016c-6.698,2.654-12.212,5.591-17.007,9.763c-2.474,2.153-0.708,2.844,1.106,2.21
	c4.134-1.446,8.585-2.875,13.384-4.483c3.189-1.069,4.77-0.568,5.157,1.966c0.273,1.793,0.014,5.12-0.246,6.999
	c-0.49,3.542-2.438,5.67-5.71,6.876c-3.477,1.282-8.723,2.781-13.384,4.359v2.026c6.687-0.133,13.254-0.433,19.462-0.123
	c3.025,0.151,4.277,0.277,3.683,3.561c-0.355,1.971-0.716,3.93-1.166,5.895c-0.811,3.541-2.647,5.25-6.14,5.218l-13.323-0.123
	c-1.653,4.753-3.407,9.441-4.958,14.261c-1.243,3.861-3.41,4.599-6.58,3.958c-2.698-0.546-5.417-1.242-8.07-2.056
	c-2.144-0.658-2.995-1.324-1.901-4.832c1.804-5.788,3.923-11.617,6.322-17.426l-2.107-0.719c-2.896,3.29-5.775,6.646-8.688,9.92
	c-2.313,2.603-5.497,3.247-9.458,1.954c-2.611-0.852-5.249-1.692-7.454-3.187c-2.213-1.5-1.529-3.275,0-5.037
	c2.811-3.239,5.62-6.477,8.431-9.716c3.118-2.964,0.592-3.546-3.238-1.491c-5.373,2.884-10.105,6.104-13.673,10.076
	c-1.896,2.111-4.106,3.61-9.047,2.159c-2.552-0.75-4.648-1.288-7.042-2.364c-3.059-1.375-1.926-4.431-0.103-6.528
	C23.605,251.854,29.69,247.396,37.241,244.064L37.241,244.064z M60.39,245.38c-1.461,1.715-0.731,5.495,3.329,3.424
	c2.076-1.06,3.635-0.459,4.85,1.141c2.749,3.619,5.559,1.263,4.232-2.757c-0.563-1.708,0.088-3.139,0.999-4.09
	c2.608-2.726,2.284-7.009-2.854-4.422c-1.702,0.857-3.575,0.299-5.088-1.616c-1.989-2.519-4.803-0.553-3.737,2.843
	C62.781,241.998,61.967,243.529,60.39,245.38z"/>
<path fill="#DC9329" d="M133.345,246.948h-8.67l-5.335-27.857h8.619l1.795,13.954l1.796-13.954h8.259l1.693,13.954l1.898-13.954
	h8.67l-5.746,27.857h-8.567l-2.155-13.903L133.345,246.948L133.345,246.948z M163.605,246.948h-8.927v-27.857h8.927V246.948
	L163.605,246.948z M163.605,216.885h-8.927v-4.156h8.927V216.885L163.605,216.885z M177.251,246.948h-8.926v-27.857h8.926v0.923
	c1.608-0.616,3.301-0.923,5.079-0.923c4.446,0,6.669,1.223,6.669,3.677v24.18h-8.926v-23.496c0-0.753-0.444-1.129-1.333-1.129
	c-0.992,0-1.488,0.394-1.488,1.18V246.948L177.251,246.948z M206.04,243.87v3.078l-3.847,0.051c-3.216,0-5.37-0.359-6.465-1.077
	c-1.094-0.718-1.642-2.121-1.642-4.207v-19.341h-2.052v-3.181h2.052v-6.464h8.772v6.464h3.181v3.181h-3.181l0.154,20.47
	c0.034,0.513,0.308,0.838,0.82,0.975c0.172,0.034,0.65,0.051,1.438,0.051H206.04L206.04,243.87z M220.602,236.738h8.927v5.592
	c0,1.916-0.649,3.207-1.949,3.874s-3.813,1-7.541,1c-4.618,0-7.61-0.291-8.979-0.872c-1.368-0.581-2.052-1.864-2.052-3.848v-18.828
	c0-1.881,0.675-3.147,2.026-3.796c1.351-0.65,3.941-0.975,7.772-0.975c4.548,0,7.473,0.308,8.772,0.924s1.949,2,1.949,4.155v10.106
	h-11.646v8.619c0,0.479,0.068,0.787,0.205,0.924c0.171,0.239,0.599,0.359,1.283,0.359c0.547,0,0.889-0.077,1.025-0.23
	s0.205-0.505,0.205-1.052V236.738L220.602,236.738z M217.883,223.297v7.644h2.719v-7.644c0-0.376-0.034-0.632-0.103-0.77
	c-0.171-0.273-0.581-0.411-1.231-0.411c-0.684,0-1.086,0.103-1.205,0.308C217.942,222.63,217.883,222.921,217.883,223.297
	L217.883,223.297z M242.405,246.948h-8.824v-27.857h8.465v0.872c1.505-0.684,3.096-1.026,4.771-1.026
	c4.344,0,6.516,1.385,6.516,4.156v7.438h-8.209v-6.874c0-0.923-0.428-1.385-1.282-1.385c-0.958,0-1.437,0.479-1.437,1.437V246.948
	L242.405,246.948z M264.628,246.948h-8.927v-27.857h8.927v1.18c1.744-0.889,3.625-1.334,5.644-1.334
	c2.086,0,3.898,0.445,5.438,1.334c1.71-0.787,3.592-1.18,5.644-1.18c2.428,0,4.139,0.367,5.13,1.103
	c0.992,0.727,1.488,2.018,1.488,3.856v22.898h-8.876v-23.342c0-0.855-0.461-1.283-1.385-1.283c-0.89,0-1.334,0.411-1.334,1.231
	v23.394h-8.927v-23.342c0-0.855-0.444-1.283-1.334-1.283c-0.991,0-1.487,0.427-1.487,1.283V246.948L264.628,246.948z
	 M313.407,246.948h-8.926v-0.77c-1.505,0.684-3.164,1.026-4.977,1.026c-2.359,0-4.078-0.376-5.156-1.128
	c-1.077-0.752-1.615-1.966-1.615-3.643v-23.342h8.926v23.496c0,0.821,0.496,1.231,1.488,1.231c0.649,0,1.043-0.137,1.18-0.411
	c0.103-0.171,0.154-0.461,0.154-0.872v-23.445h8.926V246.948L313.407,246.948z M330.448,243.87v3.078l-3.847,0.051
	c-3.216,0-5.37-0.359-6.465-1.077c-1.094-0.718-1.642-2.121-1.642-4.207v-19.341h-2.052v-3.181h2.052v-6.464h8.772v6.464h3.181
	v3.181h-3.181l0.154,20.47c0.034,0.513,0.308,0.838,0.821,0.975c0.171,0.034,0.649,0.051,1.437,0.051H330.448L330.448,243.87z
	 M345.01,236.738h8.927v5.592c0,1.916-0.649,3.207-1.949,3.874s-3.813,1-7.541,1c-4.618,0-7.61-0.291-8.979-0.872
	c-1.368-0.581-2.052-1.864-2.052-3.848v-18.828c0-1.881,0.675-3.147,2.026-3.796c1.351-0.65,3.941-0.975,7.772-0.975
	c4.549,0,7.473,0.308,8.772,0.924s1.949,2,1.949,4.155v10.106h-11.646v8.619c0,0.479,0.068,0.787,0.205,0.924
	c0.171,0.239,0.599,0.359,1.283,0.359c0.547,0,0.889-0.077,1.025-0.23s0.205-0.505,0.205-1.052V236.738L345.01,236.738z
	 M342.291,223.297v7.644h2.719v-7.644c0-0.376-0.034-0.632-0.103-0.77c-0.171-0.273-0.581-0.411-1.23-0.411
	c-0.685,0-1.086,0.103-1.206,0.308C342.352,222.63,342.291,222.921,342.291,223.297z"/>
<path fill="#FFFFFF" d="M264.637,266.882h4.546v2.848c0,0.976-0.331,1.633-0.992,1.973c-0.662,0.34-1.942,0.509-3.841,0.509
	c-2.352,0-3.876-0.148-4.572-0.444c-0.696-0.296-1.045-0.95-1.045-1.96v-9.588c0-0.958,0.344-1.603,1.032-1.934
	c0.688-0.331,2.007-0.497,3.958-0.497c2.316,0,3.806,0.157,4.468,0.471c0.661,0.313,0.992,1.019,0.992,2.116v5.147h-5.931v4.389
	c0,0.244,0.035,0.401,0.104,0.471c0.088,0.122,0.305,0.183,0.653,0.183c0.279,0,0.453-0.039,0.522-0.117
	c0.07-0.079,0.104-0.257,0.104-0.536V266.882L264.637,266.882z M263.252,260.037v3.893h1.385v-3.893
	c0-0.191-0.018-0.322-0.052-0.392c-0.087-0.139-0.296-0.208-0.627-0.208c-0.349,0-0.554,0.052-0.614,0.157
	C263.282,259.697,263.252,259.845,263.252,260.037L263.252,260.037z M281.17,272.081h-4.546v-14.187h4.546v0.47
	c0.818-0.313,1.681-0.47,2.586-0.47c2.265,0,3.396,0.622,3.396,1.872v12.314h-4.546v-11.966c0-0.383-0.227-0.575-0.68-0.575
	c-0.505,0-0.757,0.201-0.757,0.601V272.081L281.17,272.081z M294.78,275.451v-1.62h4.363c0.731,0,1.171-0.039,1.319-0.117
	c0.148-0.079,0.222-0.3,0.222-0.667v-1.332c-0.87,0.348-1.715,0.522-2.534,0.522c-1.201,0-2.063-0.192-2.586-0.575
	c-0.522-0.383-0.784-1.01-0.784-1.881v-9.928c0-1.323,1.149-1.985,3.449-1.985c0.923,0,1.741,0.174,2.455,0.522v-0.522h4.546v15.149
	c0,0.906-0.326,1.542-0.979,1.898c-0.653,0.357-1.781,0.536-3.383,0.536H294.78L294.78,275.451z M299.953,270.54
	c0.384,0,0.61-0.087,0.68-0.261c0.035-0.07,0.052-0.191,0.052-0.366v-9.667c0-0.47-0.227-0.706-0.679-0.706
	c-0.471,0-0.706,0.235-0.706,0.706v9.667C299.3,270.331,299.518,270.54,299.953,270.54L299.953,270.54z M317.553,272.081h-4.546
	v-14.187h4.546V272.081L317.553,272.081z M317.553,256.771h-4.546v-2.116h4.546V256.771L317.553,256.771z M329.88,272.081h-4.546
	v-14.187h4.546v0.47c0.818-0.313,1.681-0.47,2.586-0.47c2.265,0,3.396,0.622,3.396,1.872v12.314h-4.546v-11.966
	c0-0.383-0.227-0.575-0.679-0.575c-0.506,0-0.758,0.201-0.758,0.601V272.081L329.88,272.081z M349.391,266.882h4.546v2.848
	c0,0.976-0.331,1.633-0.992,1.973c-0.662,0.34-1.942,0.509-3.841,0.509c-2.352,0-3.876-0.148-4.572-0.444
	c-0.696-0.296-1.045-0.95-1.045-1.96v-9.588c0-0.958,0.344-1.603,1.031-1.934c0.688-0.331,2.008-0.497,3.959-0.497
	c2.316,0,3.806,0.157,4.468,0.471c0.661,0.313,0.992,1.019,0.992,2.116v5.147h-5.931v4.389c0,0.244,0.035,0.401,0.104,0.471
	c0.087,0.122,0.305,0.183,0.653,0.183c0.278,0,0.452-0.039,0.522-0.117c0.069-0.079,0.104-0.257,0.104-0.536V266.882
	L349.391,266.882z M348.006,260.037v3.893h1.385v-3.893c0-0.191-0.018-0.322-0.053-0.392c-0.087-0.139-0.296-0.208-0.627-0.208
	c-0.348,0-0.553,0.052-0.613,0.157C348.036,259.697,348.006,259.845,348.006,260.037z"/>
<path fill-rule="evenodd" fill="#4E287E" stroke="#4E287E" stroke-width="0.216" stroke-linejoin="round" stroke-miterlimit="22.9256" d="
	M37.241,444.19c-9.191-3.393-17.052-8.416-22.942-16.387c-1.599-2.164-0.749-4.399,1.513-5.394c2.953-1.299,5.549-1.836,8.592-2.512
	c3.13-0.694,4.979,0.479,6.475,2.135c5.076,5.511,10.145,9.068,16.319,11.846c2.05,0.923,3.421,0.051,1.632-1.927
	c-3.112-3.439-6.189-7.166-9.163-10.798c-1.579-1.929-1.634-3.618,0.669-4.94c2.768-1.59,5.728-2.48,8.623-3.139
	c3.036-0.691,5.605-0.046,7.407,1.883c3.144,3.363,6.025,6.99,8.997,10.506c0.754-0.25,1.425-0.502,2.178-0.753
	c-2.319-5.942-4.361-11.851-6.155-17.871c-0.711-2.384-0.699-3.597,1.506-4.292c2.576-0.813,5.141-1.363,7.788-1.9
	c4.428-0.9,6.133,0.407,6.932,2.678c1.821,5.176,3.428,10.111,5.06,15.259c5.489-4.098,11.466-7.787,18.125-9.594
	c2.382-0.646,6.964-1.848,6.324,3.622c-0.229,1.962-0.558,3.835-1.044,5.833c-0.69,2.848-1.058,4.223-5.586,6.017
	c-6.698,2.652-12.212,5.59-17.007,9.762c-2.474,2.153-0.708,2.845,1.106,2.21c4.134-1.446,8.585-2.874,13.384-4.481
	c3.189-1.069,4.77-0.569,5.157,1.964c0.273,1.794,0.014,5.121-0.246,7c-0.49,3.542-2.438,5.67-5.71,6.876
	c-3.477,1.281-8.723,2.78-13.384,4.359v2.026c6.687-0.134,13.254-0.434,19.462-0.123c3.025,0.15,4.277,0.277,3.683,3.561
	c-0.355,1.971-0.716,3.93-1.166,5.895c-0.811,3.54-2.647,5.25-6.14,5.218l-13.323-0.122c-1.653,4.753-3.407,9.44-4.958,14.261
	c-1.243,3.861-3.41,4.6-6.58,3.958c-2.698-0.547-5.417-1.242-8.07-2.056c-2.144-0.659-2.995-1.324-1.901-4.832
	c1.804-5.788,3.923-11.618,6.322-17.427l-2.107-0.72c-2.896,3.29-5.775,6.646-8.688,9.921c-2.313,2.603-5.497,3.248-9.458,1.953
	c-2.611-0.852-5.249-1.691-7.454-3.187c-2.213-1.5-1.529-3.276,0-5.037c2.811-3.238,5.62-6.477,8.431-9.716
	c3.118-2.963,0.592-3.546-3.238-1.49c-5.373,2.884-10.105,6.103-13.673,10.074c-1.896,2.111-4.106,3.611-9.047,2.16
	c-2.552-0.75-4.648-1.288-7.042-2.365c-3.059-1.376-1.926-4.431-0.103-6.527C23.605,451.979,29.69,447.521,37.241,444.19
	L37.241,444.19z M60.39,445.506c-1.461,1.715-0.731,5.495,3.329,3.424c2.076-1.06,3.635-0.459,4.85,1.142
	c2.749,3.617,5.559,1.262,4.232-2.759c-0.563-1.707,0.088-3.138,0.999-4.089c2.608-2.726,2.284-7.01-2.854-4.422
	c-1.702,0.856-3.575,0.297-5.088-1.617c-1.989-2.518-4.803-0.553-3.737,2.843C62.781,442.124,61.967,443.655,60.39,445.506z"/>
<path fill="#C1001F" d="M133.345,447.074h-8.67l-5.335-27.857h8.619l1.795,13.954l1.796-13.954h8.259l1.693,13.954l1.898-13.954
	h8.67l-5.746,27.857h-8.567l-2.155-13.903L133.345,447.074L133.345,447.074z M163.605,447.074h-8.927v-27.857h8.927V447.074
	L163.605,447.074z M163.605,417.011h-8.927v-4.155h8.927V417.011L163.605,417.011z M177.251,447.074h-8.926v-27.857h8.926v0.923
	c1.608-0.615,3.301-0.923,5.079-0.923c4.446,0,6.669,1.223,6.669,3.677v24.181h-8.926v-23.497c0-0.752-0.444-1.129-1.333-1.129
	c-0.992,0-1.488,0.394-1.488,1.181V447.074L177.251,447.074z M206.04,443.996v3.078l-3.847,0.051c-3.216,0-5.37-0.359-6.465-1.077
	c-1.094-0.718-1.642-2.12-1.642-4.207V422.5h-2.052v-3.181h2.052v-6.464h8.772v6.464h3.181v3.181h-3.181l0.154,20.47
	c0.034,0.513,0.308,0.838,0.82,0.975c0.172,0.034,0.65,0.052,1.438,0.052H206.04L206.04,443.996z M220.602,436.864h8.927v5.593
	c0,1.915-0.649,3.206-1.949,3.873s-3.813,1-7.541,1c-4.618,0-7.61-0.291-8.979-0.872s-2.052-1.864-2.052-3.848v-18.828
	c0-1.881,0.675-3.146,2.026-3.796c1.351-0.649,3.941-0.975,7.772-0.975c4.548,0,7.473,0.308,8.772,0.923
	c1.3,0.616,1.949,2.001,1.949,4.156v10.106h-11.646v8.618c0,0.479,0.068,0.787,0.205,0.924c0.171,0.239,0.599,0.359,1.283,0.359
	c0.547,0,0.889-0.077,1.025-0.231c0.137-0.153,0.205-0.504,0.205-1.052V436.864L220.602,436.864z M217.883,423.424v7.644h2.719
	v-7.644c0-0.376-0.034-0.633-0.103-0.77c-0.171-0.274-0.581-0.411-1.231-0.411c-0.684,0-1.086,0.103-1.205,0.308
	C217.942,422.757,217.883,423.048,217.883,423.424L217.883,423.424z M242.405,447.074h-8.824v-27.857h8.465v0.872
	c1.505-0.684,3.096-1.026,4.771-1.026c4.344,0,6.516,1.386,6.516,4.155v7.439h-8.209v-6.875c0-0.923-0.428-1.385-1.282-1.385
	c-0.958,0-1.437,0.479-1.437,1.437V447.074L242.405,447.074z M264.628,447.074h-8.927v-27.857h8.927v1.18
	c1.744-0.889,3.625-1.334,5.644-1.334c2.086,0,3.898,0.445,5.438,1.334c1.71-0.786,3.592-1.18,5.644-1.18
	c2.428,0,4.139,0.367,5.13,1.103c0.992,0.727,1.488,2.019,1.488,3.856v22.898h-8.876v-23.343c0-0.855-0.461-1.283-1.385-1.283
	c-0.89,0-1.334,0.411-1.334,1.231v23.395h-8.927v-23.343c0-0.855-0.444-1.283-1.334-1.283c-0.991,0-1.487,0.428-1.487,1.283V447.074
	L264.628,447.074z M313.407,447.074h-8.926v-0.771c-1.505,0.685-3.164,1.026-4.977,1.026c-2.359,0-4.078-0.376-5.156-1.129
	c-1.077-0.752-1.615-1.966-1.615-3.643v-23.342h8.926v23.496c0,0.821,0.496,1.231,1.488,1.231c0.649,0,1.043-0.137,1.18-0.41
	c0.103-0.171,0.154-0.462,0.154-0.872v-23.445h8.926V447.074L313.407,447.074z M330.448,443.996v3.078l-3.847,0.051
	c-3.216,0-5.37-0.359-6.465-1.077c-1.094-0.718-1.642-2.12-1.642-4.207V422.5h-2.052v-3.181h2.052v-6.464h8.772v6.464h3.181v3.181
	h-3.181l0.154,20.47c0.034,0.513,0.308,0.838,0.821,0.975c0.171,0.034,0.649,0.052,1.437,0.052H330.448L330.448,443.996z
	 M345.01,436.864h8.927v5.593c0,1.915-0.649,3.206-1.949,3.873s-3.813,1-7.541,1c-4.618,0-7.61-0.291-8.979-0.872
	s-2.052-1.864-2.052-3.848v-18.828c0-1.881,0.675-3.146,2.026-3.796c1.351-0.649,3.941-0.975,7.772-0.975
	c4.549,0,7.473,0.308,8.772,0.923c1.3,0.616,1.949,2.001,1.949,4.156v10.106h-11.646v8.618c0,0.479,0.068,0.787,0.205,0.924
	c0.171,0.239,0.599,0.359,1.283,0.359c0.547,0,0.889-0.077,1.025-0.231c0.137-0.153,0.205-0.504,0.205-1.052V436.864L345.01,436.864
	z M342.291,423.424v7.644h2.719v-7.644c0-0.376-0.034-0.633-0.103-0.77c-0.171-0.274-0.581-0.411-1.23-0.411
	c-0.685,0-1.086,0.103-1.206,0.308C342.352,422.757,342.291,423.048,342.291,423.424z"/>
<path fill="#4E287E" d="M264.637,467.008h4.546v2.848c0,0.976-0.331,1.633-0.992,1.973c-0.662,0.34-1.942,0.51-3.841,0.51
	c-2.352,0-3.876-0.148-4.572-0.444c-0.696-0.297-1.045-0.949-1.045-1.96v-9.588c0-0.958,0.344-1.603,1.032-1.934
	c0.688-0.331,2.007-0.496,3.958-0.496c2.316,0,3.806,0.156,4.468,0.47c0.661,0.313,0.992,1.02,0.992,2.116v5.147h-5.931v4.389
	c0,0.244,0.035,0.4,0.104,0.471c0.088,0.122,0.305,0.183,0.653,0.183c0.279,0,0.453-0.039,0.522-0.117
	c0.07-0.078,0.104-0.257,0.104-0.536V467.008L264.637,467.008z M263.252,460.163v3.893h1.385v-3.893
	c0-0.192-0.018-0.322-0.052-0.393c-0.087-0.14-0.296-0.209-0.627-0.209c-0.349,0-0.554,0.053-0.614,0.157
	C263.282,459.823,263.252,459.971,263.252,460.163L263.252,460.163z M281.17,472.207h-4.546v-14.187h4.546v0.47
	c0.818-0.313,1.681-0.47,2.586-0.47c2.265,0,3.396,0.622,3.396,1.872v12.314h-4.546v-11.966c0-0.384-0.227-0.575-0.68-0.575
	c-0.505,0-0.757,0.2-0.757,0.601V472.207L281.17,472.207z M294.78,475.577v-1.62h4.363c0.731,0,1.171-0.039,1.319-0.117
	s0.222-0.301,0.222-0.666v-1.333c-0.87,0.349-1.715,0.522-2.534,0.522c-1.201,0-2.063-0.191-2.586-0.574s-0.784-1.011-0.784-1.881
	v-9.929c0-1.323,1.149-1.985,3.449-1.985c0.923,0,1.741,0.174,2.455,0.522v-0.522h4.546v15.149c0,0.905-0.326,1.541-0.979,1.898
	c-0.653,0.356-1.781,0.535-3.383,0.535H294.78L294.78,475.577z M299.953,470.665c0.384,0,0.61-0.087,0.68-0.261
	c0.035-0.069,0.052-0.191,0.052-0.366v-9.666c0-0.471-0.227-0.706-0.679-0.706c-0.471,0-0.706,0.235-0.706,0.706v9.666
	C299.3,470.456,299.518,470.665,299.953,470.665L299.953,470.665z M317.553,472.207h-4.546v-14.187h4.546V472.207L317.553,472.207z
	 M317.553,456.896h-4.546v-2.116h4.546V456.896L317.553,456.896z M329.88,472.207h-4.546v-14.187h4.546v0.47
	c0.818-0.313,1.681-0.47,2.586-0.47c2.265,0,3.396,0.622,3.396,1.872v12.314h-4.546v-11.966c0-0.384-0.227-0.575-0.679-0.575
	c-0.506,0-0.758,0.2-0.758,0.601V472.207L329.88,472.207z M349.391,467.008h4.546v2.848c0,0.976-0.331,1.633-0.992,1.973
	c-0.662,0.34-1.942,0.51-3.841,0.51c-2.352,0-3.876-0.148-4.572-0.444c-0.696-0.297-1.045-0.949-1.045-1.96v-9.588
	c0-0.958,0.344-1.603,1.031-1.934c0.688-0.331,2.008-0.496,3.959-0.496c2.316,0,3.806,0.156,4.468,0.47
	c0.661,0.313,0.992,1.02,0.992,2.116v5.147h-5.931v4.389c0,0.244,0.035,0.4,0.104,0.471c0.087,0.122,0.305,0.183,0.653,0.183
	c0.278,0,0.452-0.039,0.522-0.117c0.069-0.078,0.104-0.257,0.104-0.536V467.008L349.391,467.008z M348.006,460.163v3.893h1.385
	v-3.893c0-0.192-0.018-0.322-0.053-0.393c-0.087-0.14-0.296-0.209-0.627-0.209c-0.348,0-0.553,0.053-0.613,0.157
	C348.036,459.823,348.006,459.971,348.006,460.163z"/>
<g>
	<path fill="#4E287E" d="M21.081,501.137c-0.088,2.105-1.281,3.158-3.578,3.158c-1.178,0-2.105-0.431-2.783-1.292
		c-0.677-0.861-1.016-2.08-1.016-3.655c0-3.269,1.377-4.903,4.13-4.903c0.957,0,1.712,0.239,2.264,0.718
		c0.552,0.479,0.85,1.152,0.894,2.021h-1.789c-0.073-0.854-0.582-1.281-1.524-1.281c-1.501,0-2.252,1.082-2.252,3.246
		c0,2.43,0.707,3.645,2.12,3.645c1.031,0,1.59-0.552,1.679-1.656H21.081L21.081,501.137z M36.903,497.426h-1.657v-0.132
		c0-0.928-0.397-1.392-1.192-1.392c-0.766,0-1.388,0.346-1.866,1.038c-0.479,0.691-0.718,1.663-0.718,2.915v4.307h-1.634v-9.629
		h1.634v1.126c0.707-0.839,1.59-1.259,2.65-1.259c0.869,0,1.55,0.258,2.043,0.772c0.493,0.516,0.74,1.244,0.74,2.187V497.426
		L36.903,497.426z M53.145,499.657h-6.67v0.11c0,0.942,0.247,1.678,0.74,2.208s1.16,0.795,1.999,0.795
		c0.824,0,1.325-0.235,1.502-0.706h1.965c-0.118,0.691-0.479,1.24-1.082,1.646c-0.604,0.404-1.392,0.607-2.363,0.607
		c-1.443,0-2.569-0.438-3.379-1.314c-0.81-0.876-1.214-2.103-1.214-3.678c0-1.531,0.401-2.738,1.204-3.622
		c0.802-0.883,1.896-1.325,3.28-1.325c1.281,0,2.271,0.445,2.97,1.336c0.7,0.892,1.049,2.184,1.049,3.877V499.657L53.145,499.657z
		 M51.356,498.155c-0.162-1.531-0.95-2.297-2.363-2.297c-1.384,0-2.223,0.766-2.518,2.297H51.356L51.356,498.155z M68.485,504.162
		h-1.59v-1.236c-0.795,0.913-1.811,1.369-3.048,1.369c-1.03,0-1.855-0.279-2.474-0.836c-0.618-0.56-0.927-1.284-0.927-2.179
		c0-1.101,0.46-1.903,1.38-2.411c0.92-0.505,2.345-0.759,4.273-0.759c0.088,0,0.221,0,0.398,0c0.176,0,0.309,0,0.397,0v-0.066
		c0-1.442-0.81-2.164-2.429-2.164c-0.898,0-1.428,0.251-1.59,0.751h-1.811c0.177-1.517,1.325-2.274,3.445-2.274
		c1.399,0,2.411,0.302,3.037,0.901c0.626,0.601,0.938,1.55,0.938,2.853V504.162L68.485,504.162z M66.895,499.657
		c-0.707-0.03-1.067-0.045-1.082-0.045c-2.415,0-3.622,0.574-3.622,1.723c0,0.412,0.155,0.751,0.464,1.017
		c0.309,0.265,0.722,0.397,1.237,0.397c0.839,0,1.542-0.283,2.109-0.851C66.567,501.332,66.865,500.585,66.895,499.657
		L66.895,499.657z M84.086,503.677c-0.795,0.367-1.612,0.552-2.452,0.552c-1.06,0-1.826-0.39-2.297-1.171
		c-0.265-0.441-0.397-1.147-0.397-2.12v-4.793h-1.988v-1.546h2.121v-2.429l1.656-0.465v2.894h3.357v1.546h-3.49v4.329
		c0,0.766,0.11,1.325,0.331,1.679c0.221,0.354,0.611,0.53,1.171,0.53c0.515,0,1.178-0.214,1.988-0.641V503.677L84.086,503.677z
		 M100.612,499.657h-6.67v0.11c0,0.942,0.247,1.678,0.74,2.208s1.16,0.795,1.999,0.795c0.824,0,1.325-0.235,1.502-0.706h1.965
		c-0.117,0.691-0.479,1.24-1.082,1.646c-0.604,0.404-1.391,0.607-2.363,0.607c-1.443,0-2.569-0.438-3.379-1.314
		c-0.81-0.876-1.214-2.103-1.214-3.678c0-1.531,0.401-2.738,1.204-3.622c0.802-0.883,1.896-1.325,3.28-1.325
		c1.281,0,2.271,0.445,2.971,1.336c0.699,0.892,1.049,2.184,1.049,3.877V499.657L100.612,499.657z M98.822,498.155
		c-0.162-1.531-0.949-2.297-2.363-2.297c-1.384,0-2.223,0.766-2.518,2.297H98.822L98.822,498.155z M180.009,499.348
		c0,1.502-0.419,2.705-1.259,3.611c-0.839,0.905-1.936,1.358-3.291,1.358c-1.354,0-2.452-0.453-3.291-1.358
		c-0.839-0.906-1.259-2.109-1.259-3.611s0.423-2.709,1.27-3.622s1.94-1.369,3.28-1.369c1.355,0,2.452,0.452,3.291,1.357
		C179.59,496.62,180.009,497.831,180.009,499.348L180.009,499.348z M178.287,499.348c0-1.061-0.261-1.899-0.784-2.518
		c-0.522-0.619-1.204-0.928-2.043-0.928c-0.854,0-1.539,0.306-2.054,0.916c-0.516,0.611-0.773,1.454-0.773,2.529
		c0,1.074,0.258,1.918,0.773,2.529c0.515,0.61,1.2,0.916,2.054,0.916s1.539-0.306,2.054-0.916
		C178.029,501.266,178.287,500.422,178.287,499.348L178.287,499.348z M195.876,494.533l-1.215,9.629h-2.18l-1.196-4.251
		l-1.152,4.251h-2.187l-1.236-9.629h1.748l0.659,5.83c0.104,0.913,0.154,1.562,0.154,1.944l1.083-3.998h1.921l1.104,3.998
		c0.041-0.501,0.088-1.075,0.144-1.723l0.651-6.052H195.876L195.876,494.533z M211.326,504.162h-1.635v-4.748
		c0-1.237-0.125-2.105-0.375-2.606c-0.295-0.604-0.84-0.905-1.635-0.905c-1.178,0-2.062,0.479-2.65,1.436
		c-0.354,0.574-0.53,1.575-0.53,3.004v3.82h-1.634v-9.629h1.634v1.347c0.928-0.972,1.966-1.458,3.114-1.458
		c1.429,0,2.423,0.435,2.981,1.304c0.486,0.766,0.729,2.031,0.729,3.799V504.162z"/>
	<path fill="#C1001F" d="M117.251,494.533l-6.008,11.065c-0.382,0.706-0.725,1.174-1.027,1.401
		c-0.302,0.229-0.747,0.343-1.336,0.343h-0.883v-1.59h0.82c0.324,0,0.56-0.133,0.71-0.395l1.98-3.604l-4.263-7.222h1.933l3.24,5.661
		l3.022-5.661H117.251L117.251,494.533z M132.543,499.348c0,1.502-0.419,2.705-1.259,3.611c-0.839,0.905-1.936,1.358-3.291,1.358
		c-1.354,0-2.452-0.453-3.291-1.358c-0.839-0.906-1.259-2.109-1.259-3.611s0.423-2.709,1.27-3.622s1.94-1.369,3.28-1.369
		c1.355,0,2.452,0.452,3.291,1.357C132.124,496.62,132.543,497.831,132.543,499.348L132.543,499.348z M130.82,499.348
		c0-1.061-0.262-1.899-0.784-2.518c-0.522-0.619-1.204-0.928-2.043-0.928c-0.854,0-1.539,0.306-2.054,0.916
		c-0.516,0.611-0.773,1.454-0.773,2.529c0,1.074,0.258,1.918,0.773,2.529c0.515,0.61,1.2,0.916,2.054,0.916s1.539-0.306,2.054-0.916
		C130.563,501.266,130.82,500.422,130.82,499.348L130.82,499.348z M148.056,504.162h-1.635v-1.347
		c-0.928,0.972-2.01,1.457-3.247,1.457c-1.34,0-2.319-0.485-2.938-1.457c-0.427-0.663-0.641-1.878-0.641-3.645v-4.638h1.635v4.727
		c0,1.251,0.125,2.127,0.375,2.628c0.31,0.604,0.884,0.905,1.723,0.905c1.119,0,1.973-0.479,2.562-1.436
		c0.353-0.574,0.53-1.575,0.53-3.004v-3.82h1.635V504.162L148.056,504.162z M163.48,497.426h-1.657v-0.132
		c0-0.928-0.397-1.392-1.192-1.392c-0.766,0-1.388,0.346-1.866,1.038c-0.479,0.691-0.718,1.663-0.718,2.915v4.307h-1.635v-9.629
		h1.635v1.126c0.707-0.839,1.59-1.259,2.65-1.259c0.869,0,1.55,0.258,2.043,0.772c0.493,0.516,0.74,1.244,0.74,2.187V497.426
		L163.48,497.426z M226.706,504.162h-1.59v-1.236c-0.795,0.913-1.812,1.369-3.048,1.369c-1.03,0-1.855-0.279-2.474-0.836
		c-0.618-0.56-0.928-1.284-0.928-2.179c0-1.101,0.46-1.903,1.381-2.411c0.92-0.505,2.345-0.759,4.273-0.759c0.088,0,0.221,0,0.397,0
		s0.31,0,0.397,0v-0.066c0-1.442-0.81-2.164-2.43-2.164c-0.898,0-1.428,0.251-1.59,0.751h-1.812
		c0.177-1.517,1.325-2.274,3.445-2.274c1.399,0,2.411,0.302,3.037,0.901c0.626,0.601,0.938,1.55,0.938,2.853V504.162
		L226.706,504.162z M225.116,499.657c-0.707-0.03-1.067-0.045-1.082-0.045c-2.415,0-3.622,0.574-3.622,1.723
		c0,0.412,0.154,0.751,0.464,1.017c0.309,0.265,0.722,0.397,1.236,0.397c0.84,0,1.543-0.283,2.109-0.851
		C224.789,501.332,225.087,500.585,225.116,499.657L225.116,499.657z M242.926,504.162h-1.567v-1.28
		c-0.811,0.972-1.878,1.457-3.203,1.457c-1.266,0-2.268-0.445-3.004-1.336s-1.104-2.117-1.104-3.678
		c0-1.546,0.375-2.753,1.126-3.622s1.76-1.303,3.026-1.303c1.222,0,2.245,0.434,3.069,1.303v-5.478h1.656V504.162L242.926,504.162z
		 M241.27,499.348c0-1.061-0.258-1.889-0.77-2.484c-0.515-0.597-1.196-0.895-2.046-0.895c-0.807,0-1.451,0.298-1.937,0.895
		c-0.482,0.596-0.726,1.409-0.726,2.44c0,1.104,0.236,1.954,0.703,2.551c0.471,0.597,1.123,0.895,1.959,0.895
		c0.85,0,1.531-0.302,2.046-0.905C241.012,501.239,241.27,500.407,241.27,499.348L241.27,499.348z M259.322,494.533l-3.512,9.629
		h-2.496l-3.511-9.629h1.781l2.945,8.26h0.15l2.941-8.26H259.322L259.322,494.533z M274.655,499.657h-6.67v0.11
		c0,0.942,0.246,1.678,0.739,2.208s1.16,0.795,1.999,0.795c0.824,0,1.325-0.235,1.502-0.706h1.966
		c-0.118,0.691-0.479,1.24-1.082,1.646c-0.604,0.404-1.392,0.607-2.363,0.607c-1.443,0-2.569-0.438-3.38-1.314
		c-0.81-0.876-1.214-2.103-1.214-3.678c0-1.531,0.4-2.738,1.203-3.622c0.803-0.883,1.896-1.325,3.28-1.325
		c1.28,0,2.271,0.445,2.97,1.336c0.7,0.892,1.05,2.184,1.05,3.877V499.657L274.655,499.657z M272.866,498.155
		c-0.162-1.531-0.95-2.297-2.363-2.297c-1.384,0-2.224,0.766-2.518,2.297H272.866L272.866,498.155z M290.437,504.162h-1.634v-4.748
		c0-1.237-0.126-2.105-0.376-2.606c-0.295-0.604-0.839-0.905-1.634-0.905c-1.179,0-2.062,0.479-2.65,1.436
		c-0.354,0.574-0.53,1.575-0.53,3.004v3.82h-1.635v-9.629h1.635v1.347c0.928-0.972,1.966-1.458,3.114-1.458
		c1.428,0,2.422,0.435,2.981,1.304c0.486,0.766,0.729,2.031,0.729,3.799V504.162L290.437,504.162z M305.597,503.677
		c-0.796,0.367-1.612,0.552-2.452,0.552c-1.06,0-1.826-0.39-2.297-1.171c-0.265-0.441-0.397-1.147-0.397-2.12v-4.793h-1.988v-1.546
		h2.121v-2.429l1.656-0.465v2.894h3.357v1.546h-3.49v4.329c0,0.766,0.11,1.325,0.331,1.679c0.222,0.354,0.611,0.53,1.171,0.53
		c0.516,0,1.178-0.214,1.988-0.641V503.677L305.597,503.677z M322.1,504.162h-1.635v-1.347c-0.928,0.972-2.01,1.457-3.246,1.457
		c-1.341,0-2.319-0.485-2.938-1.457c-0.427-0.663-0.64-1.878-0.64-3.645v-4.638h1.634v4.727c0,1.251,0.126,2.127,0.376,2.628
		c0.309,0.604,0.884,0.905,1.723,0.905c1.119,0,1.973-0.479,2.562-1.436c0.354-0.574,0.53-1.575,0.53-3.004v-3.82h1.635V504.162
		L322.1,504.162z M337.524,497.426h-1.657v-0.132c0-0.928-0.397-1.392-1.192-1.392c-0.766,0-1.388,0.346-1.866,1.038
		c-0.479,0.691-0.718,1.663-0.718,2.915v4.307h-1.635v-9.629h1.635v1.126c0.707-0.839,1.59-1.259,2.65-1.259
		c0.868,0,1.55,0.258,2.043,0.772c0.493,0.516,0.74,1.244,0.74,2.187V497.426L337.524,497.426z M353.766,499.657h-6.67v0.11
		c0,0.942,0.247,1.678,0.74,2.208s1.159,0.795,1.998,0.795c0.825,0,1.325-0.235,1.503-0.706h1.965
		c-0.117,0.691-0.479,1.24-1.082,1.646c-0.604,0.404-1.392,0.607-2.363,0.607c-1.442,0-2.569-0.438-3.379-1.314
		c-0.811-0.876-1.215-2.103-1.215-3.678c0-1.531,0.401-2.738,1.203-3.622c0.803-0.883,1.896-1.325,3.28-1.325
		c1.281,0,2.271,0.445,2.971,1.336c0.699,0.892,1.049,2.184,1.049,3.877V499.657L353.766,499.657z M351.977,498.155
		c-0.162-1.531-0.949-2.297-2.363-2.297c-1.384,0-2.223,0.766-2.518,2.297H351.977z"/>
</g>
<path fill-rule="evenodd" fill="#FFFFFF" stroke="#FFFFFF" stroke-width="0.216" stroke-linejoin="round" stroke-miterlimit="22.9256" d="
	M37.241,654.013c-9.191-3.393-17.052-8.415-22.942-16.388c-1.599-2.164-0.749-4.399,1.513-5.394
	c2.953-1.298,5.549-1.836,8.592-2.511c3.13-0.694,4.979,0.479,6.475,2.134c5.076,5.512,10.145,9.068,16.319,11.847
	c2.05,0.922,3.421,0.051,1.632-1.927c-3.112-3.44-6.189-7.167-9.163-10.799c-1.579-1.928-1.634-3.617,0.669-4.94
	c2.768-1.59,5.728-2.48,8.623-3.139c3.036-0.69,5.605-0.046,7.407,1.884c3.144,3.362,6.025,6.99,8.997,10.506
	c0.754-0.251,1.425-0.502,2.178-0.754c-2.319-5.942-4.361-11.85-6.155-17.87c-0.711-2.385-0.699-3.597,1.506-4.293
	c2.576-0.813,5.141-1.362,7.788-1.9c4.428-0.899,6.133,0.408,6.932,2.678c1.821,5.177,3.428,10.112,5.06,15.259
	c5.489-4.098,11.466-7.786,18.125-9.593c2.382-0.647,6.964-1.849,6.324,3.621c-0.229,1.962-0.558,3.835-1.044,5.833
	c-0.69,2.849-1.058,4.224-5.586,6.017c-6.698,2.653-12.212,5.591-17.007,9.763c-2.474,2.152-0.708,2.844,1.106,2.21
	c4.134-1.446,8.585-2.874,13.384-4.481c3.189-1.069,4.77-0.569,5.157,1.964c0.273,1.793,0.014,5.121-0.246,6.999
	c-0.49,3.543-2.438,5.671-5.71,6.876c-3.477,1.281-8.723,2.782-13.384,4.359v2.026c6.687-0.134,13.254-0.434,19.462-0.123
	c3.025,0.15,4.277,0.277,3.683,3.562c-0.355,1.97-0.716,3.929-1.166,5.894c-0.811,3.54-2.647,5.25-6.14,5.219l-13.323-0.123
	c-1.653,4.754-3.407,9.44-4.958,14.261c-1.243,3.862-3.41,4.6-6.58,3.958c-2.698-0.546-5.417-1.242-8.07-2.056
	c-2.144-0.658-2.995-1.324-1.901-4.832c1.804-5.788,3.923-11.617,6.322-17.426l-2.107-0.721c-2.896,3.291-5.775,6.646-8.688,9.922
	c-2.313,2.602-5.497,3.247-9.458,1.953c-2.611-0.853-5.249-1.692-7.454-3.187c-2.213-1.501-1.529-3.275,0-5.038
	c2.811-3.238,5.62-6.477,8.431-9.715c3.118-2.964,0.592-3.547-3.238-1.491c-5.373,2.885-10.105,6.103-13.673,10.076
	c-1.896,2.11-4.106,3.61-9.047,2.158c-2.552-0.75-4.648-1.288-7.042-2.364c-3.059-1.376-1.926-4.432-0.103-6.528
	C23.605,661.802,29.69,657.344,37.241,654.013L37.241,654.013z M60.39,655.328c-1.461,1.714-0.731,5.495,3.329,3.424
	c2.076-1.06,3.635-0.46,4.85,1.141c2.749,3.618,5.559,1.262,4.232-2.758c-0.563-1.707,0.088-3.138,0.999-4.09
	c2.608-2.726,2.284-7.01-2.854-4.422c-1.702,0.856-3.575,0.299-5.088-1.617c-1.989-2.518-4.803-0.553-3.737,2.844
	C62.781,651.946,61.967,653.477,60.39,655.328z"/>
<path fill="#DC9329" d="M133.345,656.896h-8.67l-5.335-27.857h8.619l1.795,13.954l1.796-13.954h8.259l1.693,13.954l1.898-13.954
	h8.67l-5.746,27.857h-8.567l-2.155-13.903L133.345,656.896L133.345,656.896z M163.605,656.896h-8.927v-27.857h8.927V656.896
	L163.605,656.896z M163.605,626.832h-8.927v-4.155h8.927V626.832L163.605,626.832z M177.251,656.896h-8.926v-27.857h8.926v0.924
	c1.608-0.616,3.301-0.924,5.079-0.924c4.446,0,6.669,1.223,6.669,3.677v24.181h-8.926v-23.496c0-0.753-0.444-1.129-1.333-1.129
	c-0.992,0-1.488,0.394-1.488,1.18V656.896L177.251,656.896z M206.04,653.817v3.078l-3.847,0.051c-3.216,0-5.37-0.358-6.465-1.077
	c-1.094-0.718-1.642-2.12-1.642-4.206v-19.342h-2.052v-3.181h2.052v-6.464h8.772v6.464h3.181v3.181h-3.181l0.154,20.47
	c0.034,0.513,0.308,0.838,0.82,0.975c0.172,0.034,0.65,0.052,1.438,0.052H206.04L206.04,653.817z M220.602,646.687h8.927v5.592
	c0,1.915-0.649,3.206-1.949,3.873s-3.813,1.001-7.541,1.001c-4.618,0-7.61-0.291-8.979-0.873c-1.368-0.581-2.052-1.863-2.052-3.848
	v-18.827c0-1.881,0.675-3.147,2.026-3.797c1.351-0.649,3.941-0.975,7.772-0.975c4.548,0,7.473,0.308,8.772,0.924
	c1.3,0.615,1.949,2,1.949,4.155v10.106h-11.646v8.618c0,0.479,0.068,0.787,0.205,0.924c0.171,0.239,0.599,0.359,1.283,0.359
	c0.547,0,0.889-0.077,1.025-0.23c0.137-0.154,0.205-0.505,0.205-1.053V646.687L220.602,646.687z M217.883,633.245v7.644h2.719
	v-7.644c0-0.376-0.034-0.633-0.103-0.77c-0.171-0.273-0.581-0.41-1.231-0.41c-0.684,0-1.086,0.103-1.205,0.308
	C217.942,632.578,217.883,632.869,217.883,633.245L217.883,633.245z M242.405,656.896h-8.824v-27.857h8.465v0.872
	c1.505-0.684,3.096-1.026,4.771-1.026c4.344,0,6.516,1.386,6.516,4.156v7.438h-8.209v-6.874c0-0.924-0.428-1.386-1.282-1.386
	c-0.958,0-1.437,0.479-1.437,1.437V656.896L242.405,656.896z M264.628,656.896h-8.927v-27.857h8.927v1.18
	c1.744-0.889,3.625-1.334,5.644-1.334c2.086,0,3.898,0.445,5.438,1.334c1.71-0.786,3.592-1.18,5.644-1.18
	c2.428,0,4.139,0.368,5.13,1.104c0.992,0.727,1.488,2.018,1.488,3.855v22.898h-8.876v-23.343c0-0.855-0.461-1.282-1.385-1.282
	c-0.89,0-1.334,0.41-1.334,1.231v23.394h-8.927v-23.343c0-0.855-0.444-1.282-1.334-1.282c-0.991,0-1.487,0.427-1.487,1.282V656.896
	L264.628,656.896z M313.407,656.896h-8.926v-0.77c-1.505,0.684-3.164,1.026-4.977,1.026c-2.359,0-4.078-0.377-5.156-1.129
	c-1.077-0.753-1.615-1.967-1.615-3.643v-23.343h8.926v23.496c0,0.821,0.496,1.231,1.488,1.231c0.649,0,1.043-0.137,1.18-0.41
	c0.103-0.171,0.154-0.462,0.154-0.872v-23.445h8.926V656.896L313.407,656.896z M330.448,653.817v3.078l-3.847,0.051
	c-3.216,0-5.37-0.358-6.465-1.077c-1.094-0.718-1.642-2.12-1.642-4.206v-19.342h-2.052v-3.181h2.052v-6.464h8.772v6.464h3.181v3.181
	h-3.181l0.154,20.47c0.034,0.513,0.308,0.838,0.821,0.975c0.171,0.034,0.649,0.052,1.437,0.052H330.448L330.448,653.817z
	 M345.01,646.687h8.927v5.592c0,1.915-0.649,3.206-1.949,3.873s-3.813,1.001-7.541,1.001c-4.618,0-7.61-0.291-8.979-0.873
	c-1.368-0.581-2.052-1.863-2.052-3.848v-18.827c0-1.881,0.675-3.147,2.026-3.797c1.351-0.649,3.941-0.975,7.772-0.975
	c4.549,0,7.473,0.308,8.772,0.924c1.3,0.615,1.949,2,1.949,4.155v10.106h-11.646v8.618c0,0.479,0.068,0.787,0.205,0.924
	c0.171,0.239,0.599,0.359,1.283,0.359c0.547,0,0.889-0.077,1.025-0.23c0.137-0.154,0.205-0.505,0.205-1.053V646.687L345.01,646.687z
	 M342.291,633.245v7.644h2.719v-7.644c0-0.376-0.034-0.633-0.103-0.77c-0.171-0.273-0.581-0.41-1.23-0.41
	c-0.685,0-1.086,0.103-1.206,0.308C342.352,632.578,342.291,632.869,342.291,633.245z"/>
<path fill="#FFFFFF" d="M264.637,676.829h4.546v2.848c0,0.976-0.331,1.633-0.992,1.973c-0.662,0.34-1.942,0.51-3.841,0.51
	c-2.352,0-3.876-0.148-4.572-0.444s-1.045-0.949-1.045-1.96v-9.588c0-0.958,0.344-1.603,1.032-1.934
	c0.688-0.33,2.007-0.496,3.958-0.496c2.316,0,3.806,0.156,4.468,0.471c0.661,0.313,0.992,1.019,0.992,2.116v5.146h-5.931v4.39
	c0,0.243,0.035,0.4,0.104,0.47c0.088,0.122,0.305,0.183,0.653,0.183c0.279,0,0.453-0.039,0.522-0.117
	c0.07-0.078,0.104-0.257,0.104-0.535V676.829L264.637,676.829z M263.252,669.984v3.893h1.385v-3.893
	c0-0.191-0.018-0.322-0.052-0.392c-0.087-0.14-0.296-0.209-0.627-0.209c-0.349,0-0.554,0.052-0.614,0.156
	C263.282,669.645,263.252,669.793,263.252,669.984L263.252,669.984z M281.17,682.028h-4.546v-14.187h4.546v0.471
	c0.818-0.313,1.681-0.471,2.586-0.471c2.265,0,3.396,0.623,3.396,1.872v12.314h-4.546v-11.966c0-0.383-0.227-0.575-0.68-0.575
	c-0.505,0-0.757,0.201-0.757,0.602V682.028L281.17,682.028z M294.78,685.398v-1.619h4.363c0.731,0,1.171-0.04,1.319-0.118
	s0.222-0.3,0.222-0.666v-1.332c-0.87,0.348-1.715,0.522-2.534,0.522c-1.201,0-2.063-0.192-2.586-0.575s-0.784-1.01-0.784-1.881
	v-9.929c0-1.323,1.149-1.985,3.449-1.985c0.923,0,1.741,0.175,2.455,0.522v-0.522h4.546v15.149c0,0.905-0.326,1.541-0.979,1.898
	s-1.781,0.535-3.383,0.535H294.78L294.78,685.398z M299.953,680.487c0.384,0,0.61-0.087,0.68-0.262
	c0.035-0.069,0.052-0.191,0.052-0.365v-9.667c0-0.471-0.227-0.706-0.679-0.706c-0.471,0-0.706,0.235-0.706,0.706v9.667
	C299.3,680.278,299.518,680.487,299.953,680.487L299.953,680.487z M317.553,682.028h-4.546v-14.187h4.546V682.028L317.553,682.028z
	 M317.553,666.719h-4.546v-2.116h4.546V666.719L317.553,666.719z M329.88,682.028h-4.546v-14.187h4.546v0.471
	c0.818-0.313,1.681-0.471,2.586-0.471c2.265,0,3.396,0.623,3.396,1.872v12.314h-4.546v-11.966c0-0.383-0.227-0.575-0.679-0.575
	c-0.506,0-0.758,0.201-0.758,0.602V682.028L329.88,682.028z M349.391,676.829h4.546v2.848c0,0.976-0.331,1.633-0.992,1.973
	c-0.662,0.34-1.942,0.51-3.841,0.51c-2.352,0-3.876-0.148-4.572-0.444s-1.045-0.949-1.045-1.96v-9.588
	c0-0.958,0.344-1.603,1.031-1.934c0.688-0.33,2.008-0.496,3.959-0.496c2.316,0,3.806,0.156,4.468,0.471
	c0.661,0.313,0.992,1.019,0.992,2.116v5.146h-5.931v4.39c0,0.243,0.035,0.4,0.104,0.47c0.087,0.122,0.305,0.183,0.653,0.183
	c0.278,0,0.452-0.039,0.522-0.117c0.069-0.078,0.104-0.257,0.104-0.535V676.829L349.391,676.829z M348.006,669.984v3.893h1.385
	v-3.893c0-0.191-0.018-0.322-0.053-0.392c-0.087-0.14-0.296-0.209-0.627-0.209c-0.348,0-0.553,0.052-0.613,0.156
	C348.036,669.645,348.006,669.793,348.006,669.984z"/>
<g>
	<path fill="#FFFFFF" d="M21.081,710.959c-0.088,2.104-1.281,3.157-3.578,3.157c-1.178,0-2.105-0.43-2.783-1.292
		c-0.677-0.86-1.016-2.079-1.016-3.655c0-3.269,1.377-4.902,4.13-4.902c0.957,0,1.712,0.239,2.264,0.718
		c0.552,0.479,0.85,1.152,0.894,2.021h-1.789c-0.073-0.854-0.582-1.281-1.524-1.281c-1.501,0-2.252,1.082-2.252,3.247
		c0,2.43,0.707,3.645,2.12,3.645c1.031,0,1.59-0.553,1.679-1.656H21.081L21.081,710.959z M36.903,707.248h-1.657v-0.133
		c0-0.928-0.397-1.392-1.192-1.392c-0.766,0-1.388,0.347-1.866,1.038c-0.479,0.692-0.718,1.664-0.718,2.916v4.307h-1.634v-9.63
		h1.634v1.126c0.707-0.839,1.59-1.259,2.65-1.259c0.869,0,1.55,0.258,2.043,0.773s0.74,1.244,0.74,2.187V707.248L36.903,707.248z
		 M53.145,709.479h-6.67v0.11c0,0.942,0.247,1.679,0.74,2.209s1.16,0.795,1.999,0.795c0.824,0,1.325-0.235,1.502-0.707h1.965
		c-0.118,0.692-0.479,1.241-1.082,1.646c-0.604,0.405-1.392,0.607-2.363,0.607c-1.443,0-2.569-0.438-3.379-1.314
		c-0.81-0.875-1.214-2.102-1.214-3.677c0-1.531,0.401-2.738,1.204-3.622c0.802-0.884,1.896-1.325,3.28-1.325
		c1.281,0,2.271,0.445,2.97,1.336c0.7,0.891,1.049,2.183,1.049,3.876V709.479L53.145,709.479z M51.356,707.977
		c-0.162-1.531-0.95-2.297-2.363-2.297c-1.384,0-2.223,0.766-2.518,2.297H51.356L51.356,707.977z M68.485,713.984h-1.59v-1.237
		c-0.795,0.913-1.811,1.369-3.048,1.369c-1.03,0-1.855-0.279-2.474-0.835c-0.618-0.56-0.927-1.284-0.927-2.18
		c0-1.101,0.46-1.902,1.38-2.411c0.92-0.504,2.345-0.758,4.273-0.758c0.088,0,0.221,0,0.398,0c0.176,0,0.309,0,0.397,0v-0.066
		c0-1.442-0.81-2.164-2.429-2.164c-0.898,0-1.428,0.25-1.59,0.751h-1.811c0.177-1.517,1.325-2.275,3.445-2.275
		c1.399,0,2.411,0.302,3.037,0.902c0.626,0.6,0.938,1.55,0.938,2.853V713.984L68.485,713.984z M66.895,709.479
		c-0.707-0.029-1.067-0.044-1.082-0.044c-2.415,0-3.622,0.574-3.622,1.723c0,0.412,0.155,0.751,0.464,1.016
		c0.309,0.266,0.722,0.397,1.237,0.397c0.839,0,1.542-0.283,2.109-0.85C66.567,711.153,66.865,710.406,66.895,709.479
		L66.895,709.479z M84.086,713.498c-0.795,0.368-1.612,0.553-2.452,0.553c-1.06,0-1.826-0.391-2.297-1.171
		c-0.265-0.441-0.397-1.148-0.397-2.12v-4.793h-1.988v-1.546h2.121v-2.43l1.656-0.464v2.894h3.357v1.546h-3.49v4.329
		c0,0.766,0.11,1.325,0.331,1.679c0.221,0.354,0.611,0.53,1.171,0.53c0.515,0,1.178-0.214,1.988-0.641V713.498L84.086,713.498z
		 M100.612,709.479h-6.67v0.11c0,0.942,0.247,1.679,0.74,2.209s1.16,0.795,1.999,0.795c0.824,0,1.325-0.235,1.502-0.707h1.965
		c-0.117,0.692-0.479,1.241-1.082,1.646c-0.604,0.405-1.391,0.607-2.363,0.607c-1.443,0-2.569-0.438-3.379-1.314
		c-0.81-0.875-1.214-2.102-1.214-3.677c0-1.531,0.401-2.738,1.204-3.622c0.802-0.884,1.896-1.325,3.28-1.325
		c1.281,0,2.271,0.445,2.971,1.336c0.699,0.891,1.049,2.183,1.049,3.876V709.479L100.612,709.479z M98.822,707.977
		c-0.162-1.531-0.949-2.297-2.363-2.297c-1.384,0-2.223,0.766-2.518,2.297H98.822L98.822,707.977z M180.009,709.169
		c0,1.503-0.419,2.706-1.259,3.611c-0.839,0.906-1.936,1.358-3.291,1.358c-1.354,0-2.452-0.452-3.291-1.358
		c-0.839-0.905-1.259-2.108-1.259-3.611c0-1.501,0.423-2.709,1.27-3.622c0.847-0.912,1.94-1.369,3.28-1.369
		c1.355,0,2.452,0.453,3.291,1.358S180.009,707.653,180.009,709.169L180.009,709.169z M178.287,709.169
		c0-1.06-0.261-1.898-0.784-2.518c-0.522-0.618-1.204-0.928-2.043-0.928c-0.854,0-1.539,0.306-2.054,0.917
		c-0.516,0.611-0.773,1.454-0.773,2.528c0,1.075,0.258,1.918,0.773,2.529c0.515,0.611,1.2,0.917,2.054,0.917
		s1.539-0.306,2.054-0.917S178.287,710.244,178.287,709.169L178.287,709.169z M195.876,704.354l-1.215,9.63h-2.18l-1.196-4.252
		l-1.152,4.252h-2.187l-1.236-9.63h1.748l0.659,5.831c0.104,0.913,0.154,1.561,0.154,1.943l1.083-3.998h1.921l1.104,3.998
		c0.041-0.5,0.088-1.075,0.144-1.723l0.651-6.052H195.876L195.876,704.354z M211.326,713.984h-1.635v-4.749
		c0-1.236-0.125-2.105-0.375-2.605c-0.295-0.604-0.84-0.906-1.635-0.906c-1.178,0-2.062,0.479-2.65,1.436
		c-0.354,0.575-0.53,1.576-0.53,3.004v3.821h-1.634v-9.63h1.634v1.348c0.928-0.972,1.966-1.458,3.114-1.458
		c1.429,0,2.423,0.435,2.981,1.303c0.486,0.766,0.729,2.032,0.729,3.8V713.984z"/>
	<path fill="#DC9329" d="M117.251,704.354l-6.008,11.065c-0.382,0.707-0.725,1.174-1.027,1.402s-0.747,0.343-1.336,0.343h-0.883
		v-1.591h0.82c0.324,0,0.56-0.133,0.71-0.394l1.98-3.604l-4.263-7.223h1.933l3.24,5.661l3.022-5.661H117.251L117.251,704.354z
		 M132.543,709.169c0,1.503-0.419,2.706-1.259,3.611c-0.839,0.906-1.936,1.358-3.291,1.358c-1.354,0-2.452-0.452-3.291-1.358
		c-0.839-0.905-1.259-2.108-1.259-3.611c0-1.501,0.423-2.709,1.27-3.622c0.847-0.912,1.94-1.369,3.28-1.369
		c1.355,0,2.452,0.453,3.291,1.358S132.543,707.653,132.543,709.169L132.543,709.169z M130.82,709.169
		c0-1.06-0.262-1.898-0.784-2.518c-0.522-0.618-1.204-0.928-2.043-0.928c-0.854,0-1.539,0.306-2.054,0.917
		c-0.516,0.611-0.773,1.454-0.773,2.528c0,1.075,0.258,1.918,0.773,2.529c0.515,0.611,1.2,0.917,2.054,0.917
		s1.539-0.306,2.054-0.917C130.563,711.087,130.82,710.244,130.82,709.169L130.82,709.169z M148.056,713.984h-1.635v-1.348
		c-0.928,0.972-2.01,1.458-3.247,1.458c-1.34,0-2.319-0.486-2.938-1.458c-0.427-0.662-0.641-1.877-0.641-3.644v-4.639h1.635v4.727
		c0,1.252,0.125,2.128,0.375,2.628c0.31,0.604,0.884,0.906,1.723,0.906c1.119,0,1.973-0.479,2.562-1.436
		c0.353-0.574,0.53-1.576,0.53-3.004v-3.821h1.635V713.984L148.056,713.984z M163.48,707.248h-1.657v-0.133
		c0-0.928-0.397-1.392-1.192-1.392c-0.766,0-1.388,0.347-1.866,1.038c-0.479,0.692-0.718,1.664-0.718,2.916v4.307h-1.635v-9.63
		h1.635v1.126c0.707-0.839,1.59-1.259,2.65-1.259c0.869,0,1.55,0.258,2.043,0.773s0.74,1.244,0.74,2.187V707.248L163.48,707.248z
		 M226.706,713.984h-1.59v-1.237c-0.795,0.913-1.812,1.369-3.048,1.369c-1.03,0-1.855-0.279-2.474-0.835
		c-0.618-0.56-0.928-1.284-0.928-2.18c0-1.101,0.46-1.902,1.381-2.411c0.92-0.504,2.345-0.758,4.273-0.758c0.088,0,0.221,0,0.397,0
		s0.31,0,0.397,0v-0.066c0-1.442-0.81-2.164-2.43-2.164c-0.898,0-1.428,0.25-1.59,0.751h-1.812c0.177-1.517,1.325-2.275,3.445-2.275
		c1.399,0,2.411,0.302,3.037,0.902c0.626,0.6,0.938,1.55,0.938,2.853V713.984L226.706,713.984z M225.116,709.479
		c-0.707-0.029-1.067-0.044-1.082-0.044c-2.415,0-3.622,0.574-3.622,1.723c0,0.412,0.154,0.751,0.464,1.016
		c0.309,0.266,0.722,0.397,1.236,0.397c0.84,0,1.543-0.283,2.109-0.85C224.789,711.153,225.087,710.406,225.116,709.479
		L225.116,709.479z M242.926,713.984h-1.567v-1.281c-0.811,0.972-1.878,1.458-3.203,1.458c-1.266,0-2.268-0.445-3.004-1.337
		c-0.736-0.891-1.104-2.116-1.104-3.677c0-1.546,0.375-2.754,1.126-3.622c0.751-0.869,1.76-1.304,3.026-1.304
		c1.222,0,2.245,0.435,3.069,1.304v-5.478h1.656V713.984L242.926,713.984z M241.27,709.169c0-1.06-0.258-1.888-0.77-2.484
		c-0.515-0.597-1.196-0.895-2.046-0.895c-0.807,0-1.451,0.298-1.937,0.895c-0.482,0.597-0.726,1.41-0.726,2.44
		c0,1.104,0.236,1.955,0.703,2.552c0.471,0.596,1.123,0.894,1.959,0.894c0.85,0,1.531-0.302,2.046-0.905
		C241.012,711.062,241.27,710.229,241.27,709.169L241.27,709.169z M259.322,704.354l-3.512,9.63h-2.496l-3.511-9.63h1.781
		l2.945,8.261h0.15l2.941-8.261H259.322L259.322,704.354z M274.655,709.479h-6.67v0.11c0,0.942,0.246,1.679,0.739,2.209
		s1.16,0.795,1.999,0.795c0.824,0,1.325-0.235,1.502-0.707h1.966c-0.118,0.692-0.479,1.241-1.082,1.646
		c-0.604,0.405-1.392,0.607-2.363,0.607c-1.443,0-2.569-0.438-3.38-1.314c-0.81-0.875-1.214-2.102-1.214-3.677
		c0-1.531,0.4-2.738,1.203-3.622s1.896-1.325,3.28-1.325c1.28,0,2.271,0.445,2.97,1.336c0.7,0.891,1.05,2.183,1.05,3.876V709.479
		L274.655,709.479z M272.866,707.977c-0.162-1.531-0.95-2.297-2.363-2.297c-1.384,0-2.224,0.766-2.518,2.297H272.866
		L272.866,707.977z M290.437,713.984h-1.634v-4.749c0-1.236-0.126-2.105-0.376-2.605c-0.295-0.604-0.839-0.906-1.634-0.906
		c-1.179,0-2.062,0.479-2.65,1.436c-0.354,0.575-0.53,1.576-0.53,3.004v3.821h-1.635v-9.63h1.635v1.348
		c0.928-0.972,1.966-1.458,3.114-1.458c1.428,0,2.422,0.435,2.981,1.303c0.486,0.766,0.729,2.032,0.729,3.8V713.984L290.437,713.984
		z M305.597,713.498c-0.796,0.368-1.612,0.553-2.452,0.553c-1.06,0-1.826-0.391-2.297-1.171c-0.265-0.441-0.397-1.148-0.397-2.12
		v-4.793h-1.988v-1.546h2.121v-2.43l1.656-0.464v2.894h3.357v1.546h-3.49v4.329c0,0.766,0.11,1.325,0.331,1.679
		c0.222,0.354,0.611,0.53,1.171,0.53c0.516,0,1.178-0.214,1.988-0.641V713.498L305.597,713.498z M322.1,713.984h-1.635v-1.348
		c-0.928,0.972-2.01,1.458-3.246,1.458c-1.341,0-2.319-0.486-2.938-1.458c-0.427-0.662-0.64-1.877-0.64-3.644v-4.639h1.634v4.727
		c0,1.252,0.126,2.128,0.376,2.628c0.309,0.604,0.884,0.906,1.723,0.906c1.119,0,1.973-0.479,2.562-1.436
		c0.354-0.574,0.53-1.576,0.53-3.004v-3.821h1.635V713.984L322.1,713.984z M337.524,707.248h-1.657v-0.133
		c0-0.928-0.397-1.392-1.192-1.392c-0.766,0-1.388,0.347-1.866,1.038c-0.479,0.692-0.718,1.664-0.718,2.916v4.307h-1.635v-9.63
		h1.635v1.126c0.707-0.839,1.59-1.259,2.65-1.259c0.868,0,1.55,0.258,2.043,0.773s0.74,1.244,0.74,2.187V707.248L337.524,707.248z
		 M353.766,709.479h-6.67v0.11c0,0.942,0.247,1.679,0.74,2.209s1.159,0.795,1.998,0.795c0.825,0,1.325-0.235,1.503-0.707h1.965
		c-0.117,0.692-0.479,1.241-1.082,1.646c-0.604,0.405-1.392,0.607-2.363,0.607c-1.442,0-2.569-0.438-3.379-1.314
		c-0.811-0.875-1.215-2.102-1.215-3.677c0-1.531,0.401-2.738,1.203-3.622c0.803-0.884,1.896-1.325,3.28-1.325
		c1.281,0,2.271,0.445,2.971,1.336s1.049,2.183,1.049,3.876V709.479L353.766,709.479z M351.977,707.977
		c-0.162-1.531-0.949-2.297-2.363-2.297c-1.384,0-2.223,0.766-2.518,2.297H351.977z"/>
</g>
</svg>
