<?xml version="1.0" encoding="UTF-8" standalone="no"?>
<!-- Generator: Adobe Illustrator 13.0.1, SVG Export Plug-In . SVG Version: 6.00 Build 14948)  -->

<svg
   version="1.1"
   id="Layer_1"
   x="0px"
   y="0px"
   width="93.924675"
   height="86.884926"
   viewBox="0 0 93.924671 86.884923"
   xml:space="preserve"
   sodipodi:docname="wintermute.svg"
   inkscape:version="1.1.2 (b8e25be833, 2022-02-05)"
   xmlns:inkscape="http://www.inkscape.org/namespaces/inkscape"
   xmlns:sodipodi="http://sodipodi.sourceforge.net/DTD/sodipodi-0.dtd"
   xmlns="http://www.w3.org/2000/svg"
   xmlns:svg="http://www.w3.org/2000/svg"><defs
   id="defs45" /><sodipodi:namedview
   id="namedview43"
   pagecolor="#ffffff"
   bordercolor="#666666"
   borderopacity="1.0"
   inkscape:pageshadow="2"
   inkscape:pageopacity="0.0"
   inkscape:pagecheckerboard="0"
   showgrid="false"
   inkscape:zoom="1.1972286"
   inkscape:cx="417.21354"
   inkscape:cy="206.3098"
   inkscape:window-width="2560"
   inkscape:window-height="1377"
   inkscape:window-x="-8"
   inkscape:window-y="-8"
   inkscape:window-maximized="1"
   inkscape:current-layer="Layer_1" />


<path
   fill-rule="evenodd"
   fill="#4e287e"
   stroke="#4e287e"
   stroke-width="0.216"
   stroke-linejoin="round"
   stroke-miterlimit="22.9256"
   d="m 23.872118,43.939494 c -9.189,-3.393 -17.0509999,-8.416 -22.94099995,-16.388 -1.599,-2.163 -0.75,-4.396 1.51300005,-5.392 2.952,-1.299 5.548,-1.836 8.5919999,-2.512 3.13,-0.694 4.981,0.479 6.474,2.135 5.079,5.509 10.146,9.067 16.321,11.845 2.049,0.923 3.421,0.049 1.632,-1.927 -3.113,-3.44 -6.189,-7.166 -9.163,-10.798 -1.579,-1.928 -1.635,-3.617 0.669,-4.939 2.766,-1.592 5.728,-2.48 8.623,-3.139 3.036,-0.692 5.605,-0.047 7.408,1.881 3.141,3.365 6.024,6.99 8.998,10.505 0.753,-0.25 1.422,-0.501 2.178,-0.752 -2.321,-5.941 -4.361,-11.85 -6.156,-17.8699997 -0.711,-2.385 -0.699,-3.597 1.505,-4.292 2.577,-0.813 5.142,-1.365 7.791,-1.901 4.428,-0.901 6.131,0.407 6.93,2.676 1.823,5.178 3.428,10.1139997 5.06,15.2609997 5.491,-4.098 11.466,-7.788 18.127,-9.5959997 2.38,-0.644 6.962,-1.845 6.323,3.6239997 -0.228,1.96 -0.557,3.835 -1.043,5.834 -0.69,2.846 -1.057,4.221 -5.587,6.014 -6.697,2.654 -12.211,5.592 -17.004,9.763 -2.476,2.153 -0.71,2.846 1.104,2.209 4.135,-1.445 8.586,-2.874 13.383,-4.48 3.189,-1.07 4.771,-0.57 5.159,1.963 0.272,1.795 0.015,5.12 -0.245,6.999 -0.49,3.545 -2.439,5.672 -5.71,6.877 -3.478,1.282 -8.724,2.781 -13.384,4.358 v 2.026 c 6.686,-0.132 13.255,-0.431 19.461,-0.121 3.025,0.15 4.278,0.277 3.683,3.559 -0.355,1.971 -0.715,3.93 -1.165,5.895 -0.812,3.541 -2.649,5.252 -6.141,5.219 l -13.32,-0.123 c -1.653,4.754 -3.407,9.439 -4.959,14.26 -1.242,3.863 -3.411,4.6 -6.579,3.959 -2.699,-0.546 -5.418,-1.242 -8.069,-2.058 -2.145,-0.657 -2.997,-1.322 -1.902,-4.831 1.805,-5.787 3.921,-11.618 6.32,-17.426 l -2.106,-0.718 c -2.896,3.289 -5.775,6.646 -8.687,9.92 -2.314,2.603 -5.497,3.248 -9.458,1.952 -2.609,-0.849 -5.249,-1.69 -7.453,-3.187 -2.214,-1.501 -1.529,-3.274 0,-5.038 2.809,-3.236 5.62,-6.476 8.43,-9.713 3.118,-2.964 0.592,-3.547 -3.239,-1.491 -5.373,2.884 -10.105,6.102 -13.672,10.074 -1.898,2.112 -4.107,3.61 -9.05,2.16 -2.5519999,-0.75 -4.6469999,-1.288 -7.0419999,-2.363 -3.059,-1.376 -1.925,-4.431 -0.101,-6.529 4.8559999,-5.595 10.9409999,-10.054 18.4919999,-13.384 z m 23.15,1.316 c -1.46,1.713 -0.731,5.495 3.329,3.424 2.076,-1.062 3.635,-0.459 4.848,1.14 2.751,3.617 5.56,1.263 4.233,-2.757 -0.562,-1.708 0.086,-3.138 1,-4.091 2.609,-2.725 2.282,-7.009 -2.853,-4.42 -1.704,0.857 -3.576,0.296 -5.088,-1.619 -1.991,-2.518 -4.805,-0.552 -3.736,2.845 0.658,2.096 -0.155,3.627 -1.733,5.478 z"
   id="path6" />













</svg>
